<svg width="26" height="10" viewBox="0 0 26 10" xmlns="http://www.w3.org/2000/svg"><title>SMS</title><path d="M1.9 6.2H0c0 .5 0 1 .2 1.3.2.4.5.7.9 1l1.1.5a5.4 5.4 0 0 0 3 0c.4-.1.8-.3 1-.6.4-.2.6-.5.7-.9a2.6 2.6 0 0 0 0-2.2l-.8-.8-.8-.4-.7-.1a132.2 132.2 0 0 1-2.4-1l-.1-.3v-.5l.4-.3.4-.2H4c.2 0 .4.2.5.3.2 0 .3.2.4.4l.2.6H7c0-.5-.1-1-.3-1.3-.2-.3-.4-.6-.8-.8a2 2 0 0 0-1-.5L3.4.2c-.3 0-.7 0-1.1.2-.4 0-.7.2-1 .5-.3.2-.6.4-.8.8a2 2 0 0 0 0 2.1l.5.7.9.5.9.3a22.5 22.5 0 0 0 1.7.4l.6.4c.2.2.2.3.2.6l-.1.5-.4.3-.6.2H3.1l-.6-.3-.5-.5-.1-.7zM8.4.4V9H10V3l2.2 6h1.4l2.1-6v6h1.8V.4H15l-2 6-2-6H8.4zm12.2 5.8h-1.9c0 .5.1 1 .3 1.3l.8 1L21 9a5.4 5.4 0 0 0 3 0 2 2 0 0 0 1-.6c.3-.2.6-.5.7-.9a2.6 2.6 0 0 0 0-2.2l-.8-.8-.8-.4-.7-.1a132.2 132.2 0 0 1-2.5-1v-.8l.4-.3.4-.2h1.1c.2 0 .3.2.5.3.2 0 .3.2.4.4l.1.6h1.9c0-.5-.1-1-.3-1.3l-.8-.8c-.3-.3-.7-.4-1-.5L22.1.2c-.4 0-.7 0-1.1.2-.4 0-.8.2-1 .5-.4.2-.6.4-.8.8a2 2 0 0 0-.3 1.1c0 .4 0 .7.2 1l.6.7.8.5 1 .3a22.5 22.5 0 0 0 1.7.4l.6.4.2.6-.1.5c-.2.1-.3.3-.5.3l-.5.2h-1.3l-.6-.3-.4-.5-.1-.7z" fill="#FFF" fill-rule="evenodd"/></svg>