<?xml version="1.0" encoding="UTF-8" ?>
<!DOCTYPE svg PUBLIC "-//W3C//DTD SVG 1.1//EN" "http://www.w3.org/Graphics/SVG/1.1/DTD/svg11.dtd">
<svg width="613pt" height="234pt" viewBox="0 0 613 234" version="1.1" xmlns="http://www.w3.org/2000/svg">
<g id="#464646ff">
</g>
<g id="#28b294ff">
<path fill="#28b294" opacity="1.00" d=" M 45.29 83.02 C 73.55 67.16 101.68 51.07 129.98 35.29 C 158.26 51.12 186.41 67.19 214.68 83.04 C 214.64 106.81 214.78 130.57 214.61 154.33 C 188.38 169.23 162.07 183.99 135.83 198.86 C 133.91 199.91 132.07 201.15 130.02 201.94 C 128.35 201.39 126.86 200.42 125.34 199.57 C 98.69 184.45 71.94 169.50 45.32 154.31 C 45.24 130.55 45.31 106.78 45.29 83.02 M 124.75 57.80 C 103.86 69.79 82.68 81.32 61.93 93.53 C 78.94 103.04 95.81 112.83 112.94 122.14 C 118.24 116.27 123.19 110.08 128.38 104.10 C 118.65 98.42 108.78 93.00 98.99 87.45 C 105.26 83.80 111.42 79.97 117.72 76.39 C 144.31 91.50 171.01 106.45 197.74 121.32 C 197.83 111.96 197.78 102.60 197.77 93.24 C 177.14 81.52 156.46 69.89 135.82 58.19 C 133.90 57.15 132.12 55.69 129.94 55.25 C 128.02 55.64 126.43 56.86 124.75 57.80 M 129.59 131.75 C 138.99 136.95 148.38 142.17 157.65 147.60 C 151.81 151.04 146.23 154.90 140.41 158.37 C 139.36 159.17 138.19 158.29 137.23 157.83 C 113.41 144.26 89.47 130.90 65.64 117.35 C 64.44 116.81 63.11 115.43 61.84 116.60 C 61.74 124.76 61.80 132.92 61.81 141.08 C 61.57 142.84 62.72 144.22 64.26 144.86 C 86.17 157.20 108.03 169.65 129.97 181.94 C 152.64 169.05 175.49 156.49 197.99 143.32 C 180.44 133.34 162.88 123.37 145.22 113.59 C 139.84 119.49 134.91 125.79 129.59 131.75 Z" />
<path fill="#28b294" opacity="1.00" d=" M 333.48 85.74 C 342.46 83.69 352.54 84.29 360.41 89.46 C 368.07 93.95 372.58 102.31 374.23 110.82 C 375.77 120.46 374.59 130.87 369.12 139.15 C 361.43 150.86 345.22 155.12 332.28 150.68 C 323.31 147.99 315.99 140.63 313.11 131.75 C 309.72 122.66 310.30 112.41 313.71 103.42 C 317.01 94.84 324.63 88.15 333.48 85.74 M 336.27 93.47 C 330.91 94.92 326.02 98.40 323.35 103.33 C 320.06 108.97 320.07 115.67 320.24 121.99 C 320.17 128.45 323.12 134.87 328.00 139.08 C 337.20 147.42 353.47 146.01 360.77 135.84 C 365.59 129.72 365.98 121.50 365.41 114.05 C 364.98 107.79 362.15 101.66 357.39 97.53 C 351.57 92.84 343.42 91.41 336.27 93.47 Z" />
<path fill="#28b294" opacity="1.00" d=" M 246.82 86.80 C 248.99 84.50 252.88 86.14 255.74 85.84 C 255.76 94.87 255.73 103.90 255.76 112.93 C 267.33 112.94 278.89 112.96 290.46 112.92 C 290.52 103.85 290.35 94.78 290.55 85.72 C 293.44 85.72 296.33 85.71 299.23 85.73 C 299.30 107.65 299.27 129.57 299.25 151.49 C 296.33 151.51 293.41 151.51 290.49 151.50 C 290.41 141.23 290.51 130.96 290.44 120.69 C 278.88 120.66 267.33 120.66 255.78 120.69 C 255.69 130.97 255.81 141.24 255.72 151.52 C 252.72 151.51 249.74 151.51 246.75 151.43 C 246.78 129.89 246.62 108.33 246.82 86.80 Z" />
<path fill="#28b294" opacity="1.00" d=" M 381.58 85.74 C 399.21 85.70 416.84 85.72 434.47 85.73 C 434.53 88.42 434.53 91.12 434.52 93.82 C 427.16 93.84 419.79 93.79 412.43 93.84 C 412.38 113.07 412.45 132.30 412.39 151.52 C 409.45 151.55 406.51 151.55 403.58 151.52 C 403.54 132.32 403.56 113.12 403.57 93.91 C 396.22 93.70 388.88 93.89 381.53 93.80 C 381.52 91.11 381.52 88.43 381.58 85.74 Z" />
<path fill="#28b294" opacity="1.00" d=" M 443.25 151.53 C 443.31 129.58 443.05 107.63 443.39 85.68 C 451.57 85.76 459.76 85.70 467.95 85.71 C 473.07 85.79 478.47 86.35 482.86 89.22 C 489.76 93.38 492.31 103.30 488.17 110.24 C 486.70 113.14 483.92 114.97 481.18 116.52 C 484.55 118.00 488.17 119.54 490.34 122.69 C 496.77 130.85 493.20 144.47 483.89 148.85 C 478.26 151.25 472.03 151.53 466.00 151.54 C 458.42 151.53 450.84 151.55 443.25 151.53 M 452.02 93.83 C 451.99 100.35 451.97 106.86 452.03 113.37 C 457.99 113.34 463.96 113.49 469.92 113.28 C 473.63 113.15 477.73 112.15 480.06 109.03 C 483.40 104.30 481.33 96.19 475.37 94.74 C 467.70 93.12 459.79 94.06 452.02 93.83 M 452.01 121.15 C 451.99 128.64 451.98 136.13 452.02 143.62 C 458.68 143.58 465.34 143.70 471.99 143.56 C 476.21 143.55 480.85 141.90 482.90 137.95 C 486.16 132.33 483.51 123.82 476.88 122.24 C 468.77 120.21 460.28 121.51 452.01 121.15 Z" />
<path fill="#28b294" opacity="1.00" d=" M 507.25 151.53 C 507.38 129.58 507.00 107.62 507.44 85.68 C 510.21 86.22 514.16 84.47 516.17 86.83 C 516.39 108.36 516.21 129.90 516.25 151.43 C 513.25 151.53 510.25 151.56 507.25 151.53 Z" />
<path fill="#28b294" opacity="1.00" d=" M 526.69 85.74 C 544.29 85.70 561.89 85.72 579.50 85.73 C 579.55 88.42 579.56 91.12 579.56 93.82 C 572.20 93.83 564.85 93.81 557.49 93.82 C 557.45 113.05 557.51 132.27 557.46 151.49 C 554.54 151.51 551.62 151.51 548.70 151.49 C 548.66 132.27 548.72 113.06 548.68 93.84 C 541.33 93.78 533.99 93.86 526.65 93.80 C 526.64 91.11 526.64 88.42 526.69 85.74 Z" />
</g>
</svg>
