<svg width="212" height="236" viewBox="0 0 212 236" xmlns="http://www.w3.org/2000/svg"><title>Group 2</title><defs><linearGradient x1="50%" y1="0%" x2="50%" y2="98.4%" id="a"><stop stop-color="#2FBAFD" offset="0%"/><stop stop-color="#137DB0" offset="100%"/></linearGradient></defs><g fill="none" fill-rule="evenodd"><path d="M.8 135v1.1L10 132v-1.1l-9.2-4.2v1.3l7.7 3.4L.8 135zm16.4 1v-12.8H16c0 .5-.2 1-.4 1.2-.3.3-.5.6-.9.8l-1 .3-1.3.1v1.3h3.3v9.1h1.5zm6-6.3a32.2 32.2 0 0 0 .3 3.3c.2.5.4 1 .8 1.3.4.4.9.6 1.5.6a2 2 0 0 0 1.5-.6c.4-.3.6-.8.8-1.3.2-.5.3-1 .3-1.7a32.2 32.2 0 0 0 0-3.8l-.3-1a3 3 0 0 0-.4-1l-.8-.7-1-.2c-.5 0-.9 0-1.2.2l-.7.7a3 3 0 0 0-.5 1 8.4 8.4 0 0 0-.3 2.2v1zm-1.6 0a30.7 30.7 0 0 1 .2-2.9c0-.5.2-1 .4-1.4l.7-1.1c.3-.3.7-.6 1.2-.8.5-.2 1-.3 1.7-.3s1.2.1 1.7.3a3.4 3.4 0 0 1 2 2l.3 1.3.2 1.5a30.7 30.7 0 0 1-.2 4.4 7 7 0 0 1-.4 1.3l-.7 1.2c-.3.3-.7.5-1.2.7a4 4 0 0 1-1.7.3c-.6 0-1.2 0-1.7-.3a3.3 3.3 0 0 1-2-1.9 10 10 0 0 1-.6-2.8v-1.5zm11.6 0a32.2 32.2 0 0 0 .3 3.3c.2.5.4 1 .8 1.3.4.4.9.6 1.5.6a2 2 0 0 0 1.5-.6c.4-.3.7-.8.8-1.3.2-.5.3-1 .3-1.7a32.2 32.2 0 0 0 0-3.8l-.3-1a3 3 0 0 0-.4-1l-.8-.7-1-.2c-.5 0-.9 0-1.2.2l-.7.7a3 3 0 0 0-.5 1 8.4 8.4 0 0 0-.3 2.2v1zm-1.6 0a30.7 30.7 0 0 1 .2-2.9c0-.5.2-1 .4-1.4l.7-1.1c.4-.3.7-.6 1.2-.8.5-.2 1-.3 1.7-.3s1.2.1 1.7.3a3.4 3.4 0 0 1 2 2l.4 1.3.1 1.5a30.7 30.7 0 0 1-.1 4.4 7 7 0 0 1-.5 1.3c-.1.5-.4.8-.7 1.2-.3.3-.7.5-1.2.7a4 4 0 0 1-1.7.3c-.6 0-1.2 0-1.7-.3a3.3 3.3 0 0 1-1.9-1.9 10 10 0 0 1-.6-2.8v-1.5zm11.6 0a32.2 32.2 0 0 0 .3 3.3l.8 1.3c.4.4.9.6 1.5.6a2 2 0 0 0 1.5-.6c.4-.3.7-.8.8-1.3.2-.5.3-1 .3-1.7a32.2 32.2 0 0 0 0-3.8l-.3-1a3 3 0 0 0-.4-1l-.8-.7-1-.2c-.5 0-.9 0-1.2.2l-.7.7a3 3 0 0 0-.5 1 8.4 8.4 0 0 0-.3 2.2v1zm-1.6 0a30.7 30.7 0 0 1 .2-2.9c0-.5.2-1 .4-1.4l.7-1.1 1.2-.8c.5-.2 1-.3 1.7-.3s1.3.1 1.7.3a3.4 3.4 0 0 1 2 2l.4 1.3.1 1.5a30.7 30.7 0 0 1-.1 4.4 7 7 0 0 1-.5 1.3c-.1.5-.4.8-.7 1.2-.3.3-.7.5-1.2.7a4 4 0 0 1-1.7.3c-.6 0-1.2 0-1.7-.3a3.3 3.3 0 0 1-1.9-1.9 10 10 0 0 1-.6-2.8v-1.5zm15.6-6.6V136h9v-1.4h-7.3V130h6.7v-1.4H59v-4.1h7V123h-8.9zm14 1.5V136h1.7v-11.4H77V123H67v1.5h4.3zm7.4-1.5V136h1.7v-5.9H87v5.9h1.8v-12.9H87v5.6h-6.7V123h-1.7zM.8 163v1.1L10 160v-1.1l-9.2-4.2v1.3l7.7 3.4L.8 163zm17.8-8.4c0 .3 0 .6.2.9 0 .2.3.4.5.6l.7.4.9.1c.6 0 1-.2 1.5-.5.4-.4.6-.9.6-1.5 0-.7-.2-1.2-.6-1.5-.4-.3-1-.5-1.6-.5a3 3 0 0 0-.8.1 2 2 0 0 0-1.2 1l-.2.9zm-1.6-.1c0-.5 0-1 .3-1.4l.8-1 1.2-.6 1.4-.3a5 5 0 0 1 1.8.3c.5.2.9.4 1.2.8l.7 1 .2 1.2a3 3 0 0 1-1.8 2.6c.8.3 1.4.7 1.7 1.2.4.6.6 1.2.6 2 0 .7-.1 1.2-.3 1.7a3.6 3.6 0 0 1-2.3 2l-1.6.2a6 6 0 0 1-1.7-.2c-.6-.2-1-.4-1.4-.8a4 4 0 0 1-1-1.2 4 4 0 0 1 .3-3.6c.4-.6 1-1 1.7-1.3-.6-.2-1-.5-1.3-1-.4-.5-.5-1-.5-1.6zm1.1 5.9c0 .8.3 1.4.8 1.8.5.4 1.2.7 2 .7l1-.2.8-.5c.3-.3.5-.5.6-.8a2.5 2.5 0 0 0 0-2l-.6-.7a2.8 2.8 0 0 0-1.9-.7l-1 .1-.9.5a2.3 2.3 0 0 0-.8 1.8zm10-2.7a32.2 32.2 0 0 0 .4 3.3c.2.5.4 1 .8 1.3.4.4.9.6 1.5.6a2 2 0 0 0 1.5-.6c.4-.3.6-.8.8-1.3.2-.5.3-1 .3-1.7a32.2 32.2 0 0 0 0-3.8l-.3-1a3 3 0 0 0-.4-1l-.8-.7-1-.2c-.5 0-.9 0-1.2.2l-.7.7a3 3 0 0 0-.5 1 8.4 8.4 0 0 0-.3 2.2v1zm-1.5 0a30.7 30.7 0 0 1 .2-2.9c0-.5.2-1 .4-1.4l.7-1.1c.3-.3.7-.6 1.2-.8.5-.2 1-.3 1.7-.3s1.2.1 1.7.3a3.4 3.4 0 0 1 2 2c.1.4.3.8.3 1.3l.2 1.5a30.7 30.7 0 0 1-.2 4.4 7 7 0 0 1-.4 1.3c-.1.5-.4.8-.7 1.2-.3.3-.7.5-1.2.7a4 4 0 0 1-1.7.3c-.6 0-1.2 0-1.7-.3a3.3 3.3 0 0 1-1.9-1.9 10 10 0 0 1-.6-2.8v-1.5zm11.6 0a32.2 32.2 0 0 0 .3 3.3l.8 1.3c.4.4.9.6 1.5.6a2 2 0 0 0 1.5-.6c.4-.3.7-.8.8-1.3.2-.5.3-1 .3-1.7a32.2 32.2 0 0 0 0-3.8l-.3-1a3 3 0 0 0-.4-1l-.8-.7-1-.2c-.5 0-.9 0-1.2.2l-.7.7a3 3 0 0 0-.5 1 8.4 8.4 0 0 0-.3 2.2v1zm-1.6 0a30.7 30.7 0 0 1 .2-2.9c0-.5.2-1 .4-1.4l.7-1.1c.4-.3.7-.6 1.2-.8.5-.2 1-.3 1.7-.3s1.3.1 1.7.3a3.4 3.4 0 0 1 2 2l.4 1.3.1 1.5a30.7 30.7 0 0 1-.1 4.4 7 7 0 0 1-.5 1.3c-.1.5-.4.8-.7 1.2-.3.3-.7.5-1.2.7a4 4 0 0 1-1.7.3c-.6 0-1.2 0-1.7-.3a3.3 3.3 0 0 1-1.9-1.9 10 10 0 0 1-.6-2.8v-1.5zm15.6-6.6V164h9v-1.4h-7.3V158h6.7v-1.4H54v-4.1h7.2V151h-8.9zm14 1.5V164h1.7v-11.4H72V151H62v1.5h4.3zm7.4-1.5V164h1.7v-5.9H82v5.9h1.8v-12.9H82v5.6h-6.7V151h-1.7zM.8 191v1.1L10 188v-1.1l-9.2-4.2v1.3l7.7 3.4L.8 191zm23.5-10.2v-1.3H18l-1.2 6.6H18l1-.8c.4-.2.9-.4 1.4-.4.4 0 .8.1 1.1.3a2.6 2.6 0 0 1 1.5 1.5c.2.3.2.7.2 1.1 0 .5 0 1-.2 1.4-.1.3-.3.7-.6 1l-.8.5-1 .2c-.4 0-.8 0-1.1-.2a2.5 2.5 0 0 1-1.4-1.2l-.2-1h-1.6c0 .6.2 1.2.4 1.6.2.5.5.8.9 1.2.3.3.8.5 1.2.7l1.6.2a5 5 0 0 0 2-.4A4 4 0 0 0 25 188c0-.8-.1-1.4-.4-2l-.8-1.3c-.4-.4-.8-.7-1.4-.8-.5-.2-1-.3-1.6-.3a4 4 0 0 0-1.3.2c-.4.2-.8.4-1 .7l.6-3.7h5.2zm3.9 5a32.2 32.2 0 0 0 .3 3.2c.2.5.4 1 .8 1.3.4.4.9.6 1.5.6a2 2 0 0 0 1.5-.6c.4-.3.6-.8.8-1.3.2-.5.3-1 .3-1.7a32.2 32.2 0 0 0 0-3.8l-.3-1a3 3 0 0 0-.4-1l-.8-.7-1-.2c-.5 0-.9 0-1.2.2l-.7.7a3 3 0 0 0-.5 1 8.4 8.4 0 0 0-.3 2.2v1zm-1.6 0a30.7 30.7 0 0 1 .2-3c0-.5.2-1 .4-1.4l.7-1.1c.3-.3.7-.6 1.2-.8.5-.2 1-.3 1.7-.3s1.2.1 1.7.3a3.4 3.4 0 0 1 2 2c.1.4.3.8.3 1.3l.2 1.5a30.7 30.7 0 0 1-.2 4.4 7 7 0 0 1-.4 1.3c-.1.5-.4.8-.7 1.2-.3.3-.7.5-1.2.7a4 4 0 0 1-1.7.3c-.6 0-1.2 0-1.7-.3a3.3 3.3 0 0 1-1.9-1.9 10 10 0 0 1-.6-2.8v-1.5zm11.6 0a32.2 32.2 0 0 0 .3 3.2l.8 1.3c.4.4.9.6 1.5.6a2 2 0 0 0 1.5-.6c.4-.3.7-.8.8-1.3.2-.5.3-1 .3-1.7a32.2 32.2 0 0 0 0-3.8l-.3-1a3 3 0 0 0-.4-1l-.8-.7-1-.2c-.5 0-.9 0-1.2.2l-.7.7a3 3 0 0 0-.5 1 8.4 8.4 0 0 0-.3 2.2v1zm-1.6 0a30.7 30.7 0 0 1 .2-3c0-.5.2-1 .4-1.4l.7-1.1c.4-.3.7-.6 1.2-.8.5-.2 1-.3 1.7-.3s1.3.1 1.7.3a3.4 3.4 0 0 1 2 2l.4 1.3.1 1.5a30.7 30.7 0 0 1-.1 4.4 7 7 0 0 1-.5 1.3c-.1.5-.4.8-.7 1.2-.3.3-.7.5-1.2.7a4 4 0 0 1-1.7.3c-.6 0-1.2 0-1.7-.3a3.3 3.3 0 0 1-1.9-1.9 10 10 0 0 1-.6-2.8v-1.5zm15.6-6.7V192h9v-1.4h-7.3V186h6.7v-1.4H54v-4.1h7.2V179h-8.9zm14 1.5V192h1.7v-11.4H72V179H62v1.5h4.3zm7.4-1.5V192h1.7v-5.9H82v5.9h1.8v-12.9H82v5.6h-6.7V179h-1.7zM.8 219v1.1L10 216v-1.1l-9.2-4.2v1.3l7.7 3.4L.8 219zm15.8-7.2h1.5l.1-1.2.5-1c.2-.3.4-.5.8-.7a2 2 0 0 1 1.1-.3c.3 0 .7 0 1 .2a2.3 2.3 0 0 1 1.3 1.1l.2 1c0 .4 0 .8-.2 1.2a3 3 0 0 1-.6.9l-1 .9a35.6 35.6 0 0 1-2.8 1.7 5.2 5.2 0 0 0-1.9 2.4l-.4 2h8.4v-1.3H18c0-.4.2-.8.5-1.1l.8-.9 1.1-.7a124.1 124.1 0 0 0 2.4-1.5l1-1c.2-.3.5-.7.6-1.1a4.1 4.1 0 0 0 0-3.1 3.8 3.8 0 0 0-2.1-1.8 4.9 4.9 0 0 0-3.4 0 3.7 3.7 0 0 0-2.1 2.5c-.2.5-.2 1.1-.2 1.8zm11.6 2a32.2 32.2 0 0 0 .3 3.2c.2.5.4 1 .8 1.3.4.4.9.6 1.5.6a2 2 0 0 0 1.5-.6c.4-.3.6-.8.8-1.3.2-.5.3-1 .3-1.7a32.2 32.2 0 0 0 0-3.8l-.3-1a3 3 0 0 0-.4-1l-.8-.7-1-.2c-.5 0-.9 0-1.2.2l-.7.7a3 3 0 0 0-.5 1 8.4 8.4 0 0 0-.3 2.2v1zm-1.6 0a30.7 30.7 0 0 1 .2-3c0-.5.2-1 .4-1.4l.7-1.1c.3-.3.7-.6 1.2-.8.5-.2 1-.3 1.7-.3s1.2.1 1.7.3a3.4 3.4 0 0 1 2 2c.1.4.3.8.3 1.3l.2 1.5a30.7 30.7 0 0 1-.2 4.4 7 7 0 0 1-.4 1.3c-.1.5-.4.8-.7 1.2-.3.3-.7.5-1.2.7a4 4 0 0 1-1.7.3c-.6 0-1.2 0-1.7-.3a3.3 3.3 0 0 1-1.9-1.9 10 10 0 0 1-.6-2.8v-1.5zm11.6 0a32.2 32.2 0 0 0 .3 3.2l.8 1.3c.4.4.9.6 1.5.6a2 2 0 0 0 1.5-.6c.4-.3.7-.8.8-1.3.2-.5.3-1 .3-1.7a32.2 32.2 0 0 0 0-3.8l-.3-1a3 3 0 0 0-.4-1l-.8-.7-1-.2c-.5 0-.9 0-1.2.2l-.7.7a3 3 0 0 0-.5 1 8.4 8.4 0 0 0-.3 2.2v1zm-1.6 0a30.7 30.7 0 0 1 .2-3c0-.5.2-1 .4-1.4l.7-1.1c.4-.3.7-.6 1.2-.8.5-.2 1-.3 1.7-.3s1.3.1 1.7.3a3.4 3.4 0 0 1 2 2l.4 1.3.1 1.5a30.7 30.7 0 0 1-.1 4.4 7 7 0 0 1-.5 1.3c-.1.5-.4.8-.7 1.2-.3.3-.7.5-1.2.7a4 4 0 0 1-1.7.3c-.6 0-1.2 0-1.7-.3a3.3 3.3 0 0 1-1.9-1.9 10 10 0 0 1-.6-2.8v-1.5zm15.6-6.7V220h9v-1.4h-7.3V214h6.7v-1.4H54v-4.1h7.2V207h-8.9zm14 1.5V220h1.7v-11.4H72V207H62v1.5h4.3zm7.4-1.5V220h1.7v-5.9H82v5.9h1.8v-12.9H82v5.6h-6.7V207h-1.7zM8.8 85h1.7c0-.8-.2-1.4-.4-2l-1-1.2c-.5-.3-1-.6-1.5-.7A6.9 6.9 0 0 0 4 81a3 3 0 0 0-1.5.7c-.4.3-.8.6-1 1.1a3 3 0 0 0-.4 1.7c0 .6 0 1 .3 1.5.2.4.6.7 1 1l1.3.5a20.4 20.4 0 0 0 3 .7l1.3.5c.4.1.7.4 1 .6.2.3.3.7.3 1.1 0 .5-.1.9-.3 1.2-.2.3-.4.5-.8.7l-1 .4a6.4 6.4 0 0 1-2.6-.1L3.4 92a2 2 0 0 1-.8-1c-.2-.3-.3-.8-.3-1.3H.7c0 .8.1 1.4.4 2 .3.6.7 1 1.1 1.4.5.4 1 .6 1.7.8a7.5 7.5 0 0 0 3.8 0 3.5 3.5 0 0 0 2.8-1.8c.3-.5.5-1 .5-1.7s-.1-1.2-.4-1.6c-.2-.4-.5-.8-.9-1a5 5 0 0 0-1.3-.7 18 18 0 0 0-3-.8c-.5 0-1-.2-1.3-.4a2 2 0 0 1-1-.6c-.2-.2-.3-.5-.3-1 0-.3 0-.7.2-1l.7-.7.9-.3 1-.1c1 0 1.7.2 2.2.6.6.4 1 1 1 2zm11.7 9v-9.3H19V90c0 .4 0 .8-.2 1.1l-.5 1-.8.6-1.3.2c-.6 0-1-.2-1.3-.5-.4-.4-.6-.8-.6-1.4v-6.3h-1.5v6.1c0 .5 0 1 .2 1.4 0 .4.2.8.5 1 .3.4.6.6 1 .8l1.5.2c.7 0 1.3-.1 1.8-.4.5-.3 1-.7 1.2-1.3V94h1.5zm2.3-9.3V94h1.6v-6.5a2.6 2.6 0 0 1 1.3-1.4 2 2 0 0 1 1.1-.3c.4 0 .7 0 .9.2.2 0 .4.2.5.4.2.2.2.4.3.7V94h1.6v-5.8c0-.7.2-1.3.7-1.7.4-.5 1-.7 1.7-.7.4 0 .7 0 1 .2l.5.4.3.7V94H36v-6.8c0-.5-.1-1-.3-1.3-.1-.3-.3-.6-.6-.8l-1-.5-1.2-.1a3.2 3.2 0 0 0-3 1.6 2 2 0 0 0-1-1.3c-.4-.2-1-.3-1.5-.3-1.3 0-2.3.5-3 1.6v-1.4h-1.5zm15.4 0V94h1.5v-5.8l.1-.7a2.6 2.6 0 0 1 1.2-1.4c.4-.2.7-.3 1.2-.3.3 0 .6 0 .8.2.3 0 .4.2.6.4l.3.7V94h1.6v-5.8c0-.7.2-1.3.6-1.7.4-.5 1-.7 1.8-.7.4 0 .7 0 1 .2l.5.4.2.7.1.8V94h1.5v-6.8c0-.5 0-1-.2-1.3l-.6-.8-1-.5-1.3-.1a3.2 3.2 0 0 0-3 1.6 2 2 0 0 0-.9-1.3c-.4-.2-1-.3-1.5-.3-1.3 0-2.3.5-3 1.6v-1.4h-1.5zM4 6.2h3.3l.8-.4c.2 0 .4-.3.5-.5.2-.3.2-.6.2-1s0-.8-.2-1a1 1 0 0 0-.5-.6l-.8-.3a6 6 0 0 0-1 0H4.2v3.8zM1.3.2H7c.8 0 1.5 0 2 .3.7.2 1.1.5 1.5 1 .3.3.6.7.7 1.2a4.9 4.9 0 0 1 0 3A3.5 3.5 0 0 1 9.1 8c-.6.3-1.3.4-2 .4H4V13H1.2V.1zM21.7 13V3.7h-2.5v4.9c0 1-.2 1.6-.5 2-.3.4-.8.6-1.5.6-.6 0-1-.2-1.3-.5a4 4 0 0 1-.4-1.8V3.7H13V11c.1.5.3.9.6 1.2.2.3.6.6 1 .8a4.5 4.5 0 0 0 3.3-.1c.5-.3.9-.7 1.2-1.2V13h2.5zm2-9.3V13h2.5V8.8l.1-1.2.5-1 .7-.5 1.2-.3a4.6 4.6 0 0 1 1 .1V3.5a2 2 0 0 0-.6 0 3 3 0 0 0-1.8.5 3.2 3.2 0 0 0-1.2 1.4V3.7h-2.4zm13 3.3h2.5a3 3 0 0 0-.5-1.6 2 2 0 0 0-1-1 2 2 0 0 0-1.3-.7 5.8 5.8 0 0 0-3.6.1 4.2 4.2 0 0 0-2.4 2.7 6.2 6.2 0 0 0 0 3.9c.2.6.5 1 1 1.5.3.4.8.7 1.4 1a5 5 0 0 0 2 .3c1.2 0 2.2-.3 3-1 .8-.6 1.3-1.5 1.4-2.8h-2.4c-.1.6-.3 1-.7 1.4-.3.4-.8.5-1.4.5-.4 0-.7 0-1-.2a2 2 0 0 1-.6-.7l-.4-1a5 5 0 0 1 0-2c0-.4.2-.7.4-1l.6-.8 1-.2c1.2 0 1.8.5 2 1.6zm4-6.9V13h2.5V8.1c0-1 .2-1.6.5-2 .3-.4.8-.6 1.5-.6.6 0 1 .1 1.3.5.2.4.3 1 .3 1.7V13h2.6V7.3c0-.6 0-1.1-.2-1.6a3 3 0 0 0-.5-1.2c-.2-.3-.6-.6-1-.8-.5-.2-1-.3-1.7-.3-.5 0-1 .2-1.5.4A3 3 0 0 0 43.3 5V0h-2.6zm10.5 6.5c0-.6.2-1.1.5-1.5a3 3 0 0 1 1-1l1.4-.5a7.8 7.8 0 0 1 3 0l1.2.3c.4.2.8.5 1 .8.3.4.4.8.4 1.4v6l.3.9h-2.6a3.7 3.7 0 0 1-.2-.9c-.4.4-.8.7-1.4.9a5.8 5.8 0 0 1-3 0c-.3 0-.7-.2-1-.4-.2-.3-.5-.5-.6-.9a3 3 0 0 1-.3-1.2c0-.6.1-1 .3-1.3.2-.4.4-.7.7-.9l1-.4a10.8 10.8 0 0 1 2.3-.4l1-.2c.3 0 .5-.1.7-.3.2-.1.2-.3.2-.6l-.1-.6a1 1 0 0 0-.4-.4l-.5-.2h-.6a2 2 0 0 0-1.2.3c-.3.2-.5.6-.5 1h-2.6zm6 1.8l-.5.3-.5.1a10.7 10.7 0 0 0-1.8.3l-.4.3c-.2 0-.3.2-.4.4l-.1.6.1.5.4.4.5.2h.6c.5 0 .9 0 1.1-.2l.6-.6c.2-.2.3-.5.3-.7V8.4zm6.4 1.6h-2.4c0 .6.2 1.1.4 1.5.3.4.6.8 1 1 .4.3.9.5 1.4.6a7.7 7.7 0 0 0 3.1 0 4 4 0 0 0 1.4-.5 3 3 0 0 0 1-1c.2-.5.3-1 .3-1.6 0-.4 0-.8-.2-1-.2-.4-.4-.6-.7-.8l-1-.5a10.8 10.8 0 0 0-2-.5l-1-.3a2 2 0 0 1-.7-.3.7.7 0 0 1-.2-.6l.1-.4c.1-.2.2-.2.4-.3l.4-.1h.5c.5 0 .9 0 1.2.2.3.2.5.5.6 1h2.4c0-.6-.2-1-.5-1.4a3 3 0 0 0-.9-1L67 3.7a7.4 7.4 0 0 0-3 0 4 4 0 0 0-1.3.4l-1 1c-.1.3-.3.8-.3 1.4a2 2 0 0 0 1 1.8c.2.2.5.3.9.4l1 .3 2.2.6c.5.2.8.5.8.9 0 .2 0 .4-.2.5 0 .2-.2.3-.4.4a2 2 0 0 1-.5.2 2.7 2.7 0 0 1-1.3 0l-.6-.3-.5-.5-.2-.7zm14-2.7A3 3 0 0 0 77 6c-.3-.4-.8-.5-1.4-.5-.4 0-.8 0-1 .2a2 2 0 0 0-1 1.1l-.2.6h4.2zM73.4 9c0 .8.3 1.4.7 1.8.4.3 1 .5 1.6.5.5 0 1-.1 1.4-.4.3-.2.6-.5.6-.8H80c-.4 1.1-1 2-1.7 2.4-.7.5-1.6.7-2.7.7-.7 0-1.4 0-2-.3a4.1 4.1 0 0 1-2.4-2.6 5.7 5.7 0 0 1 0-3.9 4.6 4.6 0 0 1 4.4-3c.8 0 1.5.2 2.1.5.6.3 1 .7 1.5 1.2.3.6.6 1.1.8 1.8l.2 2h-6.8zm13.2-2.4c0-.6.1-1.1.4-1.5a3 3 0 0 1 1-1l1.4-.5a7.8 7.8 0 0 1 3 0c.4 0 .9.1 1.3.3l1 .8c.2.4.3.8.3 1.4v6l.3.9h-2.5a3.7 3.7 0 0 1-.2-.9c-.4.4-1 .7-1.5.9a5.8 5.8 0 0 1-2.9 0c-.4 0-.7-.2-1-.4l-.7-.9a3 3 0 0 1-.2-1.2c0-.6 0-1 .3-1.3.1-.4.4-.7.7-.9l1-.4a10.8 10.8 0 0 1 2.3-.4l1-.2c.2 0 .5-.1.6-.3.2-.1.3-.3.3-.6s0-.5-.2-.6a1 1 0 0 0-.3-.4l-.6-.2h-.6a2 2 0 0 0-1.2.3c-.3.2-.4.6-.5 1h-2.5zm5.9 1.8l-.4.3-.6.1a10.7 10.7 0 0 0-1.8.3l-.4.3c-.1 0-.3.2-.3.4l-.2.6c0 .2 0 .4.2.5 0 .2.2.3.3.4l.5.2h.6c.5 0 .9 0 1.2-.2l.6-.6.2-.7V8.4zM97 3.7V13h2.5V7.6l.2-1.1.5-.7.6-.3h.5c.4 0 .7 0 .9.2l.4.5.2.8v6h2.6V7c0-.3.2-.6.3-.8l.5-.5c.2-.2.5-.2.9-.2l.8.1.5.5.2.7V13h2.6V6.8c0-.6 0-1.1-.3-1.6-.1-.4-.4-.7-.7-1a2 2 0 0 0-1-.6 5 5 0 0 0-1.4-.2 3 3 0 0 0-1.7.5 4 4 0 0 0-1.1 1c-.3-.5-.6-.9-1.1-1.1a3.7 3.7 0 0 0-3.3 0L99.5 5V3.7H97zm18.5 4.7v1l.5 1c.1.3.4.5.6.7l1.1.2c.5 0 .8 0 1.1-.2l.7-.7.4-1a5.5 5.5 0 0 0 0-2.1c0-.4-.2-.7-.4-1a2 2 0 0 0-.7-.7l-1-.2a2 2 0 0 0-1.2.2 2 2 0 0 0-.6.7l-.4 1-.1 1zm-2.6 0c0-.8.1-1.5.4-2a4.4 4.4 0 0 1 2.4-2.6 5.4 5.4 0 0 1 4 0 4.3 4.3 0 0 1 2.5 2.5 5.6 5.6 0 0 1 0 4 3 3 0 0 1-1 1.6 4 4 0 0 1-1.5 1 6 6 0 0 1-2 .3c-.7 0-1.4 0-2-.3a4.3 4.3 0 0 1-2.4-2.5c-.3-.6-.4-1.3-.4-2zm20 4.6V3.7h-2.5v4.9c0 1-.2 1.6-.5 2-.3.4-.8.6-1.5.6-.6 0-1-.2-1.3-.5-.2-.4-.3-1-.3-1.8V3.7h-2.6v5.7c0 .6 0 1.1.2 1.6 0 .5.2.9.5 1.2.2.3.6.6 1 .8a4.5 4.5 0 0 0 3.3-.1c.5-.3 1-.7 1.3-1.2V13h2.4zm2-9.3V13h2.5V8.1c0-1 .2-1.6.5-2 .3-.4.8-.6 1.5-.6.6 0 1 .1 1.3.5.2.4.4 1 .4 1.7V13h2.5V7.3l-.1-1.6a3 3 0 0 0-.6-1.2c-.2-.3-.6-.6-1-.8a4.3 4.3 0 0 0-3.3.1 3 3 0 0 0-1.2 1.2V3.7H135zm13.9 0V.9h-2.6v2.8h-1.5v1.7h1.5v5.5c0 .5.1.8.3 1.1.1.3.3.5.6.7.3.2.6.3 1 .3a7.5 7.5 0 0 0 1.8 0h.8v-2a3.6 3.6 0 0 1-.8 0l-.9-.1-.2-.9V5.4h1.9V3.7h-1.9zm15 4.7l-.2-1.2a3 3 0 0 0-.4-1 1.9 1.9 0 0 0-1.7-.9 1.9 1.9 0 0 0-1.6 1 3 3 0 0 0-.4 1 5 5 0 0 0 0 2.2c0 .3.2.6.4 1l.7.6 1 .2a1.9 1.9 0 0 0 1.6-.9l.4-1 .1-1zM157 0h2.6v4.7c.3-.5.7-.8 1.3-1 .5-.2 1-.4 1.6-.4a3.5 3.5 0 0 1 2.6 1.2c.4.4.7 1 1 1.5.2.7.3 1.4.3 2.2 0 .9-.1 1.6-.4 2.2-.2.7-.5 1.2-.9 1.6a3.5 3.5 0 0 1-2.6 1.1 5 5 0 0 1-1.8-.3 2 2 0 0 1-1.2-1V13H157V.1zm13.3 8.3v1l.4 1 .7.7 1.1.2c.4 0 .8 0 1.1-.2l.7-.7.4-1a5.5 5.5 0 0 0 0-2.1l-.4-1a2 2 0 0 0-.7-.7l-1-.2a2 2 0 0 0-1.2.2 2 2 0 0 0-.7.7c-.1.3-.3.6-.3 1l-.1 1zm-2.6 0c0-.8.1-1.5.3-2a4.4 4.4 0 0 1 2.5-2.6 5.4 5.4 0 0 1 4 0 4.3 4.3 0 0 1 2.5 2.5c.2.6.3 1.3.3 2 0 .8 0 1.5-.3 2a4.2 4.2 0 0 1-2.5 2.5c-.6.3-1.3.4-2 .4s-1.4 0-2-.3a4.3 4.3 0 0 1-2.5-2.5c-.2-.6-.3-1.3-.3-2zM179 3.7V13h2.5V8.1c0-1 .2-1.6.5-2 .3-.4.8-.6 1.5-.6.6 0 1 .1 1.3.5.2.4.4 1 .4 1.7V13h2.5V7.3l-.1-1.6a3 3 0 0 0-.6-1.2c-.2-.3-.6-.6-1-.8a4.3 4.3 0 0 0-3.3.1 3 3 0 0 0-1.2 1.2V3.7H179zm19.4 9.3V3.7h-2.6v4.9c0 1-.1 1.6-.4 2-.3.4-.8.6-1.5.6s-1-.2-1.3-.5c-.3-.4-.4-1-.4-1.8V3.7h-2.5v5.7l.1 1.6.5 1.2 1 .8a4.5 4.5 0 0 0 3.4-.1c.5-.3.9-.7 1.2-1.2V13h2.5zm4-3h-2.5c0 .6.2 1.1.4 1.5.3.4.6.8 1 1 .4.3.9.5 1.4.6a7.7 7.7 0 0 0 3.1 0 4 4 0 0 0 1.4-.5 3 3 0 0 0 1-1c.2-.5.3-1 .3-1.6 0-.4 0-.8-.2-1-.2-.4-.4-.6-.7-.8l-1-.5a10.8 10.8 0 0 0-2.1-.5l-1-.3a2 2 0 0 1-.6-.3.7.7 0 0 1-.2-.6l.1-.4c.1-.2.2-.2.4-.3l.4-.1h.5c.4 0 .8 0 1.2.2.3.2.5.5.5 1h2.5c0-.6-.2-1-.5-1.4a3 3 0 0 0-1-1l-1.2-.4a7.4 7.4 0 0 0-3 0 4 4 0 0 0-1.2.4l-1 1c-.2.3-.3.8-.3 1.4a2 2 0 0 0 1 1.8c.2.2.5.3.9.4l1 .3 2.2.6c.5.2.8.5.8.9l-.2.5-.4.4a2 2 0 0 1-.6.2 2.7 2.7 0 0 1-1.2 0l-.7-.3-.4-.5-.2-.7z" fill="#000"/><rect fill="url(#a)" fill-rule="nonzero" x="112" y="68" width="100" height="168" rx="17"/><path d="M144.4 130.5v-3.6h-2v3.6H139v2h3.5v3.5h2v-3.6h3.6v-2h-3.6zm11.5 5.5v-12.6h-2l-.5 1.2c-.3.3-.5.6-.9.8l-1 .4a6 6 0 0 1-1.4.1v2h3.2v8.1h2.6zm5.8-6.4a28.4 28.4 0 0 0 .3 2.8c.1.5.3 1 .6 1.2.3.4.7.5 1.2.5s1-.1 1.2-.5c.3-.3.5-.7.6-1.2l.2-1.4a28.4 28.4 0 0 0 0-3l-.2-1a3 3 0 0 0-.3-.9 2 2 0 0 0-.6-.6c-.3-.2-.6-.2-1-.2-.3 0-.5 0-.8.2l-.6.6-.3.9a6.6 6.6 0 0 0-.2 1.9v.7zm-2.5 0c0-1.2.1-2.2.4-3 .2-.9.5-1.5 1-2 .4-.6.9-1 1.4-1.1.6-.2 1.2-.4 1.8-.4a5 5 0 0 1 1.8.4c.5.2 1 .5 1.5 1l1 2c.2.9.3 2 .3 3.1 0 1.3 0 2.4-.3 3.2-.3.9-.6 1.5-1 2-.5.5-1 .9-1.5 1.1a5 5 0 0 1-3.6 0c-.5-.2-1-.6-1.4-1-.5-.6-.8-1.2-1-2-.3-1-.4-2-.4-3.3zm22 3.1l.1.7.1.7.4.6.6.2c.3 0 .5 0 .7-.2l.4-.6.1-.7a9.1 9.1 0 0 0 0-1.3l-.1-.7-.4-.6a.8.8 0 0 0-.6-.2 1 1 0 0 0-.7.2l-.3.5-.2.7v.7zm-1.7 0l.1-1.4c.2-.4.3-.7.6-1 .2-.4.6-.6 1-.8.3-.2.8-.3 1.3-.3.6 0 1 .1 1.4.3.4.2.7.4 1 .8l.4 1a6.4 6.4 0 0 1 0 2.8 2 2 0 0 1-.6 1.1c-.2.4-.5.6-1 .8l-1.3.2c-.5 0-1 0-1.4-.2l-.9-.8a3 3 0 0 1-.5-1.1 6 6 0 0 1-.1-1.4zm1.3-9.7h1.6l-7.4 13.4h-1.6l7.4-13.4zm-8.8 3.7v.7l.1.7.4.5.7.2c.2 0 .4 0 .6-.2l.4-.5.1-.7a8.4 8.4 0 0 0 0-1.3l-.1-.7c0-.3-.2-.5-.4-.7a.8.8 0 0 0-.6-.2 1 1 0 0 0-.6.2l-.4.6-.2.7v.7zm-1.8 0l.1-1.4.6-1.1 1-.8c.3-.2.8-.3 1.3-.3.6 0 1 .1 1.4.3l1 .8.4 1.2a6.6 6.6 0 0 1 0 2.7 3 3 0 0 1-.6 1.1c-.2.3-.5.5-.9.7-.4.2-.8.3-1.4.3-.5 0-1-.1-1.4-.3l-.9-.7-.5-1.1-.1-1.4zm-20.8 31.8v-3.6h-2v3.6H144v2h3.5v3.5h2v-3.6h3.6v-2h-3.6zm7.5-3.7c0 .6.2 1 .6 1.3.4.2.8.4 1.3.4.6 0 1-.2 1.4-.4.3-.3.5-.7.5-1.3v-.5a1.5 1.5 0 0 0-1-1c-.2-.2-.5-.2-.9-.2h-.7a2 2 0 0 0-.6.4l-.5.6-.1.7zm-2.3-.2c0-.6.1-1 .4-1.5a2 2 0 0 1 1-1 2 2 0 0 1 1.3-.7 5.5 5.5 0 0 1 3.5.1c.5.2 1 .5 1.3.9a3.2 3.2 0 0 1 1 2.1 3 3 0 0 1-.5 1.7 3 3 0 0 1-1.4 1c.8.2 1.3.5 1.7 1 .5.6.7 1.3.7 2a3.6 3.6 0 0 1-1.5 3c-.5.4-1 .6-1.5.8-.6.2-1.2.2-1.8.2a7 7 0 0 1-1.7-.2c-.6-.1-1.1-.4-1.6-.7a3 3 0 0 1-1-1.2c-.3-.5-.4-1.1-.4-1.8 0-.8.2-1.5.6-2a3 3 0 0 1 1.7-1v-.1c-.6-.2-1-.5-1.4-1-.3-.4-.4-1-.4-1.6zm2 5.6a2.1 2.1 0 0 0 .7 1.5l.7.5a2.5 2.5 0 0 0 1.7 0l.7-.5c.2-.1.3-.4.4-.6a2.3 2.3 0 0 0 0-1.7 2 2 0 0 0-1.1-1c-.3-.2-.6-.2-.9-.2-.6 0-1.1.2-1.5.5-.5.3-.7.8-.7 1.5zm19.7.5v.7l.1.7.4.6.6.2c.3 0 .5 0 .7-.2l.4-.6v-.7a9.1 9.1 0 0 0 0-1.3v-.7l-.4-.6a.8.8 0 0 0-.6-.2 1 1 0 0 0-.7.2c-.1.1-.3.3-.3.5l-.2.7v.7zm-1.9 0l.2-1.4c.1-.4.3-.7.6-1 .2-.4.6-.6 1-.8.3-.2.8-.3 1.3-.3.6 0 1 .1 1.4.3.4.2.7.4 1 .8l.4 1a6.4 6.4 0 0 1 0 2.8 2 2 0 0 1-.6 1.1c-.2.4-.5.6-1 .8l-1.3.2c-.5 0-1 0-1.4-.2-.4-.2-.7-.5-.9-.8a3 3 0 0 1-.5-1.1 6 6 0 0 1-.2-1.4zm1.4-9.7h1.6l-7.5 13.4h-1.5l7.4-13.4zm-8.8 3.7v.7l.1.7.4.5.6.2c.3 0 .5 0 .7-.2l.4-.5.1-.7a8.4 8.4 0 0 0 0-1.3l-.1-.7-.4-.7a.8.8 0 0 0-.6-.2 1 1 0 0 0-.7.2l-.3.6-.2.7v.7zm-1.8 0l.1-1.4c.2-.4.3-.8.6-1.1.2-.3.6-.6 1-.8.3-.2.8-.3 1.3-.3.6 0 1 .1 1.4.3l1 .8.4 1.2a6.6 6.6 0 0 1 0 2.7 3 3 0 0 1-.6 1.1c-.2.3-.5.5-.9.7-.4.2-.8.3-1.4.3-.5 0-1-.1-1.4-.3-.3-.2-.7-.4-.9-.7l-.5-1.1-.1-1.4zm-15.8 31.8v-3.6h-2v3.6H144v2h3.5v3.5h2v-3.6h3.6v-2h-3.6zm13.4-5v-2.1h-7l-1.3 7h2.3l.8-.8c.3-.2.7-.2 1.2-.2l.9.1a2 2 0 0 1 1 1.3 2.9 2.9 0 0 1 0 1.8c0 .3-.2.6-.4.8l-.6.5a2 2 0 0 1-1 .2 2 2 0 0 1-1.4-.5 2 2 0 0 1-.6-1.3H154c0 .6.2 1.2.4 1.7.3.5.6 1 1 1.2.5.4 1 .6 1.5.8.6.2 1.2.2 1.8.2a4.6 4.6 0 0 0 3.3-1.2 4.6 4.6 0 0 0 1.1-5 3.6 3.6 0 0 0-3.6-2.6c-.5 0-1 .1-1.4.3-.4.1-.7.4-1 .7h-.1l.5-2.9h5.2zm13.5 7.2v.7l.1.7.4.6.6.2c.3 0 .5 0 .7-.2l.4-.6v-.7a9.1 9.1 0 0 0 0-1.3v-.7l-.4-.6a.8.8 0 0 0-.6-.2 1 1 0 0 0-.7.2c-.1.1-.3.3-.3.5l-.2.7v.7zm-1.9 0l.2-1.4c.1-.4.3-.7.6-1 .2-.4.6-.6 1-.8.3-.2.8-.3 1.3-.3.6 0 1 .1 1.4.3.4.2.7.4 1 .8l.4 1a6.4 6.4 0 0 1 0 2.8 2 2 0 0 1-.6 1.1c-.2.4-.5.6-1 .8l-1.3.2c-.5 0-1 0-1.4-.2-.4-.2-.7-.5-.9-.8a3 3 0 0 1-.5-1.1 6 6 0 0 1-.2-1.4zm1.4-9.7h1.6l-7.5 13.4h-1.5l7.4-13.4zm-8.8 3.7v.7l.1.7.4.5.6.2c.3 0 .5 0 .7-.2l.4-.5.1-.7a8.4 8.4 0 0 0 0-1.3l-.1-.7-.4-.7a.8.8 0 0 0-.6-.2 1 1 0 0 0-.7.2l-.3.6-.2.7v.7zm-1.8 0l.1-1.4c.2-.4.3-.8.6-1.1.2-.3.6-.6 1-.8.3-.2.8-.3 1.3-.3.6 0 1 .1 1.4.3l1 .8.4 1.2a6.6 6.6 0 0 1 0 2.7 3 3 0 0 1-.6 1.1c-.2.3-.5.5-.9.7-.4.2-.8.3-1.4.3-.5 0-1-.1-1.4-.3-.3-.2-.7-.4-.9-.7l-.5-1.1-.1-1.4zm-15.8 31.8v-3.6h-2v3.6H144v2h3.5v3.5h2v-3.6h3.6v-2h-3.6zm5-2.3h2.5l.1-1 .3-1 .7-.6c.2-.2.5-.3 1-.3s1 .2 1.3.6c.3.3.5.8.5 1.4 0 .4 0 .7-.3 1-.1.3-.3.6-.6.8l-.9.7a25 25 0 0 0-3.7 2.8 5 5 0 0 0-1.1 3.4h9.2v-2.2h-6c.4-.4.7-.8 1.2-1.1a16.7 16.7 0 0 1 2.5-1.8l1.1-1c.4-.3.6-.7.9-1.2.2-.4.3-1 .3-1.6a3.8 3.8 0 0 0-1.3-3l-1.4-.7a5 5 0 0 0-1.7-.3 5 5 0 0 0-2 .4 4 4 0 0 0-1.4 1.1 5 5 0 0 0-.9 1.6 6 6 0 0 0-.2 2zm21.9 4.5v.7l.1.7.4.6.6.2c.3 0 .5 0 .7-.2l.4-.6v-.7a9.1 9.1 0 0 0 0-1.3v-.7l-.4-.6a.8.8 0 0 0-.6-.2 1 1 0 0 0-.7.2c-.1.1-.3.3-.3.5l-.2.7v.7zm-1.9 0l.2-1.4c.1-.4.3-.7.6-1 .2-.4.6-.6 1-.8.3-.2.8-.3 1.3-.3.6 0 1 .1 1.4.3.4.2.7.4 1 .8l.4 1a6.4 6.4 0 0 1 0 2.8 2 2 0 0 1-.6 1.1c-.2.4-.5.6-1 .8l-1.3.2c-.5 0-1 0-1.4-.2-.4-.2-.7-.5-.9-.8a3 3 0 0 1-.5-1.1 6 6 0 0 1-.2-1.4zm1.4-9.7h1.6l-7.5 13.4h-1.5l7.4-13.4zm-8.8 3.7v.7l.1.7.4.5.6.2c.3 0 .5 0 .7-.2l.4-.5.1-.7a8.4 8.4 0 0 0 0-1.3l-.1-.7-.4-.7a.8.8 0 0 0-.6-.2 1 1 0 0 0-.7.2l-.3.6-.2.7v.7zm-1.8 0l.1-1.4c.2-.4.3-.8.6-1.1.2-.3.6-.6 1-.8.3-.2.8-.3 1.3-.3.6 0 1 .1 1.4.3l1 .8.4 1.2a6.6 6.6 0 0 1 0 2.7 3 3 0 0 1-.6 1.1c-.2.3-.5.5-.9.7-.4.2-.8.3-1.4.3-.5 0-1-.1-1.4-.3-.3-.2-.7-.4-.9-.7l-.5-1.1-.1-1.4zm-35.1-124h3.4c1 0 1.7-.2 2.1-.5.5-.4.7-.9.7-1.6l-.2-1-.6-.7-1-.2-1-.1h-3.4v4zm-1.7-5.6h4.7a47.4 47.4 0 0 1 2.7.2l.7.3 1 1c.3.5.5 1 .5 1.7s-.2 1.3-.5 1.8a3 3 0 0 1-1.4 1v.1a3 3 0 0 1 1.8 1c.4.6.6 1.3.6 2.1 0 .5 0 1-.2 1.4a3.4 3.4 0 0 1-2 2c-.5.2-1 .3-1.7.3h-6.2V81.1zm1.7 11.5h4.3c.8 0 1.3-.2 1.8-.7.4-.4.6-1 .6-1.6 0-.5 0-.8-.2-1-.2-.4-.4-.6-.6-.7l-1-.4h-4.9v4.4zm11.5-3.2c0 .5 0 1 .2 1.5l.6 1a2.7 2.7 0 0 0 2.1 1 2.8 2.8 0 0 0 2.7-2l.2-1.5c0-.6 0-1.1-.2-1.5-.2-.5-.4-.9-.7-1.2a2.6 2.6 0 0 0-2-.9 2.8 2.8 0 0 0-2 1c-.3.2-.5.6-.7 1l-.2 1.6zm-1.6 0c0-.7 0-1.4.3-2 .2-.6.4-1 .8-1.5a4 4 0 0 1 1.5-1c.5-.3 1.2-.4 1.9-.4s1.4.1 2 .4a4 4 0 0 1 2.2 2.5 6.2 6.2 0 0 1 0 3.9c-.2.6-.5 1-.8 1.5a4 4 0 0 1-1.5 1c-.5.3-1.2.4-1.9.4s-1.4-.1-2-.4a4 4 0 0 1-1.4-1c-.4-.4-.6-1-.8-1.5-.2-.6-.3-1.3-.3-2zm10.8-4.7V94h1.5v-5.3l.2-1.1.5-1 .9-.6 1.2-.2c.6 0 1 .2 1.4.5.3.4.5.8.5 1.4V94h1.5v-6.1l-.1-1.4c-.1-.4-.3-.8-.6-1-.2-.4-.5-.6-1-.8a4 4 0 0 0-1.5-.2c-1.4 0-2.4.5-3 1.7v-1.5h-1.5zm17.7 9.3v-9.3H167V90c0 .4 0 .8-.2 1.1 0 .4-.3.7-.5 1l-.8.6-1.3.2c-.5 0-1-.2-1.3-.5-.4-.4-.5-.8-.5-1.4v-6.3h-1.6v6.1c0 .5 0 1 .2 1.4 0 .4.3.8.5 1 .3.4.6.6 1 .8l1.5.2a3.3 3.3 0 0 0 3.1-1.7V94h1.4zm3.3-3h-1.6c0 .6.2 1.1.4 1.5.2.4.5.8.9 1 .3.3.7.4 1.2.5a6.5 6.5 0 0 0 4.2-.4c.3-.2.7-.5.9-1 .2-.3.3-.8.3-1.3s0-.8-.2-1.1l-.7-.8-1-.5-1.1-.3a69.8 69.8 0 0 0-2-.5l-.8-.4a.9.9 0 0 1-.2-.7l.1-.6.5-.3.6-.2a4.6 4.6 0 0 1 1.5 0c.2 0 .5.1.7.3.2 0 .3.2.5.4l.2.8h1.5c0-.6-.1-1-.3-1.4-.2-.4-.5-.7-.9-1l-1.1-.4-1.5-.1-1.2.1-1.1.5c-.4.2-.6.5-.9.8l-.3 1.2c0 .6.2 1 .5 1.4.3.4.7.6 1.1.8l1.5.4 1.4.4 1.2.5c.3.2.4.5.4.9 0 .3 0 .5-.2.7l-.5.4-.8.2a5.6 5.6 0 0 1-1.6 0c-.3 0-.6-.2-.8-.3a1.6 1.6 0 0 1-.8-1.4zm14.5-2.5c0-.4-.1-.7-.3-1a2.6 2.6 0 0 0-2.4-1.7l-1 .2-.9.6-.5.8-.3 1h5.4zm1.5 2.5c-.2 1-.7 1.9-1.4 2.4s-1.6.8-2.6.8c-.8 0-1.4-.1-2-.4-.5-.2-1-.5-1.3-1-.4-.4-.7-1-.9-1.5-.1-.6-.3-1.3-.3-2s.1-1.3.3-2l1-1.5a4.1 4.1 0 0 1 3.1-1.3c.8 0 1.5.1 2 .5.6.3 1 .8 1.4 1.3l.7 1.7.1 1.8h-7c0 .4 0 .8.2 1.2l.5 1 1 .6c.3.2.7.3 1.2.3.7 0 1.2-.2 1.6-.5.5-.3.7-.7.9-1.4h1.5zm2.6 0H189c0 .6.1 1.1.4 1.5.2.4.5.8.8 1 .4.3.8.4 1.3.5a6.5 6.5 0 0 0 4.1-.4 2.5 2.5 0 0 0 1.3-2.3c0-.5 0-.8-.3-1.1l-.6-.8-1-.5c-.4 0-.8-.2-1.1-.3a69.8 69.8 0 0 0-2-.5l-.8-.4a.9.9 0 0 1-.3-.7c0-.2 0-.4.2-.6l.5-.3.6-.2a4.6 4.6 0 0 1 1.4 0c.3 0 .5.1.7.3.2 0 .4.2.5.4.2.2.2.5.3.8h1.5c0-.6-.2-1-.4-1.4-.2-.4-.4-.7-.8-1l-1.2-.4-1.4-.1-1.3.1-1 .5c-.4.2-.7.5-.9.8l-.3 1.2c0 .6.1 1 .5 1.4.3.4.6.6 1 .8l1.5.4 1.5.4c.5.1.8.3 1.1.5.3.2.5.5.5.9 0 .3 0 .5-.2.7l-.6.4-.7.2a5.6 5.6 0 0 1-1.7 0c-.3 0-.5-.2-.8-.3a1.6 1.6 0 0 1-.8-1.4z" fill="#FFF"/></g></svg>