<svg width="493" height="256" viewBox="0 0 493 256" xmlns="http://www.w3.org/2000/svg"><title>Group</title><defs><linearGradient x1="50%" y1="0%" x2="50%" y2="98.4%" id="a"><stop stop-color="#2FBAFD" offset="0%"/><stop stop-color="#137DB0" offset="100%"/></linearGradient></defs><g fill="none" fill-rule="evenodd"><rect fill="url(#a)" fill-rule="nonzero" x="71" width="100" height="256" rx="17"/><path d="M2.4 62.7a32.2 32.2 0 0 0 .3 3.3c.2.5.4 1 .8 1.3.4.4.9.6 1.5.6a2 2 0 0 0 1.5-.6c.4-.3.6-.8.8-1.3.2-.5.3-1 .3-1.7a32.2 32.2 0 0 0 0-3.8l-.3-1a3 3 0 0 0-.5-1c-.1-.3-.4-.5-.7-.7L5 57.6c-.4 0-.8 0-1 .2-.4.2-.6.4-.8.7a3 3 0 0 0-.5 1 8.4 8.4 0 0 0-.3 2.2v1zm-1.6 0a30.7 30.7 0 0 1 .2-2.9c0-.5.2-1 .4-1.4l.7-1.1c.3-.3.7-.6 1.2-.8.5-.2 1-.3 1.7-.3s1.2.1 1.7.3a3.4 3.4 0 0 1 2 2l.3 1.3.2 1.5a30.7 30.7 0 0 1-.2 4.4 7 7 0 0 1-.4 1.3L8 68.2c-.3.3-.7.5-1.2.7-.5.2-1 .3-1.7.3s-1.2 0-1.7-.3a3.3 3.3 0 0 1-2-1.9 10 10 0 0 1-.6-2.8v-1.5zm14.3 5h1l.5-1a16 16 0 0 0 .7-5v-2h6.8v8h1.2v4.1H24V69h-7.4v2.8h-1.4v-4.1zm7.4 0V61h-3.7v.8a15.6 15.6 0 0 1-1 5.9h4.7zm8.2 1.5a5 5 0 0 1-2-.4c-.5-.2-1-.5-1.3-1-.4-.4-.7-1-.9-1.5a6.6 6.6 0 0 1 0-4l1-1.5a4.1 4.1 0 0 1 3.1-1.3c.9 0 1.6.1 2.1.5.5.3 1 .8 1.3 1.3a5.5 5.5 0 0 1 .8 3.5h-7L28 66l.5 1 1 .6c.3.2.8.3 1.3.3.6 0 1.2-.2 1.6-.5.4-.3.7-.7.8-1.4h1.5c-.2 1.1-.6 1.9-1.3 2.4-.7.5-1.6.8-2.7.8zm2.5-5.7c0-.4 0-.7-.2-1a2.6 2.6 0 0 0-2.5-1.7l-1 .2-.8.6c-.3.2-.5.5-.6.8l-.2 1h5.3zm3.2-3.8H38v3.7h4.7v-3.7h1.5V69h-1.5v-4.3H38V69h-1.6v-9.3zm10.2 0h1.5v3.6h3.3c1 0 1.7.2 2.2.7.6.5.9 1.2.9 2.1 0 .9-.3 1.6-.8 2.1a3 3 0 0 1-2.2.8h-4.9v-9.3zm4.4 8c1.2 0 1.9-.6 1.9-1.6s-.7-1.5-2-1.5h-2.8v3H51zM6.4 97V84.2H5.2c0 .5-.2 1-.4 1.2-.3.3-.5.6-.9.8l-1 .3-1.3.1V88h3.3v9h1.5zm8.7-1.3h1l.5-1a16 16 0 0 0 .7-5v-2h6.8v8h1.2v4.1H24V97h-7.4v2.8h-1.4v-4.1zm7.4 0V89h-3.7v.8a15.6 15.6 0 0 1-1 5.9h4.7zm8.2 1.5a5 5 0 0 1-2-.4c-.5-.2-1-.5-1.3-1-.4-.4-.7-1-.9-1.5a6.6 6.6 0 0 1 0-4l1-1.5a4.1 4.1 0 0 1 3.1-1.3c.9 0 1.6.1 2.1.5.5.3 1 .8 1.3 1.3a5.5 5.5 0 0 1 .8 3.5h-7L28 94l.5 1 1 .6c.3.2.8.3 1.3.3.6 0 1.2-.2 1.6-.5.4-.3.7-.7.8-1.4h1.5c-.2 1.1-.6 1.9-1.3 2.4-.7.5-1.6.8-2.7.8zm2.5-5.7c0-.4 0-.7-.2-1a2.6 2.6 0 0 0-2.5-1.7l-1 .2-.8.6c-.3.2-.5.5-.6.8l-.2 1h5.3zm3.2-3.8H38v3.7h4.7v-3.7h1.5V97h-1.5v-4.3H38V97h-1.6v-9.3zm10.2 0h1.5v3.6h3.3c1 0 1.7.2 2.2.7.6.5.9 1.2.9 2.1 0 .9-.3 1.6-.8 2.1a3 3 0 0 1-2.2.8h-4.9v-9.3zm4.4 8c1.2 0 1.9-.6 1.9-1.6s-.7-1.5-2-1.5h-2.8v3H51zM.8 116.8h1.5l.1-1.2.5-1c.2-.3.4-.5.8-.7a2 2 0 0 1 1.1-.3c.3 0 .7 0 1 .2a2.3 2.3 0 0 1 1.3 1.1l.2 1L7 117a3 3 0 0 1-.6.9l-1 .9a35.6 35.6 0 0 1-2.8 1.7A5.2 5.2 0 0 0 .8 123l-.4 2h8.4v-1.3H2.2c0-.4.2-.8.5-1.1l.8-.9 1.1-.7a124.1 124.1 0 0 0 2.3-1.5l1-1c.3-.3.6-.7.7-1.1a4.1 4.1 0 0 0 0-3.1 3.8 3.8 0 0 0-2.1-1.8 4.9 4.9 0 0 0-3.4 0A3.7 3.7 0 0 0 1 115c-.2.5-.2 1.1-.2 1.8zm14.3 6.9h1l.5-1a16 16 0 0 0 .7-5v-2h6.8v8h1.2v4.1H24V125h-7.4v2.8h-1.4v-4.1zm7.4 0V117h-3.7v.8a15.6 15.6 0 0 1-1 5.9h4.7zm8.2 1.5a5 5 0 0 1-2-.4c-.5-.2-1-.5-1.3-1-.4-.4-.7-1-.9-1.5a6.6 6.6 0 0 1 0-4l1-1.5a4.1 4.1 0 0 1 3.1-1.3c.9 0 1.6.1 2.1.5.5.3 1 .8 1.3 1.3a5.5 5.5 0 0 1 .8 3.5h-7l.2 1.2.5 1 1 .6c.3.2.8.3 1.3.3.6 0 1.2-.2 1.6-.5.4-.3.7-.7.8-1.4h1.5c-.2 1.1-.6 1.9-1.3 2.4-.7.5-1.6.8-2.7.8zm2.5-5.7c0-.4 0-.7-.2-1a2.6 2.6 0 0 0-2.5-1.7l-1 .2-.8.6c-.3.2-.5.5-.6.8l-.2 1h5.3zm3.2-3.8H38v3.7h4.7v-3.7h1.5v9.3h-1.5v-4.3H38v4.3h-1.6v-9.3zm10.2 0h1.5v3.6h3.3c1 0 1.7.2 2.2.7.6.5.9 1.2.9 2.1 0 .9-.3 1.6-.8 2.1a3 3 0 0 1-2.2.8h-4.9v-9.3zm4.4 8c1.2 0 1.9-.6 1.9-1.6s-.7-1.5-2-1.5h-2.8v3H51zm-47 22v1.3h.8l1.1.1a2.3 2.3 0 0 1 1.4 1.2 2.3 2.3 0 0 1-.6 2.9l-.8.5-1.1.2c-.9 0-1.6-.3-2-.8-.5-.5-.7-1.2-.7-2H.5c0 .6.1 1.2.3 1.7A3.5 3.5 0 0 0 3 153a5.8 5.8 0 0 0 3.5 0 4 4 0 0 0 1.4-.7 4 4 0 0 0 1-1.2c.2-.5.3-1 .3-1.7s-.2-1.4-.6-2c-.4-.5-1-.9-1.7-1v-.1a3 3 0 0 0 1.2-1c.4-.5.5-1 .5-1.5 0-.6 0-1.1-.3-1.6-.2-.4-.4-.8-.8-1-.3-.3-.7-.5-1.2-.7a5.5 5.5 0 0 0-3.2.1 3.4 3.4 0 0 0-2 2.2c-.2.5-.3 1-.3 1.7h1.5c0-.4 0-.8.2-1.1 0-.3.2-.6.4-.9l.8-.6 1-.2c.7 0 1.2.2 1.7.5.4.3.6.9.6 1.5 0 .4 0 .7-.2 1l-.5.6-.8.4-1 .1H3.9zm11 6h1.2l.4-1a16 16 0 0 0 .7-5v-2h6.8v8h1.2v4.1H24V153h-7.4v2.8h-1.4v-4.2zm7.5 0V145h-3.7v.8a15.6 15.6 0 0 1-1 5.8h4.7zm8.2 1.5a5 5 0 0 1-2-.4c-.5-.2-1-.5-1.3-1-.4-.4-.7-1-.9-1.5a6.6 6.6 0 0 1 0-4l1-1.5a4.1 4.1 0 0 1 3.1-1.3c.9 0 1.6.1 2.1.5.5.3 1 .8 1.3 1.3a5.5 5.5 0 0 1 .8 3.5h-7l.2 1.2.5 1 1 .6c.3.2.8.3 1.3.3.6 0 1.2-.2 1.6-.5.4-.3.7-.7.8-1.4h1.5c-.2 1.1-.6 1.9-1.3 2.4-.7.5-1.6.8-2.7.8zm2.5-5.7c0-.4 0-.7-.2-1a2.6 2.6 0 0 0-2.5-1.7l-1 .2-.8.6c-.3.2-.5.5-.6.8l-.2 1h5.3zm3.2-3.8H38v3.7h4.7v-3.7h1.5v9.3h-1.5v-4.3H38v4.3h-1.6v-9.3zm10.2 0h1.5v3.6h3.3c1 0 1.7.2 2.2.7.6.5.9 1.2.9 2.1 0 .9-.3 1.6-.8 2.1a3 3 0 0 1-2.2.8h-4.9v-9.3zm4.4 8c1.2 0 1.9-.6 1.9-1.6s-.7-1.5-2-1.5h-2.8v3H51zm-44.9 25v-6.3l-4.3 6.3h4.3zm1.4 0h1.8v1.3H7.5v3H6.1v-3H.5v-1.5l5.8-8.3h1.2v8.5zm7.6 3h1l.5-1a16 16 0 0 0 .7-5v-2h6.8v8h1.2v4.1H24V181h-7.4v2.8h-1.4v-4.2zm7.4 0V173h-3.7v.8a15.6 15.6 0 0 1-1 5.8h4.7zm8.2 1.5a5 5 0 0 1-2-.4c-.5-.2-1-.5-1.3-1-.4-.4-.7-1-.9-1.5a6.6 6.6 0 0 1 0-4l1-1.5a4.1 4.1 0 0 1 3.1-1.3c.9 0 1.6.1 2.1.5.5.3 1 .8 1.3 1.3a5.5 5.5 0 0 1 .8 3.5h-7l.2 1.2.5 1 1 .6c.3.2.8.3 1.3.3.6 0 1.2-.2 1.6-.5.4-.3.7-.7.8-1.4h1.5c-.2 1.1-.6 1.9-1.3 2.4-.7.5-1.6.8-2.7.8zm2.5-5.7c0-.4 0-.7-.2-1a2.6 2.6 0 0 0-2.5-1.7l-1 .2-.8.6c-.3.2-.5.5-.6.8l-.2 1h5.3zm3.2-3.8H38v3.7h4.7v-3.7h1.5v9.3h-1.5v-4.3H38v4.3h-1.6v-9.3zm10.2 0h1.5v3.6h3.3c1 0 1.7.2 2.2.7.6.5.9 1.2.9 2.1 0 .9-.3 1.6-.8 2.1a3 3 0 0 1-2.2.8h-4.9v-9.3zm4.4 8c1.2 0 1.9-.6 1.9-1.6s-.7-1.5-2-1.5h-2.8v3H51zM8.5 197.8v-1.3H2.2L1 203h1.3l1-.8c.4-.2.9-.4 1.4-.4.4 0 .8.1 1.1.3a2.6 2.6 0 0 1 1.5 1.5c.2.3.2.7.2 1.1 0 .5 0 1-.2 1.4-.1.3-.3.7-.6 1l-.8.5-1 .2c-.4 0-.8 0-1.1-.2a2.5 2.5 0 0 1-1.4-1.2l-.2-1H.6c0 .6.2 1.2.4 1.6.2.5.5.8.9 1.2.3.3.8.5 1.2.7l1.6.2a5 5 0 0 0 2-.4 4 4 0 0 0 2.5-3.8c0-.8-.1-1.4-.4-2l-.8-1.3c-.4-.4-.9-.7-1.4-.8-.5-.2-1-.3-1.6-.3a4 4 0 0 0-1.3.2c-.4.2-.8.4-1 .7l.6-3.7h5.2zm6.6 9.8h1l.5-1a16 16 0 0 0 .7-5v-2h6.8v8h1.2v4.2H24V209h-7.4v2.8h-1.4v-4.2zm7.4 0V201h-3.7v.8a15.6 15.6 0 0 1-1 5.8h4.7zm8.2 1.6a5 5 0 0 1-2-.4c-.5-.2-1-.5-1.3-1-.4-.4-.7-1-.9-1.5a6.6 6.6 0 0 1 0-4l1-1.5a4.1 4.1 0 0 1 3.1-1.3c.9 0 1.6.1 2.1.5.5.3 1 .8 1.3 1.3a5.5 5.5 0 0 1 .8 3.5h-7l.2 1.2.5 1 1 .6c.3.2.8.3 1.3.3.6 0 1.2-.2 1.6-.5.4-.3.7-.7.8-1.4h1.5c-.2 1.1-.6 1.9-1.3 2.4-.7.5-1.6.8-2.7.8zm2.5-5.7c0-.4 0-.7-.2-1a2.6 2.6 0 0 0-2.5-1.7l-1 .2-.8.6c-.3.2-.5.5-.6.8l-.2 1h5.3zm3.2-3.8H38v3.7h4.7v-3.7h1.5v9.3h-1.5v-4.3H38v4.3h-1.6v-9.3zm10.2 0h1.5v3.6h3.3c1 0 1.7.2 2.2.7.6.5.9 1.2.9 2.1 0 .9-.3 1.6-.8 2.1a3 3 0 0 1-2.2.8h-4.9v-9.3zm4.4 8c1.2 0 1.9-.6 1.9-1.6s-.7-1.5-2-1.5h-2.8v3H51zM7.5 227.5c-.1-.6-.3-1-.7-1.4a2 2 0 0 0-1.5-.5c-.6 0-1.2.1-1.6.5-.4.3-.7.7-.9 1.2-.2.5-.4 1-.4 1.5l-.2 1.6c.4-.5.9-1 1.4-1.2.5-.3 1.1-.4 1.8-.4.6 0 1.2.1 1.7.3.5.2.9.5 1.2.9l.8 1.3a4.8 4.8 0 0 1 0 3 3.8 3.8 0 0 1-2 2.4c-.5.4-1.2.5-2 .5a4 4 0 0 1-2.3-.6 4 4 0 0 1-1.3-1.5c-.4-.6-.6-1.2-.7-2a14.9 14.9 0 0 1 .1-4.6 7 7 0 0 1 .8-2.2 4 4 0 0 1 1.4-1.5c.6-.4 1.4-.6 2.3-.6 1 0 1.9.3 2.5.9a3 3 0 0 1 1 2.4H7.6zM5 230.1c-.4 0-.8.1-1 .3a2.5 2.5 0 0 0-1.4 1.5 3.6 3.6 0 0 0 0 2.2l.5 1 .8.5a2.4 2.4 0 0 0 2.3 0l.8-.6.5-.9.1-1-.1-1.2-.5-.9a2.4 2.4 0 0 0-2-.9zm10 5.6h1l.5-1a16 16 0 0 0 .7-5v-2H24v8h1.2v4.1H24V237h-7.4v2.8h-1.4v-4.2zm7.4 0V229h-3.7v.8a15.6 15.6 0 0 1-1 5.8h4.7zm8.2 1.5a5 5 0 0 1-2-.4c-.5-.2-1-.5-1.3-1-.4-.4-.7-1-.9-1.5a6.6 6.6 0 0 1 0-4l1-1.5a4.1 4.1 0 0 1 3.1-1.3c.9 0 1.6.1 2.1.5.5.3 1 .8 1.3 1.3a5.5 5.5 0 0 1 .8 3.5h-7l.2 1.2.5 1 1 .6c.3.2.8.3 1.3.3.6 0 1.2-.2 1.6-.5.4-.3.7-.7.8-1.4h1.5c-.2 1.1-.6 1.9-1.3 2.4-.7.5-1.6.8-2.7.8zm2.5-5.7c0-.4 0-.7-.2-1a2.6 2.6 0 0 0-2.5-1.7l-1 .2-.8.6c-.3.2-.5.5-.6.8l-.2 1h5.3zm3.2-3.8H38v3.7h4.7v-3.7h1.5v9.3h-1.5v-4.3H38v4.3h-1.6v-9.3zm10.2 0H48v3.6h3.3c1 0 1.7.2 2.2.7.6.5.9 1.2.9 2.1 0 .9-.3 1.6-.8 2.1a3 3 0 0 1-2.2.8h-4.9v-9.3zm4.4 8c1.2 0 1.9-.6 1.9-1.6s-.7-1.5-2-1.5H48v3h3z" fill="#000"/><path d="M84.2 56.1H95V69h-2.8V58.5h-5V69h-2.9V56.1zm13 3.6h2.4v1.2c.3-.5.7-.9 1.2-1.1.5-.2 1-.4 1.6-.4a4 4 0 0 1 1.9.5c.5.2 1 .6 1.3 1l.8 1.6a7 7 0 0 1 0 3.7l-.8 1.6c-.3.4-.8.8-1.3 1-.5.3-1 .4-1.8.4-.5 0-1 0-1.6-.3a3 3 0 0 1-1.2-1v4.4h-2.6V59.7zm4.6 7.6c.5 0 .8 0 1.1-.2l.7-.7.4-1a5.5 5.5 0 0 0 0-2.1 3 3 0 0 0-.4-1l-.7-.7a2 2 0 0 0-1-.2 2 2 0 0 0-1.1.2l-.7.7-.4 1a5.7 5.7 0 0 0 0 2.2l.4 1 .7.6 1 .2zm10.6 2c-.7 0-1.3-.2-2-.4a4.1 4.1 0 0 1-2.4-2.6 5.7 5.7 0 0 1 0-3.9 4.6 4.6 0 0 1 4.4-3c.8 0 1.4.2 2 .5.6.2 1 .6 1.4 1a5.8 5.8 0 0 1 1.2 3.6v.5h-6.7c0 .8.2 1.4.6 1.8.4.3 1 .5 1.6.5.6 0 1-.1 1.4-.4.3-.2.6-.5.7-.8h2.2c-.4 1.1-1 2-1.7 2.4-.7.5-1.6.7-2.7.7zm2-6a3 3 0 0 0-.6-1.4c-.3-.4-.8-.5-1.4-.5-.4 0-.8 0-1 .2a2 2 0 0 0-1 1.1l-.1.6h4.1zm8.5 6a5 5 0 0 1-2-.4 4.3 4.3 0 0 1-2.4-2.5 6 6 0 0 1-.3-2c0-.6 0-1.3.3-2 .2-.5.5-1 1-1.5.3-.5.8-.8 1.4-1a5.8 5.8 0 0 1 3.6-.2 3.5 3.5 0 0 1 2.8 3.3h-2.5c-.2-1.1-.8-1.6-1.9-1.6-.4 0-.7 0-1 .2l-.7.8c-.2.3-.3.6-.3 1a5.3 5.3 0 0 0 0 2c0 .4.1.7.3 1l.7.7 1 .2c.6 0 1-.1 1.4-.5.3-.3.5-.8.6-1.4h2.5a4.2 4.2 0 0 1-1.5 2.9 5 5 0 0 1-3 1zm10.2 0c-.7 0-1.4-.2-2-.4a4.1 4.1 0 0 1-2.4-2.6 5.7 5.7 0 0 1 0-3.9 4.6 4.6 0 0 1 4.4-3c.8 0 1.4.2 2 .5.6.2 1 .6 1.4 1 .4.5.7 1 .9 1.7.2.6.2 1.2.2 1.9v.5H131c0 .8.3 1.4.6 1.8.4.3 1 .5 1.7.5.5 0 1-.1 1.3-.4.4-.2.6-.5.7-.8h2.3c-.4 1.1-1 2-1.7 2.4-.7.5-1.6.7-2.7.7zm2-6a3 3 0 0 0-.7-1.4c-.3-.4-.7-.5-1.4-.5-.4 0-.7 0-1 .2a2 2 0 0 0-1 1.1v.6h4zm4-3.6h2.5V66l3.5-6.3h2.9V69h-2.4v-6.3L142 69h-2.9v-9.3zm4.5-1.1c-.5 0-.9 0-1.2-.2-.4 0-.7-.2-1-.4-.3-.2-.5-.5-.6-.8-.2-.4-.3-.7-.3-1.2h2c0 .4 0 .7.2.9.2.2.5.3.9.3.3 0 .6-.1.8-.3.2-.2.3-.5.3-1h1.9c0 .6 0 1-.2 1.3l-.7.8-1 .4-1.1.2zm6.7 10.5a3.6 3.6 0 0 1-1-.1v-2h.5l.6-.1.5-.8.2-1.7.1-2.9v-1.8h7.6V69h-2.6v-7.4h-2.6a45.1 45.1 0 0 1-.8 5.8c-.2.6-.5 1-1 1.3-.3.3-.8.4-1.5.4zm-46.9 22.4v-3.6h-2v3.6H98v2h3.5V97h2v-3.6h3.6v-2h-3.6zm8.5-2v1.8h1l1 .2c.2.1.5.3.6.6.2.2.3.6.3 1 0 .7-.2 1.2-.6 1.5-.4.4-.9.5-1.4.5-.4 0-.7 0-1-.2a2 2 0 0 1-.7-.5l-.4-.8-.1-1H108c0 .8.1 1.4.3 2A4 4 0 0 0 111 97a5.8 5.8 0 0 0 5.2-.7 3.9 3.9 0 0 0 1.4-3 3 3 0 0 0-.6-2c-.4-.5-1-.8-1.6-1 .5-.2 1-.5 1.3-1 .3-.4.4-1 .4-1.6 0-.5-.1-1-.4-1.5a2 2 0 0 0-1-1 2 2 0 0 0-1.3-.7 5.3 5.3 0 0 0-3.3 0 4 4 0 0 0-2.2 2.3l-.4 1.8h2.5c0-.6.1-1.2.4-1.6a2 2 0 0 1 1.5-.6c.5 0 .9.1 1.2.4.4.3.6.7.6 1.2 0 .4-.1.7-.3.9l-.6.5-1 .2h-.8zm8.8 1.1a28.4 28.4 0 0 0 .3 2.8c.1.5.3 1 .6 1.2.3.4.7.5 1.2.5s1-.1 1.2-.5c.3-.3.5-.7.6-1.2l.2-1.4a28.4 28.4 0 0 0 0-3l-.2-1a3 3 0 0 0-.3-.9 2 2 0 0 0-.6-.6c-.3-.2-.6-.2-1-.2-.3 0-.5 0-.8.2l-.6.6-.3.9a6.6 6.6 0 0 0-.2 1.9v.7zm-2.5 0c0-1.2.1-2.2.4-3 .2-.9.5-1.5 1-2 .4-.6.9-1 1.4-1.1.6-.2 1.2-.4 1.8-.4a5 5 0 0 1 1.8.4c.5.2 1 .5 1.5 1l1 2c.2.9.3 2 .3 3.1 0 1.3 0 2.4-.3 3.2-.3.9-.6 1.5-1 2-.5.5-1 .9-1.5 1.1a5 5 0 0 1-3.6 0c-.5-.2-1-.6-1.4-1-.5-.6-.8-1.2-1-2-.3-1-.4-2-.4-3.3zm22 3.1l.1.7.1.7.4.6.6.2c.3 0 .5 0 .7-.2l.4-.6.1-.7a9.1 9.1 0 0 0 0-1.3l-.1-.7-.4-.6a.8.8 0 0 0-.6-.2 1 1 0 0 0-.7.2l-.3.5-.2.7v.7zm-1.7 0l.1-1.4c.2-.4.3-.7.6-1 .2-.4.6-.6 1-.8.3-.2.8-.3 1.3-.3.6 0 1 .1 1.4.3.4.2.7.4 1 .8l.4 1a6.4 6.4 0 0 1 0 2.8 2 2 0 0 1-.6 1.1c-.2.4-.5.6-1 .8l-1.3.2c-.5 0-1 0-1.4-.2l-.9-.8a3 3 0 0 1-.5-1.1 6 6 0 0 1-.1-1.4zm1.3-9.7h1.6L134 97.4h-1.6l7.4-13.4zm-8.8 3.7v.7l.1.7.4.5.7.2c.2 0 .4 0 .6-.2l.4-.5.1-.7a8.4 8.4 0 0 0 0-1.3l-.1-.7c0-.3-.2-.5-.4-.7a.8.8 0 0 0-.6-.2 1 1 0 0 0-.6.2l-.4.6-.2.7v.7zm-1.8 0l.1-1.4.6-1.1 1-.8c.3-.2.8-.3 1.3-.3.6 0 1 .1 1.4.3l1 .8.4 1.2a6.6 6.6 0 0 1 0 2.7 3 3 0 0 1-.6 1.1c-.2.3-.5.5-.9.7-.4.2-.8.3-1.4.3-.5 0-1-.1-1.4-.3l-.9-.7-.5-1.1-.1-1.4zm-25.8 31.8v-3.6h-2v3.6H98v2h3.5v3.5h2v-3.6h3.6v-2h-3.6zm5-2.3h2.5l.1-1 .3-1 .7-.6c.2-.2.5-.3 1-.3s1 .2 1.3.6c.3.3.5.8.5 1.4 0 .4 0 .7-.3 1-.1.3-.3.6-.6.8l-.9.7a25 25 0 0 0-3.7 2.8 5 5 0 0 0-1.1 3.4h9.2v-2.2h-6c.4-.4.7-.8 1.2-1.1a16.7 16.7 0 0 1 2.5-1.8l1.1-1c.4-.3.6-.7.9-1.2.2-.4.3-1 .3-1.6a3.8 3.8 0 0 0-1.3-3l-1.4-.7a5 5 0 0 0-1.7-.3 5 5 0 0 0-2 .4 4 4 0 0 0-1.4 1.1 5 5 0 0 0-.9 1.6 6 6 0 0 0-.2 2zm18.4-2.7v-2.1h-7l-1.3 7h2.3l.8-.8c.3-.2.7-.2 1.2-.2l.9.1a2 2 0 0 1 1 1.3 2.9 2.9 0 0 1 0 1.8c0 .3-.2.6-.3.8l-.7.5a2 2 0 0 1-1 .2 2 2 0 0 1-1.4-.5 2 2 0 0 1-.6-1.3H118c0 .6.2 1.2.4 1.7.3.5.6 1 1 1.2.5.4 1 .6 1.6.8.5.2 1.1.2 1.7.2a4.6 4.6 0 0 0 3.3-1.2 4.6 4.6 0 0 0 1.1-5 3.6 3.6 0 0 0-3.6-2.6c-.5 0-1 .1-1.3.3-.4.1-.8.4-1.2.7l.5-2.9h5.2zm13.5 7.2v.7l.1.7.4.6.6.2c.3 0 .5 0 .7-.2l.4-.6.1-.7a9.1 9.1 0 0 0 0-1.3l-.1-.7-.4-.6a.8.8 0 0 0-.6-.2 1 1 0 0 0-.7.2l-.3.5-.2.7v.7zm-1.8 0l.1-1.4c.2-.4.3-.7.6-1 .2-.4.6-.6 1-.8.3-.2.8-.3 1.3-.3.6 0 1 .1 1.4.3.4.2.7.4 1 .8l.4 1a6.4 6.4 0 0 1 0 2.8 2 2 0 0 1-.6 1.1c-.2.4-.5.6-1 .8l-1.3.2c-.5 0-1 0-1.4-.2l-.9-.8a3 3 0 0 1-.5-1.1 6 6 0 0 1-.1-1.4zm1.3-9.7h1.6l-7.4 13.4h-1.6l7.4-13.4zm-8.8 3.7v.7l.1.7.4.5.7.2c.2 0 .4 0 .6-.2l.4-.5.1-.7a8.4 8.4 0 0 0 0-1.3l-.1-.7c0-.3-.2-.5-.4-.7a.8.8 0 0 0-.6-.2 1 1 0 0 0-.6.2l-.4.6-.2.7v.7zm-1.8 0l.1-1.4.6-1.1 1-.8c.3-.2.8-.3 1.3-.3.6 0 1 .1 1.4.3l1 .8.4 1.2a6.6 6.6 0 0 1 0 2.7 3 3 0 0 1-.6 1.1c-.2.3-.5.5-.9.7-.4.2-.8.3-1.4.3-.5 0-1-.1-1.4-.3l-.9-.7-.5-1.1-.1-1.4zm-25.8 31.8v-3.6h-2v3.6H98v2h3.5v3.5h2v-3.6h3.6v-2h-3.6zm5-2.3h2.5l.1-1 .3-1 .7-.6c.2-.2.5-.3 1-.3s1 .2 1.3.6c.3.3.5.8.5 1.4 0 .4 0 .7-.3 1-.1.3-.3.6-.6.8l-.9.7a25 25 0 0 0-3.7 2.8 5 5 0 0 0-1.1 3.4h9.2v-2.2h-6c.4-.4.7-.8 1.2-1.1a16.7 16.7 0 0 1 2.5-1.8l1.1-1c.4-.3.6-.7.9-1.2.2-.4.3-1 .3-1.6a3.8 3.8 0 0 0-1.3-3l-1.4-.7a5 5 0 0 0-1.7-.3 5 5 0 0 0-2 .4 4 4 0 0 0-1.4 1.1 5 5 0 0 0-.9 1.6 6 6 0 0 0-.2 2zm12.3 1.4a28.4 28.4 0 0 0 .3 2.8c.1.5.3 1 .6 1.2.3.4.7.5 1.2.5s1-.1 1.2-.5c.3-.3.5-.7.6-1.2l.2-1.4a28.4 28.4 0 0 0 0-3l-.2-1a3 3 0 0 0-.3-.9 2 2 0 0 0-.6-.6c-.3-.2-.6-.2-1-.2-.3 0-.5 0-.8.2l-.6.6-.3.9a6.6 6.6 0 0 0-.2 1.9v.7zm-2.5 0c0-1.2.1-2.2.4-3 .2-.9.5-1.5 1-2 .4-.6.9-1 1.4-1.1.6-.2 1.2-.4 1.8-.4a5 5 0 0 1 1.8.4c.5.2 1 .5 1.5 1l1 2c.2.9.3 2 .3 3.1 0 1.3 0 2.4-.3 3.2-.3.9-.6 1.5-1 2-.5.5-1 .9-1.5 1.1a5 5 0 0 1-3.6 0c-.5-.2-1-.6-1.4-1-.5-.6-.8-1.2-1-2-.3-1-.4-2-.4-3.3zm22 3.1l.1.7.1.7.4.6.6.2c.3 0 .5 0 .7-.2l.4-.6.1-.7a9.1 9.1 0 0 0 0-1.3l-.1-.7-.4-.6a.8.8 0 0 0-.6-.2 1 1 0 0 0-.7.2l-.3.5-.2.7v.7zm-1.7 0l.1-1.4c.2-.4.3-.7.6-1 .2-.4.6-.6 1-.8.3-.2.8-.3 1.3-.3.6 0 1 .1 1.4.3.4.2.7.4 1 .8l.4 1a6.4 6.4 0 0 1 0 2.8 2 2 0 0 1-.6 1.1c-.2.4-.5.6-1 .8l-1.3.2c-.5 0-1 0-1.4-.2l-.9-.8a3 3 0 0 1-.5-1.1 6 6 0 0 1-.1-1.4zm1.3-9.7h1.6l-7.4 13.4h-1.6l7.4-13.4zm-8.8 3.7v.7l.1.7.4.5.7.2c.2 0 .4 0 .6-.2l.4-.5.1-.7a8.4 8.4 0 0 0 0-1.3l-.1-.7c0-.3-.2-.5-.4-.7a.8.8 0 0 0-.6-.2 1 1 0 0 0-.6.2l-.4.6-.2.7v.7zm-1.8 0l.1-1.4.6-1.1 1-.8c.3-.2.8-.3 1.3-.3.6 0 1 .1 1.4.3l1 .8.4 1.2a6.6 6.6 0 0 1 0 2.7 3 3 0 0 1-.6 1.1c-.2.3-.5.5-.9.7-.4.2-.8.3-1.4.3-.5 0-1-.1-1.4-.3l-.9-.7-.5-1.1-.1-1.4zm-25.8 31.8v-3.6h-2v3.6H98v2h3.5v3.5h2v-3.6h3.6v-2h-3.6zm11.5 5.5v-12.6h-2l-.5 1.2c-.3.3-.5.6-.9.8l-1 .4a6 6 0 0 1-1.4.1v2h3.2v8.1h2.6zm12-10.5v-2.1h-7.1l-1.3 7h2.3l.8-.8c.3-.2.7-.2 1.2-.2l.9.1a2 2 0 0 1 1 1.3 2.9 2.9 0 0 1 0 1.8c0 .3-.2.6-.3.8l-.7.5a2 2 0 0 1-1 .2 2 2 0 0 1-1.4-.5 2 2 0 0 1-.6-1.3H118c0 .6.2 1.2.4 1.7.3.5.6 1 1 1.2.5.4 1 .6 1.6.8.5.2 1.1.2 1.7.2a4.6 4.6 0 0 0 3.3-1.2 4.6 4.6 0 0 0 1.1-5 3.6 3.6 0 0 0-3.6-2.6c-.5 0-1 .1-1.3.3-.4.1-.8.4-1.2.7l.5-2.9h5.2zm13.4 7.2v.7l.1.7.4.6.6.2c.3 0 .5 0 .7-.2l.4-.6.1-.7a9.1 9.1 0 0 0 0-1.3l-.1-.7-.4-.6a.8.8 0 0 0-.6-.2 1 1 0 0 0-.7.2l-.3.5-.2.7v.7zm-1.8 0l.1-1.4c.2-.4.3-.7.6-1 .2-.4.6-.6 1-.8.3-.2.8-.3 1.3-.3.6 0 1 .1 1.4.3.4.2.7.4 1 .8l.4 1a6.4 6.4 0 0 1 0 2.8 2 2 0 0 1-.6 1.1c-.2.4-.5.6-1 .8l-1.3.2c-.5 0-1 0-1.4-.2l-.9-.8a3 3 0 0 1-.5-1.1 6 6 0 0 1-.1-1.4zm1.3-9.7h1.6l-7.4 13.4h-1.6l7.4-13.4zm-8.8 3.7v.7l.1.7.4.5.7.2c.2 0 .4 0 .6-.2l.4-.5.1-.7a8.4 8.4 0 0 0 0-1.3l-.1-.7c0-.3-.2-.5-.4-.7a.8.8 0 0 0-.6-.2 1 1 0 0 0-.6.2l-.4.6-.2.7v.7zm-1.8 0l.1-1.4.6-1.1 1-.8c.3-.2.8-.3 1.3-.3.6 0 1 .1 1.4.3l1 .8.4 1.2a6.6 6.6 0 0 1 0 2.7 3 3 0 0 1-.6 1.1c-.2.3-.5.5-.9.7-.4.2-.8.3-1.4.3-.5 0-1-.1-1.4-.3l-.9-.7-.5-1.1-.1-1.4zm-25.8 31.8v-3.6h-2v3.6H98v2h3.5v3.5h2v-3.6h3.6v-2h-3.6zm11.5 5.5v-12.6h-2l-.5 1.2c-.3.3-.5.6-.9.8l-1 .4a6 6 0 0 1-1.4.1v2h3.2v8.1h2.6zm5.8-6.4a28.4 28.4 0 0 0 .3 2.8c.1.5.3 1 .6 1.2.3.4.7.5 1.2.5s1-.1 1.2-.5c.3-.3.5-.7.6-1.2l.2-1.4a28.4 28.4 0 0 0 0-3l-.2-1a3 3 0 0 0-.3-.9 2 2 0 0 0-.6-.6c-.3-.2-.6-.2-1-.2-.3 0-.5 0-.8.2l-.6.6-.3.9a6.6 6.6 0 0 0-.2 1.9v.7zm-2.5 0c0-1.2.1-2.2.4-3 .2-.9.5-1.5 1-2 .4-.6.9-1 1.4-1.1.6-.2 1.2-.4 1.8-.4a5 5 0 0 1 1.8.4c.5.2 1 .5 1.5 1l1 2c.2.9.3 2 .3 3.1 0 1.3 0 2.4-.3 3.2-.3.9-.6 1.5-1 2-.5.5-1 .9-1.5 1.1a5 5 0 0 1-3.6 0c-.5-.2-1-.6-1.4-1-.5-.6-.8-1.2-1-2-.3-1-.4-2-.4-3.3zm22 3.1l.1.7.1.7.4.6.6.2c.3 0 .5 0 .7-.2l.4-.6.1-.7a9.1 9.1 0 0 0 0-1.3l-.1-.7-.4-.6a.8.8 0 0 0-.6-.2 1 1 0 0 0-.7.2l-.3.5-.2.7v.7zm-1.7 0l.1-1.4c.2-.4.3-.7.6-1 .2-.4.6-.6 1-.8.3-.2.8-.3 1.3-.3.6 0 1 .1 1.4.3.4.2.7.4 1 .8l.4 1a6.4 6.4 0 0 1 0 2.8 2 2 0 0 1-.6 1.1c-.2.4-.5.6-1 .8l-1.3.2c-.5 0-1 0-1.4-.2l-.9-.8a3 3 0 0 1-.5-1.1 6 6 0 0 1-.1-1.4zm1.3-9.7h1.6l-7.4 13.4h-1.6l7.4-13.4zm-8.8 3.7v.7l.1.7.4.5.7.2c.2 0 .4 0 .6-.2l.4-.5.1-.7a8.4 8.4 0 0 0 0-1.3l-.1-.7c0-.3-.2-.5-.4-.7a.8.8 0 0 0-.6-.2 1 1 0 0 0-.6.2l-.4.6-.2.7v.7zm-1.8 0l.1-1.4.6-1.1 1-.8c.3-.2.8-.3 1.3-.3.6 0 1 .1 1.4.3l1 .8.4 1.2a6.6 6.6 0 0 1 0 2.7 3 3 0 0 1-.6 1.1c-.2.3-.5.5-.9.7-.4.2-.8.3-1.4.3-.5 0-1-.1-1.4-.3l-.9-.7-.5-1.1-.1-1.4zm-20.8 31.8v-3.6h-2v3.6H103v2h3.5v3.5h2v-3.6h3.6v-2h-3.6zm13.4-5v-2.1h-7l-1.3 7h2.3l.8-.8c.3-.2.7-.2 1.2-.2l.9.1a2 2 0 0 1 1 1.3 2.9 2.9 0 0 1 0 1.8c0 .3-.2.6-.4.8l-.6.5a2 2 0 0 1-1 .2 2 2 0 0 1-1.4-.5 2 2 0 0 1-.6-1.3H113c0 .6.2 1.2.4 1.7.3.5.6 1 1 1.2.5.4 1 .6 1.5.8.6.2 1.2.2 1.8.2a4.6 4.6 0 0 0 3.3-1.2 4.6 4.6 0 0 0 1.1-5 3.6 3.6 0 0 0-3.6-2.6c-.5 0-1 .1-1.4.3-.4.1-.7.4-1 .7h-.1l.5-2.9h5.2zm13.5 7.2v.7l.1.7.4.6.6.2c.3 0 .5 0 .7-.2l.4-.6v-.7a9.1 9.1 0 0 0 0-1.3v-.7l-.4-.6a.8.8 0 0 0-.6-.2 1 1 0 0 0-.7.2c-.1.1-.3.3-.3.5l-.2.7v.7zm-1.9 0l.2-1.4c.1-.4.3-.7.6-1 .2-.4.6-.6 1-.8.3-.2.8-.3 1.3-.3.6 0 1 .1 1.4.3.4.2.7.4 1 .8l.4 1a6.4 6.4 0 0 1 0 2.8 2 2 0 0 1-.6 1.1c-.2.4-.5.6-1 .8l-1.3.2c-.5 0-1 0-1.4-.2-.4-.2-.7-.5-.9-.8a3 3 0 0 1-.5-1.1 6 6 0 0 1-.2-1.4zm1.4-9.7h1.6l-7.5 13.4h-1.5l7.4-13.4zm-8.8 3.7v.7l.1.7.4.5.6.2c.3 0 .5 0 .7-.2l.4-.5.1-.7a8.4 8.4 0 0 0 0-1.3l-.1-.7-.4-.7a.8.8 0 0 0-.6-.2 1 1 0 0 0-.7.2l-.3.6-.2.7v.7zm-1.8 0l.1-1.4c.2-.4.3-.8.6-1.1.2-.3.6-.6 1-.8.3-.2.8-.3 1.3-.3.6 0 1 .1 1.4.3l1 .8.4 1.2a6.6 6.6 0 0 1 0 2.7 3 3 0 0 1-.6 1.1c-.2.3-.5.5-.9.7-.4.2-.8.3-1.4.3-.5 0-1-.1-1.4-.3-.3-.2-.7-.4-.9-.7l-.5-1.1-.1-1.4zM90.4 15.1h8.8v1.5h-7v3.8h4.2c1.3 0 2.2.3 3 1a4 4 0 0 1 1 2.8 4 4 0 0 1-1 2.8c-.8.7-1.7 1-3 1h-6V15.1zm5.4 11.5c2 0 2.8-.8 2.8-2.4 0-1.6-.9-2.4-2.8-2.4h-3.7v4.8h3.7zm10.5 1.6c-.7 0-1.4-.1-2-.4a4 4 0 0 1-1.3-1c-.4-.4-.7-1-1-1.5l-.2-2c0-.6 0-1.3.3-1.9.2-.6.5-1 .9-1.5a4 4 0 0 1 1.4-1 4 4 0 0 1 2-.4c.6 0 1.3.1 1.9.4a4 4 0 0 1 2.2 2.5 6.2 6.2 0 0 1 0 3.9c-.1.6-.4 1-.8 1.5a4 4 0 0 1-1.4 1c-.6.3-1.3.4-2 .4zm0-1.3a2.8 2.8 0 0 0 2.7-2l.2-1.5c0-.6 0-1.1-.2-1.5l-.6-1.2a2.6 2.6 0 0 0-2-.9 2.8 2.8 0 0 0-2.1 1c-.3.2-.5.6-.7 1l-.2 1.6c0 .5 0 1 .2 1.5.2.4.4.8.7 1a2.7 2.7 0 0 0 2 1zm6.3-8.2h1.6v3.7h4.7v-3.7h1.5V28H119v-4.3h-4.7V28h-1.6v-9.3zm11 13a4 4 0 0 1-.5 0c-.2 0-.3 0-.5-.2v-1.4a38.5 38.5 0 0 0 1 .3c.2 0 .5-.1.7-.3l.5-.6.6-1.6-3.7-9.2h1.7l2.8 7.6 2.6-7.6h1.6l-4 10.5-.6 1.2-.5.7a2 2 0 0 1-.7.5l-1 .1zm12-3.5c-.7 0-1.4-.1-2-.3-.5-.3-1-.6-1.3-1l-.8-1.5a6.8 6.8 0 0 1 0-3.9c.2-.6.4-1.1.8-1.6.4-.4.8-.8 1.4-1 .5-.3 1.2-.4 1.9-.4.5 0 1 0 1.5.2.4 0 .9.3 1.2.6.4.2.7.5.9 1 .2.4.4.8.4 1.4H138c0-.6-.3-1-.7-1.4-.4-.3-1-.5-1.6-.5-.5 0-1 .1-1.4.3l-.8.8a3 3 0 0 0-.5 1.2 6.3 6.3 0 0 0 0 2.6c0 .4.2.8.5 1.1l.8.8c.3.2.8.3 1.2.3.8 0 1.4-.2 1.8-.6.4-.4.7-1 .8-1.7h1.6c-.2 1.2-.6 2-1.3 2.7a4 4 0 0 1-2.8.9zm5.8-9.5h1.5v3.6h2.9c.9 0 1.6.2 2.2.7.5.5.8 1.2.8 2.1 0 .9-.2 1.6-.8 2.1a3 3 0 0 1-2.1.8h-4.5v-9.3zm3.9 8c1.3 0 2-.6 2-1.6s-.7-1.5-2-1.5h-2.4v3h2.4zm5-8h1.5V28h-1.5v-9.3z" fill="#FFF"/><path d="M21.2 25.6h1.2l.7-1.7a19.4 19.4 0 0 0 .9-4.6l.1-2.6v-2.6h8.3v11.5h1.4v4.6h-1.6V27h-9.4v3.2h-1.6v-4.6zm9.5 0v-10h-5v1.8a24.5 24.5 0 0 1-1.4 8.2h6.4zm4.6-8h1.5v3.8h4.7v-3.7H43V27h-1.5v-4.3h-4.7V27h-1.5v-9.3zm10 0H47v7.7l4.4-7.6h2V27h-1.6v-7.6L47.3 27h-2v-9.3z" fill="#000"/><path fill="#137EB1" fill-rule="nonzero" d="M183 66h76v-1h-76z"/><path d="M284 110.7v-3.3h-11l-1.9 10.8h3.6c.4-.5.8-.9 1.3-1.2a4 4 0 0 1 1.7-.3c.5 0 1 0 1.4.2a3.2 3.2 0 0 1 1.8 2 4.5 4.5 0 0 1 0 2.8 4 4 0 0 1-.7 1.3l-1 .8a3 3 0 0 1-1.5.3c-.9 0-1.6-.2-2.2-.8-.6-.5-1-1.2-1-2.1h-4c0 1 .2 1.9.6 2.7.4.8 1 1.4 1.6 2a9.7 9.7 0 0 0 5 1.5 7.2 7.2 0 0 0 5.2-2 7.2 7.2 0 0 0 1.8-7.7c-.3-.8-.7-1.5-1.2-2a5.7 5.7 0 0 0-4.5-2c-.8 0-1.5 0-2 .3a5 5 0 0 0-1.8 1.2l.7-4.5h8.1zm6.1 6.4a44.2 44.2 0 0 0 .4 4.3 5 5 0 0 0 1 2c.4.5 1 .7 1.8.7s1.5-.2 2-.8c.4-.5.7-1.1.9-1.9a44.2 44.2 0 0 0 .3-7l-.3-1.5c-.2-.5-.3-1-.6-1.3a3 3 0 0 0-.9-1c-.4-.2-.8-.3-1.4-.3-.5 0-1 .1-1.3.3a3 3 0 0 0-1 1l-.5 1.3a10.3 10.3 0 0 0-.4 3v1.2zm-4 0c0-1.9.2-3.5.6-4.8a10 10 0 0 1 1.6-3.1c.6-.8 1.4-1.4 2.3-1.7a7.6 7.6 0 0 1 5.5 0c.9.3 1.6 1 2.3 1.7.7.8 1.2 1.8 1.6 3.1.4 1.3.5 3 .5 4.8 0 2-.1 3.6-.5 5-.4 1.2-1 2.3-1.6 3-.7.9-1.4 1.4-2.3 1.8a7.6 7.6 0 0 1-5.5 0c-.9-.4-1.7-1-2.3-1.7a8.6 8.6 0 0 1-1.6-3.2c-.4-1.3-.5-3-.5-4.9zm34.4 4.8v1c0 .4.2.8.3 1.1 0 .4.3.7.5 1 .2.2.6.3 1 .3.5 0 .8-.1 1-.4.3-.2.5-.5.6-.9l.2-1a14.2 14.2 0 0 0 0-2c0-.4 0-.8-.2-1.2 0-.3-.3-.6-.5-.8-.2-.3-.5-.4-1-.4-.4 0-.8 0-1 .3-.3.2-.4.5-.6.8l-.2 1.1v1.1zm-2.8 0c0-.8 0-1.5.3-2.2.2-.6.4-1.2.8-1.7l1.5-1.1a5 5 0 0 1 2.1-.4c1 0 1.6.1 2.2.4.6.3 1 .7 1.4 1.2.4.5.7 1 .8 1.7a10 10 0 0 1 0 4.3 4.6 4.6 0 0 1-2.4 2.9c-.6.2-1.3.4-2.1.4a5 5 0 0 1-2.2-.5 3 3 0 0 1-1.4-1.1 5 5 0 0 1-.8-1.8l-.2-2.1zm2.1-15.1h2.4l-11.5 20.8h-2.5l11.6-20.8zm-13.7 5.8v1l.2 1c.1.4.3.7.5.9.3.2.6.3 1 .3.5 0 .9 0 1.1-.3.3-.2.4-.5.6-.8l.2-1a13 13 0 0 0 0-2l-.2-1.2-.5-1c-.3-.3-.6-.4-1-.4-.5 0-.8.1-1 .4-.3.2-.5.5-.6.9-.2.3-.2.7-.3 1.1v1.1zm-2.9 0c0-.8.1-1.5.3-2.2a5 5 0 0 1 .9-1.8c.4-.5.9-.9 1.5-1.2.6-.2 1.3-.4 2.1-.4.9 0 1.6.2 2.2.5a4.3 4.3 0 0 1 2.2 3 10.3 10.3 0 0 1 0 4.3c-.3.6-.6 1.2-1 1.6-.3.5-.8.9-1.4 1.1-.6.3-1.3.4-2.1.4-.9 0-1.6-.1-2.2-.4a3 3 0 0 1-1.4-1.1c-.4-.5-.7-1-.8-1.7l-.3-2.1z" fill="#2AAFEF"/><path d="M275.3 52.3a7 7 0 0 1-1.9-.3c-.6-.1-1-.4-1.5-.7l-1-1.3c-.2-.5-.3-1-.3-1.8h1.4c0 .6.2 1 .3 1.3l.8 1 1 .4 1.3.1 1.1-.1 1-.5.5-.8c.2-.3.2-.6.2-1s0-.7-.2-1l-.6-.6-1-.3a7.2 7.2 0 0 0-1.6 0h-.5v-1.3h2.1l.7-.4.6-.6.1-1c0-.3 0-.6-.2-.9 0-.2-.3-.4-.5-.5l-.8-.4h-1c-.8 0-1.4.1-1.9.5s-.8 1-.8 1.8H271c0-.6.2-1.1.4-1.6.2-.4.5-.8.9-1.1a4 4 0 0 1 1.4-.7 6 6 0 0 1 3.2 0c.4.1.9.3 1.2.6a2.8 2.8 0 0 1 1.1 2.3l-.1.9a2.7 2.7 0 0 1-1 1.2l-.7.4 1 .4a2.7 2.7 0 0 1 1.2 2.4c0 .3 0 .7-.2 1.1-.2.4-.4.8-.8 1.2a3 3 0 0 1-1.3.9c-.6.2-1.3.4-2 .4zm8.5-.1l-1-.1-1-.4a2 2 0 0 1-.5-.8c-.2-.3-.3-.6-.3-1 0-.5.1-.9.3-1.2.1-.3.4-.5.6-.7l1-.4a10.8 10.8 0 0 1 2-.4l.9-.2.6-.3.2-.6-.1-.7-.5-.4-.6-.2h-.6c-.6 0-1 0-1.5.3-.3.2-.5.6-.6 1.2h-1.3c0-.5 0-1 .3-1.3l.7-.8c.4-.3.7-.4 1.1-.5l1.4-.2 1 .1c.4 0 .8.2 1 .3.4.2.6.4.8.7.2.3.3.7.3 1.2v5l.4.2h.4v1a2 2 0 0 1-1 .2c-.3 0-.6-.1-.8-.3-.2-.2-.3-.5-.3-1a3 3 0 0 1-1.3 1c-.5.2-1 .3-1.6.3zm.3-1.2c.4 0 .8 0 1.1-.2.4-.1.6-.3.8-.5.2-.1.4-.3.5-.6l.1-.6v-1.4a1 1 0 0 1-.7.3 17.5 17.5 0 0 1-1.8.3l-.8.2-.6.5-.2.8.1.5.4.4.5.2h.6zm6-7.3h1.3v4l3.8-4h1.8l-3.6 3.6 4 4.7h-1.7l-3.4-4-.9.9V52h-1.3v-8.3zm8.4 0h1.4v1.1a2 2 0 0 1 1-1 4 4 0 0 1 1.7-.3c.6 0 1.2.2 1.6.4.5.2 1 .5 1.2 1 .3.3.6.8.7 1.3.2.5.3 1.1.3 1.7 0 .6 0 1.1-.2 1.7a4 4 0 0 1-.8 1.3l-1.1 1a3.8 3.8 0 0 1-2.4.2l-.7-.2a3 3 0 0 1-.7-.4l-.6-.6v4.3h-1.4V43.7zm4 7.3a2 2 0 0 0 1.1-.3c.4-.2.6-.4.8-.7l.4-1 .1-1.2-.1-1.1a3 3 0 0 0-.5-1 2.3 2.3 0 0 0-2-1c-.4 0-.8.1-1 .3-.4.2-.7.4-.9.7a3 3 0 0 0-.4 1 4.8 4.8 0 0 0 0 2.3c.1.4.2.7.5 1a2.3 2.3 0 0 0 2 1zm5.5-7.3h1.3V47h2.6c.8 0 1.5.2 2 .7.4.4.7 1 .7 1.8s-.2 1.4-.7 1.9c-.5.5-1.1.7-2 .7h-4v-8.3zm3.5 7.1c1.1 0 1.7-.5 1.7-1.4 0-.9-.6-1.3-1.7-1.3h-2.2v2.7h2.2zm4.4-7h1.4V52h-1.4v-8.3zm5.4 1.1h-3v-1.2h7.3V45h-3v7h-1.3v-7zm5.4-1.2h1.4V47h2.5c.9 0 1.5.2 2 .7.5.4.7 1 .7 1.8s-.2 1.4-.7 1.9c-.4.5-1 .7-1.9.7h-4v-8.3zm3.5 7.1c1.1 0 1.7-.5 1.7-1.4 0-.9-.6-1.3-1.7-1.3h-2.1v2.7h2.1zm4.4-7h1.4V52h-1.4v-8.3zm3.4 0h1.4v6.7l4-6.8h1.7V52h-1.4v-6.8l-4 6.8H338v-8.3zm3.6-1.3l-1-.1-.7-.4a2 2 0 0 1-.7-1.6h1.2c0 .8.4 1.2 1.1 1.2.4 0 .7-.1.9-.3.2-.3.3-.5.3-1h1.1c0 .4 0 .7-.2 1a2 2 0 0 1-.4.6l-.8.5-.8.1zm10 1.2h6.7V52h-1.4v-7h-4v7h-1.3v-8.3zm8.8 0h1.4v1.1a2 2 0 0 1 1-1 4 4 0 0 1 1.6-.3c.7 0 1.2.2 1.7.4s.9.5 1.2 1c.3.3.5.8.7 1.3.2.5.2 1.1.2 1.7 0 .6 0 1.1-.2 1.7a4 4 0 0 1-.7 1.3 4 4 0 0 1-1.2 1 3.8 3.8 0 0 1-2.3.2l-.8-.2a3 3 0 0 1-.7-.4l-.5-.6v4.3h-1.4V43.7zm4 7.3c.4 0 .8-.1 1-.3.4-.2.7-.4.9-.7l.4-1 .1-1.2c0-.4 0-.8-.2-1.1a3 3 0 0 0-.4-1 2.3 2.3 0 0 0-2-1 2 2 0 0 0-1.1.3l-.8.7a3 3 0 0 0-.5 1 4.8 4.8 0 0 0 0 2.3l.5 1a2.3 2.3 0 0 0 2 1zm9 1.2c-.7 0-1.3-.1-1.8-.3a4 4 0 0 1-1.2-1l-.8-1.3a5.9 5.9 0 0 1 0-3.5c.3-.5.5-1 .9-1.3a3.7 3.7 0 0 1 2.8-1.3 3.5 3.5 0 0 1 3 1.7c.3.4.5 1 .6 1.5l.1 1.6h-6.2c0 .3 0 .7.2 1 0 .3.2.6.4.9l.8.6 1.2.2c.6 0 1-.1 1.4-.4.4-.3.6-.7.8-1.2h1.3c-.2 1-.6 1.6-1.2 2-.6.5-1.4.8-2.3.8zm2.2-5.1l-.2-1a2.3 2.3 0 0 0-2.2-1.4l-1 .2-.7.5-.5.8-.2.9h4.8zm6.3 5c-.7 0-1.2 0-1.7-.2s-1-.5-1.2-.9c-.4-.4-.6-.8-.8-1.3L378 48c0-.7 0-1.2.2-1.8.2-.5.4-1 .8-1.4a4 4 0 0 1 1.2-1 5 5 0 0 1 3-.2l1.1.6.8 1 .4 1.2H384a2 2 0 0 0-.6-1.2 2 2 0 0 0-1.4-.5c-.5 0-.9.1-1.2.3-.4.2-.6.4-.8.7a3 3 0 0 0-.4 1 5.6 5.6 0 0 0 0 2.4c0 .4.2.7.4 1 .2.2.4.5.7.6.3.2.7.3 1.1.3.7 0 1.2-.2 1.6-.5.4-.4.6-.9.7-1.5h1.4c-.1 1-.5 1.8-1.1 2.4a4 4 0 0 1-2.5.8zm8.6 0c-.6 0-1.2 0-1.7-.2a4 4 0 0 1-1.2-1c-.4-.3-.6-.8-.8-1.3a5.9 5.9 0 0 1 0-3.5c.3-.5.5-1 .9-1.3a3.7 3.7 0 0 1 2.8-1.3 3.5 3.5 0 0 1 3 1.7c.3.4.5 1 .6 1.5l.1 1.6H388l.1 1 .5.9.8.6 1.2.2c.6 0 1-.1 1.4-.4.4-.3.6-.7.7-1.2h1.4c-.2 1-.6 1.6-1.2 2-.6.5-1.4.8-2.4.8zm2.3-5l-.2-1a2.3 2.3 0 0 0-2.2-1.4l-1 .2-.7.5-.5.8-.2.9h4.8zm2.8-3.4h1.4v6.8l3.9-6.8h1.7V52h-1.3v-6.8l-4 6.8h-1.7v-8.3zm3.5-1.2l-.9-.1-.7-.4a2 2 0 0 1-.7-1.6h1.2c0 .8.4 1.2 1.1 1.2.4 0 .7-.1.9-.3.2-.3.3-.5.3-1h1v1a2 2 0 0 1-.6.6l-.7.5-.9.1zm5.5 9.6h-.4l-.4-.1v-1.2a1.7 1.7 0 0 0 .6 0c.3 0 .6 0 .8-.4.2-.2.3-.7.4-1.2l.2-2.2v-3.3h5.8V52h-1.3v-7H407a277.8 277.8 0 0 1-.3 5c-.2.6-.4 1.1-.8 1.5-.3.4-.8.6-1.4.6zm12.6-1.3h1l.3-1a14.2 14.2 0 0 0 .7-4.3v-1.8h6v7.1h1v3.7H425V52h-6.6v2.5h-1.2v-3.7zm6.6 0v-5.9h-3.3v.7a13.8 13.8 0 0 1-1 5.2h4.3zm7.3 1.4c-.6 0-1.2-.1-1.7-.4a3.3 3.3 0 0 1-2-2.2 5.5 5.5 0 0 1 0-3.4c.1-.6.4-1 .7-1.4l1.3-1c.5-.2 1-.3 1.7-.3s1.2.1 1.7.4a3.6 3.6 0 0 1 2 2.3 5.5 5.5 0 0 1 0 3.4c0 .5-.3 1-.7 1.3-.3.4-.8.7-1.3 1-.5.2-1 .3-1.7.3zm0-1.2a2.5 2.5 0 0 0 2.4-1.8l.2-1.3c0-.5 0-1-.2-1.4a2 2 0 0 0-.6-1 2.4 2.4 0 0 0-1.8-.8 2.5 2.5 0 0 0-1.8.9l-.6 1-.2 1.3.2 1.3.6 1a2.4 2.4 0 0 0 1.8.8zm10-7.3h1.4V47h4.2v-3.3h1.4V52h-1.4v-3.8h-4.2V52h-1.3v-8.3zm11.3 8.5l-1-.1-.9-.4a2 2 0 0 1-.6-.8l-.2-1c0-.5 0-.9.2-1.2l.7-.7c.2-.2.5-.3.9-.4a10.8 10.8 0 0 1 2-.4l1-.2.6-.3.2-.6c0-.3 0-.5-.2-.7l-.4-.4-.6-.2h-.7c-.5 0-1 0-1.4.3-.4.2-.6.6-.6 1.2H450c0-.5.1-1 .3-1.3l.8-.8c.3-.3.7-.4 1.1-.5l1.3-.2 1.1.1c.4 0 .7.2 1 .3l.8.7.2 1.2v5c.1.1.2.2.5.2h.4v1a2 2 0 0 1-1 .2c-.4 0-.6-.1-.8-.3-.3-.2-.4-.5-.4-1-.3.5-.8.8-1.3 1-.5.2-1 .3-1.6.3zm.3-1.2c.5 0 .9 0 1.2-.2l.8-.5c.2-.1.3-.3.4-.6l.2-.6v-1.4a1 1 0 0 1-.7.3 17.5 17.5 0 0 1-1.8.3l-.8.2a1 1 0 0 0-.6.5c-.2.2-.3.4-.3.8 0 .2 0 .4.2.5 0 .2.2.3.3.4l.5.2h.6zm11-2.4l-1 .3-1.4.2c-1 0-1.8-.2-2.2-.7-.4-.4-.7-1-.7-1.8v-2.9h1.4v2.6c0 .6.1 1 .4 1.2.2.3.7.4 1.4.4a5.7 5.7 0 0 0 2.1-.4v-3.8h1.4V52h-1.4v-3.4zm5.7 3.6l-1-.1-1-.4a2 2 0 0 1-.5-.8c-.2-.3-.2-.6-.2-1 0-.5 0-.9.2-1.2l.6-.7 1-.4a10.8 10.8 0 0 1 2-.4l1-.2c.2 0 .4-.2.5-.3.2-.1.2-.3.2-.6l-.1-.7-.5-.4-.6-.2h-.6c-.6 0-1 0-1.4.3-.4.2-.6.6-.7 1.2H467c0-.5.1-1 .3-1.3.2-.3.4-.6.8-.8a2 2 0 0 1 1-.5l1.4-.2 1 .1c.5 0 .8.2 1 .3.4.2.6.4.8.7.2.3.3.7.3 1.2v5l.4.2h.4v1a2 2 0 0 1-1 .2c-.3 0-.6-.1-.8-.3-.2-.2-.3-.5-.3-1a3 3 0 0 1-1.3 1c-.5.2-1 .3-1.6.3zm.3-1.2c.4 0 .8 0 1.1-.2.4-.1.6-.3.8-.5.2-.1.4-.3.5-.6l.1-.6v-1.4c-.1.2-.4.3-.6.3a17.5 17.5 0 0 1-1.8.3l-.9.2-.6.5-.2.8.1.5.4.4.5.2h.6zm6 1.1h-.5l-.4-.1v-1.2a1.7 1.7 0 0 0 .6 0c.3 0 .6 0 .8-.4.2-.2.3-.7.4-1.2l.2-2.2v-3.3h5.9V52h-1.4v-7h-3.1a277.8 277.8 0 0 1-.4 5c-.2.6-.4 1.1-.7 1.5-.4.4-.8.6-1.5.6zm11.3 0h-1l-1-.4a2 2 0 0 1-.5-.8c-.2-.3-.2-.6-.2-1 0-.5 0-.9.2-1.2l.6-.7 1-.4a10.8 10.8 0 0 1 2-.4l1-.2c.2 0 .4-.2.5-.3.2-.1.2-.3.2-.6l-.1-.7-.5-.4-.6-.2h-.6c-.6 0-1 0-1.4.3-.4.2-.6.6-.7 1.2h-1.3c0-.5.1-1 .3-1.3.2-.3.4-.6.8-.8a2 2 0 0 1 1-.5l1.4-.2 1 .1c.5 0 .8.2 1 .3.4.2.6.4.8.7.2.3.3.7.3 1.2v5l.4.2h.4v1a2 2 0 0 1-1 .2c-.3 0-.6-.1-.8-.3-.2-.2-.3-.5-.3-1a3 3 0 0 1-1.3 1c-.5.2-1 .3-1.6.3zm.3-1.1c.4 0 .8 0 1.1-.2.4-.1.6-.3.8-.5.2-.1.4-.3.5-.6l.1-.6v-1.4c-.1.2-.4.3-.6.3a17.5 17.5 0 0 1-1.8.3l-.9.2-.6.5-.2.8.1.5.4.4.5.2h.6zm-216 8v11.4h1.5V59h-1.5zm12.1 3.5h1.5c0-.6-.2-1.2-.5-1.6a4 4 0 0 0-1-1.2l-1.5-.7a5.9 5.9 0 0 0-4 .2c-.7.3-1.2.8-1.7 1.3a7.6 7.6 0 0 0-1.4 4.3c0 .8.1 1.6.4 2.3.2.7.5 1.4 1 1.9.4.5 1 1 1.6 1.2.7.4 1.4.5 2.3.5a5 5 0 0 0 3.5-1.2 6 6 0 0 0 1.5-3.4h-1.6c0 .5 0 1-.3 1.4a2 2 0 0 1-.6 1 3 3 0 0 1-1 .7c-.4.2-.9.2-1.4.2-.6 0-1.2 0-1.7-.3s-1-.6-1.2-1c-.3-.5-.6-1-.7-1.6a7.4 7.4 0 0 1 0-3.6c.1-.5.4-1 .7-1.5a3.5 3.5 0 0 1 3-1.4c.7 0 1.4.2 2 .6.6.4 1 1 1.1 1.9zm4.4 2.2l.2 1.7c.2.6.4 1.1.8 1.6.3.4.7.8 1.2 1 .5.3 1 .4 1.8.4.7 0 1.3-.1 1.8-.4a3 3 0 0 0 1.2-1c.3-.5.6-1 .7-1.6a6.6 6.6 0 0 0 0-3.4c-.1-.5-.4-1-.7-1.5a3 3 0 0 0-1.2-1c-.5-.3-1.1-.5-1.8-.5s-1.3.2-1.8.4c-.5.3-1 .7-1.2 1.1-.4.5-.6 1-.8 1.5l-.2 1.7zm-1.5 0c0-.7.1-1.5.3-2.2l1-2a5 5 0 0 1 4.2-1.7 6 6 0 0 1 2.4.4 5 5 0 0 1 1.7 1.4c.4.5.8 1.2 1 1.9a7.4 7.4 0 0 1 0 4.5 7 7 0 0 1-1 1.9c-.5.6-1 1-1.7 1.3a6 6 0 0 1-4.8 0 5 5 0 0 1-1.7-1.3c-.5-.6-.8-1.2-1-2a5 5 0 0 1-.4-2.2zm16 4.5h1l.4-.9a14.2 14.2 0 0 0 .7-4.3v-1.8h6v7h1V73h-1.2v-2.6h-6.6V73h-1.2v-3.8zm6.7 0v-5.8h-3.3v.7a13.8 13.8 0 0 1-1 5.1h4.3zm3.7 1.3h-.8v-1.3a1.7 1.7 0 0 0 .5.1c.4 0 .7-.1.9-.4l.4-1.3.1-2.2.1-3.2h5.8v8.2h-1.3v-7h-3.2a277.8 277.8 0 0 1-.4 5c-.1.7-.4 1.2-.7 1.6-.3.4-.8.5-1.4.5zm10.8-3.3c-.6 0-1-.3-1.4-.8-.4-.4-.6-1-.6-1.7 0-.8.2-1.4.7-1.8.5-.5 1.1-.7 1.9-.7h4.2v8.2h-1.4v-3.1h-1.8l-2.5 3.1h-1.8l2.7-3.2zm3.4-1.1v-2.7h-2.4c-.5 0-1 .1-1.2.3-.3.3-.4.6-.4 1 0 .5.1.8.4 1 .2.3.7.4 1.2.4h2.4zm12.6 3.7l-.4.3a3.3 3.3 0 0 1-.9.5h-.5a3 3 0 0 1-1.5-.3 3 3 0 0 1-1-1c-.3-.4-.5-1-.6-1.4l-.2-1.7a5 5 0 0 1 .9-3.1 2.8 2.8 0 0 1 2.9-1 2.9 2.9 0 0 1 1.3.8V59h1.3v4l.4-.3a2.8 2.8 0 0 1 1.5-.6c1 0 1.8.4 2.4 1.1.5.7.8 1.8.8 3 0 .7 0 1.2-.2 1.8 0 .5-.3 1-.5 1.4a3 3 0 0 1-1 1 3 3 0 0 1-1.6.3c-.3 0-.6 0-1-.2l-.8-.6v3.8h-1.3v-3.8zm-1.6-.3c.4 0 .8-.1 1-.3.4-.2.5-.5.6-.8v-4.1c0-.3-.2-.4-.3-.6a1.8 1.8 0 0 0-1.4-.6 1.7 1.7 0 0 0-1.5.9 3 3 0 0 0-.4 1 6.5 6.5 0 0 0 .3 3.4c.2.4.4.6.7.8.2.2.6.3 1 .3zm4.5 0c.4 0 .8 0 1-.3.3-.2.5-.4.7-.8.1-.3.3-.6.3-1a7.1 7.1 0 0 0 0-2.4 3 3 0 0 0-.4-1 .9.9 0 0 0-.6-.6c-.2-.2-.5-.3-.9-.3h-.5a1.7 1.7 0 0 0-.9.6l-.3.6v4.1c0 .3.3.6.6.8.3.2.6.3 1 .3zm8.8 1.1c-.7 0-1.3 0-1.8-.3-.5-.2-.9-.5-1.2-1-.4-.3-.6-.8-.8-1.3a5.5 5.5 0 0 1 0-3.4c.2-.5.4-1 .8-1.4.3-.3.7-.7 1.2-.9.5-.2 1-.3 1.8-.3.6 0 1.2.1 1.7.3a3.6 3.6 0 0 1 2 2.3 5.5 5.5 0 0 1 0 3.4c-.2.5-.4 1-.8 1.4-.3.4-.7.7-1.2.9-.5.2-1.1.3-1.7.3zm0-1.2a2.5 2.5 0 0 0 2.3-1.7c.2-.4.2-.9.2-1.4 0-.5 0-1-.2-1.3l-.5-1a2.4 2.4 0 0 0-1.8-.8 2.5 2.5 0 0 0-1.9.8l-.5 1c-.2.4-.2.8-.2 1.3s0 1 .2 1.4l.5 1a2.4 2.4 0 0 0 1.9.7zm5.6-7.2h1.3v3.3h4.2v-3.3h1.4v8.2h-1.4v-3.8h-4.2v3.8h-1.3v-8.2zm8 7h1l.3-.9a14.2 14.2 0 0 0 .7-4.3v-1.8h6v7h1V73h-1.2v-2.6H366V73h-1.2v-3.8zm6.6 0v-5.8H368v.7a13.8 13.8 0 0 1-1 5.1h4.3zm7.3 1.4c-.6 0-1.2 0-1.7-.3-.5-.2-1-.5-1.3-1-.3-.3-.6-.8-.7-1.3a5.5 5.5 0 0 1 0-3.4c.1-.5.4-1 .7-1.4.4-.3.8-.7 1.3-.9.5-.2 1-.3 1.7-.3s1.2.1 1.7.3a3.6 3.6 0 0 1 2 2.3 5.5 5.5 0 0 1 0 3.4c0 .5-.3 1-.7 1.4a3 3 0 0 1-1.3.9c-.5.2-1 .3-1.7.3zm0-1.2a2.5 2.5 0 0 0 2.4-1.7l.2-1.4c0-.5 0-1-.2-1.3a2 2 0 0 0-.6-1 2.4 2.4 0 0 0-1.8-.8 2.5 2.5 0 0 0-1.8.8l-.6 1-.2 1.3.2 1.4.6 1a2.4 2.4 0 0 0 1.8.7zm5.6-7.2h4.9l1 .4.6.6.2 1c0 .4-.1.8-.3 1-.2.4-.5.6-1 .8.6 0 1 .3 1.2.7.3.3.4.8.4 1.3l-.1 1-.6.8-.8.5-1 .1h-4.5v-8.2zm4.3 7.1c.4 0 .8-.1 1-.4.2-.3.3-.6.3-1s0-.7-.3-.9c-.3-.2-.7-.3-1.3-.3h-2.6v2.6h2.9zm-.6-3.7c.6 0 1-.1 1.2-.4.3-.2.4-.4.4-.8a1 1 0 0 0-.4-.8c-.2-.2-.6-.3-1.2-.3h-2.3v2.3h2.3zm9.4-3.4h1.4v6.7l3.9-6.7h1.7v8.2h-1.3v-6.7l-4 6.7h-1.7v-8.2zm13.5 0h1.4v4l3.8-4h1.8l-3.7 3.6 4.1 4.6h-1.7l-3.5-3.9-.8.8v3.1h-1.4v-8.2zm8.5 0h1.4v1.1a2 2 0 0 1 1-1 4 4 0 0 1 1.6-.3c.7 0 1.2.1 1.7.3.5.3.9.6 1.2 1l.7 1.4c.2.5.2 1 .2 1.6 0 .6 0 1.2-.2 1.7a4 4 0 0 1-.7 1.4c-.3.4-.7.7-1.2.9a3.8 3.8 0 0 1-2.3.3l-.8-.2a3 3 0 0 1-.7-.4l-.5-.7v4.3h-1.4V62.2zm4 7.2c.4 0 .8 0 1-.2.4-.2.7-.5.8-.8l.5-1v-2.2a3 3 0 0 0-.5-1 2.3 2.3 0 0 0-2-1c-.4 0-.8 0-1.1.3-.4.1-.6.4-.8.7a3 3 0 0 0-.5 1 4.8 4.8 0 0 0 0 2.3l.5 1a2.3 2.3 0 0 0 2 1zm6.3 4.3h-.5l-.5-.1v-1.2a34.2 34.2 0 0 0 .8.1l.7-.1.5-.6.5-1.4-3.3-8.2h1.6l2.4 6.7 2.3-6.7h1.5l-3.6 9.3-.5 1c-.1.3-.3.6-.5.7l-.6.4-.8.1zm7.1-11.5h6.8v8.2h-1.4v-7h-4v7h-1.4v-8.2zm8.8 0h1.4v3.3h4.2v-3.3h1.3v8.2h-1.3v-3.8H447v3.8h-1.4v-8.2zm9 0h1.4v3.1h2.5c.8 0 1.5.3 2 .7.5.5.7 1 .7 1.9 0 .8-.2 1.4-.7 1.8-.5.5-1.1.7-2 .7h-4v-8.2zm3.5 7c1.1 0 1.7-.4 1.7-1.3 0-1-.6-1.4-1.7-1.4H456v2.7h2zm4.4-7h1.4v8.2h-1.4v-8.2zm5.6 3.9l-2.8-4h1.7l2 3 2-3h1.7l-2.9 3.9 3.2 4.4h-1.7L469 67l-2.3 3.4H465l3.1-4.3zm-197 14.5h1.3v6.8l3.9-6.8h1.7V89h-1.3v-6.8l-4 6.8H271v-8.3zm9 0h1.3V84h4.2v-3.3h1.4V89h-1.4v-3.8h-4.2V89h-1.3v-8.3zm9 0h3.8l1 .1 1 .3.6.6.2 1c0 .5-.1.9-.3 1.1-.2.3-.5.5-1 .7.6.1 1 .4 1.2.7.3.4.4.8.4 1.4l-.1 1-.6.7c-.2.2-.4.4-.8.5l-1 .2H289v-8.3zm4.2 7.1c.4 0 .8 0 1-.3.2-.3.3-.6.3-1s0-.7-.3-1c-.3-.2-.7-.3-1.3-.3h-2.6v2.6h2.9zm-.6-3.7c.6 0 1 0 1.2-.3.3-.2.4-.5.4-.9a1 1 0 0 0-.3-.7c-.3-.2-.7-.3-1.3-.3h-2.3V84h2.3zm8.5 5c-.7 0-1.2 0-1.7-.2-.5-.3-1-.6-1.3-1-.3-.3-.6-.8-.7-1.3a5.9 5.9 0 0 1 0-3.5l.8-1.4a3.7 3.7 0 0 1 2.8-1.2c.8 0 1.4.2 1.9.5l1 1.1c.3.5.5 1 .6 1.6l.2 1.6h-6.2l.1 1 .5.9.8.6 1.1.2c.6 0 1.1-.1 1.5-.4.3-.3.6-.7.7-1.2h1.3c-.1 1-.5 1.6-1.2 2-.6.5-1.4.8-2.3.8zm2.2-5c0-.4 0-.7-.2-1a2.3 2.3 0 0 0-2.2-1.4c-.3 0-.6 0-1 .2l-.6.5-.5.8-.2.9h4.7zm6.3 5c-.6 0-1.2 0-1.7-.2s-.9-.5-1.2-.9c-.3-.4-.6-.8-.7-1.3a5.2 5.2 0 0 1 0-3.5 3.4 3.4 0 0 1 2-2.4 5 5 0 0 1 3-.2l1 .6c.4.3.6.6.8 1l.4 1.2h-1.4a2 2 0 0 0-.7-1.2 2 2 0 0 0-1.4-.5c-.5 0-.9.1-1.2.3l-.8.7a3 3 0 0 0-.4 1 5.6 5.6 0 0 0 0 2.4c0 .3.2.7.4 1 .2.2.5.5.8.6.3.2.6.3 1 .3.8 0 1.3-.2 1.7-.5.3-.4.6-.9.7-1.5h1.3c-.1 1-.5 1.8-1 2.3-.7.6-1.5.9-2.6.9zm7.2-7.2h-3v-1.2h7.3v1.2h-3V89H317v-7zm9 7.3c-.7 0-1.3-.1-1.8-.4a3 3 0 0 1-1.3-.9l-.7-1.3a5.5 5.5 0 0 1 0-3.4l.7-1.4 1.3-1c.5-.2 1-.3 1.7-.3s1.3.1 1.8.4a3.6 3.6 0 0 1 2 2.3 5.5 5.5 0 0 1 0 3.4c-.2.5-.4 1-.8 1.3a4 4 0 0 1-1.2 1c-.5.2-1.1.3-1.8.3zm0-1.2a2.5 2.5 0 0 0 2.3-1.8l.2-1.3c0-.5 0-1-.2-1.4l-.5-1a2.4 2.4 0 0 0-1.9-.8 2.5 2.5 0 0 0-1.8.8l-.5 1c-.2.4-.2.9-.2 1.4 0 .5 0 1 .2 1.3l.5 1a2.4 2.4 0 0 0 1.8.8zm5.6-7.3h1.4v1.1a2 2 0 0 1 1-1 4 4 0 0 1 1.6-.3 3 3 0 0 1 1.7.4c.5.2.9.5 1.2 1 .3.3.5.8.7 1.3.2.5.2 1.1.2 1.7 0 .6 0 1.1-.2 1.7a4 4 0 0 1-.7 1.3 4 4 0 0 1-1.2 1 3.8 3.8 0 0 1-2.3.2l-.8-.2a3 3 0 0 1-.7-.4l-.5-.6V92h-1.4V80.6zm4 7.3c.4 0 .8-.1 1-.3.4-.2.7-.4.9-.7l.4-1 .1-1.2-.1-1.1a3 3 0 0 0-.5-1 2.3 2.3 0 0 0-2-1 2 2 0 0 0-1.1.3l-.8.7a3 3 0 0 0-.4 1 4.8 4.8 0 0 0 0 2.3c0 .4.2.7.4 1a2.3 2.3 0 0 0 2 1zm9 1.2c-.6 0-1.2-.1-1.7-.4a3.3 3.3 0 0 1-2-2.2 5.5 5.5 0 0 1 0-3.4c.1-.6.4-1 .7-1.4l1.3-1c.5-.2 1-.3 1.7-.3s1.2.1 1.7.4a3.6 3.6 0 0 1 2 2.3 5.5 5.5 0 0 1 0 3.4c-.1.5-.4 1-.7 1.3-.3.4-.8.7-1.3 1-.5.2-1 .3-1.7.3zm0-1.2A2.5 2.5 0 0 0 347 86l.2-1.3c0-.5 0-1-.2-1.4a2 2 0 0 0-.6-1 2.4 2.4 0 0 0-1.8-.8 2.5 2.5 0 0 0-1.8.8l-.6 1-.2 1.4.2 1.3.6 1a2.4 2.4 0 0 0 1.8.8zm5.6-7.3h3.9l1 .1.9.3c.3.1.5.3.6.6.2.3.3.6.3 1 0 .5-.1.9-.3 1.1-.2.3-.5.5-1 .7.5.1 1 .4 1.2.7.3.4.4.8.4 1.4l-.1 1-.6.7-.8.5-1 .2h-4.5v-8.3zm4.3 7.1c.4 0 .8 0 1-.3.2-.3.3-.6.3-1s0-.7-.3-1c-.3-.2-.7-.3-1.3-.3h-2.6v2.6h2.9zm-.6-3.7c.6 0 1 0 1.2-.3.3-.2.4-.5.4-.9a1 1 0 0 0-.4-.7c-.2-.2-.6-.3-1.2-.3h-2.3V84h2.3zm-7.6 28.6h7.9v1.3h-6.3v3.3h3.8c1.1 0 2 .3 2.6.9.6.6.9 1.4.9 2.5s-.3 2-1 2.5c-.5.6-1.4.9-2.5.9h-5.4v-11.4zm4.9 10.1c1.6 0 2.5-.7 2.5-2 0-1.5-.9-2.2-2.5-2.2h-3.3v4.2h3.3zm9.3 1.5a3 3 0 0 1-1.7-.4 3 3 0 0 1-1.3-.9l-.8-1.3-.2-1.7c0-.6 0-1.2.2-1.7.2-.6.5-1 .8-1.4.3-.4.8-.7 1.3-1 .5-.2 1-.3 1.7-.3.6 0 1.2.1 1.7.4a3.6 3.6 0 0 1 2 2.3 5.5 5.5 0 0 1 0 3.4c-.1.5-.4 1-.7 1.3l-1.3 1c-.5.2-1 .3-1.7.3zm0-1.2a2.5 2.5 0 0 0 2.4-1.8l.2-1.3-.2-1.4c-.2-.4-.3-.7-.6-1a2.4 2.4 0 0 0-1.8-.8 2.5 2.5 0 0 0-1.8.9c-.3.2-.5.5-.6 1l-.2 1.3c0 .5 0 1 .2 1.3.1.4.3.7.6 1a2.4 2.4 0 0 0 1.8.8zm5.6-7.3h1.4v3.3h4.2v-3.3h1.3v8.3h-1.3v-3.8h-4.2v3.8H366v-8.3zm9.8 11.6h-.5l-.4-.1v-1.3a34.2 34.2 0 0 0 .8.2c.2 0 .5 0 .6-.2.2-.1.4-.3.5-.6l.6-1.3-3.3-8.3h1.5l2.4 6.8 2.4-6.8h1.4l-3.6 9.4-.5 1-.5.7-.6.4-.8.1zm10.6-3.1c-.6 0-1.2-.1-1.7-.3-.5-.2-.9-.5-1.2-.9-.3-.4-.6-.8-.7-1.3a5.2 5.2 0 0 1 0-3.5 3.4 3.4 0 0 1 2-2.4 5 5 0 0 1 3-.2l1 .6.8 1 .4 1.2h-1.4a2 2 0 0 0-.7-1.2 2 2 0 0 0-1.4-.5c-.5 0-.9.1-1.2.3l-.8.7a3 3 0 0 0-.4 1 5.6 5.6 0 0 0 0 2.4c0 .4.2.7.4 1 .2.2.5.5.8.6.3.2.6.3 1 .3.7 0 1.3-.2 1.7-.5.3-.4.6-.9.6-1.5h1.4c-.1 1-.5 1.8-1.1 2.4-.6.5-1.4.8-2.5.8z" fill="#000"/><path fill="#137EB1" fill-rule="nonzero" d="M183 187h76v-1h-76z"/><path d="M276.4 236.3v2.8h1.5c.5 0 1 .2 1.5.4.4.2.8.4 1 .8.4.4.5 1 .5 1.7a3 3 0 0 1-.9 2.3c-.6.5-1.4.8-2.3.8-.6 0-1 0-1.5-.3a3 3 0 0 1-1-.8l-.7-1.3-.2-1.4h-3.8c0 1 .1 2.1.5 3a6.1 6.1 0 0 0 3.8 3.6 9 9 0 0 0 8-1.2 6 6 0 0 0 2.3-4.7c0-1.2-.3-2.1-1-3a4.3 4.3 0 0 0-2.5-1.5c1-.3 1.6-.8 2-1.5.5-.8.7-1.6.7-2.6 0-.8-.2-1.6-.6-2.3-.3-.7-.9-1.2-1.5-1.7s-1.3-.8-2-1a8.2 8.2 0 0 0-5.2.1 6 6 0 0 0-3.5 3.5c-.3.9-.5 1.8-.5 2.8h3.8c0-1 .2-1.9.7-2.5.5-.7 1.3-1 2.3-1a3 3 0 0 1 2 .7c.5.4.8 1 .8 1.9 0 .5-.2 1-.5 1.3-.2.4-.6.6-1 .8a3 3 0 0 1-1.3.3h-1.4zm13.7 1.8a44.2 44.2 0 0 0 .4 4.3 5 5 0 0 0 1 2c.4.5 1 .7 1.8.7s1.5-.2 2-.8c.4-.5.7-1.1.9-1.9a44.2 44.2 0 0 0 .3-7l-.3-1.5c-.2-.5-.3-1-.6-1.3a3 3 0 0 0-.9-1c-.4-.2-.8-.3-1.4-.3-.5 0-1 .1-1.3.3a3 3 0 0 0-1 1l-.5 1.3a10.3 10.3 0 0 0-.4 3v1.2zm-4 0c0-1.9.2-3.5.6-4.8a10 10 0 0 1 1.6-3.1c.6-.8 1.4-1.4 2.3-1.7a7.6 7.6 0 0 1 5.5 0c.9.3 1.6 1 2.3 1.7.7.8 1.2 1.8 1.6 3.1.4 1.3.5 3 .5 4.8 0 2-.1 3.6-.5 5-.4 1.2-1 2.3-1.6 3-.7.9-1.4 1.4-2.3 1.8a7.6 7.6 0 0 1-5.5 0c-.9-.4-1.7-1-2.3-1.7a8.6 8.6 0 0 1-1.6-3.2c-.4-1.3-.5-3-.5-4.9zm34.4 4.8v1c0 .4.2.8.3 1.1 0 .4.3.7.5 1 .2.2.6.3 1 .3.5 0 .8-.1 1-.4.3-.2.5-.5.6-.9l.2-1a14.2 14.2 0 0 0 0-2c0-.4 0-.8-.2-1.2 0-.3-.3-.6-.5-.9-.2-.2-.5-.3-1-.3-.4 0-.8 0-1 .3-.3.2-.4.5-.6.8l-.2 1.1v1.1zm-2.8 0c0-.8 0-1.5.3-2.2.2-.6.4-1.2.8-1.7l1.5-1.1a5 5 0 0 1 2.1-.4c1 0 1.6.1 2.2.4.6.3 1 .7 1.4 1.2.4.5.7 1 .8 1.7a10 10 0 0 1 0 4.3 4.6 4.6 0 0 1-2.4 2.9c-.6.2-1.3.4-2.1.4a5 5 0 0 1-2.2-.5 3 3 0 0 1-1.4-1.1 5 5 0 0 1-.8-1.8l-.2-2.1zm2.1-15.1h2.4l-11.5 20.8h-2.5l11.6-20.8zm-13.7 5.8v1l.2 1c.1.4.3.7.5.9.3.2.6.3 1 .3.5 0 .9 0 1.1-.3.3-.2.4-.5.6-.8l.2-1a13 13 0 0 0 0-2l-.2-1.2-.5-1c-.3-.3-.6-.4-1-.4-.5 0-.8.1-1 .4-.3.2-.5.5-.6.9-.2.3-.2.7-.3 1.1v1.1zm-2.9 0c0-.8.1-1.5.3-2.2a5 5 0 0 1 .9-1.8c.4-.5.9-.9 1.5-1.2.6-.2 1.3-.4 2.1-.4.9 0 1.6.2 2.2.5a4.3 4.3 0 0 1 2.2 3 10.3 10.3 0 0 1 0 4.3c-.3.6-.6 1.2-1 1.6-.3.5-.8.9-1.4 1.1-.6.3-1.3.4-2.1.4-.9 0-1.6-.1-2.2-.4a3 3 0 0 1-1.4-1.1c-.4-.5-.7-1-.8-1.7l-.3-2.1z" fill="#2AAFEF"/><path d="M271.2 161.6h9V173h-1.6v-10.1h-5.8V173h-1.6v-11.4zm14.8 11.6c-.7 0-1.3-.1-1.8-.4-.4-.2-.9-.5-1.2-.9l-.8-1.3-.2-1.7c0-.6 0-1.2.2-1.7.2-.6.5-1 .8-1.4.3-.4.8-.7 1.2-1 .5-.2 1.1-.3 1.8-.3.6 0 1.2.1 1.7.4a3.6 3.6 0 0 1 2 2.3 5.5 5.5 0 0 1 0 3.4c-.1.5-.4 1-.7 1.3l-1.3 1c-.5.2-1 .3-1.7.3zm0-1.2a2.5 2.5 0 0 0 2.4-1.8l.2-1.3-.2-1.4-.6-1a2.4 2.4 0 0 0-1.8-.8 2.5 2.5 0 0 0-1.8.9c-.3.2-.5.5-.6 1l-.2 1.3c0 .5 0 1 .2 1.3.1.4.3.7.6 1a2.4 2.4 0 0 0 1.8.8zm9 1.2c-.6 0-1.2-.1-1.6-.3a3 3 0 0 1-1.3-.9l-.7-1.3c-.2-.5-.2-1.1-.2-1.7 0-.7 0-1.2.2-1.8l.7-1.4c.3-.4.8-.7 1.2-1a5 5 0 0 1 3-.2l1.2.6.7 1c.2.3.4.7.4 1.2h-1.4a2 2 0 0 0-.7-1.2 2 2 0 0 0-1.3-.5c-.5 0-1 .1-1.3.3l-.8.7a3 3 0 0 0-.4 1 5.6 5.6 0 0 0 0 2.4l.5 1c.1.2.4.5.7.6.3.2.7.3 1.1.3.7 0 1.2-.2 1.6-.5.4-.4.6-.9.7-1.5h1.4c-.2 1-.6 1.8-1.2 2.4-.6.5-1.4.8-2.5.8zm5.1-.1h-.4l-.4-.1v-1.2a1.7 1.7 0 0 0 .6 0c.3 0 .6 0 .8-.4.2-.2.3-.7.4-1.2l.2-2.2v-3.3h5.9v8.3h-1.4v-7h-3.1a277.8 277.8 0 0 1-.4 5c-.2.6-.4 1.1-.7 1.5a2 2 0 0 1-1.5.6zm12.6 0c-.6 0-1.2 0-1.7-.2-.5-.3-1-.6-1.3-1-.3-.3-.5-.8-.7-1.3a5.9 5.9 0 0 1 0-3.5l.8-1.3a3.7 3.7 0 0 1 2.8-1.3 3.2 3.2 0 0 1 3 1.7c.3.4.5 1 .6 1.5.2.5.2 1 .2 1.6h-6.2l.1 1 .5.9.8.6 1.2.2c.5 0 1-.1 1.4-.4.4-.3.6-.7.7-1.2h1.4c-.2 1-.6 1.6-1.2 2-.7.5-1.4.8-2.4.8zm2.2-5c0-.3 0-.7-.2-1a2.3 2.3 0 0 0-2.1-1.4l-1 .2-.7.5-.5.8-.2.9h4.7zm2 3.7h.9l.4-1a14.2 14.2 0 0 0 .6-4.3v-1.8h6v7.1h1.1v3.7h-1.3V173h-6.5v2.5h-1.3v-3.7zm6.6 0v-5.9h-3.3v.7a13.8 13.8 0 0 1-1 5.2h4.3zm3.7-7h1.4v3.2h4.2v-3.3h1.3v8.3h-1.3v-3.8h-4.2v3.8h-1.4v-8.3zm9 0h1.3v6.7l4-6.8h1.7v8.3h-1.4v-6.8L338 173h-1.7v-8.3zm12.6 8.4c-.7 0-1.3-.1-1.8-.3a4 4 0 0 1-1.2-1c-.4-.3-.6-.8-.8-1.3a5.9 5.9 0 0 1 0-3.5c.3-.5.5-1 .9-1.3a3.7 3.7 0 0 1 2.8-1.3 3.5 3.5 0 0 1 3 1.7c.3.4.5 1 .6 1.5l.1 1.6h-6.2c0 .3 0 .7.2 1 0 .3.2.6.4.9l.8.6 1.2.2c.6 0 1-.1 1.4-.4.4-.3.6-.7.7-1.2h1.4c-.2 1-.6 1.6-1.2 2-.6.5-1.4.8-2.3.8zm2.2-5.1l-.2-1a2.3 2.3 0 0 0-2.2-1.4l-1 .2-.7.5-.5.8-.2.9h4.8zm12 4.9v-11.3h-1.1c0 .4-.2.7-.4 1l-.8.7a3 3 0 0 1-1 .3 7 7 0 0 1-1 0v1.2h2.9v8.1h1.3zm5.3-5.6a28.6 28.6 0 0 0 .3 3c.1.4.3.8.6 1.1.4.3.8.5 1.4.5.6 0 1-.2 1.3-.5.4-.3.6-.7.7-1.2.2-.4.3-1 .3-1.5a28.6 28.6 0 0 0 0-3.3l-.3-1c0-.3-.2-.6-.4-.8a2 2 0 0 0-.6-.6 2 2 0 0 0-1-.2 2 2 0 0 0-1 .2 2 2 0 0 0-.6.6c-.2.2-.4.5-.4.8a7.5 7.5 0 0 0-.3 2v1zm-1.5 0a27.3 27.3 0 0 1 .2-2.6c0-.4.2-.8.4-1.2.1-.4.4-.7.6-1a3 3 0 0 1 1-.7 4 4 0 0 1 1.6-.2c.6 0 1 0 1.5.2a3 3 0 0 1 1.7 1.7l.4 1.2.1 1.3a27.3 27.3 0 0 1-.1 4l-.4 1.1-.6 1a3 3 0 0 1-1 .7 4.1 4.1 0 0 1-3.1 0 2.9 2.9 0 0 1-1.7-1.7l-.4-1.2-.2-1.3v-1.3zm10.4 0a28.6 28.6 0 0 0 .2 3l.7 1.1c.4.3.8.5 1.4.5.6 0 1-.2 1.3-.5.4-.3.6-.7.7-1.2.2-.4.3-1 .3-1.5a28.6 28.6 0 0 0 0-3.3l-.3-1c0-.3-.2-.6-.4-.8a2 2 0 0 0-.6-.6 2 2 0 0 0-1-.2 2 2 0 0 0-1 .2 2 2 0 0 0-.7.6l-.4.8a7.5 7.5 0 0 0-.2 2v1zm-1.5 0a27.3 27.3 0 0 1 .2-2.6c0-.4.2-.8.4-1.2.1-.4.4-.7.6-1a3 3 0 0 1 1-.7 4 4 0 0 1 1.6-.2c.6 0 1 0 1.5.2a3 3 0 0 1 1.7 1.7l.4 1.2.1 1.3a27.3 27.3 0 0 1-.1 4l-.4 1.1c-.2.4-.4.8-.7 1a3 3 0 0 1-1 .7c-.4.2-1 .3-1.5.3-.6 0-1.1-.1-1.5-.3a2.9 2.9 0 0 1-1.7-1.7l-.4-1.2-.2-1.3v-1.3zm14.6 8.9h-.5l-.5-.1v-1.3a34.2 34.2 0 0 0 .8.2c.3 0 .5 0 .7-.2.2-.1.3-.3.4-.6l.6-1.3-3.3-8.3h1.5l2.5 6.8 2.3-6.8h1.5l-3.6 9.4-.5 1-.5.7-.7.4-.7.1zm12-6.7l-1 .3-1.3.2c-1 0-1.8-.2-2.2-.7-.5-.4-.7-1-.7-1.8v-2.9h1.4v2.6c0 .6.1 1 .4 1.2.2.3.7.4 1.3.4a5.7 5.7 0 0 0 2.2-.4v-3.8h1.3v8.3h-1.3v-3.4zm5.8 3.6l-1-.1-1-.4a2 2 0 0 1-.6-.8l-.2-1c0-.5.1-.9.3-1.2.1-.3.3-.5.6-.7l.9-.4a10.8 10.8 0 0 1 2-.4l1-.2.6-.3.2-.6c0-.3 0-.5-.2-.7 0-.2-.2-.3-.4-.4l-.6-.2h-.6c-.6 0-1 0-1.5.3-.4.2-.6.6-.6 1.2h-1.4c0-.5.2-1 .4-1.3l.7-.8c.4-.3.7-.4 1.1-.5l1.4-.2 1 .1c.4 0 .8.2 1 .3.4.2.6.4.8.7.2.3.3.7.3 1.2v5l.4.2h.4v1a2 2 0 0 1-1 .2c-.3 0-.6-.1-.8-.3-.2-.2-.3-.5-.3-1a3 3 0 0 1-1.3 1c-.5.2-1 .3-1.6.3zm.3-1.2c.4 0 .8 0 1.1-.2l.8-.5c.2-.1.4-.3.5-.6l.1-.6v-1.4a1 1 0 0 1-.7.3 17.5 17.5 0 0 1-1.8.3l-.8.2-.6.5c-.2.2-.2.4-.2.8l.1.5c0 .2.2.3.4.4l.5.2h.6zm9.4 1.2c-.6 0-1.2-.1-1.7-.3-.5-.2-.9-.5-1.2-.9-.3-.4-.6-.8-.7-1.3a5.2 5.2 0 0 1 0-3.5 3.4 3.4 0 0 1 2-2.4 5 5 0 0 1 3-.2l1 .6.8 1 .4 1.2H420a2 2 0 0 0-.7-1.2 2 2 0 0 0-1.4-.5c-.5 0-.9.1-1.2.3l-.8.7a3 3 0 0 0-.4 1 5.6 5.6 0 0 0 0 2.4c0 .4.2.7.4 1 .2.2.5.5.8.6.3.2.6.3 1 .3.7 0 1.3-.2 1.7-.5.3-.4.6-.9.6-1.5h1.4c-.1 1-.5 1.8-1.1 2.4-.6.5-1.4.8-2.5.8zm7.2-7.3h-3v-1.2h7.3v1.2h-3v7.1H425v-7zm5.4-1.2h1.3v3.3h4.2v-3.3h1.4v8.3h-1.4v-3.8h-4.2v3.8h-1.3v-8.3zm9 0h1.3v6.8l3.9-6.8h1.7v8.3H445v-6.8l-4 6.8h-1.7v-8.3zm9 0h1.3v4l3.8-4h1.8l-3.6 3.6 4 4.7H454l-3.4-4-.9.9v3.1h-1.3v-8.3zm12 8.5c-.7 0-1.3-.1-1.8-.4-.5-.2-.9-.5-1.2-.9-.4-.4-.6-.8-.8-1.3-.2-.6-.2-1.1-.2-1.7 0-.6 0-1.2.2-1.7.2-.6.4-1 .8-1.4a4 4 0 0 1 1.2-1c.5-.2 1.1-.3 1.8-.3.6 0 1.2.1 1.7.4a3.6 3.6 0 0 1 2 2.3 5.5 5.5 0 0 1 0 3.4c-.1.5-.4 1-.7 1.3l-1.3 1c-.5.2-1 .3-1.7.3zm0-1.2a2.5 2.5 0 0 0 2.3-1.8c.2-.4.2-.8.2-1.3s0-1-.2-1.4c0-.4-.3-.7-.5-1a2.4 2.4 0 0 0-1.8-.8 2.5 2.5 0 0 0-1.9.9c-.2.2-.4.5-.5 1l-.2 1.3c0 .5 0 1 .2 1.3l.5 1a2.4 2.4 0 0 0 1.9.8zm5.6-7.3h3.8l1 .1c.4 0 .7.2 1 .3l.6.6c.2.3.2.6.2 1 0 .5 0 .9-.3 1.1-.2.3-.5.5-.9.7.5.1.9.4 1.2.7.3.4.4.8.4 1.4 0 .3 0 .6-.2 1l-.5.7-.8.5-1 .2H466v-8.3zm4.2 7.1c.5 0 .8 0 1-.3.3-.3.4-.6.4-1s-.1-.7-.4-1c-.2-.1-.6-.3-1.2-.3h-2.7v2.6h3zm-.5-3.7c.6 0 1 0 1.2-.3.2-.2.3-.5.3-.8a1 1 0 0 0-.3-.8c-.2-.2-.6-.3-1.2-.3h-2.4v2.2h2.4zm-198.7 15h1.4v4l3.8-4h1.8l-3.7 3.7 4.1 4.6h-1.7l-3.5-3.9-.8.8v3.1H271v-8.2zm10.7 8.5l-1-.1c-.4 0-.6-.2-.9-.4a2 2 0 0 1-.6-.7l-.2-1c0-.5 0-1 .2-1.2l.7-.8.9-.4a10.8 10.8 0 0 1 2-.4c.4 0 .7 0 1-.2l.6-.3.2-.5c0-.3 0-.6-.2-.8l-.4-.4-.6-.2h-.7c-.5 0-1 0-1.4.3-.4.2-.6.6-.6 1.3h-1.4c0-.6.1-1 .3-1.3.2-.4.5-.7.8-.9l1.1-.5 1.3-.1h1.1l1 .4c.3.2.6.4.7.7.2.3.3.7.3 1.2v4.9c.1.2.2.2.5.2h.4v1a2 2 0 0 1-1 .2c-.4 0-.6 0-.8-.3-.3-.2-.4-.5-.4-1-.3.5-.8.8-1.3 1-.5.2-1 .3-1.6.3zm.3-1.2l1.2-.1.8-.5.4-.6.2-.6v-1.4l-.7.3a17.5 17.5 0 0 1-1.8.2c-.3 0-.6.2-.8.3-.3 0-.5.2-.6.4-.2.2-.3.5-.3.8 0 .2 0 .4.2.6l.3.4.5.2h.6zm6-7.2h2l2.5 6.7 2.5-6.7h2v8.2h-1.4V185l-2.5 6.5H292l-2.5-6.5v6.5H288v-8.2zm11 0h6.8v8.2h-1.4v-7h-4v7H299v-8.2zm11.1 8.4l-1-.1c-.4 0-.6-.2-.9-.4a2 2 0 0 1-.6-.7l-.2-1c0-.5 0-1 .2-1.2l.7-.8.9-.4a10.8 10.8 0 0 1 2-.4c.4 0 .7 0 1-.2l.6-.3.2-.5c0-.3 0-.6-.2-.8l-.4-.4-.6-.2h-.7c-.5 0-1 0-1.4.3-.4.2-.6.6-.6 1.3h-1.4c0-.6.1-1 .3-1.3.2-.4.5-.7.8-.9l1.1-.5 1.3-.1h1.1l1 .4c.3.2.6.4.7.7.2.3.3.7.3 1.2v4.9c.1.2.2.2.5.2h.4v1a2 2 0 0 1-1 .2c-.4 0-.6 0-.8-.3-.3-.2-.4-.5-.4-1-.3.5-.8.8-1.3 1-.5.2-1 .3-1.6.3zm.3-1.2l1.2-.1.8-.5.4-.6.2-.6v-1.4l-.7.3a17.5 17.5 0 0 1-1.8.2c-.3 0-.6.2-.8.3-.3 0-.5.2-.6.4-.2.2-.3.5-.3.8 0 .2 0 .4.2.6l.3.4.5.2h.6zm6-7.2h1.4v3.3h4.2v-3.3h1.3v8.2H322v-3.8h-4.2v3.8h-1.4v-8.2zm9 0h1.4v6.7l3.9-6.7h1.7v8.2H331v-6.7l-3.9 6.7h-1.7v-8.2zm9 0h1.4v6.7l4-6.7h1.7v8.2H340v-6.7l-4 6.7h-1.7v-8.2zm13.6 0h6.7v8.2h-1.4v-7h-4v7H348v-8.2zm8.8 0h1.4v1.1a2 2 0 0 1 1-1 4 4 0 0 1 1.6-.3c.7 0 1.2.1 1.7.3.5.3.9.6 1.2 1l.7 1.4c.2.5.2 1 .2 1.6 0 .6 0 1.2-.2 1.7a4 4 0 0 1-.7 1.4c-.3.4-.7.7-1.2.9a3.8 3.8 0 0 1-2.3.3l-.8-.2a3 3 0 0 1-.7-.4l-.5-.7v4.3h-1.4v-11.4zm4 7.2c.4 0 .8 0 1-.2.4-.2.7-.5.9-.8l.4-1 .1-1.2c0-.3 0-.7-.2-1a3 3 0 0 0-.4-1 2.3 2.3 0 0 0-2-1c-.4 0-.8 0-1.1.3-.3.1-.6.4-.8.7a3 3 0 0 0-.5 1 4.8 4.8 0 0 0 0 2.3l.5 1a2.3 2.3 0 0 0 2 1zm5.4-7.2h1.4v6.7l3.9-6.7h1.7v8.2H372v-6.7l-4 6.7h-1.7v-8.2zm13.5 0h6.8v8.2h-1.4v-7h-4v7h-1.4v-8.2zm12.4 8.4c-.6 0-1.2 0-1.7-.3-.5-.2-1-.5-1.3-1-.3-.3-.6-.8-.7-1.3a5.5 5.5 0 0 1 0-3.4c.1-.5.4-1 .7-1.4.4-.3.8-.7 1.3-.9.5-.2 1-.3 1.7-.3s1.2.1 1.7.3a3.6 3.6 0 0 1 2 2.3 5.5 5.5 0 0 1 0 3.4c-.1.5-.4 1-.7 1.4a3 3 0 0 1-1.3.9c-.5.2-1 .3-1.7.3zm0-1.2a2.5 2.5 0 0 0 2.4-1.7l.2-1.4c0-.5 0-1-.2-1.3a2 2 0 0 0-.6-1 2.4 2.4 0 0 0-1.8-.8 2.5 2.5 0 0 0-1.8.8l-.6 1-.2 1.3.2 1.4.6 1a2.4 2.4 0 0 0 1.8.7zm5.6-7.2h1.4v4l3.8-4h1.8l-3.7 3.6 4.1 4.6h-1.7l-3.5-3.9-.8.8v3.1h-1.4v-8.2zm9.3 11.5h-.5l-.5-.1v-1.2a34.2 34.2 0 0 0 .8.1l.7-.1.5-.6.5-1.4-3.3-8.2h1.6l2.4 6.7 2.4-6.7h1.4l-3.6 9.3-.5 1c-.1.3-.3.6-.5.7l-.6.4-.8.1zm7.1-11.5h6.8v8.2h-1.4v-7h-4v7h-1.4v-8.2zm8.8 0h1.4v4l3.8-4h1.8l-3.7 3.6 4.1 4.6h-1.7l-3.5-3.9-.8.8v3.1h-1.4v-8.2zm12 8.4c-.7 0-1.3 0-1.8-.3-.5-.2-.9-.5-1.2-.9a3 3 0 0 1-.7-1.4 5.9 5.9 0 0 1 0-3.4 3.7 3.7 0 0 1 3.6-2.6c.7 0 1.3.1 1.8.4.5.3 1 .7 1.2 1.2l.6 1.5c.1.6.2 1.1.1 1.6h-6.1v1l.5 1c.3.2.5.4.9.5.3.2.7.2 1.1.2.6 0 1 0 1.4-.4.4-.2.7-.6.8-1.2h1.3c-.2 1-.6 1.7-1.2 2.1-.6.5-1.4.7-2.3.7zm2.2-5c0-.4 0-.7-.2-1a2.3 2.3 0 0 0-2.2-1.4c-.3 0-.6 0-1 .2-.2 0-.5.3-.7.5l-.4.7c-.2.3-.2.6-.2 1h4.7zM274.6 210a3 3 0 0 1-1.7-.4 3 3 0 0 1-1.3-.9l-.8-1.3-.2-1.7c0-.6 0-1.2.2-1.7.2-.6.5-1 .8-1.4.3-.4.8-.7 1.3-1 .5-.2 1-.3 1.7-.3.6 0 1.2.1 1.7.4a3.6 3.6 0 0 1 2 2.3 5.5 5.5 0 0 1 0 3.4c-.1.5-.4 1-.7 1.3l-1.3 1c-.5.2-1 .3-1.7.3zm0-1.2a2.5 2.5 0 0 0 2.4-1.8l.2-1.3-.2-1.4c-.2-.4-.3-.7-.6-1a2.4 2.4 0 0 0-1.8-.8 2.5 2.5 0 0 0-1.8.8 2 2 0 0 0-.6 1l-.2 1.4c0 .5 0 1 .2 1.3.1.4.3.7.6 1a2.4 2.4 0 0 0 1.8.8zm7.6-6h-3v-1.3h7.3v1.2h-3v7.1h-1.3v-7zm14.5 7v-11.3h-1c0 .4-.2.7-.4 1l-.8.7a3 3 0 0 1-1 .3 7 7 0 0 1-1 0v1.2h2.9v8.1h1.3zm5.3-5.6a28.6 28.6 0 0 0 .3 3l.7 1.1c.4.3.8.5 1.4.5.6 0 1-.2 1.3-.5.3-.3.6-.7.7-1.2.2-.4.3-1 .3-1.5a28.6 28.6 0 0 0 0-3.3l-.3-1c0-.3-.2-.6-.4-.8a2 2 0 0 0-.6-.6 2 2 0 0 0-1-.2 2 2 0 0 0-1 .2 2 2 0 0 0-.7.6l-.4.8a7.5 7.5 0 0 0-.2 2v1zm-1.4 0a27.3 27.3 0 0 1 .2-2.6c0-.4.2-.8.4-1.2.1-.4.3-.7.6-1a3 3 0 0 1 1-.7 4 4 0 0 1 1.6-.2c.6 0 1 0 1.5.2a3 3 0 0 1 1.7 1.7l.4 1.2.1 1.3a27.3 27.3 0 0 1-.1 4l-.4 1.1c-.2.4-.4.8-.7 1a3 3 0 0 1-1 .7c-.4.2-1 .3-1.5.3-.6 0-1.1-.1-1.5-.3a2.9 2.9 0 0 1-1.7-1.7l-.4-1.2-.2-1.3v-1.3zm14-5.8v11.4h7.9v-1.3H316v-4h6v-1.2h-6v-3.6h6.4v-1.3h-7.9zm12.3 1.3v10.1h1.5v-10.1h3.8v-1.3h-9.1v1.3h3.8zm6.6-1.3v11.4h1.5v-5.2h6v5.2h1.5v-11.4H341v4.9h-6v-5h-1.5zm12.7 35.2h7.9v1.3h-6.3v3.3h3.8c1.1 0 2 .3 2.6.9.6.6.9 1.4.9 2.5s-.3 2-1 2.5c-.5.6-1.4.9-2.5.9h-5.4v-11.4zm4.9 10.1c1.6 0 2.5-.7 2.5-2 0-1.5-.9-2.2-2.5-2.2h-3.3v4.2h3.3zm9.3 1.5a3 3 0 0 1-1.7-.4 3 3 0 0 1-1.3-.9l-.8-1.3-.2-1.7c0-.6 0-1.2.2-1.7.2-.6.5-1 .8-1.4.3-.4.8-.7 1.3-1 .5-.2 1-.3 1.7-.3.6 0 1.2.1 1.7.4a3.6 3.6 0 0 1 2 2.3 5.5 5.5 0 0 1 0 3.4c-.1.5-.4 1-.7 1.3l-1.3 1c-.5.2-1 .3-1.7.3zm0-1.2a2.5 2.5 0 0 0 2.4-1.8l.2-1.3-.2-1.4c-.2-.4-.3-.7-.6-1a2.4 2.4 0 0 0-1.8-.8 2.5 2.5 0 0 0-1.8.9c-.3.2-.5.5-.6 1l-.2 1.3c0 .5 0 1 .2 1.3.1.4.3.7.6 1a2.4 2.4 0 0 0 1.8.8zm5.6-7.3h1.4v3.3h4.2v-3.3h1.3v8.3h-1.3v-3.8h-4.2v3.8H366v-8.3zm9.8 11.6h-.5l-.4-.1v-1.3a34.2 34.2 0 0 0 .8.2c.2 0 .5 0 .6-.2.2-.1.4-.3.5-.6l.6-1.3-3.3-8.3h1.5l2.4 6.8 2.4-6.8h1.4l-3.6 9.4-.5 1-.5.7-.6.4-.8.1zm10.6-3.1c-.6 0-1.2-.1-1.7-.3-.5-.2-.9-.5-1.2-.9-.3-.4-.6-.8-.7-1.3a5.2 5.2 0 0 1 0-3.5 3.4 3.4 0 0 1 2-2.4 5 5 0 0 1 3-.2l1 .6.8 1 .4 1.2h-1.4a2 2 0 0 0-.7-1.2 2 2 0 0 0-1.4-.5c-.5 0-.9.1-1.2.3l-.8.7a3 3 0 0 0-.4 1 5.6 5.6 0 0 0 0 2.4c0 .4.2.7.4 1 .2.2.5.5.8.6.3.2.6.3 1 .3.7 0 1.3-.2 1.7-.5.3-.4.6-.9.6-1.5h1.4c-.1 1-.5 1.8-1.1 2.4-.6.5-1.4.8-2.5.8z" fill="#000"/></g></svg>