<svg width="939" height="295" viewBox="0 0 939 295" xmlns="http://www.w3.org/2000/svg"><title>Group 56</title><defs><linearGradient x1="50%" y1="0%" x2="50%" y2="98.4%" id="a"><stop stop-color="#2FBAFD" offset="0%"/><stop stop-color="#137DB0" offset="100%"/></linearGradient></defs><g fill="none" fill-rule="evenodd"><g transform="translate(678 60)"><rect fill="url(#a)" x="111" width="86" height="193" rx="27"/><text font-family="HelveticaNeue, Helvetica Neue" font-size="18" fill="#000"><tspan x=".8" y="80">&gt;1000 ETH</tspan> <tspan x=".8" y="108">&gt; 800 ETH</tspan> <tspan x=".8" y="136">&gt; 500 ETH</tspan> <tspan x=".8" y="164">&gt; 200 ETH</tspan></text><text font-family="HelveticaNeue-Bold, Helvetica Neue" font-size="18" font-weight="bold" fill="#FFF"><tspan x="133.1" y="81">+10%</tspan> <tspan x="138.1" y="109">+8%</tspan> <tspan x="138.1" y="137">+5%</tspan> <tspan x="138.1" y="165">+2%</tspan></text><text font-family="HelveticaNeue, Helvetica Neue" font-size="18" fill="#FFF"><tspan x="121.5" y="39">Бонусы</tspan></text><text font-family="HelveticaNeue, Helvetica Neue" font-size="18" fill="#000"><tspan x="37" y="39">Сумма</tspan></text></g><text font-family="HelveticaNeue-Bold, Helvetica Neue" font-size="18" font-weight="bold" fill="#3C3C3B"><tspan x="674" y="18">Бонус от количества покупки</tspan></text><path d="M183.5 208.5h75m-75-143h75" stroke="#137EB1" stroke-linecap="square"/><rect fill="url(#a)" x="71" width="100" height="256" rx="17"/><text font-family="HelveticaNeue, Helvetica Neue" font-size="18" fill="#000"><tspan x="0" y="68">0 день</tspan> <tspan x="0" y="96">1 день</tspan> <tspan x="0" y="124">2 день</tspan> <tspan x="0" y="152">3 день</tspan> <tspan x="0" y="180">4 день</tspan> <tspan x="0" y="208">5 день</tspan> <tspan x="0" y="236">6 день</tspan></text><text font-family="HelveticaNeue-Bold, Helvetica Neue" font-size="18" font-weight="bold" fill="#FFF"><tspan x="82.6" y="69">Пресейл</tspan> <tspan x="96.6" y="97">+30%</tspan> <tspan x="96.6" y="125">+25%</tspan> <tspan x="96.6" y="153">+20%</tspan> <tspan x="96.6" y="181">+15%</tspan> <tspan x="96.6" y="209">+10%</tspan> <tspan x="101.6" y="237">+5%</tspan></text><text font-family="HelveticaNeue, Helvetica Neue" font-size="18" fill="#FFF"><tspan x="90" y="27">Бонусы</tspan></text><text font-family="HelveticaNeue, Helvetica Neue" font-size="18" fill="#000"><tspan x="20" y="27">Дни</tspan></text><text font-family="HelveticaNeue-Bold, Helvetica Neue" font-size="28" font-weight="bold" fill="#2AAFEF"><tspan x="266" y="291">30%</tspan></text><text font-family="HelveticaNeue-Bold, Helvetica Neue" font-size="28" font-weight="bold" fill="#2AAFEF"><tspan x="270" y="138">50%</tspan></text><text font-family="HelveticaNeue, Helvetica Neue" font-size="16" fill="#3C3C3B"><tspan x="270" y="62">Закрытый пресейл до </tspan> <tspan x="270" y="80">начала ICO для фондов </tspan> <tspan x="270" y="98">и крупных инвесторов</tspan></text><text font-family="HelveticaNeue, Helvetica Neue" font-size="16" fill="#3C3C3B"><tspan x="347" y="135">Бонус</tspan></text><text font-family="HelveticaNeue, Helvetica Neue" font-size="16" fill="#3C3C3B"><tspan x="337" y="291">Бонус</tspan></text><text font-family="HelveticaNeue, Helvetica Neue" font-size="16" fill="#3C3C3B"><tspan x="266" y="215">Последние 100 </tspan> <tspan x="266" y="233">участников кампании </tspan> <tspan x="266" y="251">при покупке от 10 ETH</tspan></text></g></svg>