<svg width="932" height="289" viewBox="0 0 932 289" xmlns="http://www.w3.org/2000/svg"><title>Group 49</title><defs><linearGradient x1="50%" y1="0%" x2="50%" y2="98.4%" id="a"><stop stop-color="#2FBAFD" offset="0%"/><stop stop-color="#137DB0" offset="100%"/></linearGradient></defs><g fill="none" fill-rule="evenodd"><path d="M173.5 208.5h75m-75-143h75" stroke="#137EB1" stroke-linecap="square"/><g transform="translate(660 81)"><rect fill="url(#a)" x="116" width="86" height="175" rx="17"/><text font-family="HelveticaNeue, Helvetica Neue" font-size="18" fill="#000"><tspan x=".8" y="71">&lt; 1000 ETH</tspan> <tspan x="10.8" y="99">&lt; 800 ETH</tspan> <tspan x="10.8" y="127">&lt; 500 ETH</tspan> <tspan x="10.8" y="155">&lt; 200 ETH</tspan></text><text font-family="HelveticaNeue-Bold, Helvetica Neue" font-size="18" font-weight="bold" fill="#FFF"><tspan x="138.1" y="72">+10%</tspan> <tspan x="143.1" y="100">+8%</tspan> <tspan x="143.1" y="128">+5%</tspan> <tspan x="143.1" y="156">+2%</tspan></text><text font-family="HelveticaNeue, Helvetica Neue" font-size="18" fill="#FFF"><tspan x="123.3" y="30">Bonuses</tspan></text><text font-family="HelveticaNeue, Helvetica Neue" font-size="18" fill="#000"><tspan x="42" y="30">Summ</tspan></text></g><rect fill="url(#a)" x="61" width="100" height="256" rx="17"/><text font-family="HelveticaNeue, Helvetica Neue" font-size="18" fill="#000"><tspan x=".6" y="68">0 day</tspan> <tspan x=".6" y="96">1 day</tspan> <tspan x=".6" y="124">2 day</tspan> <tspan x=".6" y="152">3 day</tspan> <tspan x=".6" y="180">4 day</tspan> <tspan x=".6" y="208">5 day</tspan> <tspan x=".6" y="236">6 day</tspan></text><text font-family="HelveticaNeue-Bold, Helvetica Neue" font-size="18" font-weight="bold" fill="#FFF"><tspan x="79" y="69">Presale</tspan> <tspan x="86.6" y="97">+30%</tspan> <tspan x="86.6" y="125">+25%</tspan> <tspan x="86.6" y="153">+20%</tspan> <tspan x="86.6" y="181">+15%</tspan> <tspan x="86.6" y="209">+10%</tspan> <tspan x="91.6" y="237">+5%</tspan></text><text font-family="HelveticaNeue, Helvetica Neue" font-size="18" fill="#FFF"><tspan x="76.8" y="27">Bonuses</tspan></text><text font-family="HelveticaNeue, Helvetica Neue" font-size="18" fill="#000"><tspan x="10" y="27">Days</tspan></text><text font-family="HelveticaNeue-Bold, Helvetica Neue" font-size="18" font-weight="bold" fill="#3C3C3B" transform="translate(0 -1)"><tspan x="612.3" y="18">Bonus according to certain ammount</tspan></text><text font-family="HelveticaNeue-Bold, Helvetica Neue" font-size="28" font-weight="bold" fill="#2AAFEF" transform="translate(0 -1)"><tspan x="258" y="289">30%</tspan></text><text font-family="HelveticaNeue-Bold, Helvetica Neue" font-size="28" font-weight="bold" fill="#2AAFEF" transform="translate(0 -1)"><tspan x="260" y="136">50%</tspan></text><text font-family="HelveticaNeue, Helvetica Neue" font-size="16" fill="#3C3C3B" transform="translate(0 -1)"><tspan x="260" y="63">Closed preasale for cryptofunds and big </tspan> <tspan x="260" y="81">participants before the start of the ICO</tspan></text><text font-family="HelveticaNeue, Helvetica Neue" font-size="16" fill="#3C3C3B" transform="translate(0 -1)"><tspan x="329" y="133">Bonus</tspan></text><text font-family="HelveticaNeue, Helvetica Neue" font-size="16" fill="#3C3C3B" transform="translate(0 -1)"><tspan x="329" y="289">Bonus</tspan></text><text font-family="HelveticaNeue, Helvetica Neue" font-size="16" fill="#3C3C3B" transform="translate(0 -1)"><tspan x="256" y="206">Last 100 campaign </tspan> <tspan x="256" y="224">participants above 10 ETH</tspan></text></g></svg>