<svg width="265" height="236" viewBox="0 0 265 236" xmlns="http://www.w3.org/2000/svg"><title>Group 2</title><defs><linearGradient x1="50%" y1="0%" x2="50%" y2="98.4%" id="a"><stop stop-color="#2FBAFD" offset="0%"/><stop stop-color="#137DB0" offset="100%"/></linearGradient></defs><g fill="none" fill-rule="evenodd"><path d="M.8 135v1.1L10 132v-1.1l-9.2-4.2v1.3l7.7 3.4L.8 135zm16.4 1v-12.8H16c0 .5-.2 1-.4 1.2-.3.3-.5.6-.9.8l-1 .3-1.3.1v1.3h3.3v9.1h1.5zm6-6.3a32.2 32.2 0 0 0 .3 3.3c.2.5.4 1 .8 1.3.4.4.9.6 1.5.6a2 2 0 0 0 1.5-.6c.4-.3.6-.8.8-1.3.2-.5.3-1 .3-1.7a32.2 32.2 0 0 0 0-3.8l-.3-1a3 3 0 0 0-.4-1l-.8-.7-1-.2c-.5 0-.9 0-1.2.2l-.7.7a3 3 0 0 0-.5 1 8.4 8.4 0 0 0-.3 2.2v1zm-1.6 0a30.7 30.7 0 0 1 .2-2.9c0-.5.2-1 .4-1.4l.7-1.1c.3-.3.7-.6 1.2-.8.5-.2 1-.3 1.7-.3s1.2.1 1.7.3a3.4 3.4 0 0 1 2 2l.3 1.3.2 1.5a30.7 30.7 0 0 1-.2 4.4 7 7 0 0 1-.4 1.3l-.7 1.2c-.3.3-.7.5-1.2.7a4 4 0 0 1-1.7.3c-.6 0-1.2 0-1.7-.3a3.3 3.3 0 0 1-2-1.9 10 10 0 0 1-.6-2.8v-1.5zm11.6 0a32.2 32.2 0 0 0 .3 3.3c.2.5.4 1 .8 1.3.4.4.9.6 1.5.6a2 2 0 0 0 1.5-.6c.4-.3.7-.8.8-1.3.2-.5.3-1 .3-1.7a32.2 32.2 0 0 0 0-3.8l-.3-1a3 3 0 0 0-.4-1l-.8-.7-1-.2c-.5 0-.9 0-1.2.2l-.7.7a3 3 0 0 0-.5 1 8.4 8.4 0 0 0-.3 2.2v1zm-1.6 0a30.7 30.7 0 0 1 .2-2.9c0-.5.2-1 .4-1.4l.7-1.1c.4-.3.7-.6 1.2-.8.5-.2 1-.3 1.7-.3s1.2.1 1.7.3a3.4 3.4 0 0 1 2 2l.4 1.3.1 1.5a30.7 30.7 0 0 1-.1 4.4 7 7 0 0 1-.5 1.3c-.1.5-.4.8-.7 1.2-.3.3-.7.5-1.2.7a4 4 0 0 1-1.7.3c-.6 0-1.2 0-1.7-.3a3.3 3.3 0 0 1-1.9-1.9 10 10 0 0 1-.6-2.8v-1.5zm11.6 0a32.2 32.2 0 0 0 .3 3.3l.8 1.3c.4.4.9.6 1.5.6a2 2 0 0 0 1.5-.6c.4-.3.7-.8.8-1.3.2-.5.3-1 .3-1.7a32.2 32.2 0 0 0 0-3.8l-.3-1a3 3 0 0 0-.4-1l-.8-.7-1-.2c-.5 0-.9 0-1.2.2l-.7.7a3 3 0 0 0-.5 1 8.4 8.4 0 0 0-.3 2.2v1zm-1.6 0a30.7 30.7 0 0 1 .2-2.9c0-.5.2-1 .4-1.4l.7-1.1 1.2-.8c.5-.2 1-.3 1.7-.3s1.3.1 1.7.3a3.4 3.4 0 0 1 2 2l.4 1.3.1 1.5a30.7 30.7 0 0 1-.1 4.4 7 7 0 0 1-.5 1.3c-.1.5-.4.8-.7 1.2-.3.3-.7.5-1.2.7a4 4 0 0 1-1.7.3c-.6 0-1.2 0-1.7-.3a3.3 3.3 0 0 1-1.9-1.9 10 10 0 0 1-.6-2.8v-1.5zm15.6-6.6V136h9v-1.4h-7.3V130h6.7v-1.4H59v-4.1h7V123h-8.9zm14 1.5V136h1.7v-11.4H77V123H67v1.5h4.3zm7.4-1.5V136h1.7v-5.9H87v5.9h1.8v-12.9H87v5.6h-6.7V123h-1.7zM.8 163v1.1L10 160v-1.1l-9.2-4.2v1.3l7.7 3.4L.8 163zm17.8-8.4c0 .3 0 .6.2.9 0 .2.3.4.5.6l.7.4.9.1c.6 0 1-.2 1.5-.5.4-.4.6-.9.6-1.5 0-.7-.2-1.2-.6-1.5-.4-.3-1-.5-1.6-.5a3 3 0 0 0-.8.1 2 2 0 0 0-1.2 1l-.2.9zm-1.6-.1c0-.5 0-1 .3-1.4l.8-1 1.2-.6 1.4-.3a5 5 0 0 1 1.8.3c.5.2.9.4 1.2.8l.7 1 .2 1.2a3 3 0 0 1-1.8 2.6c.8.3 1.4.7 1.7 1.2.4.6.6 1.2.6 2 0 .7-.1 1.2-.3 1.7a3.6 3.6 0 0 1-2.3 2l-1.6.2a6 6 0 0 1-1.7-.2c-.6-.2-1-.4-1.4-.8a4 4 0 0 1-1-1.2 4 4 0 0 1 .3-3.6c.4-.6 1-1 1.7-1.3-.6-.2-1-.5-1.3-1-.4-.5-.5-1-.5-1.6zm1.1 5.9c0 .8.3 1.4.8 1.8.5.4 1.2.7 2 .7l1-.2.8-.5c.3-.3.5-.5.6-.8a2.5 2.5 0 0 0 0-2l-.6-.7a2.8 2.8 0 0 0-1.9-.7l-1 .1-.9.5a2.3 2.3 0 0 0-.8 1.8zm10-2.7a32.2 32.2 0 0 0 .4 3.3c.2.5.4 1 .8 1.3.4.4.9.6 1.5.6a2 2 0 0 0 1.5-.6c.4-.3.6-.8.8-1.3.2-.5.3-1 .3-1.7a32.2 32.2 0 0 0 0-3.8l-.3-1a3 3 0 0 0-.4-1l-.8-.7-1-.2c-.5 0-.9 0-1.2.2l-.7.7a3 3 0 0 0-.5 1 8.4 8.4 0 0 0-.3 2.2v1zm-1.5 0a30.7 30.7 0 0 1 .2-2.9c0-.5.2-1 .4-1.4l.7-1.1c.3-.3.7-.6 1.2-.8.5-.2 1-.3 1.7-.3s1.2.1 1.7.3a3.4 3.4 0 0 1 2 2c.1.4.3.8.3 1.3l.2 1.5a30.7 30.7 0 0 1-.2 4.4 7 7 0 0 1-.4 1.3c-.1.5-.4.8-.7 1.2-.3.3-.7.5-1.2.7a4 4 0 0 1-1.7.3c-.6 0-1.2 0-1.7-.3a3.3 3.3 0 0 1-1.9-1.9 10 10 0 0 1-.6-2.8v-1.5zm11.6 0a32.2 32.2 0 0 0 .3 3.3l.8 1.3c.4.4.9.6 1.5.6a2 2 0 0 0 1.5-.6c.4-.3.7-.8.8-1.3.2-.5.3-1 .3-1.7a32.2 32.2 0 0 0 0-3.8l-.3-1a3 3 0 0 0-.4-1l-.8-.7-1-.2c-.5 0-.9 0-1.2.2l-.7.7a3 3 0 0 0-.5 1 8.4 8.4 0 0 0-.3 2.2v1zm-1.6 0a30.7 30.7 0 0 1 .2-2.9c0-.5.2-1 .4-1.4l.7-1.1c.4-.3.7-.6 1.2-.8.5-.2 1-.3 1.7-.3s1.3.1 1.7.3a3.4 3.4 0 0 1 2 2l.4 1.3.1 1.5a30.7 30.7 0 0 1-.1 4.4 7 7 0 0 1-.5 1.3c-.1.5-.4.8-.7 1.2-.3.3-.7.5-1.2.7a4 4 0 0 1-1.7.3c-.6 0-1.2 0-1.7-.3a3.3 3.3 0 0 1-1.9-1.9 10 10 0 0 1-.6-2.8v-1.5zm15.6-6.6V164h9v-1.4h-7.3V158h6.7v-1.4H54v-4.1h7.2V151h-8.9zm14 1.5V164h1.7v-11.4H72V151H62v1.5h4.3zm7.4-1.5V164h1.7v-5.9H82v5.9h1.8v-12.9H82v5.6h-6.7V151h-1.7zM.8 191v1.1L10 188v-1.1l-9.2-4.2v1.3l7.7 3.4L.8 191zm23.5-10.2v-1.3H18l-1.2 6.6H18l1-.8c.4-.2.9-.4 1.4-.4.4 0 .8.1 1.1.3a2.6 2.6 0 0 1 1.5 1.5c.2.3.2.7.2 1.1 0 .5 0 1-.2 1.4-.1.3-.3.7-.6 1l-.8.5-1 .2c-.4 0-.8 0-1.1-.2a2.5 2.5 0 0 1-1.4-1.2l-.2-1h-1.6c0 .6.2 1.2.4 1.6.2.5.5.8.9 1.2.3.3.8.5 1.2.7l1.6.2a5 5 0 0 0 2-.4A4 4 0 0 0 25 188c0-.8-.1-1.4-.4-2l-.8-1.3c-.4-.4-.8-.7-1.4-.8-.5-.2-1-.3-1.6-.3a4 4 0 0 0-1.3.2c-.4.2-.8.4-1 .7l.6-3.7h5.2zm3.9 5a32.2 32.2 0 0 0 .3 3.2c.2.5.4 1 .8 1.3.4.4.9.6 1.5.6a2 2 0 0 0 1.5-.6c.4-.3.6-.8.8-1.3.2-.5.3-1 .3-1.7a32.2 32.2 0 0 0 0-3.8l-.3-1a3 3 0 0 0-.4-1l-.8-.7-1-.2c-.5 0-.9 0-1.2.2l-.7.7a3 3 0 0 0-.5 1 8.4 8.4 0 0 0-.3 2.2v1zm-1.6 0a30.7 30.7 0 0 1 .2-3c0-.5.2-1 .4-1.4l.7-1.1c.3-.3.7-.6 1.2-.8.5-.2 1-.3 1.7-.3s1.2.1 1.7.3a3.4 3.4 0 0 1 2 2c.1.4.3.8.3 1.3l.2 1.5a30.7 30.7 0 0 1-.2 4.4 7 7 0 0 1-.4 1.3c-.1.5-.4.8-.7 1.2-.3.3-.7.5-1.2.7a4 4 0 0 1-1.7.3c-.6 0-1.2 0-1.7-.3a3.3 3.3 0 0 1-1.9-1.9 10 10 0 0 1-.6-2.8v-1.5zm11.6 0a32.2 32.2 0 0 0 .3 3.2l.8 1.3c.4.4.9.6 1.5.6a2 2 0 0 0 1.5-.6c.4-.3.7-.8.8-1.3.2-.5.3-1 .3-1.7a32.2 32.2 0 0 0 0-3.8l-.3-1a3 3 0 0 0-.4-1l-.8-.7-1-.2c-.5 0-.9 0-1.2.2l-.7.7a3 3 0 0 0-.5 1 8.4 8.4 0 0 0-.3 2.2v1zm-1.6 0a30.7 30.7 0 0 1 .2-3c0-.5.2-1 .4-1.4l.7-1.1c.4-.3.7-.6 1.2-.8.5-.2 1-.3 1.7-.3s1.3.1 1.7.3a3.4 3.4 0 0 1 2 2l.4 1.3.1 1.5a30.7 30.7 0 0 1-.1 4.4 7 7 0 0 1-.5 1.3c-.1.5-.4.8-.7 1.2-.3.3-.7.5-1.2.7a4 4 0 0 1-1.7.3c-.6 0-1.2 0-1.7-.3a3.3 3.3 0 0 1-1.9-1.9 10 10 0 0 1-.6-2.8v-1.5zm15.6-6.7V192h9v-1.4h-7.3V186h6.7v-1.4H54v-4.1h7.2V179h-8.9zm14 1.5V192h1.7v-11.4H72V179H62v1.5h4.3zm7.4-1.5V192h1.7v-5.9H82v5.9h1.8v-12.9H82v5.6h-6.7V179h-1.7zM.8 219v1.1L10 216v-1.1l-9.2-4.2v1.3l7.7 3.4L.8 219zm15.8-7.2h1.5l.1-1.2.5-1c.2-.3.4-.5.8-.7a2 2 0 0 1 1.1-.3c.3 0 .7 0 1 .2a2.3 2.3 0 0 1 1.3 1.1l.2 1c0 .4 0 .8-.2 1.2a3 3 0 0 1-.6.9l-1 .9a35.6 35.6 0 0 1-2.8 1.7 5.2 5.2 0 0 0-1.9 2.4l-.4 2h8.4v-1.3H18c0-.4.2-.8.5-1.1l.8-.9 1.1-.7a124.1 124.1 0 0 0 2.4-1.5l1-1c.2-.3.5-.7.6-1.1a4.1 4.1 0 0 0 0-3.1 3.8 3.8 0 0 0-2.1-1.8 4.9 4.9 0 0 0-3.4 0 3.7 3.7 0 0 0-2.1 2.5c-.2.5-.2 1.1-.2 1.8zm11.6 2a32.2 32.2 0 0 0 .3 3.2c.2.5.4 1 .8 1.3.4.4.9.6 1.5.6a2 2 0 0 0 1.5-.6c.4-.3.6-.8.8-1.3.2-.5.3-1 .3-1.7a32.2 32.2 0 0 0 0-3.8l-.3-1a3 3 0 0 0-.4-1l-.8-.7-1-.2c-.5 0-.9 0-1.2.2l-.7.7a3 3 0 0 0-.5 1 8.4 8.4 0 0 0-.3 2.2v1zm-1.6 0a30.7 30.7 0 0 1 .2-3c0-.5.2-1 .4-1.4l.7-1.1c.3-.3.7-.6 1.2-.8.5-.2 1-.3 1.7-.3s1.2.1 1.7.3a3.4 3.4 0 0 1 2 2c.1.4.3.8.3 1.3l.2 1.5a30.7 30.7 0 0 1-.2 4.4 7 7 0 0 1-.4 1.3c-.1.5-.4.8-.7 1.2-.3.3-.7.5-1.2.7a4 4 0 0 1-1.7.3c-.6 0-1.2 0-1.7-.3a3.3 3.3 0 0 1-1.9-1.9 10 10 0 0 1-.6-2.8v-1.5zm11.6 0a32.2 32.2 0 0 0 .3 3.2l.8 1.3c.4.4.9.6 1.5.6a2 2 0 0 0 1.5-.6c.4-.3.7-.8.8-1.3.2-.5.3-1 .3-1.7a32.2 32.2 0 0 0 0-3.8l-.3-1a3 3 0 0 0-.4-1l-.8-.7-1-.2c-.5 0-.9 0-1.2.2l-.7.7a3 3 0 0 0-.5 1 8.4 8.4 0 0 0-.3 2.2v1zm-1.6 0a30.7 30.7 0 0 1 .2-3c0-.5.2-1 .4-1.4l.7-1.1c.4-.3.7-.6 1.2-.8.5-.2 1-.3 1.7-.3s1.3.1 1.7.3a3.4 3.4 0 0 1 2 2l.4 1.3.1 1.5a30.7 30.7 0 0 1-.1 4.4 7 7 0 0 1-.5 1.3c-.1.5-.4.8-.7 1.2-.3.3-.7.5-1.2.7a4 4 0 0 1-1.7.3c-.6 0-1.2 0-1.7-.3a3.3 3.3 0 0 1-1.9-1.9 10 10 0 0 1-.6-2.8v-1.5zm15.6-6.7V220h9v-1.4h-7.3V214h6.7v-1.4H54v-4.1h7.2V207h-8.9zm14 1.5V220h1.7v-11.4H72V207H62v1.5h4.3zm7.4-1.5V220h1.7v-5.9H82v5.9h1.8v-12.9H82v5.6h-6.7V207h-1.7zM6.7 94.3c-1 0-1.9-.2-2.6-.5-.7-.4-1.4-.8-1.8-1.4A6 6 0 0 1 1 90.2 9 9 0 0 1 1 85c.3-.8.7-1.6 1.2-2.2a6 6 0 0 1 2-1.4c.7-.4 1.6-.6 2.6-.6.6 0 1.3.1 1.9.3l1.6.8a4.5 4.5 0 0 1 1.8 3.1h-1.8c-.2-.9-.6-1.6-1.2-2a4 4 0 0 0-2.4-.7c-.7 0-1.4.1-2 .4-.5.3-1 .7-1.3 1.2a5 5 0 0 0-.8 1.6l-.2 2a6.5 6.5 0 0 0 1 3.8A3.9 3.9 0 0 0 7 92.9l1.5-.3a3.4 3.4 0 0 0 1.8-2l.4-1.4h1.7a5.8 5.8 0 0 1-1.7 3.7c-1 1-2.2 1.4-3.9 1.4zm8.4 3.4a4 4 0 0 1-.5 0c-.2 0-.4 0-.6-.2v-1.4a38.5 38.5 0 0 0 1 .3c.3 0 .5-.1.7-.3.2-.1.4-.3.5-.6l.6-1.6-3.7-9.2H15l2.7 7.6 2.6-7.6H22l-4.1 10.5-.5 1.2-.6.7a2 2 0 0 1-.7.5l-.9.1zm8-13h2.2l2.9 7.5 2.8-7.5h2.2V94h-1.5v-7.4L28.9 94h-1.4l-2.8-7.4V94H23v-9.3zm12.4 0h2.2l2.9 7.5 2.8-7.5h2.2V94h-1.5v-7.4L41.3 94h-1.4L37 86.6V94h-1.6v-9.3zm15 9.5a5 5 0 0 1-1.2-.1l-1-.5c-.3-.2-.5-.5-.6-.8-.2-.3-.3-.7-.3-1.2s.1-1 .3-1.3l.7-.8 1-.5a12.1 12.1 0 0 1 2.4-.4l1-.2c.2-.1.5-.2.6-.4.2-.1.3-.3.3-.6 0-.4 0-.6-.2-.8L53 86a2 2 0 0 0-.6-.2 5 5 0 0 0-.8 0c-.6 0-1.2 0-1.6.3-.4.2-.7.7-.7 1.4h-1.5c0-.6.1-1 .3-1.5.2-.4.5-.7.9-1l1.2-.5 1.5-.1H53l1 .4c.4.2.7.5.9.8.2.4.3.8.3 1.3v5.6c.1.2.3.3.5.3l.5-.1V94l-1.1.2c-.4 0-.7-.1-1-.3-.2-.3-.3-.6-.3-1.1-.5.5-1 .8-1.5 1a4 4 0 0 1-1.8.4zm.3-1.3l1.3-.2 1-.6.4-.6.2-.7v-1.6c-.2.2-.5.3-.8.3a19.7 19.7 0 0 1-2 .3l-1 .3-.6.5c-.2.2-.3.5-.3.9 0 .3 0 .5.2.6 0 .2.2.4.4.5l.5.2h.7zM1.2.1h9.6v2.4H4v2.4h3.3a5 5 0 0 1 1.8.2 4.4 4.4 0 0 1 2.5 2c.2.5.3 1.1.3 1.8s-.1 1.3-.4 1.9c-.2.5-.5.9-1 1.2a4 4 0 0 1-1.4.8l-2 .2h-6V.1zM7 10.7c.7 0 1.2-.1 1.6-.4.4-.2.5-.7.5-1.4L9 8.1a1 1 0 0 0-.5-.6 2 2 0 0 0-.7-.3 4 4 0 0 0-.9 0H4.1v3.5H7zm11 2.5c-.7 0-1.4 0-2-.3a4.3 4.3 0 0 1-2.4-2.5 5.7 5.7 0 0 1 0-4A4.4 4.4 0 0 1 16 3.7a5.4 5.4 0 0 1 4 0 4.3 4.3 0 0 1 2.5 2.5c.2.6.3 1.3.3 2 0 .8 0 1.5-.3 2a3 3 0 0 1-1 1.6 4 4 0 0 1-1.5 1 6 6 0 0 1-2 .3zm0-1.9c.5 0 .8 0 1.1-.2l.7-.7.4-1a5.5 5.5 0 0 0 0-2.1c0-.4-.2-.7-.4-1a2 2 0 0 0-.7-.7l-1-.2a2 2 0 0 0-1.2.2 2 2 0 0 0-.6.7l-.4 1a5.6 5.6 0 0 0 0 2.1c0 .4.2.7.4 1 .1.3.4.5.6.7l1.1.2zm6.5-7.6h2.6V7h3.6V3.7h2.5V13h-2.5V9h-3.6v4h-2.6V3.7zm12 12.6a11.2 11.2 0 0 1-1.5-.1V14a17.8 17.8 0 0 0 1.3 0c.4 0 .7 0 .9-.3.2-.2.3-.5.3-.8l-.1-.6-3.3-8.7H37l2 6.4 2.1-6.4h2.7l-4 10.5c-.2.7-.6 1.2-1 1.6-.6.3-1.3.5-2.1.5zm12.4-3a5 5 0 0 1-1.9-.4 4.3 4.3 0 0 1-2.4-2.5c-.3-.6-.4-1.2-.4-2l.3-2 1-1.5a3 3 0 0 1 1.5-1 5.8 5.8 0 0 1 3.6-.2c.5.1 1 .3 1.3.6A3.5 3.5 0 0 1 53.5 7H51c-.2-1.1-.8-1.6-2-1.6-.3 0-.7 0-1 .2-.2.2-.5.5-.6.8l-.4 1a5.3 5.3 0 0 0 0 2c0 .4.2.7.3 1l.7.7 1 .2c.6 0 1.1-.1 1.4-.5.4-.3.6-.8.6-1.4h2.5a4.2 4.2 0 0 1-1.4 2.9 5 5 0 0 1-3 1zm15.5 0c-.8 0-1.4-.2-2-.4a4.3 4.3 0 0 1-2.5-2.5c-.2-.6-.3-1.3-.3-2 0-.8 0-1.5.3-2a4.4 4.4 0 0 1 2.5-2.6 5.4 5.4 0 0 1 4 0A4.3 4.3 0 0 1 69 6.3c.2.6.3 1.3.3 2 0 .8-.1 1.5-.3 2a4.2 4.2 0 0 1-2.5 2.5c-.6.3-1.3.4-2 .4zm0-2c.4 0 .8 0 1-.2.4-.2.6-.4.8-.7.1-.3.3-.6.3-1a5.5 5.5 0 0 0 0-2.1c0-.4-.2-.7-.3-1a2 2 0 0 0-.7-.7l-1.1-.2a2 2 0 0 0-1.1.2 2 2 0 0 0-.7.7l-.4 1a5.6 5.6 0 0 0 0 2.1l.4 1 .7.7 1 .2zm8.7-5.7h-3v-2h8.6v2h-3V13h-2.6V5.6zm11.8-2h2.6v3.9L91 3.7h3l-4 4.1 4.5 5.2h-3.1L88 9.1l-.5.6V13H85V3.7zm14.8 9.6c-.7 0-1.3 0-2-.3a4.3 4.3 0 0 1-2.4-2.5 5.7 5.7 0 0 1 0-4 4.4 4.4 0 0 1 2.5-2.6 5.4 5.4 0 0 1 4 0 4.3 4.3 0 0 1 2.4 2.5 5.6 5.6 0 0 1 0 4 3 3 0 0 1-1 1.6 4 4 0 0 1-1.5 1 6 6 0 0 1-2 .3zm0-1.9c.5 0 .8 0 1.1-.2.3-.2.6-.4.7-.7l.4-1a5.5 5.5 0 0 0 0-2.1c0-.4-.2-.7-.4-1a2 2 0 0 0-.7-.7l-1-.2a2 2 0 0 0-1.1.2 2 2 0 0 0-.7.7l-.4 1a5.6 5.6 0 0 0 0 2.1c0 .4.2.7.4 1 .1.3.4.5.7.7l1 .2zm7 1.8a3.6 3.6 0 0 1-1.1-.1v-2h.5l.6-.1.4-.8.3-1.7.1-2.9V3.7h7.6V13h-2.6V5.6H110a45.1 45.1 0 0 1-.8 5.8c-.2.6-.5 1-1 1.3-.3.3-.8.4-1.5.4zM117 3.7h2.5V10l3.5-6.3h2.9V13h-2.5V6.7L120 13h-2.9V3.7zm16.6 5.9l-1 .2-1.5.2c-1.3 0-2.2-.3-2.7-.9-.6-.6-.8-1.4-.8-2.4v-3h2.5v2.5c0 .7.1 1.2.4 1.4.3.3.7.4 1.3.4a5.7 5.7 0 0 0 1.8-.3v-4h2.6V13h-2.6V9.6zm8.8 3.6c-.7 0-1.3 0-2-.3a4.1 4.1 0 0 1-2.4-2.6 5.7 5.7 0 0 1 0-3.9 4.6 4.6 0 0 1 4.4-3c.8 0 1.4.2 2 .5.6.2 1 .6 1.4 1a5.8 5.8 0 0 1 1.2 3.6V9h-6.8c0 .8.3 1.4.7 1.8.4.3 1 .5 1.6.5.5 0 1-.1 1.4-.4.3-.2.6-.5.6-.8h2.3c-.4 1.1-1 2-1.7 2.4-.7.5-1.6.7-2.7.7zm2-5.9a3 3 0 0 0-.6-1.4c-.3-.4-.8-.5-1.4-.5-.5 0-.8 0-1 .2a2 2 0 0 0-1 1.1l-.2.6h4.2zm8.5 6a5 5 0 0 1-2-.4 4.3 4.3 0 0 1-2.4-2.5 6 6 0 0 1-.3-2c0-.6 0-1.3.3-2 .2-.5.5-1 1-1.5.3-.5.8-.8 1.4-1a5.8 5.8 0 0 1 3.6-.2 3.5 3.5 0 0 1 2.8 3.3H155c-.2-1.1-.8-1.6-1.9-1.6-.4 0-.7 0-1 .2l-.7.8-.4 1a5.3 5.3 0 0 0 0 2l.4 1 .7.7 1 .2c.6 0 1-.1 1.4-.5.3-.3.5-.8.6-1.4h2.5a4.2 4.2 0 0 1-1.5 2.9 5 5 0 0 1-3 1zm8.2-7.7h-3v-2h8.6v2h-3V13h-2.6V5.6zm6.8-2h5.4l1.1.2 1 .4.6.8c.2.3.2.6.2 1a2 2 0 0 1-1.2 2c.4 0 .8.3 1.2.7.3.4.5.9.5 1.5 0 .5-.1.9-.3 1.2-.1.4-.4.7-.7.9a3 3 0 0 1-1 .5 4 4 0 0 1-1.2.2H168V3.7zm4.4 7.7h.7c.2 0 .3 0 .5-.2l.4-.3.1-.7-.1-.6a1 1 0 0 0-.4-.4l-.6-.2h-2.5v2.4h2zm-.2-3.9h.6c.2 0 .3 0 .5-.2l.3-.3.1-.5v-.6l-.4-.3-.5-.2h-2.3v2.1h1.7zm9 5.8l-1.3-.1-1-.5-.7-.9a3 3 0 0 1-.2-1.2c0-.6 0-1 .3-1.3.2-.4.4-.7.7-.9l1-.4a10.8 10.8 0 0 1 2.3-.4l1-.2c.3 0 .5-.1.7-.3l.2-.6-.1-.6a1 1 0 0 0-.4-.4l-.5-.2h-.7a2 2 0 0 0-1.2.3l-.5 1h-2.5c0-.5.2-1 .4-1.4a3 3 0 0 1 1-1l1.4-.5a7.8 7.8 0 0 1 3 0c.5 0 .9.1 1.3.3l1 .8c.2.4.3.8.3 1.4v4.8l.1 1.2c0 .4.2.7.3.9h-2.6a3.7 3.7 0 0 1-.2-.9c-.4.4-.9.7-1.4.9-.6.2-1.2.2-1.7.2zm1-1.7c.4 0 .8 0 1-.2.4-.2.6-.4.7-.6l.2-.7V8.4l-.3.3-.5.1a8.8 8.8 0 0 1-1.2.2 4 4 0 0 0-.6.1c-.2 0-.3.2-.5.3l-.3.4-.1.6v.5l.4.4.5.2h.6zm11.5-7.8h8.6V13h-2.6V5.6h-3.4V13h-2.6V3.7zm15 9.5c-.7 0-1.3 0-2-.3a4.3 4.3 0 0 1-2.4-2.5 5.7 5.7 0 0 1 0-4 4.4 4.4 0 0 1 2.5-2.6 5.4 5.4 0 0 1 4 0 4.3 4.3 0 0 1 2.4 2.5 5.6 5.6 0 0 1 0 4 3 3 0 0 1-1 1.6 4 4 0 0 1-1.5 1 6 6 0 0 1-2 .3zm0-1.9c.5 0 .8 0 1.1-.2.3-.2.6-.4.7-.7l.4-1a5.5 5.5 0 0 0 0-2.1c0-.4-.2-.7-.4-1a2 2 0 0 0-.7-.7l-1-.2a2 2 0 0 0-1.1.2 2 2 0 0 0-.7.7l-.4 1a5.6 5.6 0 0 0 0 2.1c0 .4.2.7.4 1 .1.3.4.5.7.7l1 .2zm6.5-7.6h2.6v3.8l3.4-3.8h3l-3.9 4.1 4.4 5.2h-3l-3.4-3.9-.5.6V13h-2.6V3.7zM227 16.3a11.2 11.2 0 0 1-1.5-.1V14a17.8 17.8 0 0 0 1.3 0c.4 0 .7 0 .9-.3.2-.2.3-.5.3-.8l-.1-.6-3.3-8.7h2.7l2.1 6.4 2-6.4h2.7l-3.9 10.5a3 3 0 0 1-1.1 1.6 4 4 0 0 1-2 .5zm8-12.6h8.5V13H241V5.6h-3.4V13H235V3.7zm10.5 0h2.5v3.8l3.5-3.8h3l-4 4.1L255 13h-3.1l-3.3-3.9-.6.6V13h-2.5V3.7zm10.3 0h2.5V10l3.5-6.3h2.9V13H262V6.7l-3.5 6.3h-2.9V3.7z" fill="#000"/><rect fill="url(#a)" fill-rule="nonzero" x="112" y="68" width="100" height="168" rx="17"/><path d="M144.4 130.5v-3.6h-2v3.6H139v2h3.5v3.5h2v-3.6h3.6v-2h-3.6zm11.5 5.5v-12.6h-2l-.5 1.2c-.3.3-.5.6-.9.8l-1 .4a6 6 0 0 1-1.4.1v2h3.2v8.1h2.6zm5.8-6.4a28.4 28.4 0 0 0 .3 2.8c.1.5.3 1 .6 1.2.3.4.7.5 1.2.5s1-.1 1.2-.5c.3-.3.5-.7.6-1.2l.2-1.4a28.4 28.4 0 0 0 0-3l-.2-1a3 3 0 0 0-.3-.9 2 2 0 0 0-.6-.6c-.3-.2-.6-.2-1-.2-.3 0-.5 0-.8.2l-.6.6-.3.9a6.6 6.6 0 0 0-.2 1.9v.7zm-2.5 0c0-1.2.1-2.2.4-3 .2-.9.5-1.5 1-2 .4-.6.9-1 1.4-1.1.6-.2 1.2-.4 1.8-.4a5 5 0 0 1 1.8.4c.5.2 1 .5 1.5 1l1 2c.2.9.3 2 .3 3.1 0 1.3 0 2.4-.3 3.2-.3.9-.6 1.5-1 2-.5.5-1 .9-1.5 1.1a5 5 0 0 1-3.6 0c-.5-.2-1-.6-1.4-1-.5-.6-.8-1.2-1-2-.3-1-.4-2-.4-3.3zm22 3.1l.1.7.1.7.4.6.6.2c.3 0 .5 0 .7-.2l.4-.6.1-.7a9.1 9.1 0 0 0 0-1.3l-.1-.7-.4-.6a.8.8 0 0 0-.6-.2 1 1 0 0 0-.7.2l-.3.5-.2.7v.7zm-1.7 0l.1-1.4c.2-.4.3-.7.6-1 .2-.4.6-.6 1-.8.3-.2.8-.3 1.3-.3.6 0 1 .1 1.4.3.4.2.7.4 1 .8l.4 1a6.4 6.4 0 0 1 0 2.8 2 2 0 0 1-.6 1.1c-.2.4-.5.6-1 .8l-1.3.2c-.5 0-1 0-1.4-.2l-.9-.8a3 3 0 0 1-.5-1.1 6 6 0 0 1-.1-1.4zm1.3-9.7h1.6l-7.4 13.4h-1.6l7.4-13.4zm-8.8 3.7v.7l.1.7.4.5.7.2c.2 0 .4 0 .6-.2l.4-.5.1-.7a8.4 8.4 0 0 0 0-1.3l-.1-.7c0-.3-.2-.5-.4-.7a.8.8 0 0 0-.6-.2 1 1 0 0 0-.6.2l-.4.6-.2.7v.7zm-1.8 0l.1-1.4.6-1.1 1-.8c.3-.2.8-.3 1.3-.3.6 0 1 .1 1.4.3l1 .8.4 1.2a6.6 6.6 0 0 1 0 2.7 3 3 0 0 1-.6 1.1c-.2.3-.5.5-.9.7-.4.2-.8.3-1.4.3-.5 0-1-.1-1.4-.3l-.9-.7-.5-1.1-.1-1.4zm-20.8 31.8v-3.6h-2v3.6H144v2h3.5v3.5h2v-3.6h3.6v-2h-3.6zm7.5-3.7c0 .6.2 1 .6 1.3.4.2.8.4 1.3.4.6 0 1-.2 1.4-.4.3-.3.5-.7.5-1.3v-.5a1.5 1.5 0 0 0-1-1c-.2-.2-.5-.2-.9-.2h-.7a2 2 0 0 0-.6.4l-.5.6-.1.7zm-2.3-.2c0-.6.1-1 .4-1.5a2 2 0 0 1 1-1 2 2 0 0 1 1.3-.7 5.5 5.5 0 0 1 3.5.1c.5.2 1 .5 1.3.9a3.2 3.2 0 0 1 1 2.1 3 3 0 0 1-.5 1.7 3 3 0 0 1-1.4 1c.8.2 1.3.5 1.7 1 .5.6.7 1.3.7 2a3.6 3.6 0 0 1-1.5 3c-.5.4-1 .6-1.5.8-.6.2-1.2.2-1.8.2a7 7 0 0 1-1.7-.2c-.6-.1-1.1-.4-1.6-.7a3 3 0 0 1-1-1.2c-.3-.5-.4-1.1-.4-1.8 0-.8.2-1.5.6-2a3 3 0 0 1 1.7-1v-.1c-.6-.2-1-.5-1.4-1-.3-.4-.4-1-.4-1.6zm2 5.6a2.1 2.1 0 0 0 .7 1.5l.7.5a2.5 2.5 0 0 0 1.7 0l.7-.5c.2-.1.3-.4.4-.6a2.3 2.3 0 0 0 0-1.7 2 2 0 0 0-1.1-1c-.3-.2-.6-.2-.9-.2-.6 0-1.1.2-1.5.5-.5.3-.7.8-.7 1.5zm19.7.5v.7l.1.7.4.6.6.2c.3 0 .5 0 .7-.2l.4-.6v-.7a9.1 9.1 0 0 0 0-1.3v-.7l-.4-.6a.8.8 0 0 0-.6-.2 1 1 0 0 0-.7.2c-.1.1-.3.3-.3.5l-.2.7v.7zm-1.9 0l.2-1.4c.1-.4.3-.7.6-1 .2-.4.6-.6 1-.8.3-.2.8-.3 1.3-.3.6 0 1 .1 1.4.3.4.2.7.4 1 .8l.4 1a6.4 6.4 0 0 1 0 2.8 2 2 0 0 1-.6 1.1c-.2.4-.5.6-1 .8l-1.3.2c-.5 0-1 0-1.4-.2-.4-.2-.7-.5-.9-.8a3 3 0 0 1-.5-1.1 6 6 0 0 1-.2-1.4zm1.4-9.7h1.6l-7.5 13.4h-1.5l7.4-13.4zm-8.8 3.7v.7l.1.7.4.5.6.2c.3 0 .5 0 .7-.2l.4-.5.1-.7a8.4 8.4 0 0 0 0-1.3l-.1-.7-.4-.7a.8.8 0 0 0-.6-.2 1 1 0 0 0-.7.2l-.3.6-.2.7v.7zm-1.8 0l.1-1.4c.2-.4.3-.8.6-1.1.2-.3.6-.6 1-.8.3-.2.8-.3 1.3-.3.6 0 1 .1 1.4.3l1 .8.4 1.2a6.6 6.6 0 0 1 0 2.7 3 3 0 0 1-.6 1.1c-.2.3-.5.5-.9.7-.4.2-.8.3-1.4.3-.5 0-1-.1-1.4-.3-.3-.2-.7-.4-.9-.7l-.5-1.1-.1-1.4zm-15.8 31.8v-3.6h-2v3.6H144v2h3.5v3.5h2v-3.6h3.6v-2h-3.6zm13.4-5v-2.1h-7l-1.3 7h2.3l.8-.8c.3-.2.7-.2 1.2-.2l.9.1a2 2 0 0 1 1 1.3 2.9 2.9 0 0 1 0 1.8c0 .3-.2.6-.4.8l-.6.5a2 2 0 0 1-1 .2 2 2 0 0 1-1.4-.5 2 2 0 0 1-.6-1.3H154c0 .6.2 1.2.4 1.7.3.5.6 1 1 1.2.5.4 1 .6 1.5.8.6.2 1.2.2 1.8.2a4.6 4.6 0 0 0 3.3-1.2 4.6 4.6 0 0 0 1.1-5 3.6 3.6 0 0 0-3.6-2.6c-.5 0-1 .1-1.4.3-.4.1-.7.4-1 .7h-.1l.5-2.9h5.2zm13.5 7.2v.7l.1.7.4.6.6.2c.3 0 .5 0 .7-.2l.4-.6v-.7a9.1 9.1 0 0 0 0-1.3v-.7l-.4-.6a.8.8 0 0 0-.6-.2 1 1 0 0 0-.7.2c-.1.1-.3.3-.3.5l-.2.7v.7zm-1.9 0l.2-1.4c.1-.4.3-.7.6-1 .2-.4.6-.6 1-.8.3-.2.8-.3 1.3-.3.6 0 1 .1 1.4.3.4.2.7.4 1 .8l.4 1a6.4 6.4 0 0 1 0 2.8 2 2 0 0 1-.6 1.1c-.2.4-.5.6-1 .8l-1.3.2c-.5 0-1 0-1.4-.2-.4-.2-.7-.5-.9-.8a3 3 0 0 1-.5-1.1 6 6 0 0 1-.2-1.4zm1.4-9.7h1.6l-7.5 13.4h-1.5l7.4-13.4zm-8.8 3.7v.7l.1.7.4.5.6.2c.3 0 .5 0 .7-.2l.4-.5.1-.7a8.4 8.4 0 0 0 0-1.3l-.1-.7-.4-.7a.8.8 0 0 0-.6-.2 1 1 0 0 0-.7.2l-.3.6-.2.7v.7zm-1.8 0l.1-1.4c.2-.4.3-.8.6-1.1.2-.3.6-.6 1-.8.3-.2.8-.3 1.3-.3.6 0 1 .1 1.4.3l1 .8.4 1.2a6.6 6.6 0 0 1 0 2.7 3 3 0 0 1-.6 1.1c-.2.3-.5.5-.9.7-.4.2-.8.3-1.4.3-.5 0-1-.1-1.4-.3-.3-.2-.7-.4-.9-.7l-.5-1.1-.1-1.4zm-15.8 31.8v-3.6h-2v3.6H144v2h3.5v3.5h2v-3.6h3.6v-2h-3.6zm5-2.3h2.5l.1-1 .3-1 .7-.6c.2-.2.5-.3 1-.3s1 .2 1.3.6c.3.3.5.8.5 1.4 0 .4 0 .7-.3 1-.1.3-.3.6-.6.8l-.9.7a25 25 0 0 0-3.7 2.8 5 5 0 0 0-1.1 3.4h9.2v-2.2h-6c.4-.4.7-.8 1.2-1.1a16.7 16.7 0 0 1 2.5-1.8l1.1-1c.4-.3.6-.7.9-1.2.2-.4.3-1 .3-1.6a3.8 3.8 0 0 0-1.3-3l-1.4-.7a5 5 0 0 0-1.7-.3 5 5 0 0 0-2 .4 4 4 0 0 0-1.4 1.1 5 5 0 0 0-.9 1.6 6 6 0 0 0-.2 2zm21.9 4.5v.7l.1.7.4.6.6.2c.3 0 .5 0 .7-.2l.4-.6v-.7a9.1 9.1 0 0 0 0-1.3v-.7l-.4-.6a.8.8 0 0 0-.6-.2 1 1 0 0 0-.7.2c-.1.1-.3.3-.3.5l-.2.7v.7zm-1.9 0l.2-1.4c.1-.4.3-.7.6-1 .2-.4.6-.6 1-.8.3-.2.8-.3 1.3-.3.6 0 1 .1 1.4.3.4.2.7.4 1 .8l.4 1a6.4 6.4 0 0 1 0 2.8 2 2 0 0 1-.6 1.1c-.2.4-.5.6-1 .8l-1.3.2c-.5 0-1 0-1.4-.2-.4-.2-.7-.5-.9-.8a3 3 0 0 1-.5-1.1 6 6 0 0 1-.2-1.4zm1.4-9.7h1.6l-7.5 13.4h-1.5l7.4-13.4zm-8.8 3.7v.7l.1.7.4.5.6.2c.3 0 .5 0 .7-.2l.4-.5.1-.7a8.4 8.4 0 0 0 0-1.3l-.1-.7-.4-.7a.8.8 0 0 0-.6-.2 1 1 0 0 0-.7.2l-.3.6-.2.7v.7zm-1.8 0l.1-1.4c.2-.4.3-.8.6-1.1.2-.3.6-.6 1-.8.3-.2.8-.3 1.3-.3.6 0 1 .1 1.4.3l1 .8.4 1.2a6.6 6.6 0 0 1 0 2.7 3 3 0 0 1-.6 1.1c-.2.3-.5.5-.9.7-.4.2-.8.3-1.4.3-.5 0-1-.1-1.4-.3-.3-.2-.7-.4-.9-.7l-.5-1.1-.1-1.4zM131.4 81.1h8.8v1.5h-7v3.8h4.2c1.3 0 2.2.3 3 1a4 4 0 0 1 1 2.8 4 4 0 0 1-1 2.8c-.8.7-1.7 1-3 1h-6V81.1zm5.4 11.5c2 0 2.8-.8 2.8-2.4 0-1.6-.9-2.4-2.8-2.4h-3.7v4.8h3.7zm10.5 1.6c-.7 0-1.4-.1-2-.4a4 4 0 0 1-1.4-1l-.8-1.5c-.2-.6-.3-1.3-.3-2 0-.6 0-1.3.3-1.9.2-.6.5-1 .8-1.5a4 4 0 0 1 1.5-1 4 4 0 0 1 2-.4c.6 0 1.3.1 1.9.4a4 4 0 0 1 2.2 2.5 6.2 6.2 0 0 1 0 3.9c-.1.6-.4 1-.8 1.5a4 4 0 0 1-1.4 1c-.6.3-1.3.4-2 .4zm0-1.3a2.8 2.8 0 0 0 2.7-2l.2-1.5c0-.6 0-1.1-.2-1.5l-.6-1.2a2.6 2.6 0 0 0-2-.9 2.8 2.8 0 0 0-2.1 1c-.3.2-.5.6-.7 1l-.2 1.6c0 .5 0 1 .2 1.5.2.4.4.8.7 1a2.7 2.7 0 0 0 2 1zm6.3-8.2h1.6v3.7h4.7v-3.7h1.5V94H160v-4.3h-4.7V94h-1.6v-9.3zm11 13a4 4 0 0 1-.5 0c-.2 0-.3 0-.5-.2v-1.4a38.5 38.5 0 0 0 1 .3c.2 0 .5-.1.7-.3l.5-.6.6-1.6-3.7-9.2h1.7l2.8 7.6 2.6-7.6h1.6l-4 10.5-.6 1.2-.5.7a2 2 0 0 1-.7.5l-1 .1zm12-3.5c-.7 0-1.4-.1-2-.3-.5-.3-1-.6-1.3-1l-.8-1.5a6.8 6.8 0 0 1 0-3.9c.2-.6.4-1.1.8-1.6.4-.4.8-.8 1.4-1 .5-.3 1.2-.4 1.9-.4.5 0 1 0 1.5.2.4 0 .9.3 1.2.6.4.2.7.5.9 1 .2.4.4.8.4 1.4H179c0-.6-.3-1-.7-1.4-.4-.3-1-.5-1.6-.5-.5 0-1 .1-1.4.3l-.8.8a3 3 0 0 0-.5 1.2 6.3 6.3 0 0 0 0 2.6c0 .4.2.8.5 1.1l.8.8c.3.2.8.3 1.2.3.8 0 1.4-.2 1.8-.6.4-.4.7-1 .8-1.7h1.6c-.2 1.2-.6 2-1.3 2.7a4 4 0 0 1-2.8.9zm5.8-9.5h1.5v3.6h2.9c.9 0 1.6.2 2.2.7.5.5.8 1.2.8 2.1 0 .9-.2 1.6-.8 2.1a3 3 0 0 1-2.1.8h-4.5v-9.3zm3.9 8c1.3 0 2-.6 2-1.6s-.7-1.5-2-1.5h-2.4v3h2.4zm5-8h1.5V94h-1.5v-9.3z" fill="#FFF"/></g></svg>