<svg width="914" height="317" viewBox="0 0 914 317" xmlns="http://www.w3.org/2000/svg"><title>Group 49</title><defs><linearGradient x1="50%" y1="0%" x2="50%" y2="98.4%" id="a"><stop stop-color="#2FBAFD" offset="0%"/><stop stop-color="#137DB0" offset="100%"/></linearGradient></defs><g fill="none" fill-rule="evenodd"><path d="M183.5 208.5h75m-75-143h75" stroke="#137EB1" stroke-linecap="square"/><g transform="translate(670 81)"><rect fill="url(#a)" x="116" width="86" height="175" rx="17"/><text font-family="HelveticaNeue, Helvetica Neue" font-size="18" fill="#000"><tspan x=".8" y="71">&lt; 1000 ETH</tspan> <tspan x="10.8" y="99">&lt; 800 ETH</tspan> <tspan x="10.8" y="127">&lt; 500 ETH</tspan> <tspan x="10.8" y="155">&lt; 200 ETH</tspan></text><text font-family="HelveticaNeue-Bold, Helvetica Neue" font-size="18" font-weight="bold" fill="#FFF"><tspan x="138.1" y="72">+10%</tspan> <tspan x="143.1" y="100">+8%</tspan> <tspan x="143.1" y="128">+5%</tspan> <tspan x="143.1" y="156">+2%</tspan></text><text font-family="HelveticaNeue, Helvetica Neue" font-size="18" fill="#FFF"><tspan x="126.5" y="30">Бонусы</tspan></text><text font-family="HelveticaNeue, Helvetica Neue" font-size="18" fill="#000"><tspan x="42" y="30">Сумма</tspan></text></g><rect fill="url(#a)" x="71" width="100" height="256" rx="17"/><text font-family="HelveticaNeue, Helvetica Neue" font-size="18" fill="#000"><tspan x="0" y="68">0 день</tspan> <tspan x="0" y="96">1 день</tspan> <tspan x="0" y="124">2 день</tspan> <tspan x="0" y="152">3 день</tspan> <tspan x="0" y="180">4 день</tspan> <tspan x="0" y="208">5 день</tspan> <tspan x="0" y="236">6 день</tspan></text><text font-family="HelveticaNeue-Bold, Helvetica Neue" font-size="18" font-weight="bold" fill="#FFF"><tspan x="82.6" y="69">Пресейл</tspan> <tspan x="96.6" y="97">+30%</tspan> <tspan x="96.6" y="125">+25%</tspan> <tspan x="96.6" y="153">+20%</tspan> <tspan x="96.6" y="181">+15%</tspan> <tspan x="96.6" y="209">+10%</tspan> <tspan x="101.6" y="237">+5%</tspan></text><text font-family="HelveticaNeue, Helvetica Neue" font-size="18" fill="#FFF"><tspan x="90" y="27">Бонусы</tspan></text><text font-family="HelveticaNeue, Helvetica Neue" font-size="18" fill="#000"><tspan x="20" y="27">Дни</tspan></text><text font-family="HelveticaNeue-Bold, Helvetica Neue" font-size="18" font-weight="bold" fill="#3C3C3B" transform="translate(0 -1)"><tspan x="649.2" y="18">Бонус от количества покупки</tspan></text><text font-family="HelveticaNeue-Bold, Helvetica Neue" font-size="28" font-weight="bold" fill="#2AAFEF" transform="translate(0 -1)"><tspan x="268" y="314">30%</tspan></text><text font-family="HelveticaNeue-Bold, Helvetica Neue" font-size="28" font-weight="bold" fill="#2AAFEF" transform="translate(0 -1)"><tspan x="270" y="136">50%</tspan></text><text font-family="HelveticaNeue, Helvetica Neue" font-size="16" fill="#3C3C3B" transform="translate(0 -1)"><tspan x="270" y="63">Закрытый пресейл до </tspan> <tspan x="270" y="81">начала ICO для фондов </tspan> <tspan x="270" y="99">и крупных инвесторов</tspan></text><text font-family="HelveticaNeue, Helvetica Neue" font-size="16" fill="#3C3C3B" transform="translate(0 -1)"><tspan x="347" y="133">Бонус</tspan></text><text font-family="HelveticaNeue, Helvetica Neue" font-size="16" fill="#3C3C3B" transform="translate(0 -1)"><tspan x="339" y="314">Бонус</tspan></text><text font-family="HelveticaNeue, Helvetica Neue" font-size="16" fill="#3C3C3B" transform="translate(0 -1)"><tspan x="266" y="216">Последние 100 </tspan> <tspan x="266" y="234">участников кампании </tspan> <tspan x="266" y="252">при покупке от 10 ETH</tspan></text></g></svg>