<svg width="1197" height="230" viewBox="0 0 1197 230" xmlns="http://www.w3.org/2000/svg" xmlns:xlink="http://www.w3.org/1999/xlink"><title>Group</title><defs><linearGradient x1="0%" y1="50%" x2="99.6%" y2="50%" id="c"><stop stop-color="#28A2DD" offset="0%"/><stop stop-color="#34ADE7" offset="9%"/><stop stop-color="#2A83AE" offset="10.6%"/><stop stop-color="#29A3DD" offset="12.8%"/><stop stop-color="#2AA4DE" offset="34.4%"/><stop stop-color="#207FAD" offset="36.7%"/><stop stop-color="#2EA7E1" offset="38.4%"/><stop stop-color="#29A3DE" offset="100%"/></linearGradient><path d="M0 105.4h93a29 29 0 0 0 26-19l-1 2.7A28.8 28.8 0 0 1 144 70h235.7a38 38 0 0 0 29.8-17.4l-.4.8A38 38 0 0 1 439 36h729.7v62.6H439c-11 0-24.5 7.7-30 17.2l.2-.5a38.6 38.6 0 0 1-30 17.3H144a29 29 0 0 0-26 19l1-2.7A28.9 28.9 0 0 1 93 168H0v-62.6z" id="b"/><filter x="-50%" y="-50%" width="200%" height="200%" filterUnits="objectBoundingBox" id="a"><feOffset dy="-53" in="SourceAlpha" result="shadowOffsetOuter1"/><feGaussianBlur stdDeviation="7" in="shadowOffsetOuter1" result="shadowBlurOuter1"/><feColorMatrix values="0 0 0 0 0 0 0 0 0 0 0 0 0 0 0 0 0 0 0.0674252717 0" in="shadowBlurOuter1"/></filter></defs><g fill="none" fill-rule="evenodd"><g transform="matrix(1 0 0 -1 14 199)"><use fill="#000" filter="url(#a)" xlink:href="#b"/><use fill="url(#c)" xlink:href="#b"/></g><text font-family="HelveticaNeue-Bold, Helvetica Neue" font-size="18" font-weight="bold" fill="#3C3C3B" transform="translate(14 -5)"><tspan x="16.9" y="18">1 день</tspan></text><text font-family="HelveticaNeue-Bold, Helvetica Neue" font-size="18" font-weight="bold" fill="#3C3C3B" transform="translate(14 -5)"><tspan x="222.6" y="53">1 неделя</tspan></text><text font-family="HelveticaNeue-Bold, Helvetica Neue" font-size="18" font-weight="bold" fill="#3C3C3B" transform="translate(14 -5)"><tspan x="754.4" y="85">2-3 неделя</tspan></text><text font-family="HelveticaNeue-Bold, Helvetica Neue" font-size="18" font-weight="bold" fill="#FFF" transform="translate(14 -5)"><tspan x="24.1" y="76">+25%</tspan></text><text font-family="HelveticaNeue-Bold, Helvetica Neue" font-size="18" font-weight="bold" fill="#FFF" transform="translate(14 -5)"><tspan x="239.6" y="107">+10%</tspan></text><text font-family="HelveticaNeue-Bold, Helvetica Neue" font-size="18" font-weight="bold" fill="#FFF" transform="translate(14 -5)"><tspan x="785.1" y="141">+0%</tspan></text></g></svg>