<?xml version="1.0" encoding="utf-8"?>
<!-- Generator: Adobe Illustrator 21.0.0, SVG Export Plug-In . SVG Version: 6.00 Build 0)  -->
<svg version="1.1" id="Слой_1" xmlns="http://www.w3.org/2000/svg" xmlns:xlink="http://www.w3.org/1999/xlink" x="0px" y="0px"
	 viewBox="0 0 114 86" style="enable-background:new 0 0 114 86;" xml:space="preserve">
<style type="text/css">
	.st0{fill:none;stroke:#2FBAFD;stroke-width:3;stroke-linecap:round;stroke-linejoin:round;stroke-miterlimit:10;}
</style>
<g>
	<g>
		<circle class="st0" cx="59.1" cy="43" r="32.3"/>
		<line class="st0" x1="59.2" y1="10.7" x2="59.2" y2="75.3"/>
		<line class="st0" x1="26.8" y1="42.9" x2="91.4" y2="42.9"/>
		<path class="st0" d="M82.3,20.5C75.8,25.3,67.8,28,59.1,28c-8.6,0-16.5-2.7-23-7.4"/>
		<path class="st0" d="M36.1,65.2c6.5-4.7,14.5-7.5,23.2-7.5c8.6,0,16.5,2.7,23,7.4"/>
		<g>
			<path class="st0" d="M53.7,11.5C46.3,19.9,41.9,30.9,41.9,43c0,12.2,4.5,23.4,12,31.8"/>
			<path class="st0" d="M64.6,74.8c7.3-8.4,11.8-19.5,11.8-31.5c0-12.2-4.5-23.4-12-31.8"/>
		</g>
	</g>
</g>
</svg>
