<svg width="102" height="97" viewBox="0 0 102 97" xmlns="http://www.w3.org/2000/svg"><title>icon-hand-eth</title><defs><filter x="-50%" y="-50%" width="200%" height="200%" filterUnits="objectBoundingBox" id="a"><feOffset in="SourceAlpha" result="shadowOffsetOuter1"/><feGaussianBlur stdDeviation="1" in="shadowOffsetOuter1" result="shadowBlurOuter1"/><feColorMatrix values="0 0 0 0 0.0478077898 0 0 0 0 0.472202924 0 0 0 0 0.677083333 0 0 0 1 0" in="shadowBlurOuter1" result="shadowMatrixOuter1"/><feMerge><feMergeNode in="shadowMatrixOuter1"/><feMergeNode in="SourceGraphic"/></feMerge></filter></defs><path d="M93.6 64.9c-1.9-.1-5.7 2-6.8 2.5a117.7 117.7 0 0 0-13.2 7.7c-1.5 1-3.2 1.7-5 2-9.9 2.1-24.4 2.3-24.4 2.3h-.8c-.6 0-1.2-.4-1.3-1 0-.7.4-1.3 1.1-1.4l21.5-2a4.6 4.6 0 0 0 4-5 4.7 4.7 0 0 0-4.9-4.1l-19.2-.2c-1.3 0-3.4-.3-4.6-.7-12.4-3.6-19.3-.2-23 1.4a4.2 4.2 0 0 0-4-2.1l-8.4.5A4.9 4.9 0 0 0 0 69.9l1.3 18.3a5 5 0 0 0 5.3 4.6l8.3-.6a4.4 4.4 0 0 0 3.8-2.7L55 91.1c4 .4 7.8-.1 11.4-1.9l1-.5 27.4-16.1a4.7 4.7 0 0 0 2.4-3.7c.1-1.8-1-3.9-3.6-4zM9.7 88.4A2.7 2.7 0 0 1 7 85.7C7 84.2 8.2 83 9.7 83c1.6 0 2.8 1.2 2.8 2.7 0 1.5-1.3 2.7-2.8 2.7zm63.5-17.2v-1.5c0-.6-.2-1.3-.4-1.9v-.1c3-1.6 8.6-4.3 11.7-5.5 1.6-.6 3.1-.6 4.5.4L86 64c-3.3 1.6-9 4.7-11.9 6.7l-.9.5zM69 63.1c2-1 6.2-2.4 8.1-3.1 1.5-.6 3-.6 4.4.3-2.2 1-6.5 2.5-8.6 3.6l-1.4.8-.4.3a7.6 7.6 0 0 0-2-1.9zM48.5.6a25.5 25.5 0 1 0 0 51 25.5 25.5 0 0 0 0-51zm-.4 46L35.8 29.3l12.3 7.2v10.1zm0-12.7l-12.4-7.2 12.4-5.4v12.6zm0-13.5l-12 5.3 12-20.1v14.8zm.8-14.8L61 25.7l-12-5.3V5.6zm0 41V36.5l12.3-7.2-12.3 17.3zm0-12.7V21.3l12.4 5.4-12.4 7.2z" filter="url(#a)" transform="translate(2 2)" fill="#FFF"/></svg>