<svg width="87" height="70" viewBox="0 0 87 70" xmlns="http://www.w3.org/2000/svg"><title>icon-handshake</title><path d="M47.4 10.3l10-10L87 29.7l-10 10zM13.9 39l4 4a5.5 5.5 0 0 0 0 7.8 5.6 5.6 0 0 0 4.3 1.6c-.1 1.5.4 3 1.6 4.3a5.6 5.6 0 0 0 4.3 1.5 5.5 5.5 0 0 0 6 5.9c-.1 1.5.4 3.1 1.6 4.3a5.7 5.7 0 0 0 7.9 0 5.7 5.7 0 0 0 8 0A5.4 5.4 0 0 0 53 64c1.6.1 3.2-.4 4.4-1.6a5.4 5.4 0 0 0 1.6-4.3c1.5.1 3.1-.4 4.3-1.5a5.5 5.5 0 0 0 1.6-4.3 6 6 0 0 0 4.4-1.6 5.5 5.5 0 0 0 0-7.8l4-4-27.8-27.3-4 4-2-2 2-2L29.7 0 0 29.3 11.9 41l2-2zm23.8-23.4l2 2-10 9.7a5.5 5.5 0 0 0 0 7.9 5.7 5.7 0 0 0 8 0l9.9-9.8 19.8 19.5a3 3 0 0 1 0 4 3 3 0 0 1-4 0l-6-6-2 2 6 5.9c1.1 1 1.1 2.8 0 3.9-1 1-2.8 1-4 0l-5.9-5.9-2 2 6 5.9c1 1 1 2.8 0 3.9a3 3 0 0 1-4 0l-6-5.9-1.9 2 6 5.8a3 3 0 0 1 0 4c-1.1 1-3 1-4 0L15.9 37l21.8-21.5z" fill="#2FBAFD"/></svg>