<svg width="54" height="54" viewBox="0 0 54 54" xmlns="http://www.w3.org/2000/svg"><title>Shape</title><defs><linearGradient x1="50%" y1="0%" x2="50%" y2="98.8%" id="a"><stop stop-color="#2FBAFD" offset="0%"/><stop stop-color="#0B80B8" offset="100%"/></linearGradient></defs><path d="M393.6 3847.9c-.8-2.2-2.2-2.9-3.6-2.9h-36c-1.4 0-2.8.7-3.6 2.9l-5.4 15c0 6.6 2.8 7.3 5.4 7.3 2.8 0 5.4-1.3 5.4-3.6 0 2.3 2.6 3.6 5.4 3.6 2.8 0 5.4-1.3 5.4-3.6 0 2.3 2.6 3.6 5.4 3.6 2.8 0 5.4-1.3 5.4-3.6 0 2.3 2.6 3.6 5.4 3.6 2.8 0 5.4-1.3 5.4-3.6 0 2.3 2.6 3.6 5.4 3.6 2.6 0 5.4-.7 5.4-7.2l-5.4-15.1zm-5.4 24.5c-1.5.9-3.3 1.3-5.4 1.3s-4-.4-5.4-1.3c-1.5.9-3.3 1.3-5.4 1.3s-4-.4-5.4-1.3c-1.5.9-3.3 1.3-5.4 1.3s-4-.4-5.4-1.3a11 11 0 0 1-5.4 1.3 11.8 11.8 0 0 1-1.8 0v21.6a3.6 3.6 0 0 0 3.6 3.6h3.6v-18h10.8v18h25.2c2 0 3.6-1.6 3.6-3.6v-21.7a11.8 11.8 0 0 1-1.8.1c-2 0-4-.4-5.4-1.3zm0 19.3h-14.4V3881h14.4v10.8z" transform="translate(-345 -3845)" fill="url(#a)"/></svg>