<svg width="67" height="58" viewBox="0 0 67 58" xmlns="http://www.w3.org/2000/svg"><title>icon</title><path d="M51 32.6a8.4 8.4 0 0 0-3.1-3.2c-1-.5-2.3-1-4-1.5a12 12 0 0 0 3.9-2c1-1 1.8-2 2.3-3a8.2 8.2 0 0 0 .8-3.6 8 8 0 0 0-1.5-4.7 9.6 9.6 0 0 0-4.3-3.3c-1.1-.4-2.5-.7-4-.9V5l-5.3-1v6.2h-3.4V4.7L27.2 4v6.2H16v5.2h1.5c1 0 1.6 0 2 .3.3.1.6.4.7.7.2.3.2 1 .2 2.1v21c0 1 0 1.8-.2 2.1-.1.3-.4.6-.7.8l-2 .2H16v5.2h11.2V53l5.2 1v-6.2h3.4v5.3l5.3.9v-6.5a18 18 0 0 0 4.3-1c2.2-.9 3.9-2.2 5-3.9a9.2 9.2 0 0 0 .7-10zM29.9 16.3h4c2.5 0 4.2.1 5.1.4a4 4 0 0 1 2.1 1.5c.5.7.8 1.6.8 2.5 0 1-.3 1.8-.8 2.6a5 5 0 0 1-2.3 1.6c-1 .4-2.7.5-4.8.5h-4.1v-9.1zm11.6 23.2c-.7 1-1.6 1.6-2.7 1.9-1 .3-2.3.4-4 .4H32l-1.7-.1a.9.9 0 0 1-.4-.6l-.1-2V31h4.8c2.2 0 3.7.2 4.8.6 1 .3 1.8 1 2.3 1.7.5.8.8 1.7.8 2.8 0 1.3-.4 2.5-1 3.4z" fill="#2FBAFD"/></svg>