<svg width="108" height="94" viewBox="0 0 108 94" xmlns="http://www.w3.org/2000/svg" xmlns:xlink="http://www.w3.org/1999/xlink"><title>icon-man-grow</title><defs><path d="M240.2 336.1v25a2 2 0 0 1-2 2h-9.5a2 2 0 0 1-2-2v-25a2 2 0 0 1 2-2.1h9.4c1.2 0 2 1 2 2.1zm.2-21.7c0 1.6-1.5 2.9-3.1 2.6l-15.6-3.1a3.7 3.7 0 0 1-2.3-1.5l-3.2-4.6c0-.2-.4-.1-.4 0l-1.4 13.1-1.6 39.8a2.6 2.6 0 0 1-2.6 2.5 2.5 2.5 0 0 1-2.4-2.4L205 333l-5.2 28a2.5 2.5 0 0 1-3 2.2 2.6 2.6 0 0 1-2-2.7l1.9-36-12-10a4.9 4.9 0 0 1-.5-7L194 297c.3-.3.6-.7 1-.9 2.6-1.8 5.7-3 5.7-3l2.7 8.3 1.5-4.4c-2.8-3.9.3-4 .7-4s3.6.1.8 4l1.5 4.4 2.7-8.4a29.9 29.9 0 0 0 8 5c0 .2 0 .3.2.4l6.3 10 13.3 3.7c1.2.2 2 1.1 2 2.3zm-43.7 2.9l-1.1-10.5-5 4.5 6 6zm60.6 5.4h-9.4a2 2 0 0 0-2 2v36.4a2 2 0 0 0 2 2h9.4a2 2 0 0 0 2-2v-36.3c0-1-1-2-2-2zM205.7 291c7.7-.1 6.7-10.3 6.7-10.3-.3-6.8-6-6.7-6.7-6.7-.5 0-6.3-.1-6.6 6.7 0 0-1 10.3 6.6 10.3zm80.4 18.6L273 288.3c-.7-1-2-1-2.6 0l-13.2 21.3c-.7 1 0 2.4 1.2 2.4h6.6v49a2 2 0 0 0 2 2h9.4c1 0 2-.8 2-1.9V312h6.6c1.1 0 1.9-1.3 1.2-2.4z" id="b"/><filter x="-50%" y="-50%" width="200%" height="200%" filterUnits="objectBoundingBox" id="a"><feOffset in="SourceAlpha" result="shadowOffsetOuter1"/><feGaussianBlur stdDeviation="1" in="shadowOffsetOuter1" result="shadowBlurOuter1"/><feColorMatrix values="0 0 0 0 0.0478077898 0 0 0 0 0.472202924 0 0 0 0 0.677083333 0 0 0 1 0" in="shadowBlurOuter1"/></filter></defs><g transform="translate(-181 -272)" fill="none"><use fill="#000" filter="url(#a)" xlink:href="#b"/><use fill="#FFF" fill-rule="evenodd" xlink:href="#b"/></g></svg>