<svg width="136" height="54" viewBox="0 0 136 54" xmlns="http://www.w3.org/2000/svg"><title>Group</title><g fill="none" fill-rule="evenodd"><path d="M9.3 32.9c2 0 4 .9 5.7 2.2a12 12 0 0 0 5.1 3c.6 0 1.2-.2 1.6-.6.4-.4.5-1 .5-1.5 0-.9-.5-1.6-1.2-2-2.4-1-4.8-2-7.2-2.7-7.1-2.5-10.7-7-10.7-13.6-.1-4.7 2-9 5.7-12A21.7 21.7 0 0 1 31.9 5a8.7 8.7 0 0 1 4.6 7.5 7 7 0 0 1-1.8 4.7 6 6 0 0 1-4.5 1.8 11 11 0 0 1-6.5-2.7c-1-.9-2.1-1.5-3.4-1.7-.5 0-1 0-1.5.5-.4.3-.5.9-.5 1.4 0 1.2 1.7 2.2 4.9 3a33 33 0 0 1 10.3 5.1c3.3 2.8 5 6.9 4.8 11.1.3 4.7-1.7 9.2-5.4 12.2a20.4 20.4 0 0 1-13.2 4c-4.9.3-9.6-1.2-13.4-4.2A9.9 9.9 0 0 1 2 39.8a7 7 0 0 1 2.1-4.9c1.4-1.3 3.3-2 5.2-2zm43.2-15.2h-4.3c-2.1 0-4.2-.6-5.9-1.9a6.5 6.5 0 0 1-2.4-5.3c0-1.4.3-2.7 1-3.9.7-1.1 1.8-2 3-2.6 3-.7 5.9-1 8.9-.8H69c2.6-.1 5.2.1 7.8.7a7 7 0 0 1 4.4 6.5c0 2.2-1 4.3-2.7 5.7a9.3 9.3 0 0 1-6.2 1.7h-3.7v23.5c0 2-.4 4.1-1.4 6a7.5 7.5 0 0 1-6.7 3.5c-2.6.2-5.1-1-6.7-3-1-2-1.6-4-1.4-6.2V17.7zm77.7 19.4A9.2 9.2 0 0 1 134 44a8 8 0 0 1-2.8 6.1 7.5 7.5 0 0 1-5 1.9 11 11 0 0 1-7-3.3 25.4 25.4 0 0 1-38-21.7 24 24 0 0 1 4.2-13.6C88.1 9.3 92 6 96.4 4A26.7 26.7 0 0 1 124 8a23.4 23.4 0 0 1 6.2 29z" stroke="#2FBAFD" stroke-width="3"/><path d="M-6-8h148.4v70H-6z"/></g></svg>