<svg width="67" height="58" viewBox="0 0 67 58" xmlns="http://www.w3.org/2000/svg"><title>icon</title><path d="M36.6 11.2l7-7L64.4 25l-7 7zM12.8 32l2.8 2.8a4 4 0 0 0 0 5.5 4 4 0 0 0 3 1.1 3.9 3.9 0 0 0 1.2 3 4 4 0 0 0 3 1.2 3.9 3.9 0 0 0 1.2 3 4 4 0 0 0 3 1.1 3.9 3.9 0 0 0 1.2 3 4 4 0 0 0 5.5 0 4 4 0 0 0 5.6 0 3.9 3.9 0 0 0 1.2-3 4 4 0 0 0 3-1 3.9 3.9 0 0 0 1.2-3.1 4 4 0 0 0 3-1.1 3.9 3.9 0 0 0 1.1-3 4 4 0 0 0 3.1-1.2 4 4 0 0 0 0-5.5l2.8-2.8-19.6-19.4-2.8 2.7L31 14l1.3-1.4L24 4.2 3 25l8.4 8.4 1.4-1.4zm16.8-16.7l1.3 1.4-7 7a3.9 3.9 0 0 0 0 5.5 4 4 0 0 0 5.6 0l7-7 14 14c.8.7.8 2 0 2.7a2 2 0 0 1-2.8 0l-4.2-4.1-1.4 1.3 4.2 4.2a2 2 0 0 1 0 2.8 2 2 0 0 1-2.8 0l-4.2-4.2-1.4 1.4 4.2 4.2a2 2 0 0 1 0 2.7 2 2 0 0 1-2.8 0l-4.2-4.1-1.4 1.4 4.2 4.1a2 2 0 0 1 0 2.8 2 2 0 0 1-2.8 0l-21-20.8 15.4-15.3z" fill="#fff"/></svg>