<svg width="312" height="34" viewBox="0 0 312 34" xmlns="http://www.w3.org/2000/svg"><title>boomstarter_logo_new</title><g fill="none" fill-rule="evenodd"><path d="M10.6 23h1.7c1 0 1.5 0 1.8-.3.3-.1.5-.5.5-1 0-.4-.2-.8-.6-1-.3-.2-1-.3-1.7-.3h-1.7V23zm0-9.8h1.2c.7 0 1.2 0 1.5-.3.3-.1.4-.4.4-.9 0-.4-.1-.8-.4-1l-1.6-.2h-1.1v2.4zm11 2.5c1.2 1.2 2.1 2.4 2.7 3.6.5 1.2.7 2.5.7 4 0 2.9-1 5.3-3.1 7.2l-1.5 1.2a6.4 6.4 0 0 1-1.6.7 9.4 9.4 0 0 1-1.9.4H6c-1.1 0-2 0-2.6-.2-.6-.3-1.2-.7-1.8-1.3A5.5 5.5 0 0 1 .8 30a5.3 5.3 0 0 1-.5-1.3 7.5 7.5 0 0 1 0-.8 56.6 56.6 0 0 1 0-2V6.1c0-1.6.5-2.9 1.5-3.9S4 .8 5.6.8H10a80.4 80.4 0 0 1 3.7.1 16.6 16.6 0 0 1 2 .3c2.2.5 4 1.7 5.3 3.4a9.9 9.9 0 0 1 .6 11.1zm92.7-12.3a5 5 0 0 1 1.9-2 5 5 0 0 1 2.7-.8 5.3 5.3 0 0 1 3.6 1.4c.5.5.8 1 1 1.4.3.6.5 1.3.6 2.1l3.6 20.7a14.6 14.6 0 0 1 .2 1.8 5.1 5.1 0 0 1-.4 2 5 5 0 0 1-1 1.6 5.3 5.3 0 0 1-1.7 1.1 5 5 0 0 1-2 .4c-1.3 0-2.5-.4-3.4-1.1-1-.7-1.5-1.7-1.8-3l-1.1-6-2 5.7c-1.1 3-2.9 4.4-5.4 4.4a5 5 0 0 1-3.2-1 7.3 7.3 0 0 1-2.1-3.3l-2-5.7-1 5a6.2 6.2 0 0 1-1.7 3.7c-1 .9-2 1.3-3.4 1.3-1.6 0-2.8-.5-3.8-1.6a6 6 0 0 1-1.5-4.2 9 9 0 0 1 .1-1.3l3.6-20.5c.3-1.5.8-2.7 1.7-3.6 1-.9 2-1.3 3.4-1.3 1.1 0 2.1.3 3.1 1a5.5 5.5 0 0 1 2.1 2.5l4.7 10.6 5.2-11.3" fill="#343433"/><path d="M141 33.7c-1.7 0-3.3-.2-4.8-.6a13 13 0 0 1-3.7-1.8c-1.1-.7-2-1.6-2.5-2.5a6 6 0 0 1-1-3.2c0-.7.2-1.3.4-2a4.6 4.6 0 0 1 1-1.4c.4-.5 1-.8 1.5-1a4.6 4.6 0 0 1 1.9-.4c.6 0 1.2 0 1.8.3.6.3 1.2.6 1.9 1.2a62.5 62.5 0 0 0 2.8 2h.5c.4 0 .7-.2 1-.4.2-.3.3-.6.3-1 0-.6-.3-1-.8-1.4a3.2 3.2 0 0 1-.2-.1 3.3 3.3 0 0 0-.3-.2l-.6-.2a84.7 84.7 0 0 0-1-.4 132 132 0 0 0-2.5-.9c-4.6-1.6-6.9-4.7-6.9-9.1 0-1.6.3-3 .9-4.3A10 10 0 0 1 133 3c1-1 2.3-1.7 3.7-2.2a13.9 13.9 0 0 1 8.7-.2c1.2.4 2.3.9 3.2 1.5.9.6 1.6 1.3 2.1 2.2.6.8.8 1.8.8 2.8 0 1.2-.4 2.3-1.1 3.1a4 4 0 0 1-3 1.2 5 5 0 0 1-2-.4c-.6-.3-1.4-.7-2.3-1.4l-1.2-1a2 2 0 0 0-1-.2c-.3 0-.6.2-.8.4-.2.2-.4.5-.4.9 0 .5.3.9.7 1.2.4.2 1.2.6 2.5 1s2.6 1 3.8 1.5c1.2.6 2.2 1.2 2.9 1.9 1 .8 1.7 1.9 2.3 3.2.6 1.3.8 2.8.8 4.3s-.2 2.8-.7 4.2a10.6 10.6 0 0 1-2.2 3.5 10.1 10.1 0 0 1-3.8 2.4 15 15 0 0 1-5 .8m18.7-23c-1 0-1.7-.2-2.3-.4a4.4 4.4 0 0 1-1.7-1A5 5 0 0 1 155 3a4.5 4.5 0 0 1 3.6-2.2 26.6 26.6 0 0 1 1.5 0 99.7 99.7 0 0 1 2.5 0h13.1a3.8 3.8 0 0 1 1 0 4.7 4.7 0 0 1 4.2 4.8 5 5 0 0 1-.5 2 5 5 0 0 1-1.2 1.8c-.8.8-2.2 1.2-4 1.2h-2.3v16l-.2 2.3a5.2 5.2 0 0 1-.7 1.7 5 5 0 0 1-1.9 1.8 5 5 0 0 1-2.4.6 5.2 5.2 0 0 1-2.5-.6 5.2 5.2 0 0 1-1.8-1.6 5.2 5.2 0 0 1-.8-1.7l-.1-2.5v-16h-2.8m28.7 18a8.7 8.7 0 0 1-2.2 3.4c-.8.7-1.9 1-3.2 1a5 5 0 0 1-2-.4 5 5 0 0 1-1.6-1.1 5.5 5.5 0 0 1-1.1-1.7 5.3 5.3 0 0 1-.4-2c0-1 .2-2 .7-2.9l9.8-21.3c.5-1 1.1-1.7 2-2.3a5 5 0 0 1 2.8-.8c1 0 2 .2 2.9.8.8.6 1.5 1.4 2 2.4l10 21.5a5.5 5.5 0 0 1 .1 4.6 5.7 5.7 0 0 1-1.1 1.7 5.2 5.2 0 0 1-1.7 1.1 5 5 0 0 1-2 .4c-1.2 0-2.2-.3-3-1a9.3 9.3 0 0 1-2.3-3.4h-9.7m45.2-4.2c.4.5.6 1.1.8 1.7a6.7 6.7 0 0 1 .2 1.7 5 5 0 0 1-1.5 3.7 5.4 5.4 0 0 1-1.7 1.1 5 5 0 0 1-2 .4c-1.9 0-3.3-.8-4.3-2.4l-4.3-7.3v4.4a5.4 5.4 0 0 1-1.5 3.8 4.9 4.9 0 0 1-3.6 1.5 5.3 5.3 0 0 1-2.3-.5 4.8 4.8 0 0 1-1.8-1.4c-.8-1-1.2-2.6-1.2-4.5V6.9c0-1.1.1-2 .4-2.8a4 4 0 0 1 1.3-1.9c.6-.5 1.2-1 1.9-1.1.6-.2 1.6-.3 2.8-.3h4.4a27.9 27.9 0 0 1 5 .5 11.2 11.2 0 0 1 6 4 12 12 0 0 1 2.3 7c0 1.6-.3 3-.8 4.2-.5 1.3-1.4 2.6-2.6 4l2.5 4m8.3-13.8c-1 0-1.7-.2-2.3-.4a4.4 4.4 0 0 1-1.6-1 5 5 0 0 1-.7-6.2 4.5 4.5 0 0 1 3.6-2.2h1.5a99.6 99.6 0 0 1 2.4 0H258a3.8 3.8 0 0 1 .9 0 4.7 4.7 0 0 1 4.2 4.8 5 5 0 0 1-.4 2 5 5 0 0 1-1.3 1.8c-.8.8-2.1 1.2-4 1.2h-2.3v16c0 .9 0 1.7-.2 2.3a5.2 5.2 0 0 1-.7 1.7 5 5 0 0 1-1.8 1.8 5 5 0 0 1-2.5.6 5.2 5.2 0 0 1-2.4-.6 5.2 5.2 0 0 1-2-1.6 5.2 5.2 0 0 1-.6-1.7l-.2-2.5v-16h-2.8M279.6 23c1.1 0 2 0 2.6.2.6.2 1.2.5 1.8 1 1 1 1.7 2.2 1.7 3.7 0 .8-.2 1.5-.5 2.2a4.5 4.5 0 0 1-1.2 1.7 4.1 4.1 0 0 1-.8.5 3.8 3.8 0 0 1-.9.4l-1.1.1a21.2 21.2 0 0 1-1.5 0H269a6.6 6.6 0 0 1-1.4-.4c-1.7-.7-2.7-2-3-3.8V28a4 4 0 0 1-.1-.5 12.4 12.4 0 0 1 0-.8V8a47.6 47.6 0 0 1 .2-3.3l.2-.7c.2-.6.6-1.2 1-1.6a5.5 5.5 0 0 1 2.3-1.4l.7-.1h1.2a54.2 54.2 0 0 1 1.8 0h8a8.7 8.7 0 0 1 2.2.1 4.8 4.8 0 0 1 3.6 4.7 5 5 0 0 1-.4 2.1 4.5 4.5 0 0 1-1.3 1.8 4.2 4.2 0 0 1-1.6.8c-.6.2-1.4.3-2.4.3h-5.2V13h4.1c1.3 0 2.4.4 3.1 1 .8.8 1.1 1.7 1.1 2.8 0 1.3-.4 2.3-1.3 3-.4.4-.9.6-1.3.7l-2 .2h-3.7V23h4.8m30.9 1.5l.8 1.7a6.7 6.7 0 0 1 .2 1.7c0 .8-.1 1.4-.4 2a5 5 0 0 1-1.1 1.7 5.4 5.4 0 0 1-1.7 1.1 5 5 0 0 1-2 .4c-1.9 0-3.3-.8-4.3-2.4l-4.3-7.3v4.4a5.4 5.4 0 0 1-1.5 3.8 4.9 4.9 0 0 1-3.6 1.5 5.3 5.3 0 0 1-2.3-.5 4.8 4.8 0 0 1-1.8-1.4c-.8-1-1.2-2.6-1.2-4.5V6.9c0-1.1.1-2 .4-2.8a4 4 0 0 1 1.3-1.9c.6-.5 1.2-1 1.9-1.1.6-.2 1.6-.3 2.8-.3h4.4a27.9 27.9 0 0 1 5 .5 11.2 11.2 0 0 1 6 4 12 12 0 0 1 2.3 7c0 1.6-.3 3-.8 4.2-.5 1.3-1.4 2.6-2.6 4l2.5 4" fill="#2FBAFD"/><path d="M43.8 2.3a14.1 14.1 0 0 1 3.3 1l.6-1.2c.2-.3.5-.4.7-.3l2.7 1.6c.3.1.3.5.2.7l-.7 1.2c1 .7 1.7 1.6 2.4 2.5l1.2-.7c.3-.2.6 0 .7.1l1.6 2.8c.1.2 0 .5-.3.7l-1.1.7c.4 1 .7 2.2.9 3.4h1.3c.3 0 .6.2.6.4v3.2c0 .3-.3.5-.6.5H56a14.7 14.7 0 0 1-.9 3.4l1.1.7c.3.1.4.4.3.7l-1.6 2.7c-.1.3-.4.3-.7.2l-1.1-.7a14.6 14.6 0 0 1-2.5 2.5l.7 1.1c.1.3 0 .6-.2.8l-2.7 1.6c-.2 0-.5 0-.7-.3l-.6-1.1a14.1 14.1 0 0 1-3.3.9v1.3c0 .3-.3.6-.5.6H40c-.2 0-.4-.3-.4-.6v-1.3a14.2 14.2 0 0 1-3.4-1l-.6 1.2c-.2.3-.5.4-.7.3l-2.7-1.6c-.3-.2-.3-.5-.2-.8l.7-1.1a14.6 14.6 0 0 1-2.4-2.5l-1.2.7c-.2.1-.6 0-.7-.2l-1.6-2.7c-.1-.3 0-.6.3-.7l1.1-.7a14.8 14.8 0 0 1-.9-3.4H26c-.3 0-.5-.2-.5-.5v-3.2c0-.2.2-.4.5-.4h1.3c.2-1.2.5-2.4 1-3.4l-1.2-.7c-.3-.2-.4-.5-.3-.7l1.6-2.8c.1-.2.5-.3.7-.1l1.2.7a14.7 14.7 0 0 1 2.4-2.5L32 4.1c-.1-.2 0-.6.2-.7L35 1.8c.2-.1.5 0 .7.2l.6 1.2c1.1-.4 2.2-.7 3.4-.9V1c0-.3.2-.6.4-.6h3.2c.2 0 .5.3.5.6v1.3" fill="#343433"/><path fill="#FFF" d="M41.7 9.2l1.3 3.5 3.1-2-1 3.6 3.8.2-2.9 2.3 2.9 2.4-3.7.2 1 3.6-3.2-2-1.3 3.5-1.3-3.5-3.1 2 1-3.6-3.8-.2 2.9-2.4-2.9-2.3 3.7-.2-1-3.7 3.2 2 1.3-3.4"/><path d="M72 2.3a14.1 14.1 0 0 1 3.4 0l.3-1.3c0-.3.4-.5.6-.4l3 .8c.3 0 .4.3.4.6l-.4 1.4a14.5 14.5 0 0 1 3 1.7l1-1c.1-.2.5-.2.7 0l2.2 2.2c.2.2.1.6 0 .8l-1 1a14.6 14.6 0 0 1 1.7 3l1.3-.4c.3 0 .6 0 .6.4l.8 3c.1.3 0 .6-.4.6l-1.2.4a14.8 14.8 0 0 1 0 3.5l1.2.3c.3.1.5.4.4.7l-.8 3c0 .3-.3.4-.6.4l-1.3-.4a14.8 14.8 0 0 1-1.7 3l1 1c.1.2.2.5 0 .7L84 29.6c-.2.2-.6.1-.8 0l-.9-1a14.2 14.2 0 0 1-3 1.7l.4 1.3c0 .3-.1.6-.4.7l-3 .8c-.2 0-.5-.1-.6-.4l-.3-1.3c-1.2.2-2.4.2-3.5 0l-.3 1.3c-.1.3-.4.5-.6.4l-3-.8c-.3 0-.5-.4-.4-.7l.4-1.3a14.4 14.4 0 0 1-3-1.7l-1 1c-.2.1-.5.2-.7 0l-2.2-2.3a.5.5 0 0 1 0-.7l1-1a14.6 14.6 0 0 1-1.7-3L59 23c-.3 0-.6-.1-.7-.4l-.8-3c0-.3.1-.6.4-.7l1.3-.3V15l-1.3-.4c-.3 0-.4-.3-.4-.6l.8-3c.1-.3.4-.5.7-.4l1.3.4A14.8 14.8 0 0 1 62 8l-1-1a.6.6 0 0 1 0-.8L63.2 4c.2-.2.5-.2.7 0l1 1a11 11 0 0 1 3-1.7L67.6 2c0-.3 0-.5.4-.6l3-.8c.2-.1.5 0 .6.4l.3 1.3" fill="#343433"/><path fill="#FFF" d="M71.8 9.4l2.2 3 2.5-2.7v3.7l3.6-.7-2.2 3 3.4 1.5-3.5 1.2 1.9 3.3-3.6-1.2-.4 3.7-2.1-3L71 24v-3.8l-3.6.8 2.1-3-3.3-1.6 3.5-1.1-1.9-3.3 3.5 1.2.4-3.8"/></g></svg>