<?xml version="1.0" encoding="utf-8"?>
<!-- Generator: Adobe Illustrator 22.1.0, SVG Export Plug-In . SVG Version: 6.00 Build 0)  -->
<svg version="1.1" id="Layer_1" xmlns="http://www.w3.org/2000/svg" xmlns:xlink="http://www.w3.org/1999/xlink" x="0px" y="0px"
	 viewBox="0 0 2530.8 523.7" style="enable-background:new 0 0 2530.8 523.7;" xml:space="preserve">
<path style="fill:#2FBAFD;" d="M158.9,306.9c16.2,0.8,31.6,7.3,43.8,17.9c11.4,10.5,24.3,17.9,39.8,21.9c4.1,0.8,8.9-0.8,12.2-4.1
	c3.2-3.2,4.9-7.3,4.1-12.2c0-6.5-4.1-12.2-8.9-15.4c-17.9-8.1-36.5-14.6-55.2-21.1c-55.2-17.9-82.8-52.7-82.8-103.9
	c-1.6-35.7,14.6-69.8,43-91.7c26.8-20.3,60-30,93.3-29.2c29.2-0.8,58.4,7.3,83.6,22.7c21.9,11.4,34.9,34.1,35.7,58.4
	c0,13-4.9,26-13.8,35.7c-8.9,9.7-21.9,14.6-34.9,14.6c-18.7-1.6-36.5-8.9-50.3-21.1c-7.3-6.5-16.2-11.4-26-13
	c-4.1-0.8-8.1,0.8-11.4,3.2c-3.2,3.2-4.1,7.3-4.1,11.4c0,8.9,12.2,17,37.3,23.5c28.4,8.1,55.2,21.1,79.5,38.9
	c25.2,21.1,38.9,52.7,37.3,86c1.6,35.7-13.8,70.6-42.2,94.1c-29.2,21.9-64.9,33.3-101.4,31.6c-37.3,1.6-73.8-9.7-103.1-32.5
	c-20.3-13.8-32.5-36.5-32.5-60.9c0-14.6,5.7-28.4,16.2-38.1C129.6,312.6,144.2,306.9,158.9,306.9z"/>
<path style="fill:#2FBAFD;" d="M488.3,190.9h-32.5c-16.2,0.8-32.5-4.9-45.4-14.6c-12.2-9.7-19.5-25.2-18.7-41.4
	c0-10.5,2.4-20.3,8.1-29.2s13-16.2,22.7-20.3c21.9-5.7,44.6-7.3,67.3-5.7h125c20.3-0.8,39.8,0.8,59.2,4.9
	c10.5,4.1,18.7,11.4,24.3,20.3s8.9,19.5,8.9,30c0,17-7.3,33.3-20.3,43.8c-13.8,9.7-30.8,14.6-47.9,13h-28.4v180.1
	c0.8,16.2-2.4,31.6-10.5,45.4c-10.5,17-30,27.6-51.1,26.8c-20.3,0.8-39.8-8.1-51.1-23.5c-8.9-14.6-13-30.8-11.4-47.1L488.3,190.9z"
	/>
<path style="fill:#2FBAFD;" d="M904.6,70c37.3-0.8,73,9.7,104.7,29.2c31.6,18.7,56.8,45.4,73,77.9c29.2,56.8,27.6,124.1-4.9,179.3
	c-34.9,60.9-101.4,99-172.8,98.2c-74.7,0-142-41.4-175.3-106.3c-13.8-27.6-21.1-58.4-20.3-89.3c0-26.8,6.5-53.6,17.9-77.9
	c15.4-33.3,41.4-61.7,73-81.1C831.5,80.5,868,70,904.6,70z"/>
<path style="fill:#2FBAFD;" d="M1380.1,302l29.2,45.4c7.3,11.4,11.4,25.2,11.4,38.9c0.8,15.4-6.5,30.8-17.9,42.2
	c-12.2,11.4-27.6,17-43.8,16.2c-21.1,0.8-40.6-9.7-51.1-27.6l-51.1-82v49.5c0.8,16.2-5.7,31.6-17,43c-11.4,11.4-26.8,17.9-43,17.9
	c-19.5,1.6-37.3-7.3-48.7-21.9c-10.5-15.4-15.4-33.3-14.6-51.1V147.9c0-46.3,25.2-69,76.3-69h78.7c26,0,51.1,7.3,72.2,21.9
	c21.9,13.8,38.9,33.3,48.7,56c8.1,16.2,12.2,34.1,12.2,51.9C1419.8,244.4,1405.2,277.7,1380.1,302z"/>
<path style="fill:#2FBAFD;" d="M1593.5,152.7v224c0.8,17-4.9,33.3-15.4,47.1c-11.4,13.8-28.4,21.1-47.1,21.1
	c-17.9,0-34.1-6.5-46.3-19.5c-11.4-13.8-17-31.6-15.4-49.5V152.7c-1.6-19.5,4.1-38.9,15.4-54.4c12.2-12.2,28.4-19.5,46.3-19.5
	s34.1,7.3,46.3,19.5C1589.4,113.8,1595.1,133.3,1593.5,152.7z"/>
<path style="fill:#2FBAFD;" d="M2006.5,339.4c17,12.2,28.4,31.6,29.2,52.7c0.8,18.7-7.3,35.7-21.9,47.9
	c-10.5,9.7-24.3,14.6-38.9,14.6c-20.3-1.6-38.9-10.5-52.7-25.2c-29.2,16.2-61.7,24.3-94.9,25.2c-108.7,0-196.4-86-196.4-192.3
	c0-37.3,10.5-73.8,31.6-104.7c20.3-31.6,49.5-56.8,84.4-71.4c25.2-10.5,52.7-16.2,80.3-16.2c47.9-0.8,94.9,16.2,130.6,47.9
	c43,34.9,67.3,87.6,66.5,142.8C2025.1,287.4,2018.6,315,2006.5,339.4z"/>
<path style="fill:#2FBAFD;" d="M2189.9,395.4c-4.1,10.5-10.5,21.1-17.9,30c-11.4,12.2-27.6,19.5-45.4,19.5
	c-20.3,0.8-39.8-8.9-51.1-25.2c-7.3-9.7-10.5-21.9-10.5-34.1c0-10.5,2.4-21.9,7.3-31.6L2189,114.6c8.9-21.9,32.5-36.5,56.8-34.9
	c25.2-0.8,48.7,13.8,57.6,36.5L2421.9,358c4.9,8.9,7.3,18.7,7.3,28.4c0,13.8-4.9,26.8-13.8,37.3c-12.2,13.8-30,21.9-48.7,21.1
	c-14.6,0.8-29.2-4.9-39.8-14.6c-10.5-9.7-18.7-21.9-24.3-34.9H2189.9z"/>
</svg>
