<svg width="220" height="86" viewBox="0 0 220 86" xmlns="http://www.w3.org/2000/svg"><title>Group Copy</title><g fill="none" fill-rule="evenodd"><path fill="#396C98" fill-rule="nonzero" d="M31.8 8.5v14.8l24 6.1V14.7zm10 21l-10-3.2v50.4s4-1.2 10-4.6V29.4z"/><path d="M45.7 30.2v41c5.7-3.5 10.8-9 10.8-17.3v-21l-10.8-2.7z" fill="#AABAC7" fill-rule="nonzero"/><path d="M18.6 30.2v41c-5.7-3.5-10.9-9-10.9-17.3v-21l10.9-2.7z" fill="#CDDCE8" fill-rule="nonzero"/><path d="M31.8 80c3.6-.6 26.7-6.2 26.7-27V12.3l-26.7-7V0l31.7 8.5V53c0 11-5.5 20.2-15.9 26.3-7.6 4.5-15.5 5.8-15.8 5.9V80z" fill="#396C98" fill-rule="nonzero"/><path fill="#348ECA" fill-rule="nonzero" d="M7.7 29.4l24-6.1V8.5l-24 6.2zm14 42.7c6 3.4 10 4.6 10 4.6V26.3l-10 3.1v42.7z"/><path d="M0 8.5v44.6c0 11 5.5 20.2 15.9 26.3a47.3 47.3 0 0 0 15.9 5.8v-5.1C28.2 79.4 5 73.8 5 53V12.2l26.8-7V0L0 8.5z" fill="#348ECA" fill-rule="nonzero"/><path d="M85.9 12H79V9.7h16.7V12h-6.9v20h-3zm20-2.4v13.3c0 5 2.2 7.2 5.2 7.2 3.3 0 5.5-2.2 5.5-7.2V9.6h3v13.1c0 7-3.7 9.7-8.6 9.7-4.6 0-8-2.6-8-9.6V9.6h2.9zM146.4 31c-1.3.5-3.9 1.2-7 1.2-3.3 0-6.1-.9-8.3-3a11 11 0 0 1-3.2-8.3c0-6.7 4.7-11.6 12.2-11.6 2.6 0 4.6.5 5.6 1l-.8 2.4c-1.2-.6-2.7-1-5-1-5.4 0-9 3.4-9 9 0 5.8 3.5 9.2 8.7 9.2 2 0 3.2-.3 4-.7v-6.7h-4.7v-2.3h7.4V31zm12.1-21.5v13.3c0 5 2.2 7.2 5.3 7.2 3.3 0 5.5-2.2 5.5-7.2V9.6h2.9v13.1c0 7-3.7 9.7-8.5 9.7-4.6 0-8-2.6-8-9.6V9.6h2.8zm23 19c1.4.7 3.3 1.5 5.3 1.5 3 0 4.7-1.6 4.7-3.9 0-2-1.3-3.3-4.3-4.4-3.6-1.4-5.9-3.3-5.9-6.4 0-3.5 2.9-6.1 7.2-6.1 2.4 0 4 .5 5 1.1l-.8 2.4a9 9 0 0 0-4.2-1c-3 0-4.3 1.8-4.3 3.3 0 2.1 1.4 3.2 4.5 4.3 3.8 1.5 5.7 3.4 5.7 6.6 0 3.5-2.5 6.5-7.8 6.5-2.2 0-4.5-.6-5.7-1.4l.7-2.5zm24.6-19V19H217V9.6h3V32h-3V21.5h-11v10.6h-2.9V9.6z" fill-rule="nonzero" fill="#396C98"/><path d="M81.2 73.4h-1.4V63h1.4v10.5zm12.1 0H92l-5.2-8v8h-1.4V63h1.4l5.2 8v-8.2h1.3v10.5zm7.6-1.8l3-8.7h1.5l-3.9 10.5h-1.2L96.5 63H98l3 8.7zm13.4-3h-4.5v3.7h5.2v1.1h-6.5V63h6.5v1h-5.2v3.4h4.5v1.2zm7.2.1c-1.1-.3-2-.7-2.5-1.2a2.4 2.4 0 0 1-.8-1.9c0-.8.3-1.5 1-2 .6-.6 1.4-.9 2.5-.9.7 0 1.3.2 1.9.5.5.2 1 .6 1.3 1.1.3.5.4 1 .4 1.6H124a2 2 0 0 0-.6-1.5c-.4-.3-1-.5-1.7-.5s-1.2.1-1.6.4c-.4.3-.5.8-.5 1.3 0 .4.1.8.5 1 .3.4 1 .7 1.8 1 .9.2 1.5.4 2 .7.5.3.9.7 1.1 1 .2.5.4 1 .4 1.5 0 .8-.4 1.5-1 2a4.8 4.8 0 0 1-4.6.4c-.6-.3-1.1-.7-1.5-1.2a2.8 2.8 0 0 1-.5-1.6h1.4c0 .6.2 1.1.7 1.5.5.4 1 .6 1.9.6.7 0 1.2-.2 1.6-.5.4-.3.6-.7.6-1.2s-.2-1-.5-1.2a6 6 0 0 0-2-.9zM136 64h-3.3v9.4h-1.4V64H128v-1h8v1zm5-1.1l3.4 8.6 3.4-8.6h1.7v10.5h-1.3v-4l.1-4.5-3.4 8.5h-1l-3.4-8.5.1 4.4v4.1h-1.3V63h1.7zm18.5 5.7h-4.4v3.7h5.2v1.1h-6.6V63h6.5v1H155v3.4h4.4v1.2zm12.1 4.8h-1.3l-5.2-8v8h-1.4V63h1.4l5.2 8.2V63h1.3v10.5zm11.1-9.4h-3.3v9.4h-1.3V64h-3.4v-1h8v1zm6.4 4.7c-1.2-.3-2-.7-2.6-1.2a2.4 2.4 0 0 1-.8-1.9c0-.8.3-1.5 1-2 .6-.6 1.5-.9 2.5-.9.7 0 1.4.2 2 .5.5.2.9.6 1.2 1.1.3.5.5 1 .5 1.6h-1.4a2 2 0 0 0-.6-1.5c-.4-.3-1-.5-1.7-.5s-1.2.1-1.6.4c-.3.3-.5.8-.5 1.3 0 .4.2.8.5 1 .4.4 1 .7 1.8 1 .9.2 1.6.4 2 .7.5.3.9.7 1.1 1 .3.5.4 1 .4 1.5 0 .8-.3 1.5-1 2a4 4 0 0 1-2.6.8c-.7 0-1.4-.1-2-.4a4 4 0 0 1-1.4-1.2 2.8 2.8 0 0 1-.5-1.6h1.3c0 .6.3 1.1.7 1.5.5.4 1.1.6 1.9.6.7 0 1.3-.2 1.6-.5.4-.3.6-.7.6-1.2s-.2-1-.5-1.2a6 6 0 0 0-2-.9zM83.5 49.4c-1.2-.4-2-.8-2.6-1.3a2.4 2.4 0 0 1-.8-1.8c0-.9.3-1.6 1-2.1a4 4 0 0 1 2.5-.8c.7 0 1.4.1 2 .4.5.3.9.7 1.2 1.2.3.5.5 1 .5 1.6h-1.4a2 2 0 0 0-.6-1.5c-.4-.4-1-.6-1.7-.6s-1.2.2-1.5.5c-.4.3-.6.7-.6 1.2s.2.8.5 1.1c.4.3 1 .6 1.8.8.9.3 1.6.6 2 .9.5.3.9.6 1.1 1 .3.4.4.9.4 1.4 0 .9-.3 1.5-1 2-.6.6-1.5.8-2.6.8a4.7 4.7 0 0 1-2-.4c-.6-.3-1-.6-1.4-1.1a2.8 2.8 0 0 1-.5-1.7h1.4c0 .7.2 1.2.6 1.5.5.4 1.1.6 1.9.6.7 0 1.3-.2 1.6-.5.4-.3.6-.7.6-1.2s-.2-.9-.5-1.2a6 6 0 0 0-2-.8zm14.4-4.7h-3.3V54h-1.4v-9.4H90v-1.2h8v1.2zm7 5.1h-2.4v4.3h-1.4V43.5h3.4a4 4 0 0 1 2.7.8 3 3 0 0 1 1 2.4 2.9 2.9 0 0 1-2 2.8l2.4 4.5h-1.4l-2.3-4.2zm-2.4-1.1h2c.8 0 1.3-.2 1.7-.6.4-.3.6-.8.6-1.4 0-.7-.2-1.2-.6-1.5-.3-.3-.9-.5-1.6-.5h-2.1v4zm15 2.6h-4.3l-1 2.8h-1.4l4-10.6h1.1l4 10.6h-1.4l-1-2.8zm-4-1.1h3.6l-1.8-5-1.7 5zm15.7-5.5H126V54h-1.4v-9.4h-3.3v-1.2h8v1.2zm9.1 4.5h-4.5v3.7h5.2v1.2h-6.5V43.5h6.5v1.2h-5.2V48h4.5v1.1zm11.8 3.5c-.4.5-.9.9-1.5 1.1a5 5 0 0 1-2.2.4 4 4 0 0 1-3.7-2.3 6 6 0 0 1-.6-2.6v-1c0-1.5.4-2.7 1.1-3.6.7-.9 1.7-1.3 3-1.3 1.1 0 2 .3 2.7.8.6.6 1 1.4 1.2 2.4h-1.4c-.3-1.4-1-2-2.4-2-1 0-1.6.3-2.1 1-.5.6-.7 1.5-.7 2.8v.8c0 1.2.2 2.1.8 2.8.5.7 1.2 1 2.1 1h1.4a2 2 0 0 0 1-.7V50h-2.5v-1.2h3.8v3.9zm5.4 1.4h-1.3V43.5h1.3v10.6zm11.8-3.4a4 4 0 0 1-1.2 2.6 4 4 0 0 1-2.7 1c-1.2 0-2.2-.5-3-1.4-.6-1-1-2.1-1-3.6v-1c0-1 .2-1.9.5-2.6.3-.8.8-1.3 1.5-1.7a4 4 0 0 1 2.1-.6c1.1 0 2 .3 2.7 1a4 4 0 0 1 1.1 2.5H166c-.2-.8-.4-1.4-.8-1.8s-1-.6-1.7-.6c-.8 0-1.5.4-2 1-.5.7-.7 1.6-.7 2.8v1c0 1.2.2 2 .7 2.8.4.6 1 1 2 1 .7 0 1.3-.2 1.7-.5.4-.4.6-1 .8-1.9h1.3z" fill="#AABAC7"/></g></svg>