<svg width="220" height="84" viewBox="0 0 220 84" xmlns="http://www.w3.org/2000/svg"><title>Group 6 Copy 2</title><g fill="none"><path fill="#396C98" d="M31.4 8.2V23l23.9 6.2V14.4zm10 20.6l-10-3v50s4-1.3 10-4.7V28.8z"/><path d="M45.1 29.6v40.2c5.5-3.4 10.4-8.8 10.4-17V32.3l-10.4-2.7z" fill="#AABAC8"/><path d="M18.1 29.6v40.2c-5.4-3.4-10.4-8.8-10.4-17V32.3l10.4-2.7z" fill="#CDDCE9"/><path d="M31.4 79c3.5-.8 26.5-6.3 26.5-26.8v-40l-26.5-7V0l31.5 8.3v44C63 63 57.5 72 47.2 78.1a49.1 49.1 0 0 1-15.8 5.7v-5z" fill="#396C98"/><path fill="#348ECA" d="M7.7 29.2L31.6 23V8.2L7.7 14.4zm13.8 42c6 3.3 10 4.5 10 4.5v-50l-10 3.1v42.3z"/><path d="M0 8.4v43.9c0 10.9 5.4 19.9 15.8 26 7.6 4.4 15.5 5.6 15.8 5.7v-5C28 78.1 5 72.6 5 52.1v-40l26.6-7V0L0 8.4z" fill="#348ECA"/><path d="M83.3 53c-.7 0-1.3-.1-1.8-.3a3.7 3.7 0 0 1-1.4-1 4.8 4.8 0 0 1-1-1.7c-.2-.6-.3-1.4-.3-2.2 0-.8.1-1.6.3-2.2a6 6 0 0 1 1-1.6c.3-.5.8-.8 1.4-1a5 5 0 0 1 1.9-.4h.9l.8.2.7.3.6.3V45l-.5-.4a2 2 0 0 0-.7-.4 2.6 2.6 0 0 0-.8-.4h-1a3 3 0 0 0-1.3.2 2.7 2.7 0 0 0-1 .8 4 4 0 0 0-.6 1.2c-.2.5-.2 1.1-.2 1.8s0 1.3.2 1.7c.2.5.4 1 .7 1.3l1 .8 1.2.3 1.1-.2.9-.4.6-.4.5-.4h.1V52l-.6.2c-.2.2-.4.2-.7.3l-.8.2a4 4 0 0 1-1.2.2zm8.7-.2V44h-3.4v-1.2h8.1V44h-3.3v8.8zm14-7c0 .4 0 .8-.2 1.2a3.1 3.1 0 0 1-.7 1c-.3.3-.7.6-1.2.8a5.4 5.4 0 0 1-1.7.3H101v3.7h-1.3v-10h2.5l1.6.1 1 .5c.5.3.7.6 1 1 .2.4.2.8.2 1.4zm-1.4 0l-.1-.9-.6-.6-.7-.2a5 5 0 0 0-1-.1H101v4h1l1.2-.1.9-.5.4-.7v-.9zm3.6 7l3.4-10h1.6l3.4 10h-1.4l-1-2.8h-3.8l-1 2.8h-1.2zm5.7-4l-1.6-4.7-1.5 4.7h3zm8 4V44h-3.4v-1.2h8V44h-3.3v8.8zm7.6 0v-10h6.3V44h-5v2.7h4.7v1.2h-4.7v3.7h5v1.2h-6.3zm15.7-8.8h-4.6v8.8h-1.4v-10h6zm10.2 8.8h-1.3v-8l-4.6 8h-1.3v-10h1.3v7.8l4.5-7.8h1.4zm10.8 0h-1.4v-4.2l-1.4.3c-.5.2-1 .2-1.4.2l-1.2-.2a2.5 2.5 0 0 1-1-.5 2 2 0 0 1-.5-.9c-.2-.4-.2-.8-.2-1.3v-3.4h1.3v3.7c0 .3.1.5.3.7.1.3.3.4.6.5l1 .1h1.4l1.2-.4v-4.6h1.4v10h-.1zm4 0v-10h6.2V44h-4.9v2.7h4.6v1.2h-4.6v3.7h5v1.2h-6.3zm13.6.2l-1.8-.3a3.7 3.7 0 0 1-1.4-1 4.8 4.8 0 0 1-1-1.7c-.2-.6-.3-1.4-.3-2.2 0-.8.1-1.6.3-2.2a6 6 0 0 1 1-1.6c.4-.5.9-.8 1.4-1a5 5 0 0 1 1.9-.4h1l.7.2c.3 0 .5.2.7.3l.7.3V45h-.2l-.4-.4a2 2 0 0 0-.7-.4 2.6 2.6 0 0 0-.8-.4h-1a3 3 0 0 0-1.2.2 2.7 2.7 0 0 0-1 .8c-.3.3-.5.7-.7 1.2-.2.5-.2 1.1-.2 1.8s.1 1.3.3 1.7c.1.5.4 1 .6 1.3l1 .8 1.2.3 1.1-.2 1-.4.6-.4.4-.4h.1V52l-.6.2c-.2.2-.4.2-.7.3l-.8.2-1.2.2zm13.8-.2h-1.7l-3.6-4.6h-.8v4.6H190v-10h1.4v4.4c.5 0 .9-.1 1.2-.3.4-.3.6-.6.8-1l.2-.7.2-.4c.3-.8.6-1.3 1-1.6.5-.3 1-.4 1.8-.4h.4V44h-.4c-.5 0-.9 0-1.1.3l-.6 1.2-.6 1.3-.8.7 4 5.3zm10 0h-1.3v-8l-4.5 8h-1.4v-10h1.3v7.8l4.5-7.8h1.4zm4 0v-10h6.3V44h-5v2.7h4.6v1.2H213v3.7h5v1.2h-6.3zM86.1 72h-1.4v-8l-4.5 8h-1.4V62H80v7.8l4.5-7.9H86zm11.2 0H96v-5h-4.6v5H90V62h1.3v3.9H96v-4h1.3zm10.9-3.1c0 .5-.1 1-.3 1.3-.2.4-.4.7-.8 1l-1.2.5a7 7 0 0 1-1.6.2h-2.9V62h4.3l1 .4c.4.2.6.5.8.8a2.3 2.3 0 0 1-.1 2.3 2.7 2.7 0 0 1-1 1c.6.1 1 .4 1.3.9.3.4.5 1 .5 1.6zm-1.9-4.5l-.1-.6a1 1 0 0 0-.4-.4c-.2-.1-.4-.3-.7-.3h-2.4v3h1.6l.9-.1.6-.3c.2 0 .3-.3.4-.5l.1-.8zm.4 4.6l-.1-1-.7-.6-.7-.2h-2.6v3.7h2.5l.9-.4.5-.6c.2-.3.2-.6.2-1zm4.7 3V62h6.3v1h-5v3h4.7v1h-4.6v3.7h5V72h-6.4zm13.7.1c-.7 0-1.3 0-1.9-.3a3.7 3.7 0 0 1-1.4-1 4.8 4.8 0 0 1-1-1.6c-.1-.7-.3-1.5-.3-2.3a6 6 0 0 1 1.3-3.8c.4-.4.9-.8 1.4-1a5 5 0 0 1 2-.4h.8l.9.2.6.3.7.3v1.6h-.1l-.5-.4a2 2 0 0 0-.6-.4 2.6 2.6 0 0 0-.8-.3l-1-.1a3 3 0 0 0-1.3.2 2.7 2.7 0 0 0-1 .8c-.3.3-.5.8-.6 1.3a5.4 5.4 0 0 0 0 3.5c.2.5.4 1 .7 1.2.2.4.6.6 1 .8.3.2.7.3 1.2.3.4 0 .7 0 1-.2.4 0 .7-.2 1-.4l.6-.4.4-.4h.2v1.6l-.6.3-.8.2c-.2.2-.5.2-.8.3l-1.1.1zm8.7-.1v-9h-3.4v-1h8v1.2h-3.3V72zm14.9 0h-1.4v-8l-4.5 8h-1.4V62h1.3v7.8l4.5-7.9h1.5zm12.1 2.3h-1.2V72h-7V62h1.3v8.8h4.6V62h1.3v9h1v3.4zm10.5-2.3H170v-8l-4.6 8H164V62h1.3v7.8l4.5-7.9h1.5zm11.2 0h-1.3v-8l-4.6 8h-1.4V62h1.4v7.8l4.5-7.9h1.4z" fill="#AABAC7"/><path d="M85.6 12h-6.8V9.7h16.5V12h-6.8v19.8h-2.9zm20-2.4v13.2c0 5 2.1 7.1 5.2 7.1 3.3 0 5.4-2.2 5.4-7.1V9.6h3v13c0 6.8-3.7 9.6-8.6 9.6-4.5 0-8-2.6-8-9.5V9.6h3zm40.3 21.3c-1.4.5-3.9 1.2-7 1.2-3.3 0-6-.9-8.3-3a11 11 0 0 1-3.1-8.2c0-6.6 4.6-11.5 12-11.5 2.7 0 4.7.5 5.6 1l-.7 2.4c-1.2-.6-2.7-1-5-1-5.4 0-8.9 3.4-8.9 9s3.4 9 8.6 9c2 0 3.2-.3 3.9-.6v-6.7h-4.6v-2.3h7.4v10.7zm12-21.3v13.2c0 5 2.3 7.1 5.3 7.1 3.3 0 5.4-2.2 5.4-7.1V9.6h3v13c0 6.8-3.7 9.6-8.5 9.6-4.6 0-8-2.6-8-9.5V9.6h2.9zm23 18.8c1.3.8 3.2 1.5 5.2 1.5 3 0 4.7-1.6 4.7-3.8 0-2-1.3-3.3-4.3-4.5-3.6-1.3-5.9-3.1-5.9-6.3 0-3.4 2.9-6 7.2-6 2.3 0 4 .6 5 1.1l-.8 2.4a9 9 0 0 0-4.2-1c-3 0-4.3 1.7-4.3 3.3 0 2 1.4 3.1 4.5 4.2 3.8 1.5 5.7 3.3 5.7 6.6 0 3.4-2.5 6.4-7.8 6.4-2.1 0-4.5-.6-5.7-1.4l.7-2.5zm24.4-18.8v9.3h10.9V9.6h2.9v22.2h-3V21.4h-10.8v10.4h-2.8V9.6z" fill="#396C98"/></g></svg>