<svg width="987" height="255" viewBox="0 0 987 255" xmlns="http://www.w3.org/2000/svg"><title>phased-use-ru</title><g fill="none" fill-rule="evenodd"><circle fill="#39AADE" fill-rule="nonzero" cx="499.5" cy="127.5" r="127.5"/><path d="M331.5 78.5h75m188 3h75" stroke="#137EB1" stroke-linecap="square"/><text transform="translate(688 61)" font-size="32" font-family="HelveticaNeue-Bold, Helvetica Neue" fill="#3C3C3B" font-weight="bold"><tspan x="0" y="31">5%</tspan></text><text transform="translate(274 61)" font-size="32" font-family="HelveticaNeue-Bold, Helvetica Neue" fill="#3C3C3B" font-weight="bold"><tspan x=".2" y="31">5%</tspan></text><g fill="#FFF"><text transform="translate(459 115)" font-size="39" font-family="HelveticaNeue-Bold, Helvetica Neue" font-weight="bold"><tspan x=".3" y="38">10%</tspan></text><path d="M434 109.8c-2.2 0-3.8-.4-5-1.4-1.1-1-1.7-2.4-1.7-4.3s.6-3.2 1.7-4.2 2.8-1.4 5-1.5v-1.3h2.9v1.3c2.2 0 3.8.5 5 1.5 1 1 1.6 2.3 1.6 4.2 0 1.9-.6 3.3-1.7 4.3a7.4 7.4 0 0 1-5 1.4v1.5H434v-1.5zm0-9.2c-1.3 0-2.3.3-3 .9-.5.6-.8 1.4-.8 2.6 0 1 .3 2 1 2.5.6.7 1.5 1 2.7 1v-7zm2.9 7c1.3 0 2.3-.3 2.9-1 .6-.6.9-1.4.9-2.5 0-1.2-.3-2-.9-2.6-.6-.6-1.6-.9-3-1v7.1zm13 3.6c-.7 0-1.4 0-2-.3a4.5 4.5 0 0 1-2.6-2.7 6 6 0 0 1-.4-2.1c0-.8.1-1.5.4-2.1a4.6 4.6 0 0 1 2.6-2.7 5.7 5.7 0 0 1 4.2 0 4.6 4.6 0 0 1 2.6 2.7 6 6 0 0 1 0 4.3c-.2.6-.6 1.1-1 1.6l-1.6 1-2.1.3zm0-2c.5 0 1 0 1.2-.2l.8-.7.4-1a5.8 5.8 0 0 0 0-2.4 3 3 0 0 0-.4-1l-.8-.7a2 2 0 0 0-1.1-.3 2.2 2.2 0 0 0-1.9 1 3 3 0 0 0-.4 1 5.9 5.9 0 0 0 0 2.3c0 .4.2.8.4 1 .2.4.4.6.7.8l1.2.2zm7-8h2.6v3.5h3.8v-3.5h2.7v9.8h-2.7v-4.1h-3.8v4.1h-2.7v-9.8zm10.3 7.8h1.2l.4-1a13.7 13.7 0 0 0 .7-3.2l.1-1.9v-1.7h7.8v7.8h1.3v4.7h-2.5V111h-6.5v2.7h-2.5V109zm7.5 0v-5.8h-2.6v.2a14 14 0 0 1-1.1 5.6h3.7zm10.5-7.8h2.6v1.2c.3-.5.8-.9 1.3-1.1a3 3 0 0 1 1.6-.4c.8 0 1.5.2 2 .4.6.3 1 .7 1.4 1.2.4.5.7 1 .8 1.7a7.5 7.5 0 0 1 0 3.9c-.1.6-.4 1.1-.8 1.6a4 4 0 0 1-1.3 1.1 4 4 0 0 1-1.9.4c-.6 0-1.2 0-1.7-.3s-1-.6-1.2-1.1v4.6h-2.8v-13.2zm5 8c.4 0 .8 0 1-.2.4-.2.6-.4.8-.7l.4-1a5.9 5.9 0 0 0 0-2.3 3 3 0 0 0-.4-1c-.2-.4-.5-.6-.8-.8a2 2 0 0 0-1-.3 2 2 0 0 0-1.2.3l-.7.7a3 3 0 0 0-.4 1 6 6 0 0 0 0 2.4l.4 1 .8.7 1 .2zm9.6 2l-1.4-.1a3 3 0 0 1-1-.6c-.3-.2-.6-.5-.7-.9a3 3 0 0 1-.3-1.3c0-.5.1-1 .3-1.4l.8-.8 1-.5a11.4 11.4 0 0 1 2.4-.4l1-.2c.4 0 .6-.2.8-.3.2-.2.3-.4.2-.7l-.1-.6a1 1 0 0 0-.4-.4l-.5-.2h-.7a2 2 0 0 0-1.3.3c-.3.2-.4.6-.5 1.1h-2.7a3.2 3.2 0 0 1 1.5-2.6l1.5-.5a8.2 8.2 0 0 1 3.1 0c.5 0 1 .1 1.4.3.4.2.8.5 1 .9.3.3.4.8.4 1.4v5.1l.1 1.3c0 .4.2.7.3.9h-2.8a3.9 3.9 0 0 1-.1-1 4 4 0 0 1-1.6 1c-.5.2-1.1.2-1.7.2zm1-1.7c.5 0 .9-.1 1.2-.3l.6-.6c.2-.3.3-.5.3-.8v-1.6l-.4.2-.5.2a9.3 9.3 0 0 1-1.3.2l-.6.1c-.2 0-.4.2-.5.3-.2 0-.3.2-.4.4l-.1.6.1.6.4.4.5.2h.7zm11 1.7l-1.8-.1-1.5-.6-1-1.1c-.2-.4-.4-1-.4-1.6h2.6c0 .5.2 1 .6 1.2.4.3.9.4 1.5.4s1 0 1.3-.3c.3-.3.4-.6.4-1s-.1-.7-.4-1c-.2-.2-.7-.3-1.3-.3h-1V105h.7c.6 0 1-.1 1.4-.3.3-.2.5-.5.5-1a1 1 0 0 0-.4-.8c-.3-.2-.7-.3-1.2-.3s-1 0-1.3.3c-.3.2-.5.5-.5 1h-2.6l.5-1.4 1-1 1.4-.5 1.6-.2a6 6 0 0 1 3 .6c.7.5 1 1.1 1 2v.9l-.5.6a2.1 2.1 0 0 1-1.2.7l.7.2.7.4.5.7.2 1c0 .6-.1 1-.3 1.5l-1 1-1.4.6-1.9.1zm6.3-10h5.6l1.3.1 1 .5c.2.2.5.4.6.7.2.3.3.7.3 1.1a2.1 2.1 0 0 1-1.3 2c.5.2.9.5 1.2.9.4.4.5.9.5 1.6 0 .5 0 .9-.2 1.2l-.7 1-1 .5-1.4.2h-5.9v-9.8zm4.7 8h.6c.2 0 .4 0 .6-.2.2 0 .3-.2.4-.4l.1-.6-.1-.7a1 1 0 0 0-.4-.4 2 2 0 0 0-.7-.2h-2.5v2.6h2zm-.2-4l.5-.1c.2 0 .4 0 .6-.2l.3-.3.1-.6v-.6l-.4-.3-.6-.2h-2.3v2.2h1.8zm6.5-4h2.6v6.6l3.7-6.6h3v9.8h-2.6v-6.7l-3.7 6.7h-3v-9.8zm13.8 2h-3.3v-2h9.2v2h-3.2v7.8h-2.7v-7.8zm7.1-2h2.6v6.6l3.7-6.6h3v9.8h-2.5v-6.7L553 111h-3v-9.8zm13.5 6.1c-.7-.1-1.3-.4-1.7-1-.4-.6-.7-1.2-.7-2a3 3 0 0 1 1-2.2 3.2 3.2 0 0 1 2.3-1h6v9.9h-2.8v-3.5h-1.2l-2.7 3.5h-3.3l3.1-3.7zm4.1-4.2h-2.1c-.6 0-1 .1-1.3.4-.2.2-.3.5-.3.8 0 .4 0 .7.3 1 .2.2.7.3 1.3.3h2.1v-2.5z"/></g><path d="M688.1 124.6h1.1l1-1.6.5-2 .2-2.2V114h9.4v10.5h1.4v5.3h-2.5V127h-8.5v3h-2.6v-5.4zm9.4 0v-8.1h-3.8v.2a43.3 43.3 0 0 1-.3 4.5 11.3 11.3 0 0 1-1.1 3.4h5.2zm5.8 2.5a3.6 3.6 0 0 1-1-.1v-2h.5l.5-.1c.2-.2.4-.4.5-.8l.2-1.7.1-2.9v-1.8h7.6v9.3h-2.6v-7.4h-2.6a45.1 45.1 0 0 1-.7 5.8c-.3.6-.6 1-1 1.3-.4.3-.9.4-1.5.4zm12.3-3.6c-.6-.1-1.2-.4-1.6-1a3 3 0 0 1-.6-1.9 2.9 2.9 0 0 1 .9-2 3 3 0 0 1 2.2-1h5.6v9.4h-2.5v-3.3h-1.3l-2.5 3.3h-3.1l3-3.5zm4-4h-2a2 2 0 0 0-1.3.4c-.2.2-.3.5-.3.8 0 .4 0 .6.3.9.2.2.6.3 1.2.3h2v-2.4zm9.5-1.8h5.4l1.1.1 1 .4c.2.2.5.5.6.8.2.3.2.6.2 1a2 2 0 0 1-1.2 2c.5 0 .9.3 1.2.7.3.4.5.9.5 1.5 0 .5-.1.9-.3 1.2-.1.4-.4.7-.6.9a3 3 0 0 1-1 .5 4 4 0 0 1-1.3.2h-5.6v-9.3zm4.4 7.6h.7c.2 0 .4 0 .5-.2.2 0 .3-.2.4-.3l.1-.7-.1-.6a1 1 0 0 0-.4-.4l-.6-.2h-2.4v2.4h1.8zm-.2-3.9h.6c.2 0 .3 0 .5-.2l.3-.3.2-.5c0-.3 0-.5-.2-.6l-.3-.3-.5-.2h-2.2v2.1h1.6zm6.2-3.7h2.6v3.2h2.4c.5 0 1 0 1.4.2.4.1.7.3 1 .6a2.8 2.8 0 0 1 1 2.2c0 .6 0 1-.2 1.4-.2.4-.4.7-.8 1l-1 .5-1.5.2h-4.9v-9.3zm4.3 7.5c.5 0 .9 0 1.1-.3.3-.2.5-.5.5-1 0-.4-.2-.7-.5-1a2 2 0 0 0-1.1-.3h-1.7v2.6h1.7zm5.2-7.5h2.6v9.3H749v-9.3zm6.9 4.4l-3-4.4h2.9l1.6 2.4 1.6-2.4h2.8l-3 4.3 3.4 5h-2.9l-2-3-1.9 3h-2.9l3.4-4.9zm11.8 5.1c-.7 0-1.4 0-2-.3a4.3 4.3 0 0 1-2.5-2.5c-.2-.6-.3-1.3-.3-2 0-.8.1-1.5.3-2a4.4 4.4 0 0 1 2.5-2.6 5.4 5.4 0 0 1 4 0 4.3 4.3 0 0 1 2.5 2.5c.2.6.3 1.3.3 2 0 .8 0 1.5-.3 2a4.2 4.2 0 0 1-2.5 2.5c-.6.3-1.3.4-2 .4zm0-1.9c.4 0 .8 0 1-.2.4-.2.6-.4.8-.7l.4-1a5.5 5.5 0 0 0 0-2.1l-.4-1a2 2 0 0 0-.7-.7l-1.1-.2a2 2 0 0 0-1 .2 2 2 0 0 0-.8.7c-.1.3-.3.6-.3 1a5.6 5.6 0 0 0 0 2.1c0 .4.2.7.3 1l.7.7 1.1.2zm5.6-.2h1.2c0-.3.2-.6.4-1a13 13 0 0 0 .6-3l.1-1.8v-1.6h7.5v7.4h1.2v4.5h-2.4V127h-6.2v2.6h-2.4V125zm7.2 0v-5.5H778v.2a13.4 13.4 0 0 1-1 5.3h3.5zm7.7 2.1l-1.3-.1-1-.5c-.3-.3-.5-.5-.6-.9a3 3 0 0 1-.3-1.2c0-.6.1-1 .3-1.3.2-.4.4-.7.7-.9l1-.4a10.8 10.8 0 0 1 2.3-.4l1-.2c.3 0 .5-.1.7-.3l.2-.6-.1-.6a1 1 0 0 0-.4-.4l-.5-.2h-.6a2 2 0 0 0-1.2.3c-.3.2-.5.6-.5 1h-2.6c0-.5.2-1 .5-1.4a3 3 0 0 1 1-1l1.3-.5a7.8 7.8 0 0 1 3 0c.5 0 1 .1 1.3.3l1 .8c.2.4.4.8.4 1.4v6c0 .4.2.7.3.9h-2.6a3.7 3.7 0 0 1-.2-.9c-.4.4-.9.7-1.4.9-.6.2-1.1.2-1.7.2zm1-1.7c.4 0 .8 0 1.1-.2l.6-.6c.2-.2.2-.5.3-.7v-1.6l-.4.3-.5.1a8.8 8.8 0 0 1-1.2.2 4 4 0 0 0-.6.1c-.2 0-.3.2-.5.3l-.3.4-.1.6.1.5c0 .2.2.3.3.4l.5.2h.6zm11.6-7.8h2.5v3.4h3.6v-3.4h2.6v9.3h-2.6v-4h-3.6v4h-2.5v-9.3zm13.4 9.5l-1.2-.1-1-.5c-.3-.3-.6-.5-.7-.9a3 3 0 0 1-.3-1.2c0-.6.1-1 .3-1.3.2-.4.4-.7.7-.9l1-.4a10.8 10.8 0 0 1 2.3-.4l1-.2c.3 0 .5-.1.7-.3.2-.1.2-.3.2-.6l-.1-.6a1 1 0 0 0-.4-.4l-.5-.2h-.6a2 2 0 0 0-1.2.3c-.3.2-.5.6-.5 1h-2.6c0-.5.2-1 .5-1.4a3 3 0 0 1 1-1l1.3-.5a7.8 7.8 0 0 1 3 0c.5 0 1 .1 1.3.3l1 .8c.3.4.4.8.4 1.4v6l.3.9h-2.6a3.7 3.7 0 0 1-.2-.9c-.4.4-.9.7-1.4.9-.6.2-1.1.2-1.7.2zm1-1.7c.5 0 .8 0 1.1-.2l.6-.6c.2-.2.2-.5.3-.7v-1.6l-.4.3-.5.1a8.8 8.8 0 0 1-1.2.2 4 4 0 0 0-.6.1c-.2 0-.3.2-.5.3l-.3.4-.1.6.1.5.4.4.5.2h.6zm11.6-7.8h2.4v1.2c.3-.5.7-.9 1.2-1.1.5-.2 1-.4 1.6-.4a4 4 0 0 1 1.9.5c.5.2 1 .6 1.3 1 .4.5.6 1 .8 1.6a7 7 0 0 1 0 3.7c-.2.6-.4 1.1-.8 1.6-.3.4-.8.8-1.3 1-.5.3-1 .4-1.8.4-.5 0-1 0-1.5-.3a3 3 0 0 1-1.2-1v4.4h-2.6v-12.6zm4.7 7.6c.4 0 .7 0 1-.2l.7-.7.4-1a5.5 5.5 0 0 0 0-2.1 3 3 0 0 0-.4-1l-.7-.7a2 2 0 0 0-1-.2 2 2 0 0 0-1.1.2l-.7.7-.4 1a5.7 5.7 0 0 0 0 2.2l.4 1 .7.6 1 .2zm6.3-7.6h2.5v3.2h2.5c.5 0 .9 0 1.3.2.4.1.8.3 1 .6a2.8 2.8 0 0 1 1 2.2c0 .6 0 1-.2 1.4l-.7 1-1.1.5-1.4.2h-5v-9.3zm4.3 7.5c.4 0 .8 0 1-.3.4-.2.5-.5.5-1 0-.4-.1-.7-.4-1-.3-.2-.7-.3-1.2-.3h-1.7v2.6h1.8zm5.2-7.5h2.5v9.3h-2.5v-9.3zm4.5 0h2.5v3.4h3.6v-3.4h2.6v9.3h-2.6v-4h-3.6v4h-2.5v-9.3zm15.2 9.5c-.8 0-1.4 0-2-.3a4.3 4.3 0 0 1-2.5-2.5 5.7 5.7 0 0 1 0-4 4.4 4.4 0 0 1 2.5-2.6 5.4 5.4 0 0 1 4 0 4.3 4.3 0 0 1 2.4 2.5 5.6 5.6 0 0 1 0 4 3 3 0 0 1-1 1.6 4 4 0 0 1-1.5 1c-.5.2-1.2.3-2 .3zm0-1.9c.4 0 .8 0 1-.2.3-.2.6-.4.7-.7l.4-1a5.5 5.5 0 0 0 0-2.1c0-.4-.2-.7-.4-1a2 2 0 0 0-.7-.7l-1-.2a2 2 0 0 0-1.1.2 2 2 0 0 0-.7.7l-.4 1a5.6 5.6 0 0 0 0 2.1c0 .4.2.7.4 1l.7.7 1 .2zm6.4-7.6h2.6v3.8l3.4-3.8h3l-3.9 4.1 4.4 5.2h-3l-3.4-3.9-.5.6v3.3h-2.6v-9.3zm19.8 9.5a5 5 0 0 1-2-.3 4.3 4.3 0 0 1-2.4-2.5 6 6 0 0 1-.3-2c0-.6 0-1.3.3-2 .2-.5.5-1 1-1.5.3-.5.8-.8 1.4-1a5.8 5.8 0 0 1 3.6-.2 3.5 3.5 0 0 1 2.8 3.3h-2.5c-.2-1.1-.8-1.6-1.9-1.6-.4 0-.7 0-1 .2l-.7.8-.4 1a5.3 5.3 0 0 0 0 2l.4 1 .7.7 1 .2c.6 0 1-.1 1.4-.5.3-.3.5-.8.6-1.4h2.5a4.2 4.2 0 0 1-1.5 2.9 5 5 0 0 1-3 1zm8.2-7.6h-3v-2h8.6v2h-3v7.4h-2.6v-7.4zm6.7-2h2.5v1.3c.3-.5.7-.9 1.2-1.1.5-.2 1-.4 1.6-.4a4 4 0 0 1 1.9.5c.5.2 1 .6 1.3 1l.8 1.6a7 7 0 0 1 0 3.7l-.8 1.6c-.4.4-.8.8-1.3 1-.5.3-1 .4-1.8.4-.6 0-1 0-1.6-.3a3 3 0 0 1-1.2-1v4.4h-2.6v-12.6zm4.7 7.7c.5 0 .8 0 1-.2.4-.2.6-.4.8-.7.1-.3.3-.6.3-1a5.5 5.5 0 0 0 0-2.1 3 3 0 0 0-.4-1c-.1-.3-.4-.5-.6-.7a2 2 0 0 0-1-.2 2 2 0 0 0-1.1.2l-.7.7-.4 1a5.7 5.7 0 0 0 0 2.2l.4 1 .7.6 1 .2zm9.1 2l-1.2-.2-1-.5c-.3-.3-.6-.5-.7-.9a3 3 0 0 1-.3-1.2c0-.6.1-1 .3-1.3.2-.4.4-.7.7-.9l1-.4a10.8 10.8 0 0 1 2.3-.4l1-.2c.3 0 .5-.1.7-.3.2-.1.2-.3.2-.6l-.1-.6a1 1 0 0 0-.4-.4l-.5-.2h-.6a2 2 0 0 0-1.2.3c-.3.2-.5.6-.5 1H919c0-.5.2-1 .5-1.4a3 3 0 0 1 1-1l1.4-.5a7.8 7.8 0 0 1 3 0l1.2.3c.4.2.8.5 1 .8.3.4.4.8.4 1.4v6l.3.9h-2.6a3.7 3.7 0 0 1-.2-.9c-.4.4-.8.7-1.4.9-.6.2-1.1.2-1.7.2zm1-1.8c.5 0 .9 0 1.1-.2l.6-.6c.2-.2.3-.5.3-.7v-1.6l-.4.3-.5.1a8.8 8.8 0 0 1-1.2.2 4 4 0 0 0-.6.1l-.4.3c-.2 0-.3.2-.4.4l-.1.6.1.5.4.4.5.2h.6zm6.6-7.8h2.5v3.4h3.6v-3.4h2.6v9.3h-2.6v-4H932v4h-2.5v-9.3zm19.4-3.6h3l4.7 12.9h-2.9l-1-2.9H948l-1 2.9h-2.8l4.8-12.9zm3 8l-1.5-4.8-1.7 4.7h3.3zm9.4 5.1l-1.7-.1a4 4 0 0 1-1.4-.6 3 3 0 0 1-1-1c-.2-.4-.3-1-.3-1.5h2.4c0 .5.3.9.6 1.1.4.3.8.4 1.4.4.6 0 1-.1 1.3-.3.2-.3.4-.6.4-1 0-.3-.2-.6-.4-.9-.2-.2-.7-.3-1.2-.3h-1v-1.6h.6c.6 0 1-.1 1.3-.3.3-.1.5-.5.5-1a1 1 0 0 0-.3-.7c-.3-.2-.6-.3-1.2-.3-.5 0-.9.1-1.2.3-.3.2-.4.5-.5 1h-2.4c0-.5.2-1 .4-1.4a3 3 0 0 1 1-.9l1.3-.5a7 7 0 0 1 1.5-.2 6 6 0 0 1 2.9.6c.7.4 1 1 1 2 0 .2 0 .5-.2.7 0 .2-.2.4-.4.6a2 2 0 0 1-1 .7l.6.2c.2 0 .4.2.6.4l.5.6.2 1c0 .6-.1 1-.3 1.4l-.9.9a4 4 0 0 1-1.4.6l-1.7.1zm6-9.5h2.4v6.3l3.5-6.3h2.9v9.3h-2.5v-6.3l-3.5 6.3h-2.9v-9.3zm10.7 0h2.5v6.3l3.5-6.3h2.9v9.3h-2.5v-6.3L981 127h-3v-9.3zM.8 115.1h6a8 8 0 0 1 1.8.2l1.3.5.8 1c.2.4.3 1 .3 1.5 0 .7-.2 1.2-.5 1.7-.2.4-.7.7-1.3 1a3 3 0 0 1 1.8 1.2c.4.6.6 1.3.6 2s-.1 1.3-.4 1.8c-.2.4-.6.8-1 1.1-.4.3-1 .5-1.5.7l-1.6.2H.8v-12.9zm5.9 10.7h.8l.6-.3c.2-.2.4-.3.5-.6l.2-.8c0-.6-.2-1.1-.6-1.4-.4-.3-.8-.4-1.5-.4h-3v3.5h3zm-.2-5.4c.5 0 1-.2 1.3-.4.3-.3.5-.6.5-1.2l-.2-.7-.4-.5-.7-.2H3.7v3h2.8zm6.7-1.7h2.6v3.2h2.5c.4 0 .9 0 1.3.2.4.1.8.3 1 .6a2.8 2.8 0 0 1 1 2.2c0 .6 0 1-.2 1.4l-.7 1-1.2.5-1.3.2h-5v-9.3zm4.3 7.5c.5 0 .9 0 1.2-.3.2-.2.4-.5.4-1 0-.4-.2-.7-.5-1-.3-.2-.6-.3-1-.3h-1.8v2.6h1.7zm5.3-7.5h2.5v9.3h-2.5v-9.3zm6.8 4.4l-3-4.4h2.9L31 121l1.6-2.4h2.9l-3.1 4.3 3.4 5H33l-2-3-1.9 3h-2.8l3.3-4.9zm11.8 5.1c-.7 0-1.4 0-2-.3a4.3 4.3 0 0 1-2.4-2.5 5.7 5.7 0 0 1 0-4 4.4 4.4 0 0 1 2.4-2.6 5.4 5.4 0 0 1 4 0 4.3 4.3 0 0 1 2.5 2.5 5.6 5.6 0 0 1 0 4 3 3 0 0 1-1 1.6 4 4 0 0 1-1.5 1 6 6 0 0 1-2 .3zm0-1.9c.5 0 .8 0 1.1-.2l.7-.7.4-1a5.5 5.5 0 0 0 0-2.1c0-.4-.2-.7-.4-1a2 2 0 0 0-.7-.7l-1-.2a2 2 0 0 0-1.2.2 2 2 0 0 0-.6.7l-.4 1a5.6 5.6 0 0 0 0 2.1c0 .4.2.7.4 1 .1.3.4.5.6.7l1.1.2zm5.7-.2h1l.5-1a13 13 0 0 0 .6-3l.1-1.8v-1.6h7.5v7.4H58v4.5h-2.4V128h-6.1v2.6H47V126zm7.1 0v-5.5h-2.5v.2a13.4 13.4 0 0 1-1 5.3h3.5zm10-7.4h2.5v3.4h3.6v-3.4H73v9.3h-2.6v-4h-3.6v4h-2.6v-9.3zm13.4 9.5l-1.3-.1-1-.5c-.3-.3-.5-.5-.6-.9a3 3 0 0 1-.3-1.2c0-.6.1-1 .3-1.3.2-.4.4-.7.7-.9l1-.4a10.8 10.8 0 0 1 2.3-.4l1-.2c.3 0 .5-.1.7-.3l.2-.6-.1-.6a1 1 0 0 0-.4-.4l-.5-.2H79a2 2 0 0 0-1.2.3c-.3.2-.5.6-.5 1h-2.6c0-.5.2-1 .5-1.4a3 3 0 0 1 1-1l1.3-.5a7.8 7.8 0 0 1 3 0c.5 0 1 .1 1.3.3l1 .8c.2.4.4.8.4 1.4v6c0 .4.2.7.3.9h-2.6a3.7 3.7 0 0 1-.2-.9c-.4.4-.9.7-1.4.9-.6.2-1.1.2-1.7.2zm1-1.7c.4 0 .8 0 1.1-.2l.6-.6c.2-.2.2-.5.3-.7v-1.6l-.4.3-.5.1a8.8 8.8 0 0 1-1.2.2 4 4 0 0 0-.6.1c-.2 0-.3.2-.5.3l-.3.4-.1.6.1.5c0 .2.2.3.3.4l.5.2h.6zm11.6-7.8h2.4v1.2c.3-.5.7-.9 1.2-1.1.5-.2 1-.4 1.6-.4a4 4 0 0 1 1.9.5c.5.2 1 .6 1.3 1l.8 1.6a7 7 0 0 1 0 3.7l-.8 1.6c-.3.4-.8.8-1.3 1-.5.3-1 .4-1.8.4-.5 0-1 0-1.6-.3a3 3 0 0 1-1.2-1v4.4h-2.5v-12.6zm4.6 7.6c.5 0 .8 0 1.1-.2l.7-.7.4-1a5.5 5.5 0 0 0 0-2.1 3 3 0 0 0-.4-1l-.7-.7a2 2 0 0 0-1-.2 2 2 0 0 0-1.1.2l-.7.7-.4 1a5.7 5.7 0 0 0 0 2.2l.4 1 .7.6 1 .2zm6.4-7.6h2.5v3.2h2.5c.4 0 .9 0 1.3.2.4.1.8.3 1 .6a2.8 2.8 0 0 1 1 2.2c0 .6 0 1-.2 1.4l-.7 1-1.1.5-1.4.2h-5v-9.3zm4.3 7.5c.4 0 .8 0 1-.3.4-.2.5-.5.5-1 0-.4-.1-.7-.5-1-.3-.2-.6-.3-1-.3h-1.8v2.6h1.8zm5.2-7.5h2.5v9.3h-2.5v-9.3zm4.5 0h2.5v3.4h3.6v-3.4h2.6v9.3h-2.6v-4h-3.6v4h-2.5v-9.3zm15.1 9.5c-.7 0-1.3 0-2-.3a4.3 4.3 0 0 1-2.4-2.5 5.7 5.7 0 0 1 0-4 4.4 4.4 0 0 1 2.5-2.6 5.4 5.4 0 0 1 4 0 4.3 4.3 0 0 1 2.4 2.5 5.6 5.6 0 0 1 0 4 3 3 0 0 1-1 1.6 4 4 0 0 1-1.5 1 6 6 0 0 1-2 .3zm0-1.9c.5 0 .8 0 1.1-.2.3-.2.6-.4.7-.7l.4-1a5.5 5.5 0 0 0 0-2.1c0-.4-.2-.7-.4-1a2 2 0 0 0-.7-.7l-1-.2a2 2 0 0 0-1.1.2 2 2 0 0 0-.7.7l-.4 1a5.6 5.6 0 0 0 0 2.1c0 .4.2.7.4 1 .1.3.4.5.7.7l1 .2zm6.5-7.6h2.6v3.8l3.4-3.8h3l-3.9 4.1 4.4 5.2h-3l-3.4-3.9-.5.6v3.3h-2.6v-9.3zm21.4 9.6c-1 0-1.9-.2-2.7-.5a5.7 5.7 0 0 1-3.2-3.6c-.3-.8-.4-1.6-.4-2.6s.1-1.8.4-2.6a5.7 5.7 0 0 1 3.2-3.6 6.5 6.5 0 0 1 4.7-.2c.6.2 1.2.4 1.7.8a4.8 4.8 0 0 1 1.8 3.5H161c0-.4-.2-.7-.3-1a2.8 2.8 0 0 0-1.5-1.1 3.3 3.3 0 0 0-2.6.2 3 3 0 0 0-1.1 1c-.3.4-.5.9-.6 1.4a7 7 0 0 0 0 3.2c.1.5.3 1 .6 1.4a3 3 0 0 0 2.7 1.3c.9 0 1.5-.2 2-.8.5-.5.8-1.2 1-2h2.6c0 .8-.2 1.5-.5 2.1a5 5 0 0 1-3 2.7c-.6.3-1.3.4-2.1.4zm11.6 0c-.7 0-1.4-.2-2-.4a4.1 4.1 0 0 1-2.4-2.6 5.7 5.7 0 0 1 0-3.9 4.6 4.6 0 0 1 4.4-3c.7 0 1.4.2 2 .5.5.2 1 .6 1.4 1 .4.5.7 1 .9 1.7l.2 1.9v.5h-6.7c0 .8.3 1.4.6 1.8.4.3 1 .5 1.7.5.5 0 1-.1 1.3-.4.4-.2.6-.5.7-.8h2.3c-.4 1.1-1 2-1.7 2.4-.7.5-1.6.7-2.7.7zm2-6a3 3 0 0 0-.7-1.4c-.3-.4-.7-.5-1.4-.5-.4 0-.7 0-1 .2a2 2 0 0 0-1 1.1v.6h4zm4.1-3.6h5.3l1.2.1 1 .4.6.8.2 1a2 2 0 0 1-1.2 2c.4 0 .8.3 1.2.7.3.4.5.9.5 1.5 0 .5-.1.9-.3 1.2-.2.4-.4.7-.7.9a3 3 0 0 1-1 .5 4 4 0 0 1-1.2.2h-5.6v-9.3zm4.4 7.6h.6c.2 0 .4 0 .6-.2l.4-.3.1-.7-.1-.6a1 1 0 0 0-.5-.4l-.5-.2h-2.5v2.4h2zm-.2-3.9h.6c.2 0 .3 0 .5-.2l.3-.3.1-.5-.1-.6-.3-.3-.5-.2h-2.3v2.1h1.7zm10.5 5.8c-.7 0-1.4 0-2-.3a4.1 4.1 0 0 1-2.4-2.6 5.7 5.7 0 0 1 0-3.9 4.6 4.6 0 0 1 4.4-3c.7 0 1.4.2 2 .5.5.2 1 .6 1.4 1 .4.5.6 1 .8 1.7.2.6.3 1.2.3 1.9v.5h-6.7c0 .8.2 1.4.6 1.8.4.3 1 .5 1.7.5.5 0 1-.1 1.3-.4.4-.2.6-.5.7-.8h2.2c-.3 1.1-.9 2-1.6 2.4a5 5 0 0 1-2.7.7zm2-5.9a3 3 0 0 0-.7-1.4c-.3-.4-.8-.5-1.4-.5-.4 0-.7 0-1 .2a2 2 0 0 0-1 1.1l-.1.6h4.2zm4-3.6h2.5v1.2c.3-.5.7-.9 1.2-1.1.5-.2 1-.4 1.6-.4a4 4 0 0 1 1.8.5c.6.2 1 .6 1.4 1 .3.5.6 1 .7 1.6a7 7 0 0 1 0 3.7c-.1.6-.4 1.1-.7 1.6-.4.4-.8.8-1.3 1-.5.3-1.1.4-1.8.4-.6 0-1.1 0-1.6-.3a3 3 0 0 1-1.2-1v4.4h-2.6v-12.6zm4.7 7.6c.4 0 .8 0 1-.2.4-.2.6-.4.8-.7.1-.3.3-.6.3-1a5.5 5.5 0 0 0 0-2.1 3 3 0 0 0-.4-1l-.7-.7a2 2 0 0 0-1-.2 2 2 0 0 0-1 .2c-.3.2-.6.4-.7.7l-.4 1a5.7 5.7 0 0 0 0 2.2c0 .3.2.6.4 1l.7.6 1 .2zm6.3-7.6h2.6v3.4h3.6v-3.4h2.5v9.3h-2.5v-4h-3.6v4h-2.6v-9.3zm15.2 9.5c-.7 0-1.4 0-2-.3a4.3 4.3 0 0 1-2.5-2.5c-.2-.6-.3-1.3-.3-2 0-.8.1-1.5.3-2a4.4 4.4 0 0 1 2.5-2.6 5.4 5.4 0 0 1 4 0 4.3 4.3 0 0 1 2.5 2.5c.2.6.3 1.3.3 2 0 .8 0 1.5-.3 2a4.2 4.2 0 0 1-2.5 2.5c-.6.3-1.3.4-2 .4zm0-1.9c.4 0 .8 0 1.1-.2l.7-.7.4-1a5.5 5.5 0 0 0 0-2.1l-.4-1a2 2 0 0 0-.7-.7l-1-.2a2 2 0 0 0-1.2.2 2 2 0 0 0-.7.7c-.1.3-.3.6-.3 1a5.6 5.6 0 0 0 0 2.1c0 .4.2.7.3 1l.7.7 1.1.2zm6.5-7.6h2.4v6.3l3.6-6.3h2.8v9.3h-2.4v-6.3l-3.5 6.3h-3v-9.3zm4.4-1.1c-.4 0-.8 0-1.2-.2-.3 0-.7-.2-1-.4l-.6-.8c-.2-.4-.2-.7-.2-1.2h1.9c0 .4 0 .7.3.9.1.2.4.3.8.3s.7-.1.8-.3c.2-.2.3-.5.3-1h2c0 .6-.1 1-.3 1.3l-.7.8c-.2.2-.6.3-1 .4l-1.1.2zm15.2-2.5h2.9l4.8 12.9h-3l-1-2.9H248l-1 2.9h-3l4.9-12.9zm3 8l-1.6-4.8-1.7 4.7h3.3zm5.5-4.4h3.7l2 6.8 2-6.8h3.7v9.3h-2.4v-7h-.1l-2 7h-2.4l-2-7v7h-2.5v-9.3zm17.6 9.5c-.7 0-1.4 0-2-.3a4.1 4.1 0 0 1-2.4-2.6 5.7 5.7 0 0 1 0-3.9 4.6 4.6 0 0 1 4.4-3c.8 0 1.4.2 2 .5.6.2 1 .6 1.4 1 .4.5.7 1 .9 1.7.2.6.2 1.2.2 1.9v.5h-6.7c0 .8.3 1.4.6 1.8.4.3 1 .5 1.7.5.5 0 1-.1 1.3-.4.4-.2.6-.5.7-.8h2.3c-.4 1.1-1 2-1.7 2.4-.7.5-1.6.7-2.7.7zm2-5.9a3 3 0 0 0-.7-1.4c-.3-.4-.7-.5-1.4-.5-.4 0-.7 0-1 .2a2 2 0 0 0-1 1.1v.6h4zm4-3.6h2.5v1.2c.3-.5.7-.9 1.2-1.1.5-.2 1-.4 1.6-.4a4 4 0 0 1 1.9.5c.5.2 1 .6 1.3 1l.8 1.6a7 7 0 0 1 0 3.7l-.8 1.6c-.3.4-.8.8-1.3 1-.5.3-1 .4-1.8.4-.6 0-1 0-1.6-.3a3 3 0 0 1-1.2-1v4.4H281v-12.6zm4.7 7.6c.5 0 .8 0 1-.2.4-.2.6-.4.8-.7.2-.3.3-.6.3-1a5.5 5.5 0 0 0 0-2.1 3 3 0 0 0-.4-1c-.1-.3-.4-.5-.6-.7a2 2 0 0 0-1-.2 2 2 0 0 0-1.1.2l-.7.7-.4 1a5.7 5.7 0 0 0 0 2.2l.4 1 .7.6 1 .2zm6.3-7.6h2.5v6.3l3.5-6.3h2.9v9.3h-2.5v-6.3L295 128h-3v-9.3zm10.8 0h2.6v3.8l3.4-3.8h3l-3.9 4.1 4.4 5.2h-3l-3.4-3.9-.5.6v3.3h-2.6v-9.3zm10.4 0h2.4v6.3l3.5-6.3h3v9.3h-2.5v-6.3L316 128h-3v-9.3zm376 26.9h5c1.2 0 2 .3 2.7.9.6.6.9 1.4.9 2.5a3 3 0 0 1-1 2.4c-.5.6-1.4 1-2.5 1h-3.5v4.6h-1.6v-11.4zm4.5 5.4c1 0 1.5-.1 2-.5.3-.3.5-.9.5-1.5 0-.7-.2-1.3-.6-1.6-.4-.4-1-.5-1.9-.5h-3v4.1h3zm8 6.2l-1-.1-1-.4a2 2 0 0 1-.5-.8c-.2-.3-.3-.6-.3-1 0-.5.1-.9.3-1.2.1-.3.4-.5.6-.7l1-.4a10.8 10.8 0 0 1 2-.4l.9-.2c.3 0 .5-.2.6-.3.2-.1.2-.3.2-.6l-.1-.7-.5-.4-.6-.2h-.6c-.6 0-1 0-1.5.3-.3.2-.5.6-.6 1.2h-1.3c0-.5 0-1 .3-1.3.2-.3.4-.6.8-.8a2 2 0 0 1 1-.5l1.4-.2 1 .1c.4 0 .8.2 1 .3.4.2.6.4.8.7.2.3.3.7.3 1.2v5l.4.2h.4v1a2 2 0 0 1-1 .2c-.3 0-.6-.1-.8-.3-.2-.2-.3-.5-.3-1a3 3 0 0 1-1.3 1c-.5.2-1 .3-1.6.3zm.3-1.2c.4 0 .8 0 1.1-.2.4-.1.6-.3.8-.5.2-.1.4-.3.5-.6l.1-.6v-1.4a1 1 0 0 1-.7.3 17.5 17.5 0 0 1-1.8.3l-.8.2-.6.5-.2.8.1.5.4.4.5.2h.6zm9 1.2a4 4 0 0 1-2.6-.8c-.6-.5-1-1.1-1-2h1.4c0 .6.3 1 .7 1.3.4.2.9.4 1.5.4.7 0 1.2-.2 1.5-.5.4-.2.5-.6.5-1s0-.8-.4-1c-.2-.2-.7-.3-1.3-.3h-1.1v-1.1h.9l1.2-.3c.3-.2.5-.6.5-1s-.1-.7-.4-.9c-.3-.2-.8-.3-1.3-.3h-.8l-.6.3a1.5 1.5 0 0 0-.7 1.2h-1.4c0-.6.1-1 .4-1.3.2-.3.4-.6.8-.8.3-.2.6-.4 1-.4a6 6 0 0 1 2.5 0c.3 0 .7.2 1 .4.2.2.5.4.6.7.2.2.3.6.3 1s-.2.8-.4 1.1a2 2 0 0 1-1 .6l.6.2.5.4.4.6.1.9a2.3 2.3 0 0 1-1 2l-1.1.4a5 5 0 0 1-1.3.2zm8.8 0c-1 0-2-.3-2.6-.8-.7-.6-1-1.4-1.2-2.6a10.7 10.7 0 0 1-.1-2.7 12.4 12.4 0 0 1 .4-2.5l.5-1c.4-.6.8-1 1.3-1.3a5 5 0 0 1 2-.5l1.3-.1c.4 0 .6-.2.6-.4h1.4c0 .4-.1.7-.3 1l-.7.5-1 .2a116.5 116.5 0 0 1-2.7.4l-.9.8-.5 1-.4 1.4c.3-.6.7-1 1.2-1.4a3 3 0 0 1 1.8-.5c1.2 0 2 .4 2.7 1.1.7.7 1 1.8 1 3.1 0 .7 0 1.3-.2 1.9l-.8 1.3c-.4.4-.8.6-1.2.8-.5.2-1 .3-1.6.3zm0-1.2a2.3 2.3 0 0 0 1.7-.8c.2-.2.4-.5.5-1 .2-.3.3-.7.3-1.2 0-1-.3-1.8-.7-2.3-.5-.6-1-.9-1.8-.9s-1.4.3-1.9.9c-.4.5-.7 1.3-.7 2.3 0 1 .3 1.7.7 2.2.5.6 1 .8 1.9.8zm5.4 1.1h-.4l-.4-.1v-1.2a1.7 1.7 0 0 0 .5 0c.4 0 .7 0 .9-.4l.4-1.2.1-2.2.1-3.3h5.8v8.3h-1.4v-7h-3a277.8 277.8 0 0 1-.5 5c-.1.6-.4 1.1-.7 1.5-.3.4-.8.6-1.4.6zm12.6 0c-.6 0-1.2 0-1.7-.3a3.3 3.3 0 0 1-2-2.2 5.5 5.5 0 0 1 0-3.4c.1-.6.4-1 .7-1.4l1.3-1c.5-.2 1-.3 1.7-.3s1.3.1 1.8.4a3.6 3.6 0 0 1 2 2.3 5.5 5.5 0 0 1 0 3.4c-.2.5-.4 1-.8 1.3a4 4 0 0 1-1.2 1c-.5.2-1.1.3-1.8.3zm0-1.1a2.5 2.5 0 0 0 2.4-1.8l.2-1.3c0-.5 0-1-.2-1.4a2 2 0 0 0-.6-1 2.4 2.4 0 0 0-1.8-.8 2.5 2.5 0 0 0-1.8.9l-.6 1-.2 1.3.2 1.3.6 1a2.4 2.4 0 0 0 1.8.8zm5.6-7.3h1.4v4l3.8-4h1.8l-3.7 3.6 4.1 4.7h-1.7l-3.5-4-.8.9v3.1h-1.4v-8.3zm8.5 0h1.3v6.8l4-6.8h1.7v8.3h-1.4v-6.8l-3.9 6.8h-1.7v-8.3zm9 0h1.4v1.1a2 2 0 0 1 1.1-1 4 4 0 0 1 1.6-.3c.6 0 1.2.2 1.7.4.4.2.8.5 1.1 1 .4.3.6.8.8 1.3l.2 1.7c0 .6 0 1.1-.2 1.7a4 4 0 0 1-.7 1.3l-1.2 1a3.8 3.8 0 0 1-2.4.2l-.7-.2a3 3 0 0 1-.7-.4l-.5-.6v4.3H761v-11.5zm4 7.3a2 2 0 0 0 1.1-.3c.4-.2.6-.4.8-.7l.4-1 .2-1.2c0-.4 0-.8-.2-1.1a3 3 0 0 0-.5-1 2.3 2.3 0 0 0-1.9-1 2.3 2.3 0 0 0-2 1 3 3 0 0 0-.4 1 4.8 4.8 0 0 0 0 2.3l.5 1a2.3 2.3 0 0 0 2 1zm9 1.2c-.6 0-1.2-.1-1.7-.4-.5-.2-.9-.5-1.2-.9-.4-.4-.6-.8-.8-1.3-.2-.6-.2-1.1-.2-1.7 0-.6 0-1.2.2-1.7.2-.6.4-1 .8-1.4a4 4 0 0 1 1.2-1c.5-.2 1.1-.3 1.8-.3.6 0 1.2.1 1.7.4a3.6 3.6 0 0 1 2 2.3 5.5 5.5 0 0 1 0 3.4c-.1.5-.4 1-.7 1.3l-1.3 1c-.5.2-1 .3-1.7.3zm0-1.2a2.5 2.5 0 0 0 2.4-1.8c.2-.4.2-.8.2-1.3s0-1-.2-1.4c0-.4-.3-.7-.5-1a2.4 2.4 0 0 0-1.8-.8 2.5 2.5 0 0 0-1.9.9c-.2.2-.4.5-.5 1l-.2 1.3c0 .5 0 1 .2 1.3l.5 1a2.4 2.4 0 0 0 1.9.8zm5.7-7.3h3.8l1 .1c.4 0 .7.2 1 .3l.6.6c.2.3.2.6.2 1 0 .5 0 .9-.3 1.1-.2.3-.5.5-.9.7.5.1.9.4 1.2.7.3.4.4.8.4 1.4 0 .3 0 .6-.2 1l-.5.7-.8.5-1 .2h-4.5v-8.3zm4.2 7.1c.5 0 .8 0 1-.3.3-.3.4-.6.4-1s-.1-.7-.4-1c-.2-.1-.6-.3-1.2-.3h-2.7v2.6h3zm-.5-3.7c.6 0 1 0 1.2-.3.2-.2.3-.5.3-.8a1 1 0 0 0-.3-.8c-.2-.2-.6-.3-1.2-.3h-2.4v2.2h2.4zm5-3.4h1.3v4l3.8-4h1.8l-3.7 3.6 4.1 4.7H794l-3.5-4-.8.9v3.1h-1.4v-8.3zm10.6 8.5l-1-.1-.9-.4a2 2 0 0 1-.6-.8l-.2-1c0-.5 0-.9.2-1.2l.7-.7c.2-.2.5-.3.9-.4a10.8 10.8 0 0 1 2-.4l1-.2.6-.3.2-.6c0-.3 0-.5-.2-.7l-.4-.4-.6-.2h-.7c-.5 0-1 0-1.4.3-.4.2-.6.6-.6 1.2h-1.4c0-.5.1-1 .3-1.3l.8-.8c.3-.3.7-.4 1.1-.5l1.3-.2 1.1.1c.4 0 .7.2 1 .3.3.2.6.4.7.7.2.3.3.7.3 1.2v5c.1.1.2.2.5.2h.4v1a2 2 0 0 1-1 .2c-.4 0-.6-.1-.8-.3-.3-.2-.4-.5-.4-1-.3.5-.8.8-1.3 1-.5.2-1 .3-1.6.3zm.3-1.2c.5 0 .9 0 1.2-.2l.8-.5c.2-.1.3-.3.4-.6l.2-.6v-1.4a1 1 0 0 1-.7.3 17.5 17.5 0 0 1-1.8.3l-.8.2a1 1 0 0 0-.6.5c-.2.2-.3.4-.3.8 0 .2 0 .4.2.5 0 .2.2.3.3.4l.5.2h.6zm15.4-2.4l-1 .3-1.4.2c-1 0-1.7-.2-2.2-.7-.4-.4-.6-1-.6-1.8v-2.9h1.4v2.6c0 .6 0 1 .3 1.2.3.3.7.4 1.4.4a5.7 5.7 0 0 0 2.1-.4v-3.8h1.4v8.3h-1.4v-3.4zm7 3.6c-.7 0-1.3-.1-1.8-.3a4 4 0 0 1-1.2-1l-.8-1.3a5.9 5.9 0 0 1 0-3.5c.3-.5.5-1 .9-1.3a3.7 3.7 0 0 1 2.8-1.3 3.5 3.5 0 0 1 3 1.7c.3.4.5 1 .6 1.5.1.5.2 1 .1 1.6H819c0 .3 0 .7.2 1 0 .3.2.6.4.9l.8.6 1.2.2c.6 0 1-.1 1.4-.4.4-.3.6-.7.8-1.2h1.3c-.2 1-.6 1.6-1.2 2-.6.5-1.4.8-2.3.8zm2.2-5.1l-.2-1a2.3 2.3 0 0 0-2.2-1.4l-1 .2-.7.5-.5.8-.2.9h4.8zm2.9-3.4h1.3v1.1a2 2 0 0 1 1.1-1 4 4 0 0 1 1.6-.3c.7 0 1.2.2 1.7.4s.9.5 1.2 1c.3.3.5.8.7 1.3l.2 1.7c0 .6 0 1.1-.2 1.7a4 4 0 0 1-.7 1.3 4 4 0 0 1-1.2 1 3.8 3.8 0 0 1-2.3.2l-.8-.2a3 3 0 0 1-.7-.4l-.5-.6v4.3h-1.4v-11.5zm4 7.3c.4 0 .8-.1 1-.3.4-.2.7-.4.8-.7l.5-1v-2.3a3 3 0 0 0-.5-1 2.3 2.3 0 0 0-2-1 2 2 0 0 0-1.1.3c-.4.2-.6.4-.8.7a3 3 0 0 0-.5 1 4.8 4.8 0 0 0 0 2.3l.5 1a2.3 2.3 0 0 0 2 1zm9 1.2c-.7 0-1.3-.1-1.8-.3a4 4 0 0 1-1.2-1c-.4-.3-.6-.8-.8-1.3a5.9 5.9 0 0 1 0-3.5c.3-.5.5-1 .9-1.3a3.7 3.7 0 0 1 2.8-1.3 3.5 3.5 0 0 1 3 1.7c.3.4.5 1 .6 1.5l.1 1.6h-6.2l.1 1 .5.9.8.6 1.2.2c.6 0 1-.1 1.4-.4.4-.3.6-.7.7-1.2h1.4c-.2 1-.6 1.6-1.2 2-.6.5-1.4.8-2.4.8zm2.2-5.1l-.2-1a2.3 2.3 0 0 0-2.2-1.4l-1 .2-.7.5-.5.8-.2.9h4.8zm5.9 5a4 4 0 0 1-2.6-.7c-.6-.5-1-1.1-1-2h1.4c0 .6.2 1 .6 1.3.4.2 1 .4 1.5.4.7 0 1.2-.2 1.5-.5.4-.2.6-.6.6-1s-.2-.8-.4-1c-.3-.2-.7-.3-1.4-.3h-1v-1.1h.8c.5 0 .9-.1 1.2-.3.4-.2.5-.6.5-1s-.1-.7-.4-.9c-.3-.2-.7-.3-1.3-.3h-.7c-.3 0-.5.2-.7.3a1.5 1.5 0 0 0-.7 1.2h-1.4c0-.6.2-1 .4-1.3l.8-.8c.3-.2.7-.4 1-.4a6 6 0 0 1 2.5 0c.4 0 .7.2 1 .4l.7.7.2 1c0 .4-.1.8-.4 1.1a2 2 0 0 1-1 .6l.7.2.5.4.3.6.2.9a2.3 2.3 0 0 1-1 2l-1.2.4a5 5 0 0 1-1.2.2zm10.6-2.8c0 .5.3 1 .7 1.2.4.3.8.5 1.4.5a2 2 0 0 0 1.8-1c.5-.8.7-2 .7-3.4a3 3 0 0 1-2.6 1.6c-.6 0-1.1-.1-1.6-.3a3.2 3.2 0 0 1-1.8-2 4.9 4.9 0 0 1 0-3 3.4 3.4 0 0 1 2-2 4.5 4.5 0 0 1 3 0c.5.2.9.5 1.2.9.4.4.7 1 .9 1.6.2.7.3 1.6.3 2.7a9 9 0 0 1-1 4.5c-.6 1-1.6 1.6-3 1.6-.9 0-1.7-.3-2.3-.7-.6-.5-1-1.3-1-2.2h1.3zm4.4-4.9c0-.3 0-.6-.2-1 0-.3-.2-.5-.4-.8a2.1 2.1 0 0 0-1.8-.7c-.4 0-.7 0-1 .2a2 2 0 0 0-.7.6l-.4.8v1a2.5 2.5 0 0 0 .6 1.7l.7.5c.2.2.5.2.9.2a2.3 2.3 0 0 0 1.7-.7l.4-.8.2-1zm7.8-.7h2l2.5 6.7 2.5-6.7h2v8.3h-1.4v-6.6l-2.5 6.6h-1.2l-2.5-6.6v6.6h-1.4v-8.3zm14.5 8.5c-.6 0-1.2-.1-1.7-.3-.5-.3-1-.6-1.2-1-.4-.3-.6-.8-.8-1.3a5.9 5.9 0 0 1 0-3.5c.2-.5.5-1 .9-1.3a3.7 3.7 0 0 1 2.8-1.3 3.5 3.5 0 0 1 3 1.7l.6 1.5.1 1.6h-6.2l.1 1 .5.9.8.6 1.2.2c.6 0 1-.1 1.4-.4.4-.3.6-.7.7-1.2h1.4c-.2 1-.6 1.6-1.2 2-.6.5-1.4.8-2.4.8zm2.3-5.1a2 2 0 0 0-.3-1 2.3 2.3 0 0 0-2.1-1.4l-1 .2-.7.5-.5.8-.2.9h4.8zm6.2 5c-.6 0-1.2 0-1.6-.2a3 3 0 0 1-1.3-.9l-.7-1.3c-.2-.5-.2-1.1-.2-1.7 0-.7 0-1.2.2-1.8l.7-1.4 1.2-1a5 5 0 0 1 3-.2l1.2.6.7 1c.3.3.4.7.4 1.2h-1.4a2 2 0 0 0-.6-1.2 2 2 0 0 0-1.4-.5c-.5 0-1 .1-1.3.3-.3.2-.6.4-.7.7a3 3 0 0 0-.5 1 5.6 5.6 0 0 0 0 2.4l.5 1c.2.2.4.5.7.6.3.2.7.3 1.1.3.7 0 1.2-.2 1.6-.5.4-.4.6-.9.7-1.5h1.4c-.2 1-.5 1.8-1.2 2.4-.6.5-1.4.8-2.5.8zm7-3.3c-.6-.1-1.1-.4-1.5-.8-.4-.5-.6-1-.6-1.7 0-.8.3-1.4.7-1.9a3 3 0 0 1 2-.7h4.1v8.3H904v-3.2h-1.8l-2.6 3.2h-1.8l2.7-3.2zm3.4-1.2V150h-2.4c-.6 0-1 .2-1.3.4-.2.2-.4.6-.4 1s.2.7.4 1c.3.2.7.3 1.3.3h2.4zm9.8 4.4h-6.4v-8.3h1.3v7.1h4v-7h1.3v7h1.1v3.7h-1.3V157zm6.1.2c-.6 0-1.2-.1-1.7-.3-.5-.3-1-.6-1.3-1-.3-.3-.5-.8-.7-1.3a5.9 5.9 0 0 1 0-3.5l.8-1.3a3.7 3.7 0 0 1 2.8-1.3 3.2 3.2 0 0 1 3 1.7c.3.4.5 1 .6 1.5.2.5.2 1 .2 1.6h-6.2l.1 1 .5.9.8.6 1.2.2c.5 0 1-.1 1.4-.4.4-.3.6-.7.7-1.2h1.4c-.2 1-.6 1.6-1.2 2-.7.5-1.4.8-2.4.8zm2.2-5.1c0-.3 0-.7-.2-1a2.3 2.3 0 0 0-2.1-1.4l-1 .2-.7.5-.5.8-.2.9h4.7zm2.9-3.4h3.8l1 .1c.4 0 .7.2 1 .3l.6.6c.2.3.2.6.2 1 0 .5 0 .9-.3 1.1-.2.3-.5.5-.9.7.5.1.9.4 1.2.7.3.4.4.8.4 1.4 0 .3 0 .6-.2 1l-.5.7-.8.5-1 .2H925v-8.3zm4.2 7.1c.5 0 .8 0 1-.3.3-.3.4-.6.4-1s-.1-.7-.4-1c-.2-.1-.6-.3-1.2-.3h-2.7v2.6h3zm-.5-3.7c.6 0 1 0 1.2-.3.2-.2.3-.5.3-.8a1 1 0 0 0-.3-.8c-.2-.2-.6-.3-1.2-.3h-2.4v2.2h2.4zm-857-6.5h5c1.2 0 2 .3 2.7.9.6.6.9 1.4.9 2.5a3 3 0 0 1-1 2.4c-.5.6-1.4 1-2.5 1h-3.5v4.6h-1.6v-11.4zm4.5 5.4c.9 0 1.5-.1 2-.5.3-.3.5-.9.5-1.5 0-.7-.2-1.3-.6-1.6-.4-.4-1-.5-1.9-.5h-3v4.1h3zm8 6.2l-1-.1-1-.4a2 2 0 0 1-.5-.8c-.2-.3-.3-.6-.3-1 0-.5.1-.9.3-1.2.1-.3.4-.5.6-.7l1-.4a10.8 10.8 0 0 1 2-.4l.9-.2.6-.3.2-.6-.1-.7-.5-.4-.6-.2h-.6c-.6 0-1 0-1.5.3-.3.2-.5.6-.6 1.2h-1.3c0-.5 0-1 .3-1.3l.7-.8c.4-.3.7-.4 1.1-.5l1.4-.2 1 .1c.4 0 .8.2 1 .3.4.2.6.4.8.7.2.3.3.7.3 1.2v5l.4.2h.4v1a2 2 0 0 1-1 .2c-.3 0-.6-.1-.8-.3-.2-.2-.3-.5-.3-1a3 3 0 0 1-1.3 1c-.5.2-1 .3-1.6.3zm.3-1.2c.4 0 .8 0 1.1-.2.4-.1.6-.3.8-.5.2-.1.4-.3.5-.6l.1-.6v-1.4a1 1 0 0 1-.7.3 17.5 17.5 0 0 1-1.8.3l-.8.2-.6.5-.2.8.1.5.4.4.5.2h.6zm9 1.2a4 4 0 0 1-2.6-.8c-.6-.5-1-1.1-1-2h1.4c0 .6.3 1 .7 1.3.4.2.9.4 1.5.4.7 0 1.2-.2 1.5-.5.4-.2.5-.6.5-1s-.1-.8-.4-1c-.2-.2-.7-.3-1.3-.3h-1.1v-1.1h.9l1.2-.3a1.2 1.2 0 0 0 .1-1.9c-.3-.2-.8-.3-1.3-.3h-.8l-.6.3a1.5 1.5 0 0 0-.7 1.2H90c0-.6.1-1 .3-1.3l.8-.8c.4-.2.7-.4 1.1-.4a6 6 0 0 1 2.5 0c.3 0 .7.2 1 .4.2.2.5.4.6.7.2.2.3.6.3 1s-.2.8-.4 1.1a2 2 0 0 1-1 .6l.6.2.5.4.4.6.1.9a2.3 2.3 0 0 1-1 2l-1.1.4a5 5 0 0 1-1.3.2zm8.8 0c-1 0-2-.3-2.6-.8-.7-.6-1-1.4-1.3-2.6a10.7 10.7 0 0 1 0-2.7 12.4 12.4 0 0 1 .4-2.5l.5-1c.4-.6.8-1 1.3-1.3a5 5 0 0 1 2-.5l1.3-.1c.4 0 .6-.2.6-.4h1.4c0 .4-.1.7-.3 1l-.7.5-1 .2a116.5 116.5 0 0 1-2.7.4l-.9.8-.5 1-.4 1.4c.3-.6.7-1 1.2-1.4a3 3 0 0 1 1.8-.5c1.1 0 2 .4 2.7 1.1.7.7 1 1.8 1 3.1 0 .7 0 1.3-.2 1.9l-.8 1.3c-.4.4-.8.6-1.3.8-.4.2-1 .3-1.5.3zm0-1.2a2.3 2.3 0 0 0 1.7-.8c.2-.2.4-.5.5-1 .2-.3.3-.7.3-1.2 0-1-.3-1.8-.7-2.3-.5-.6-1-.9-1.8-.9s-1.4.3-1.9.9c-.4.5-.7 1.3-.7 2.3 0 1 .3 1.7.7 2.2.5.6 1 .8 1.9.8zm5.4 1.1h-.5l-.3-.1v-1.2a1.7 1.7 0 0 0 .5 0c.4 0 .7 0 .8-.4.2-.2.4-.7.5-1.2l.1-2.2.1-3.3h5.8v8.3h-1.4v-7h-3a277.8 277.8 0 0 1-.5 5c-.1.6-.4 1.1-.7 1.5-.3.4-.8.6-1.4.6zm12.6 0c-.6 0-1.2 0-1.7-.3a3.3 3.3 0 0 1-2-2.2 5.5 5.5 0 0 1 0-3.4c.1-.6.4-1 .7-1.4l1.3-1c.5-.2 1-.3 1.7-.3s1.2.1 1.7.4a3.6 3.6 0 0 1 2 2.3 5.5 5.5 0 0 1 0 3.4c0 .5-.3 1-.7 1.3-.3.4-.8.7-1.3 1-.5.2-1 .3-1.7.3zm0-1.1a2.5 2.5 0 0 0 2.4-1.8l.2-1.3c0-.5 0-1-.2-1.4a2 2 0 0 0-.6-1 2.4 2.4 0 0 0-1.8-.8 2.5 2.5 0 0 0-1.8.9l-.6 1-.2 1.3.2 1.3.6 1a2.4 2.4 0 0 0 1.8.8zm5.6-7.3h1.4v4l3.8-4h1.8l-3.7 3.6 4.1 4.7h-1.7l-3.5-4-.8.9v3.1h-1.4v-8.3zm8.5 0h1.3v6.8l4-6.8h1.7v8.3H140v-6.8l-3.9 6.8h-1.7v-8.3zm9 0h1.4v1.1a2 2 0 0 1 1.1-1 4 4 0 0 1 1.6-.3c.6 0 1.2.2 1.7.4.4.2.8.5 1.1 1 .4.3.6.8.8 1.3l.2 1.7c0 .6 0 1.1-.2 1.7a4 4 0 0 1-.7 1.3l-1.2 1a3.8 3.8 0 0 1-2.4.2l-.7-.2a3 3 0 0 1-.7-.4l-.6-.6v4.3h-1.3v-11.5zm4 7.3a2 2 0 0 0 1.1-.3c.4-.2.6-.4.8-.7l.4-1 .2-1.2c0-.4 0-.8-.2-1.1a3 3 0 0 0-.5-1 2.3 2.3 0 0 0-1.9-1c-.5 0-.9.1-1.2.3l-.8.7a3 3 0 0 0-.4 1 4.8 4.8 0 0 0 0 2.3l.5 1a2.3 2.3 0 0 0 2 1zm9 1.2c-.6 0-1.2-.1-1.7-.4-.5-.2-.9-.5-1.2-.9-.4-.4-.6-.8-.8-1.3a5.5 5.5 0 0 1 0-3.4c.2-.6.4-1 .8-1.4a4 4 0 0 1 1.2-1c.5-.2 1.1-.3 1.8-.3.6 0 1.2.1 1.7.4a3.6 3.6 0 0 1 2 2.3 5.5 5.5 0 0 1 0 3.4c-.1.5-.4 1-.7 1.3l-1.3 1c-.5.2-1 .3-1.7.3zm0-1.2a2.5 2.5 0 0 0 2.4-1.8c.2-.4.2-.8.2-1.3s0-1-.2-1.4c0-.4-.3-.7-.5-1a2.4 2.4 0 0 0-1.8-.8 2.5 2.5 0 0 0-1.9.9c-.2.2-.4.5-.5 1l-.2 1.3c0 .5 0 1 .2 1.3l.5 1a2.4 2.4 0 0 0 1.9.8zm5.7-7.3h3.8l1 .1c.4 0 .7.2 1 .3l.6.6c.2.3.2.6.2 1 0 .5 0 .9-.3 1.1-.2.3-.5.5-.9.7.5.1.9.4 1.2.7.2.4.4.8.4 1.4 0 .3 0 .6-.2 1l-.5.7-.8.5-1 .2H162v-8.3zm4.2 7.1c.5 0 .8 0 1-.3.3-.3.4-.6.4-1s-.1-.7-.4-1c-.2-.1-.6-.3-1.2-.3h-2.7v2.6h3zm-.5-3.7c.5 0 1 0 1.2-.3.2-.2.3-.5.3-.8a1 1 0 0 0-.3-.8c-.2-.2-.6-.3-1.2-.3h-2.4v2.2h2.4zm5-3.4h1.3v4l3.8-4h1.8l-3.7 3.6 4.1 4.7h-1.7l-3.5-4-.8.9v3.1h-1.4v-8.3zm10.6 8.5l-1-.1-.9-.4a2 2 0 0 1-.6-.8l-.2-1c0-.5 0-.9.2-1.2l.7-.7c.2-.2.5-.3.9-.4a10.8 10.8 0 0 1 2-.4l1-.2c.2 0 .4-.2.5-.3.2-.1.3-.3.3-.6s0-.5-.2-.7l-.4-.4-.6-.2h-.7c-.5 0-1 0-1.4.3-.4.2-.6.6-.6 1.2H179c0-.5.1-1 .3-1.3l.8-.8c.3-.3.7-.4 1-.5l1.4-.2 1.1.1c.4 0 .7.2 1 .3.3.2.6.4.7.7.2.3.3.7.3 1.2v5l.4.2h.5v1a2 2 0 0 1-1 .2c-.4 0-.6-.1-.9-.3-.2-.2-.3-.5-.3-1-.3.5-.8.8-1.3 1-.5.2-1 .3-1.6.3zm.3-1.2c.5 0 .9 0 1.2-.2l.8-.5c.2-.1.3-.3.4-.6l.2-.6v-1.4a1 1 0 0 1-.7.3 17.5 17.5 0 0 1-1.8.3l-.8.2a1 1 0 0 0-.6.5c-.2.2-.3.4-.3.8 0 .2 0 .4.2.5 0 .2.2.3.3.4l.5.2h.6zm15.4-2.4l-1 .3-1.4.2c-1 0-1.7-.2-2.2-.7-.4-.4-.6-1-.6-1.8v-2.9h1.3v2.6c0 .6.2 1 .4 1.2.3.3.7.4 1.4.4a5.7 5.7 0 0 0 2.1-.4v-3.8h1.4v8.3h-1.4v-3.4zm7 3.6c-.7 0-1.3-.1-1.8-.3a4 4 0 0 1-1.2-1l-.8-1.3a5.9 5.9 0 0 1 0-3.5c.3-.5.5-1 .9-1.3a3.7 3.7 0 0 1 2.8-1.3 3.5 3.5 0 0 1 3 1.7c.3.4.5 1 .6 1.5l.1 1.6h-6.2c0 .3 0 .7.2 1 0 .3.2.6.4.9l.8.6 1.2.2c.6 0 1-.1 1.4-.4.4-.3.6-.7.8-1.2h1.3c-.2 1-.6 1.6-1.2 2-.6.5-1.4.8-2.3.8zm2.2-5.1l-.2-1a2.3 2.3 0 0 0-2.2-1.4l-1 .2-.7.5-.5.8-.2.9h4.8zm2.9-3.4h1.3v1.1a2 2 0 0 1 1.1-1 4 4 0 0 1 1.6-.3c.7 0 1.2.2 1.7.4s.9.5 1.2 1c.3.3.5.8.7 1.3l.2 1.7c0 .6 0 1.1-.2 1.7a4 4 0 0 1-.7 1.3 4 4 0 0 1-1.2 1 3.8 3.8 0 0 1-2.3.2l-.8-.2a3 3 0 0 1-.7-.4l-.5-.6v4.3h-1.4v-11.5zm3.9 7.3c.5 0 .9-.1 1.2-.3l.7-.7.5-1v-2.3a3 3 0 0 0-.5-1 2.3 2.3 0 0 0-2-1 2 2 0 0 0-1.1.3c-.4.2-.6.4-.8.7a3 3 0 0 0-.5 1 4.8 4.8 0 0 0 0 2.3l.5 1a2.3 2.3 0 0 0 2 1zm9 1.2c-.6 0-1.2-.1-1.7-.3a4 4 0 0 1-1.2-1c-.4-.3-.6-.8-.8-1.3a5.9 5.9 0 0 1 0-3.5c.3-.5.5-1 .9-1.3a3.7 3.7 0 0 1 2.8-1.3 3.5 3.5 0 0 1 3 1.7c.3.4.5 1 .6 1.5l.1 1.6h-6.2l.1 1 .5.9.8.6 1.2.2c.6 0 1-.1 1.4-.4.4-.3.6-.7.7-1.2h1.4c-.2 1-.6 1.6-1.2 2-.6.5-1.4.8-2.4.8zm2.3-5.1l-.2-1a2.3 2.3 0 0 0-2.2-1.4l-1 .2-.7.5-.5.8-.2.9h4.8zm5.9 5a4 4 0 0 1-2.6-.7c-.6-.5-1-1.1-1-2h1.3c0 .6.3 1 .7 1.3.4.2 1 .4 1.5.4.7 0 1.2-.2 1.5-.5.4-.2.6-.6.6-1s-.2-.8-.4-1c-.3-.2-.7-.3-1.4-.3h-1v-1.1h.8c.5 0 .9-.1 1.2-.3.4-.2.5-.6.5-1s-.1-.7-.4-.9c-.3-.2-.7-.3-1.3-.3h-.7c-.3 0-.5.2-.7.3a1.5 1.5 0 0 0-.7 1.2h-1.4c0-.6.2-1 .4-1.3l.8-.8c.3-.2.7-.4 1-.4a6 6 0 0 1 2.5 0c.4 0 .7.2 1 .4l.7.7.2 1c0 .4-.1.8-.4 1.1a2 2 0 0 1-1 .6l.7.2.5.4.3.6.2.9a2.3 2.3 0 0 1-1 2l-1.2.4a5 5 0 0 1-1.2.2zm14.1-.1v-11.3h-1c0 .4-.2.7-.4 1l-.8.7a3 3 0 0 1-1 .3 7 7 0 0 1-1 0v1.2h2.9v8.1h1.3zm5.7-8.4c0 .3 0 .6.2.8 0 .2.2.4.4.6l.6.3.8.1c.6 0 1-.1 1.4-.5.3-.3.5-.7.5-1.3 0-.6-.2-1-.5-1.3a2 2 0 0 0-1.4-.4h-.8l-.6.4-.4.5-.2.8zm-1.4 0c0-.5 0-1 .2-1.3l.8-.9 1-.6 1.3-.1c.6 0 1.1 0 1.6.2.4.2.8.4 1 .7.3.2.5.5.6.9.2.3.2.7.2 1 0 .6-.1 1-.4 1.5-.3.4-.6.7-1.1.9.7.2 1.2.6 1.5 1a3.7 3.7 0 0 1 .2 3.3 3.2 3.2 0 0 1-2 1.8l-1.5.2c-.5 0-1 0-1.5-.2s-.9-.4-1.2-.7a3 3 0 0 1-.8-1 3.6 3.6 0 0 1 .2-3.3c.3-.5.8-.9 1.5-1.1-.5-.2-1-.5-1.2-1a2 2 0 0 1-.4-1.3zm1 5.2c0 .7.2 1.2.7 1.6.4.4 1 .6 1.7.6.4 0 .7 0 1-.2l.7-.4.5-.7a2.3 2.3 0 0 0 0-1.8l-.5-.7a2.4 2.4 0 0 0-1.7-.6c-.3 0-.6 0-1 .2l-.7.4a2 2 0 0 0-.7 1.6zm12.3-5h2l2.5 6.6 2.5-6.7h2v8.3h-1.4v-6.6l-2.5 6.6h-1.2l-2.5-6.6v6.6H262v-8.3zm14.5 8.4c-.6 0-1.2-.1-1.7-.3-.5-.3-1-.6-1.2-1-.4-.3-.6-.8-.8-1.3a5.9 5.9 0 0 1 0-3.5c.2-.5.5-1 .9-1.3a3.7 3.7 0 0 1 2.7-1.3c.8 0 1.4.2 1.9.5s.9.7 1.1 1.2c.3.4.5 1 .7 1.5 0 .5.1 1 0 1.6H274l.1 1 .5.9.8.6 1.2.2c.6 0 1-.1 1.4-.4.4-.3.6-.7.7-1.2h1.4c-.2 1-.6 1.6-1.2 2-.7.5-1.4.8-2.4.8zm2.3-5.1a2 2 0 0 0-.3-1 2.3 2.3 0 0 0-2.1-1.4l-1 .2-.7.5-.5.8-.2.9h4.8zm6.2 5c-.6 0-1.2 0-1.6-.2a3 3 0 0 1-1.3-.9l-.7-1.3c-.2-.5-.2-1.1-.2-1.7 0-.7 0-1.2.2-1.8l.7-1.4c.3-.4.8-.7 1.2-1a5 5 0 0 1 3-.2l1.2.6.7 1c.2.3.4.7.4 1.2h-1.4a2 2 0 0 0-.7-1.2 2 2 0 0 0-1.3-.5c-.5 0-1 .1-1.3.3l-.8.7a3 3 0 0 0-.4 1 5.6 5.6 0 0 0 0 2.4l.5 1c.1.2.4.5.7.6.3.2.7.3 1.1.3.7 0 1.2-.2 1.6-.5.4-.4.6-.9.7-1.5h1.4c-.2 1-.6 1.8-1.2 2.4-.6.5-1.4.8-2.5.8zm7-3.3c-.7-.1-1.1-.4-1.5-.8-.4-.5-.6-1-.6-1.7 0-.8.3-1.4.7-1.9a3 3 0 0 1 2-.7h4.1v8.3h-1.3v-3.2h-1.8L291 157h-1.8l2.7-3.2zm3.4-1.2V150H293c-.6 0-1 .2-1.3.4-.2.2-.4.6-.4 1s.2.7.4 1c.3.2.7.3 1.3.3h2.4zm9.8 4.4h-6.4v-8.3h1.3v7.1h4v-7h1.3v7h1.1v3.7h-1.3V157zm6.1.2c-.6 0-1.2-.1-1.7-.3-.5-.3-1-.6-1.3-1-.3-.3-.5-.8-.7-1.3a5.9 5.9 0 0 1 0-3.5l.8-1.3a3.7 3.7 0 0 1 2.8-1.3c.8 0 1.4.2 1.9.5a4.6 4.6 0 0 1 1.8 2.7c0 .5.1 1 0 1.6h-6.1l.1 1 .5.9.8.6 1.2.2c.5 0 1-.1 1.4-.4.3-.3.6-.7.7-1.2h1.3c-.1 1-.5 1.6-1.2 2-.6.5-1.3.8-2.3.8zm2.2-5.1c0-.3 0-.7-.2-1a2.3 2.3 0 0 0-2.1-1.4l-1 .2-.7.5-.5.8-.2.9h4.7zm2.9-3.4h3.8l1 .1c.4 0 .7.2 1 .3l.6.6c.2.3.2.6.2 1 0 .5 0 .9-.3 1.1-.2.3-.5.5-.9.7.5.1.9.4 1.2.7.3.4.4.8.4 1.4 0 .3 0 .6-.2 1l-.5.7-.8.5-1 .2h-4.5v-8.3zm4.2 7.1c.5 0 .8 0 1-.3.3-.3.4-.6.4-1s-.1-.7-.4-1c-.2-.1-.6-.3-1.2-.3h-2.7v2.6h3zm-.5-3.7c.6 0 1 0 1.2-.3.2-.2.3-.5.3-.8a1 1 0 0 0-.3-.8c-.2-.2-.6-.3-1.2-.3h-2.4v2.2h2.4z" fill-rule="nonzero" fill="#000"/></g></svg>