<svg width="965" height="255" viewBox="0 0 965 255" xmlns="http://www.w3.org/2000/svg"><title>phased-use</title><g transform="translate(-1)" fill="none" fill-rule="evenodd"><circle fill="#39AADE" fill-rule="nonzero" cx="480.5" cy="127.5" r="127.5"/><path d="M312.5 78.5h75m188 3h75" stroke="#137EB1" stroke-linecap="square"/><text transform="translate(669 61)" font-size="32" font-family="HelveticaNeue-Bold, Helvetica Neue" fill="#3C3C3B" font-weight="bold"><tspan x="0" y="31">5%</tspan></text><text transform="translate(255 61)" font-size="32" font-family="HelveticaNeue-Bold, Helvetica Neue" fill="#3C3C3B" font-weight="bold"><tspan x=".2" y="31">5%</tspan></text><g fill="#FFF"><text transform="translate(440 115)" font-size="39" font-family="HelveticaNeue-Bold, Helvetica Neue" font-weight="bold"><tspan x=".3" y="38">10%</tspan></text><path d="M402 108.5h2.6c.4 0 .8 0 1.2-.2l1.1-.7.8-1.3a5 5 0 0 0 .3-1.9 8 8 0 0 0-.2-1.8l-.7-1.4a3 3 0 0 0-1.2-1c-.5-.2-1.1-.3-1.8-.3h-2.2v8.6zm-3-11h5.8a7 7 0 0 1 2.4.4 5.3 5.3 0 0 1 3.3 3.3 9.4 9.4 0 0 1 0 5.7 6 6 0 0 1-1 2.1c-.6.7-1.2 1.1-2 1.5-.8.3-1.7.5-2.7.5h-5.9V97.4zm20.4 7.5c-.2-.7-.4-1.2-.7-1.5-.3-.4-.8-.6-1.5-.6-.4 0-.8.1-1 .3a2 2 0 0 0-1.1 1.2l-.1.6h4.4zm-4.4 1.7c0 1 .2 1.6.6 2 .4.3 1 .5 1.8.5.5 0 1-.1 1.4-.4.4-.2.6-.5.7-.8h2.4c-.4 1.1-1 2-1.8 2.5s-1.7.7-2.8.7c-.8 0-1.5 0-2.1-.3a4.3 4.3 0 0 1-2.6-2.7 6 6 0 0 1 0-4.2 4.8 4.8 0 0 1 4.7-3c.8 0 1.5 0 2.2.4.6.3 1.1.8 1.5 1.3.4.5.7 1.2.9 1.9l.2 2.1H415zm14 4.3l3.4-9.8h-2.7l-2 6.7-2.2-6.7h-2.8l3.4 9.8h3zm11.1-6a2 2 0 0 0-.6-1.5c-.4-.4-.8-.6-1.5-.6-.4 0-.8.1-1 .3a2 2 0 0 0-1.1 1.2l-.1.6h4.3zm-4.3 1.7c0 1 .2 1.6.6 2 .4.3 1 .5 1.8.5.5 0 1-.1 1.4-.4.4-.2.6-.5.7-.8h2.4c-.4 1.1-1 2-1.8 2.5s-1.7.7-2.8.7c-.8 0-1.5 0-2.1-.3a4.3 4.3 0 0 1-2.6-2.7 6 6 0 0 1 0-4.2 4.8 4.8 0 0 1 4.7-3c.8 0 1.5 0 2.2.4.6.3 1 .8 1.5 1.3.4.5.7 1.2.8 1.9.2.7.3 1.4.2 2.1h-7zm8.7-9.3V111h2.7V97.4h-2.7zm7.2 8.7l.1 1.1.4 1c.2.4.5.6.8.8l1.1.2c.5 0 .8 0 1.2-.2l.7-.7.4-1a5.8 5.8 0 0 0 0-2.4 3 3 0 0 0-.4-1l-.7-.7c-.4-.2-.7-.3-1.2-.3a2.2 2.2 0 0 0-1.9 1 3 3 0 0 0-.4 1v1.2zm-2.7 0c0-.8.2-1.5.4-2.1a4.6 4.6 0 0 1 2.6-2.7c.6-.3 1.3-.4 2.1-.4s1.5.1 2.1.4a4.6 4.6 0 0 1 2.6 2.7c.3.6.4 1.3.4 2.1a6 6 0 0 1-.4 2.1c-.2.7-.5 1.2-1 1.7-.4.4-1 .7-1.6 1-.6.2-1.3.3-2 .3-.9 0-1.6 0-2.2-.3a4.5 4.5 0 0 1-2.6-2.7 6 6 0 0 1-.4-2.1zm17 3.1c.3 0 .7 0 1-.2.3-.2.6-.4.7-.7.2-.3.4-.6.4-1a5.9 5.9 0 0 0 0-2.3 3 3 0 0 0-.4-1c-.2-.4-.4-.6-.7-.8a2 2 0 0 0-1.1-.3 2 2 0 0 0-1.1.3c-.3.2-.6.4-.7.7a3 3 0 0 0-.4 1 6 6 0 0 0 0 2.4c0 .4.2.7.4 1l.7.7 1.1.2zm-5-8h2.5v1.2c.4-.5.8-.9 1.3-1.1.5-.3 1-.4 1.7-.4s1.4.2 2 .4c.5.3 1 .7 1.4 1.2.3.5.6 1 .8 1.7a7.5 7.5 0 0 1 0 3.9l-.8 1.6a4 4 0 0 1-1.4 1.1 4 4 0 0 1-1.9.4c-.6 0-1.1 0-1.7-.3-.5-.3-.9-.6-1.2-1.1v4.6h-2.8v-13.2zm11.6 0v9.8h2.7v-5.7l.2-1.2.5-.7.7-.3h.5c.4 0 .7 0 1 .2l.4.5.2.8v6.4h2.7v-6.4l.3-.8c.2-.2.3-.4.6-.5.2-.2.5-.3.9-.3l.9.2.5.5.2.8v6.5h2.7v-6.6c0-.6 0-1.1-.2-1.6-.2-.4-.4-.8-.8-1a3 3 0 0 0-1.1-.7l-1.4-.2c-.7 0-1.3.2-1.8.5s-1 .7-1.2 1.1c-.3-.6-.7-1-1.2-1.2a4 4 0 0 0-3.4 0c-.5.3-1 .7-1.3 1.2v-1.3h-2.6zm23.8 3.8c-.1-.7-.4-1.2-.7-1.5-.3-.4-.8-.6-1.5-.6-.4 0-.8.1-1 .3a2 2 0 0 0-1 1.2c-.2.2-.2.4-.2.6h4.4zm-4.4 1.7c0 1 .3 1.6.7 2 .4.3 1 .5 1.7.5.6 0 1-.1 1.4-.4.4-.2.6-.5.7-.8h2.4c-.4 1.1-1 2-1.7 2.5-.8.5-1.8.7-2.9.7-.8 0-1.5 0-2-.3a4.3 4.3 0 0 1-2.7-2.7 6 6 0 0 1 0-4.2 4.8 4.8 0 0 1 4.7-3c.8 0 1.6 0 2.2.4.6.3 1.1.8 1.5 1.3.4.5.7 1.2.9 1.9.2.7.2 1.4.2 2.1H492zm8.7-5.5v9.8h2.7v-5.1c0-1 .1-1.8.5-2.2.3-.4.8-.7 1.6-.7.6 0 1 .2 1.3.6.3.4.4 1 .4 1.9v5.5h2.7v-6a8 8 0 0 0-.2-1.7c0-.5-.3-1-.5-1.3l-1.1-.8a4.6 4.6 0 0 0-3.5.1c-.5.3-1 .7-1.3 1.2v-1.3h-2.6zm14.7 0v-3h-2.7v3H511v1.8h1.7v5.8c0 .5 0 .9.2 1.2l.7.7c.3.1.6.3 1 .3a7.9 7.9 0 0 0 2 0h.7v-2a3.8 3.8 0 0 1-.8 0c-.5 0-.8 0-1-.2l-.1-1V103h2v-1.8h-2zm9.1 1.8v8h2.7v-8h1.9v-1.8h-1.9v-.6c0-.4 0-.7.2-.9l.8-.2h1v-2a30.3 30.3 0 0 1-1.4 0c-1.1 0-2 .2-2.5.8a3 3 0 0 0-.8 2.1v.8h-1.6v1.8h1.6zm15 8v-9.8h-2.7v5.1c0 1-.2 1.7-.5 2.2-.4.4-.9.6-1.6.6-.7 0-1.1-.2-1.4-.6a4 4 0 0 1-.4-1.8v-5.5h-2.7v6c0 .6 0 1.2.2 1.7.1.5.3 1 .6 1.3.2.3.6.6 1 .8a4.7 4.7 0 0 0 3.5-.1 3 3 0 0 0 1.3-1.3v1.4h2.7zm2-9.8v9.8h2.7v-5.1c0-1 .2-1.8.5-2.2a2 2 0 0 1 1.6-.7c.6 0 1 .2 1.3.6.3.4.4 1 .4 1.9v5.5h2.7v-6a8 8 0 0 0-.1-1.7c-.1-.5-.3-1-.6-1.3l-1-.8a4.6 4.6 0 0 0-3.5.1 4 4 0 0 0-1.4 1.2v-1.3h-2.6zm18.2 4.9v-1.2l-.5-1c-.1-.3-.4-.5-.7-.7a2 2 0 0 0-1-.3c-.5 0-.9.1-1.2.3l-.7.7-.4 1a5.4 5.4 0 0 0 0 2.3c0 .4.2.7.4 1l.8.8 1 .2c.5 0 .8 0 1.1-.2l.8-.7.3-1 .1-1.2zm0 3.6c-.3.6-.7 1-1.2 1.2-.5.2-1 .3-1.7.3-.8 0-1.4-.1-2-.4l-1.4-1.1c-.3-.5-.6-1-.8-1.7a7 7 0 0 1 0-4 5 5 0 0 1 .8-1.5 4 4 0 0 1 3.3-1.6c.6 0 1.1.1 1.7.4.5.2 1 .6 1.2 1v-4.9h2.7V111h-2.5v-1.3z"/></g><path d="M673.5 122h3.3l-1.6-4.7-1.7 4.7zm.3-7.9h2.8l4.9 12.9h-3l-1-2.9h-4.8l-1 2.9H669l4.9-12.9zm10.5 9.9h-2.4c0 .6.1 1.1.4 1.5.2.4.6.8 1 1 .4.3.8.5 1.3.6a7.7 7.7 0 0 0 3.2 0 4 4 0 0 0 1.3-.5 3 3 0 0 0 1-1c.3-.5.4-1 .4-1.6 0-.4-.1-.8-.3-1-.1-.4-.4-.6-.6-.8l-1-.5a10.8 10.8 0 0 0-2.1-.5l-1-.3a2 2 0 0 1-.6-.3.7.7 0 0 1-.3-.6c0-.2 0-.3.2-.4 0-.2.2-.2.3-.3l.5-.1h.4c.5 0 .9 0 1.2.2.4.2.6.5.6 1h2.4c0-.6-.2-1-.4-1.4a3 3 0 0 0-1-1l-1.2-.4a7.4 7.4 0 0 0-3 0 4 4 0 0 0-1.3.4l-.9 1c-.2.3-.3.8-.3 1.4a2 2 0 0 0 .9 1.8l1 .4 1 .3 2.2.6c.5.2.7.5.7.9l-.1.5-.4.4a2 2 0 0 1-.6.2 2.7 2.7 0 0 1-1.3 0l-.6-.3-.4-.5c-.2-.2-.2-.4-.2-.7zm10.3-7.7V114H692v2.2h2.6zm-2.6 1.4v9.3h2.6v-9.3H692zm4.5 2.9c0-.6.2-1.1.5-1.5a3 3 0 0 1 1-1l1.3-.5a7.8 7.8 0 0 1 3 0c.5 0 1 .1 1.3.3l1 .8c.2.4.4.8.4 1.4v6c0 .4.2.7.3.9h-2.6a3.7 3.7 0 0 1-.2-.9c-.4.4-.9.7-1.4.9a5.8 5.8 0 0 1-3 0c-.3 0-.7-.2-1-.4-.3-.3-.5-.5-.6-.9a3 3 0 0 1-.3-1.2c0-.6.1-1 .3-1.3.2-.4.4-.7.7-.9l1-.4a10.8 10.8 0 0 1 2.3-.4l1-.2c.3 0 .5-.1.7-.3l.2-.6-.1-.6a1 1 0 0 0-.4-.4l-.5-.2h-.6a2 2 0 0 0-1.2.3c-.3.2-.5.6-.5 1h-2.6zm6 1.8l-.5.3-.5.1a10.7 10.7 0 0 0-1.8.3c-.2 0-.3.2-.5.3l-.3.4-.1.6.1.5c0 .2.2.3.3.4l.5.2h.6c.5 0 1 0 1.2-.2l.6-.6c.2-.2.2-.5.3-.7v-1.6zm9.5-4.7v9.3h2.6v-5.4c0-.5 0-.8.2-1.1l.5-.7.5-.3h.5c.4 0 .7 0 1 .2l.4.5.1.8v6h2.6v-6l.3-.8.5-.5c.3-.2.6-.2 1-.2l.8.1.5.5.1.7v6.2h2.6v-6.2c0-.6 0-1.1-.2-1.6l-.7-1c-.3-.3-.7-.5-1-.6a5 5 0 0 0-1.5-.2 3 3 0 0 0-1.6.5 4 4 0 0 0-1.2 1c-.2-.5-.6-.9-1-1.1a3.7 3.7 0 0 0-3.3 0c-.5.3-.9.7-1.2 1.2v-1.3H712zm16.1 2.9c0-.6.2-1.1.5-1.5a3 3 0 0 1 1-1l1.4-.5a7.8 7.8 0 0 1 3 0c.4 0 .9.1 1.3.3l1 .8c.2.4.3.8.3 1.4v6l.3.9h-2.6a3.7 3.7 0 0 1-.1-.9c-.4.4-1 .7-1.5.9a5.8 5.8 0 0 1-3 0c-.3 0-.6-.2-1-.4l-.6-.9a3 3 0 0 1-.2-1.2c0-.6 0-1 .2-1.3.2-.4.5-.7.8-.9l1-.4a10.8 10.8 0 0 1 2.2-.4l1-.2c.3 0 .5-.1.7-.3.2-.1.3-.3.3-.6s0-.5-.2-.6a1 1 0 0 0-.3-.4l-.6-.2h-.6a2 2 0 0 0-1.2.3c-.3.2-.4.6-.5 1h-2.6zm6 1.8l-.5.3-.5.1a10.7 10.7 0 0 0-1.8.3l-.4.3c-.2 0-.3.2-.4.4v1.1l.4.4.5.2h.6c.5 0 .9 0 1.2-.2l.6-.6.2-.7v-1.6zm4.5-4.7v9.3h2.5v-4.2c0-.4 0-.8.2-1.2 0-.3.2-.6.4-1l.8-.5c.3-.2.7-.3 1.2-.3a4.6 4.6 0 0 1 .9.1v-2.4a2 2 0 0 0-.6 0 3 3 0 0 0-1.8.5 3.2 3.2 0 0 0-1.1 1.4v-1.7h-2.5zm7.2-3.6V127h2.6v-3.2l1-1 2.5 4.2h3.1l-3.9-5.9 3.5-3.4h-3l-3.2 3.3v-6.9h-2.6zm16.4 7.2a3 3 0 0 0-.7-1.4c-.3-.4-.7-.5-1.3-.5-.5 0-.8 0-1 .2a2 2 0 0 0-1 1.1l-.2.6h4.2zM758 123c0 .8.3 1.4.7 1.8.3.3.9.5 1.6.5.5 0 1-.1 1.3-.4.4-.2.6-.5.7-.8h2.3c-.4 1.1-1 2-1.7 2.4-.7.5-1.6.7-2.7.7-.7 0-1.4 0-2-.3a4.1 4.1 0 0 1-2.4-2.6 5.7 5.7 0 0 1 0-3.9 4.6 4.6 0 0 1 4.4-3 4 4 0 0 1 2 .5 3 3 0 0 1 1.5 1.2c.4.6.7 1.1.9 1.8.1.7.2 1.3.1 2H758zm11.5-5.3v-2.8h-2.6v2.8h-1.5v1.7h1.5v5.5c0 .5.1.8.3 1.1.1.3.3.5.6.7.3.2.6.3 1 .3a7.5 7.5 0 0 0 1.8 0h.8v-2a3.6 3.6 0 0 1-.8 0l-.9-.1-.2-.9v-4.6h1.9v-1.7h-2zm14.4 3.6a3 3 0 0 0-.7-1.4c-.3-.4-.8-.5-1.4-.5-.4 0-.7 0-1 .2a2 2 0 0 0-1 1.1l-.1.6h4.2zm-4.2 1.7c0 .8.2 1.4.6 1.8.4.3 1 .5 1.7.5.5 0 1-.1 1.3-.4.4-.2.6-.5.7-.8h2.3c-.4 1.1-1 2-1.7 2.4-.7.5-1.6.7-2.7.7-.7 0-1.4 0-2-.3a4.1 4.1 0 0 1-2.4-2.6 5.7 5.7 0 0 1 0-3.9 4.6 4.6 0 0 1 4.4-3 4 4 0 0 1 2 .5 4.2 4.2 0 0 1 2.3 3c.2.7.3 1.3.2 2h-6.7zm8.2-5.3v9.3h2.6v-4.9c0-1 .1-1.6.4-2 .4-.4.9-.6 1.6-.6.6 0 1 .1 1.2.5.3.4.4 1 .4 1.7v5.3h2.6v-5.7c0-.6 0-1.1-.2-1.6a3 3 0 0 0-.5-1.2l-1-.8a4.3 4.3 0 0 0-3.3.1 3 3 0 0 0-1.3 1.2v-1.3h-2.5zm14 0v-2.8h-2.6v2.8h-1.6v1.7h1.6v5.5c0 .5 0 .8.2 1.1l.7.7c.2.2.5.3.9.3a7.5 7.5 0 0 0 1.9 0h.7v-2a3.6 3.6 0 0 1-.8 0l-.8-.1c-.2-.2-.3-.5-.3-.9v-4.6h2v-1.7h-2zm3 0h2.5v1.7a3.1 3.1 0 0 1 1.2-1.4 3.4 3.4 0 0 1 1.8-.6l.5.1v2.4a5 5 0 0 0-.9 0c-.5 0-.9 0-1.2.2a2 2 0 0 0-.8.6l-.4 1-.1 1.1v4.2h-2.6v-9.3zm11.6 10.5a3 3 0 0 1-1.1 1.6 4 4 0 0 1-2 .5 11.2 11.2 0 0 1-1.6-.1V128a157.3 157.3 0 0 0 1.5 0c.3 0 .5-.1.7-.3.2-.3.2-.5.2-.8v-.6l-3.3-8.7h2.7l2.1 6.4 2-6.4h2.7l-3.9 10.5zM18.8 114.1V127h9.8v-2.4h-7v-3.1H28v-2.2h-6.2v-2.8h6.7v-2.4h-9.6zm11.4 3.6v9.3h2.6v-4.9c0-1 .1-1.6.5-2 .3-.4.8-.6 1.5-.6.6 0 1 .1 1.2.5.3.4.4 1 .4 1.7v5.3H39v-5.7c0-.6 0-1.1-.2-1.6a3 3 0 0 0-.5-1.2l-1-.8a4.3 4.3 0 0 0-3.3.1 3 3 0 0 0-1.3 1.2v-1.3h-2.5zm14 0v-2.8h-2.6v2.8H40v1.7h1.6v5.5c0 .5 0 .8.2 1.1l.7.7c.2.2.5.3.9.3a7.5 7.5 0 0 0 1.9 0h.7v-2a3.6 3.6 0 0 1-.8 0l-.8-.1c-.2-.2-.3-.5-.3-.9v-4.6h2v-1.7h-2zm9.3 3.6a3 3 0 0 0-.6-1.4c-.3-.4-.8-.5-1.4-.5-.4 0-.8 0-1 .2a2 2 0 0 0-1 1.1l-.2.6h4.2zm-4.2 1.7c0 .8.3 1.4.7 1.8.4.3 1 .5 1.6.5.5 0 1-.1 1.4-.4.3-.2.6-.5.6-.8H56c-.4 1.1-1 2-1.7 2.4-.7.5-1.6.7-2.7.7-.7 0-1.3 0-2-.3a4.1 4.1 0 0 1-2.4-2.6 5.7 5.7 0 0 1 0-3.9 4.6 4.6 0 0 1 4.4-3c.8 0 1.5.2 2.1.5.6.3 1 .7 1.5 1.2.3.6.6 1.1.8 1.8l.2 2h-6.8zm8.3-5.3v9.3H60v-4.2c0-.4 0-.8.2-1.2 0-.3.2-.6.4-1 .2-.2.4-.4.8-.5a2 2 0 0 1 1.1-.3 4.6 4.6 0 0 1 1 .1v-2.4a2 2 0 0 0-.6 0 3 3 0 0 0-1.8.5 3.2 3.2 0 0 0-1.2 1.4v-1.7h-2.4zm9.6-1.4V114h-2.6v2.2h2.6zm-2.6 1.4v9.3h2.6v-9.3h-2.6zm4.6 0v9.3h2.6v-4.9c0-1 .1-1.6.4-2 .4-.4.9-.6 1.6-.6.6 0 1 .1 1.2.5.3.4.4 1 .4 1.7v5.3h2.5v-5.7l-.1-1.6a3 3 0 0 0-.5-1.2l-1-.8a4.3 4.3 0 0 0-3.3.1 3 3 0 0 0-1.3 1.2v-1.3h-2.5zm15 7.1c.4 0 .7 0 1-.2l.7-.6.4-.8.1-1-.1-1c0-.4-.2-.7-.4-1l-.6-.6c-.3-.2-.6-.2-1-.2s-.7 0-1 .2a2 2 0 0 0-.6.6l-.4.8-.1 1v1l.4.9.6.7 1 .2zm4.6 1.6l-.1 1.3a2 2 0 0 1-.7 1.3 4 4 0 0 1-1.4 1 5 5 0 0 1-2.6.5c-.4 0-1 0-1.4-.2-.5 0-.9-.3-1.3-.5s-.7-.5-1-1c-.2-.3-.4-.7-.4-1.3h2.5c.2.5.4.8.8 1 .3.2.7.3 1.2.3.7 0 1.2-.2 1.5-.6.4-.5.5-1 .5-1.7v-1.2c-.3.5-.7.8-1.2 1a3 3 0 0 1-1.6.4 4 4 0 0 1-1.8-.3c-.5-.3-1-.6-1.3-1l-.7-1.5a7 7 0 0 1 0-3.6l.8-1.5a3.7 3.7 0 0 1 3-1.4c.6 0 1.1.2 1.6.4s.9.6 1.2 1.1v-1.2h2.4v8.7zm7.4-12.3V127h2.6v-8.6l5.4 8.6h2.8v-12.9h-2.6v8.7L99 114h-2.8zm15.3 8.3l.1 1c0 .4.2.7.4 1l.7.7 1 .2c.5 0 .8 0 1.1-.2.3-.2.6-.4.7-.7l.4-1a5.5 5.5 0 0 0 0-2.1c0-.4-.2-.7-.4-1a2 2 0 0 0-.7-.7l-1-.2a2 2 0 0 0-1.1.2 2 2 0 0 0-.7.7l-.4 1-.1 1zm-2.6 0c0-.8.2-1.5.4-2a4.4 4.4 0 0 1 2.5-2.6 5.4 5.4 0 0 1 4 0 4.3 4.3 0 0 1 2.4 2.5 5.6 5.6 0 0 1 0 4 3 3 0 0 1-1 1.6 4 4 0 0 1-1.5 1 6 6 0 0 1-2 .3c-.7 0-1.3 0-2-.3a4.3 4.3 0 0 1-2.4-2.5c-.2-.6-.4-1.3-.4-2zm11.3-4.7v9.3h2.6v-4.2l.1-1.2.4-1 .8-.5c.3-.2.7-.3 1.2-.3a4.6 4.6 0 0 1 1 .1v-2.4a2 2 0 0 0-.6 0 3 3 0 0 0-1.8.5 3.2 3.2 0 0 0-1.2 1.4v-1.7h-2.5zm10.3 0v-2.8h-2.6v2.8h-1.5v1.7h1.5v5.5c0 .5 0 .8.2 1.1l.7.7c.3.2.6.3 1 .3a7.5 7.5 0 0 0 1.8 0h.7v-2a3.6 3.6 0 0 1-.7 0l-1-.1-.1-.9v-4.6h1.8v-1.7h-1.8zm3-3.6V127h2.6v-4.9c0-1 .2-1.6.5-2 .3-.4.8-.6 1.5-.6.6 0 1 .1 1.3.5.2.4.3 1 .3 1.7v5.3h2.6v-5.7c0-.6 0-1.1-.2-1.6a3 3 0 0 0-.5-1.2c-.2-.3-.6-.6-1-.8-.5-.2-1-.3-1.7-.3-.5 0-1 .2-1.5.4a3 3 0 0 0-1.2 1.2v-5h-2.6zm19.3 8h3.3l-1.6-4.8-1.7 4.7zm.2-8h3l4.7 12.9h-2.9l-1-2.9H152l-1 2.9h-2.8l4.8-12.9zm8.6 3.6v9.3h2.6v-5.4c0-.5 0-.8.2-1.1l.5-.7.6-.3h.4c.4 0 .7 0 1 .2l.4.5.2.8v6h2.5v-5.2l.1-.8c0-.3.1-.6.3-.8 0-.2.3-.4.5-.5.2-.2.5-.2.8-.2l.9.1.5.5.2.7v6.2h2.6v-6.2c0-.6-.1-1.1-.3-1.6l-.7-1a2 2 0 0 0-1-.6 5 5 0 0 0-1.4-.2 3 3 0 0 0-1.7.5 4 4 0 0 0-1.1 1c-.3-.5-.7-.9-1.1-1.1a3.7 3.7 0 0 0-3.3 0c-.5.3-.9.7-1.2 1.2v-1.3h-2.5zm22.5 3.6a3 3 0 0 0-.6-1.4c-.3-.4-.8-.5-1.4-.5-.4 0-.7 0-1 .2a2 2 0 0 0-1 1.1l-.1.6h4.1zM180 123c0 .8.2 1.4.6 1.8.4.3 1 .5 1.7.5.5 0 1-.1 1.3-.4.4-.2.6-.5.7-.8h2.2c-.3 1.1-.9 2-1.6 2.4a5 5 0 0 1-2.7.7c-.7 0-1.4 0-2-.3a4.1 4.1 0 0 1-2.4-2.6 5.7 5.7 0 0 1 0-3.9 4.6 4.6 0 0 1 4.4-3 4 4 0 0 1 2 .5 4.2 4.2 0 0 1 2.3 3c.2.7.3 1.3.2 2H180zm8.2-5.3v9.3h2.6v-4.2l.1-1.2c0-.3.2-.6.4-1l.8-.5c.3-.2.7-.3 1.2-.3a4.6 4.6 0 0 1 1 .1v-2.4a2 2 0 0 0-.6 0 3 3 0 0 0-1.8.5 3.2 3.2 0 0 0-1.2 1.4v-1.7h-2.5zm9.6-1.4V114h-2.5v2.2h2.5zm-2.5 1.4v9.3h2.5v-9.3h-2.5zm10.9 3.3h2.5c0-.6-.2-1.1-.4-1.6-.3-.4-.6-.8-1-1-.4-.4-.9-.6-1.4-.7a5.8 5.8 0 0 0-3.6.1 4.2 4.2 0 0 0-2.4 2.7 6.2 6.2 0 0 0 0 3.9c.2.6.6 1 1 1.5.4.4.9.7 1.5 1a5 5 0 0 0 1.9.3c1.2 0 2.2-.3 3-1a4 4 0 0 0 1.5-2.8h-2.5a3 3 0 0 1-.6 1.4c-.4.4-.8.5-1.4.5-.4 0-.8 0-1-.2a2 2 0 0 1-.7-.7l-.4-1a5 5 0 0 1 0-2l.4-1 .7-.8 1-.2c1.1 0 1.7.5 1.9 1.6zm3.9-.4c0-.6.2-1.1.4-1.5a3 3 0 0 1 1-1l1.4-.5a7.8 7.8 0 0 1 3 0c.5 0 .9.1 1.3.3l1 .8c.2.4.3.8.3 1.4v4.8l.1 1.2c0 .4.1.7.3.9h-2.6a3.7 3.7 0 0 1-.2-.9c-.4.4-.9.7-1.4.9a5.8 5.8 0 0 1-3 0c-.4 0-.7-.2-1-.4l-.7-.9a3 3 0 0 1-.2-1.2c0-.6 0-1 .3-1.3.2-.4.4-.7.7-.9l1-.4a10.8 10.8 0 0 1 2.3-.4l1-.2c.3 0 .5-.1.7-.3l.2-.6-.1-.6a1 1 0 0 0-.4-.4l-.5-.2h-.7a2 2 0 0 0-1.2.3l-.5 1h-2.5zm5.9 1.8l-.4.3-.5.1a10.7 10.7 0 0 0-1.8.3c-.2 0-.3.2-.5.3l-.3.4-.1.6v.5l.4.4.5.2h.6c.5 0 1 0 1.2-.2l.6-.6.2-.7v-1.6zm4.5-4.7v9.3h2.6v-4.9c0-1 .1-1.6.4-2 .4-.4.9-.6 1.6-.6.6 0 1 .1 1.2.5.3.4.4 1 .4 1.7v5.3h2.6v-5.7c0-.6 0-1.1-.2-1.6a3 3 0 0 0-.5-1.2l-1-.8a4.3 4.3 0 0 0-3.3.1 3 3 0 0 0-1.3 1.2v-1.3h-2.5zm15.8 0v9.3h2.5v-5.4l.2-1.1.5-.7.6-.3h.5c.4 0 .7 0 .9.2l.4.5.2.8v6h2.6v-6c0-.3.2-.6.3-.8l.5-.5c.2-.2.5-.2.9-.2l.8.1.5.5.2.7v6.2h2.6v-6.2c0-.6 0-1.1-.3-1.6-.1-.4-.4-.7-.7-1a2 2 0 0 0-1-.6 5 5 0 0 0-1.4-.2 3 3 0 0 0-1.7.5 4 4 0 0 0-1.1 1c-.3-.5-.6-.9-1.1-1.1a3.7 3.7 0 0 0-3.3 0l-1.2 1.2v-1.3h-2.4zm16.1 2.9c0-.6.2-1.1.5-1.5a3 3 0 0 1 1-1l1.3-.5a7.8 7.8 0 0 1 3 0c.5 0 1 .1 1.3.3l1 .8c.2.4.4.8.4 1.4v6c0 .4.2.7.3.9h-2.6a3.7 3.7 0 0 1-.2-.9c-.4.4-.9.7-1.4.9a5.8 5.8 0 0 1-3 0c-.3 0-.7-.2-1-.4-.3-.3-.5-.5-.6-.9a3 3 0 0 1-.3-1.2c0-.6.1-1 .3-1.3.2-.4.4-.7.7-.9l1-.4a10.8 10.8 0 0 1 2.3-.4l1-.2c.3 0 .5-.1.7-.3l.2-.6-.1-.6a1 1 0 0 0-.4-.4l-.5-.2h-.6a2 2 0 0 0-1.2.3c-.3.2-.5.6-.5 1h-2.6zm6 1.8l-.5.3-.5.1a10.7 10.7 0 0 0-1.8.3c-.2 0-.3.2-.5.3l-.3.4-.1.6.1.5c0 .2.2.3.3.4l.5.2h.6c.5 0 1 0 1.2-.2l.6-.6c.2-.2.2-.5.3-.7v-1.6zm4.4-4.7v9.3h2.6v-4.2l.1-1.2.4-1 .8-.5 1.2-.3a4.6 4.6 0 0 1 1 .1v-2.4a2 2 0 0 0-.6 0 3 3 0 0 0-1.8.5 3.2 3.2 0 0 0-1.2 1.4v-1.7h-2.5zm7.3-3.6V127h2.5v-3.2l1-1 2.6 4.2h3l-3.8-5.9 3.5-3.4h-3l-3.3 3.3v-6.9h-2.5zm16.3 7.2a3 3 0 0 0-.6-1.4c-.3-.4-.8-.5-1.4-.5-.4 0-.7 0-1 .2a2 2 0 0 0-1 1.1l-.1.6h4.1zm-4.1 1.7c0 .8.2 1.4.6 1.8.4.3 1 .5 1.7.5.5 0 1-.1 1.3-.4.4-.2.6-.5.7-.8h2.2c-.3 1.1-.9 2-1.6 2.4a5 5 0 0 1-2.7.7c-.8 0-1.4 0-2-.3a4.1 4.1 0 0 1-2.4-2.6 5.7 5.7 0 0 1 0-3.9 4.6 4.6 0 0 1 4.4-3 4 4 0 0 1 2 .5c.6.3 1.1.7 1.5 1.2.4.6.6 1.1.8 1.8.2.7.2 1.3.2 2h-6.7zm11.4-5.3v-2.8h-2.5v2.8h-1.6v1.7h1.6v5.5c0 .5 0 .8.2 1.1l.7.7c.2.2.5.3.9.3a7.5 7.5 0 0 0 1.9 0h.7v-2a3.6 3.6 0 0 1-.8 0l-.8-.1c-.2-.2-.3-.5-.3-.9v-4.6h2v-1.7h-2zm5.1 6.3h-2.4c0 .6.2 1.1.4 1.5.3.4.6.8 1 1 .4.3.9.5 1.4.6a7.7 7.7 0 0 0 3.1 0 4 4 0 0 0 1.4-.5 3 3 0 0 0 1-1c.2-.5.3-1 .3-1.6 0-.4 0-.8-.2-1-.2-.4-.4-.6-.7-.8l-1-.5a10.8 10.8 0 0 0-2.1-.5l-1-.3a2 2 0 0 1-.6-.3.7.7 0 0 1-.2-.6l.1-.4c.1-.2.2-.2.4-.3l.4-.1h.5c.4 0 .8 0 1.2.2.3.2.5.5.5 1h2.5c0-.6-.2-1-.5-1.4a3 3 0 0 0-.9-1l-1.3-.4a7.4 7.4 0 0 0-3 0 4 4 0 0 0-1.2.4l-1 1c-.2.3-.3.8-.3 1.4a2 2 0 0 0 1 1.8c.2.2.5.3.9.4l1 .3 2.2.6c.5.2.8.5.8.9 0 .2 0 .4-.2.5l-.4.4a2 2 0 0 1-.5.2 2.7 2.7 0 0 1-1.3 0l-.7-.3-.4-.5-.2-.7zm371.4 21.6h5.4c1.1 0 2 .2 2.6.8.6.5.9 1.2.9 2.2 0 .7-.2 1.3-.5 1.8s-.8.9-1.5 1v.1c.3 0 .6.2.8.3.2.2.4.3.5.6l.3.6a7.4 7.4 0 0 1 .2 1.7 7.4 7.4 0 0 0 .2 1.6l.4.7h-1.7a1 1 0 0 1-.2-.5v-.7a147.4 147.4 0 0 1-.4-2.4 1 1 0 0 0-.3-.7l-.5-.4a2 2 0 0 0-1-.2h-3.6v4.9h-1.6v-11.4zm4.7 5.2h1c.4 0 .6-.2.9-.4l.6-.6.2-1c0-.6-.2-1-.5-1.4-.3-.4-.8-.5-1.6-.5h-3.7v4h3.1zm11.8 1.3c0-.3 0-.7-.2-1a2.3 2.3 0 0 0-2.2-1.4l-1 .2-.6.5-.5.8-.2.9h4.7zm1.3 2.3c-.1.9-.5 1.6-1.2 2-.6.5-1.4.8-2.3.8-.7 0-1.2-.1-1.7-.3-.5-.3-1-.6-1.2-1-.4-.3-.6-.8-.8-1.3l-.3-1.8c0-.6.1-1.2.3-1.7l.8-1.3a3.7 3.7 0 0 1 2.8-1.3c.8 0 1.4.2 1.9.5a4.6 4.6 0 0 1 1.8 2.7v1.6H682l.1 1 .5.9.8.6 1.2.2c.5 0 1-.1 1.4-.4.3-.3.6-.7.7-1.2h1.3zm1.7-8.8V157h1.3v-11.4h-1.3zm9.2 6.5l-.2-1a2.3 2.3 0 0 0-2.2-1.4l-1 .2-.7.5-.5.8-.2.9h4.8zm1.3 2.3c-.2.9-.6 1.6-1.2 2-.6.5-1.4.8-2.4.8-.6 0-1.2-.1-1.7-.3a4 4 0 0 1-1.2-1c-.3-.3-.6-.8-.7-1.3-.2-.5-.3-1.1-.3-1.8 0-.6 0-1.2.3-1.7.2-.5.4-1 .8-1.3a3.7 3.7 0 0 1 2.8-1.3 3.5 3.5 0 0 1 3 1.7c.3.4.5 1 .6 1.5l.1 1.6h-6.2l.1 1 .5.9.8.6 1.2.2c.6 0 1-.1 1.4-.4.4-.3.6-.7.7-1.2h1.4zm8.8 2.6a2 2 0 0 1-1 .2c-.3 0-.6-.1-.8-.3-.2-.2-.3-.5-.3-1a3 3 0 0 1-1.3 1 4.3 4.3 0 0 1-2.7.1c-.3 0-.6-.2-.8-.4a2 2 0 0 1-.6-.7c-.2-.3-.2-.6-.2-1 0-.5 0-.9.2-1.2l.6-.7 1-.4a10.8 10.8 0 0 1 2-.4l1-.2c.2 0 .4-.2.5-.3.2-.1.3-.3.3-.6l-.2-.7-.4-.4-.6-.2h-.7c-.6 0-1 0-1.4.3-.4.2-.6.6-.6 1.2h-1.4c0-.5.1-1 .3-1.3l.8-.8c.3-.3.7-.4 1-.5l1.4-.2 1.1.1c.4 0 .7.2 1 .3l.7.7c.2.3.3.7.3 1.2v5l.4.2h.4v1zm-2.2-4.3c-.1.2-.4.2-.6.3l-.9.2a29.3 29.3 0 0 0-1.8.3l-.6.5-.2.8.1.5.4.4.5.2h1.8l.7-.6c.3-.1.4-.3.5-.6l.1-.6v-1.4zm4.3 1.7h-1.3c0 .5.1 1 .3 1.3.2.4.5.6.8.9l1 .4a5.8 5.8 0 0 0 3.8-.4c.3-.2.6-.4.8-.8.2-.3.3-.7.3-1.2 0-.4 0-.7-.2-1a2 2 0 0 0-.6-.7l-.9-.4-1-.3a62 62 0 0 0-1.8-.4 2 2 0 0 1-.7-.4.8.8 0 0 1-.2-.6c0-.2 0-.4.2-.5 0-.2.2-.3.4-.3l.5-.2a4 4 0 0 1 1.3 0l.6.2.5.5.2.6h1.3c0-.5-.1-.9-.3-1.2-.2-.4-.4-.6-.7-.8a3 3 0 0 0-1-.4l-1.4-.2c-.3 0-.7 0-1 .2-.4 0-.7.2-1 .4l-.8.7a2 2 0 0 0-.2 1c0 .6 0 1 .4 1.3.2.3.6.6 1 .7l1.3.4 1.3.3 1 .5c.2.1.4.4.4.8l-.2.6-.5.4-.7.1a5 5 0 0 1-1.4 0 1 1 0 0 1-.7-.3 1.4 1.4 0 0 1-.8-1.2zm13-2.3a2 2 0 0 0-.3-1 2.3 2.3 0 0 0-2.1-1.4l-1 .2-.7.5-.5.8-.2.9h4.8zm1.3 2.3c-.2.9-.6 1.6-1.2 2-.7.5-1.4.8-2.4.8-.6 0-1.2-.1-1.7-.3a4 4 0 0 1-1.2-1l-.8-1.3-.2-1.8c0-.6 0-1.2.3-1.7.1-.5.4-1 .8-1.3a3.7 3.7 0 0 1 2.8-1.3 3.5 3.5 0 0 1 3 1.7l.6 1.5.1 1.6h-6.2l.1 1 .5.9.8.6 1.2.2c.6 0 1-.1 1.4-.4.4-.3.6-.7.7-1.2h1.4zm7-1.5l.1 1.3.6 1a2.4 2.4 0 0 0 1.8.8 2.5 2.5 0 0 0 2.4-1.8l.2-1.3c0-.5 0-1-.2-1.4a2 2 0 0 0-.6-1 2.4 2.4 0 0 0-1.8-.8 2.5 2.5 0 0 0-1.8.9l-.6 1-.2 1.3zm-1.5 0c0-.6 0-1.2.3-1.7.1-.6.4-1 .7-1.4l1.3-1c.5-.2 1-.3 1.7-.3s1.3.1 1.8.4a3.6 3.6 0 0 1 2 2.3 5.5 5.5 0 0 1 0 3.4c-.2.5-.4 1-.8 1.3a4 4 0 0 1-1.2 1c-.5.2-1.1.3-1.8.3-.6 0-1.2-.1-1.7-.4a3.3 3.3 0 0 1-2-2.2 5 5 0 0 1-.3-1.7zm10.2-3v7.1h1.4v-7h1.6v-1.3h-1.6v-1.1c0-.4 0-.6.2-.8l.8-.2h.4l.4.2v-1.2l-.5-.1h-.4c-.8 0-1.3.1-1.7.5-.4.3-.6.8-.6 1.5v1.2h-1.4v1.2h1.4zm10.5-1.2v-2.5h-1.4v2.5h-1.4v1.2h1.4v5.3c0 .4 0 .7.2 1 0 .2.1.3.3.5l.6.2 1 .1h1v-1.2H752l-.3-.1-.2-.3V150h1.7v-1.2h-1.7zm3.2-3.1V157h1.3v-4.7c0-.3 0-.7.2-1 0-.3.2-.6.4-.8.2-.3.5-.4.8-.6l1-.2c.6 0 1 .2 1.3.5.3.3.4.7.4 1.2v5.6h1.4v-5.4l-.1-1.3-.5-1a2 2 0 0 0-.9-.5c-.3-.2-.8-.3-1.3-.3a3.8 3.8 0 0 0-1.6.4c-.2 0-.4.2-.6.4l-.4.6v-4.3h-1.4zm14.6 6.5c0-.3 0-.7-.2-1a2.3 2.3 0 0 0-2.2-1.4l-1 .2-.7.5-.4.8-.3.9h4.8zm1.3 2.3c-.2.9-.6 1.6-1.2 2-.6.5-1.4.8-2.3.8a4 4 0 0 1-1.7-.3c-.5-.3-1-.6-1.3-1-.3-.3-.5-.8-.7-1.3-.2-.5-.3-1.1-.3-1.8 0-.6.1-1.2.3-1.7l.8-1.3a3.7 3.7 0 0 1 2.8-1.3 3.5 3.5 0 0 1 3 1.7c.3.4.5 1 .6 1.5.1.5.2 1 .1 1.6h-6.2c0 .3 0 .7.2 1 0 .3.2.6.4.9l.9.6 1.1.2a2.1 2.1 0 0 0 2.2-1.6h1.3zm6-8.8h1.4v4.2a2 2 0 0 1 1-1 4 4 0 0 1 1.7-.3c.6 0 1.2.2 1.6.4.5.2 1 .5 1.2 1 .3.3.6.8.7 1.3a5.7 5.7 0 0 1 0 3.4 4 4 0 0 1-.7 1.3l-1.1 1a3.8 3.8 0 0 1-2.4.2l-.7-.2a3 3 0 0 1-.7-.4l-.6-.6v1.1h-1.4v-11.4zm6.4 7.2l-.1-1.1a3 3 0 0 0-.5-1 2.3 2.3 0 0 0-2-1c-.4 0-.8.1-1 .3-.4.2-.7.4-.9.7a3 3 0 0 0-.4 1 4.8 4.8 0 0 0 0 2.3c.1.4.2.7.5 1a2.3 2.3 0 0 0 2 1 2 2 0 0 0 1.1-.3c.4-.2.6-.4.8-.7l.4-1 .1-1.2zm3.2-7.2V157h1.3v-11.4h-1.3zm4.4 7.3c0 .5 0 1 .2 1.3.2.4.3.7.6 1a2.4 2.4 0 0 0 1.8.8 2.5 2.5 0 0 0 2.4-1.8l.2-1.3c0-.5 0-1-.2-1.4-.2-.4-.3-.7-.6-1a2.4 2.4 0 0 0-1.8-.8 2.5 2.5 0 0 0-1.8.9c-.3.2-.4.5-.6 1l-.2 1.3zm-1.4 0c0-.6 0-1.2.2-1.7.2-.6.5-1 .8-1.4l1.3-1c.5-.2 1-.3 1.7-.3s1.2.1 1.7.4a3.6 3.6 0 0 1 2 2.3 5.5 5.5 0 0 1 0 3.4c-.1.5-.4 1-.7 1.3-.3.4-.8.7-1.3 1-.5.2-1 .3-1.7.3-.6 0-1.2-.1-1.7-.4a3 3 0 0 1-1.3-.9l-.8-1.3-.2-1.7zm15.2-1.5h1.4c0-.5-.1-1-.3-1.3l-.8-.9-1.1-.5a5 5 0 0 0-1.3-.2 4 4 0 0 0-1.7.4c-.5.2-1 .5-1.3 1a4 4 0 0 0-.7 1.3 6 6 0 0 0 0 3.5c.2.5.4 1 .8 1.3.3.4.7.7 1.2.9.5.2 1 .3 1.6.3 1.1 0 2-.3 2.5-.9.7-.5 1-1.3 1.2-2.3h-1.4c0 .6-.3 1.1-.7 1.5-.4.3-.9.5-1.6.5-.4 0-.8 0-1-.3-.4-.1-.6-.4-.8-.6a3 3 0 0 1-.5-1v-2.3l.5-1c.2-.4.4-.6.8-.8.3-.2.7-.3 1.2-.3.6 0 1 .2 1.4.5.3.3.5.7.6 1.2zm3-5.8V157h1.5v-3.1l1.2-1.2 2.9 4.3h1.7l-3.5-5.3 3.3-3h-1.9l-3.7 3.6v-6.7h-1.4zm14 6.5c0-.3 0-.7-.2-1a2.3 2.3 0 0 0-2.1-1.4l-1 .2-.7.5-.5.8-.2.9h4.8zm1.4 2.3c-.2.9-.6 1.6-1.2 2-.6.5-1.4.8-2.4.8-.6 0-1.2-.1-1.7-.3a4 4 0 0 1-1.2-1l-.8-1.3-.2-1.8c0-.6 0-1.2.3-1.7.1-.5.4-1 .8-1.3a3.7 3.7 0 0 1 2.8-1.3 3.5 3.5 0 0 1 3 1.7l.6 1.5.1 1.6h-6.2l.1 1 .5.9.8.6 1.2.2c.6 0 1-.1 1.4-.4.4-.3.6-.7.7-1.2h1.4zm2.5-1.5c0 .4 0 .8.2 1.2a2.3 2.3 0 0 0 2.4 2l1.1-.4.8-.7.5-1a4.8 4.8 0 0 0 0-2.3 3 3 0 0 0-.5-1 2.3 2.3 0 0 0-2-1c-.5 0-.9.1-1.2.3l-.8.7-.4 1-.1 1.2zm6.4 4.1h-1.4v-1.1a2 2 0 0 1-1 1 4 4 0 0 1-1.6.3 3 3 0 0 1-1.7-.4c-.5-.2-.9-.5-1.2-1-.3-.3-.5-.8-.7-1.3a5.7 5.7 0 0 1 0-3.3c.1-.5.4-1 .7-1.4a4 4 0 0 1 1.2-1 3.8 3.8 0 0 1 2.3-.2 3.5 3.5 0 0 1 1.5.6l.5.6v-4.2h1.4V157zm7.1-7v7h1.4v-7h1.6v-1.3h-1.6v-1.1c0-.4 0-.6.2-.8l.8-.2h.4l.4.2v-1.2l-.5-.1h-.4c-.8 0-1.3.1-1.7.5-.4.3-.6.8-.6 1.5v1.2h-1.4v1.2h1.4zm11 7v-8.3h-1.3v4.7c0 .4 0 .7-.2 1 0 .3-.2.6-.4.9a2 2 0 0 1-.8.5l-1 .2c-.6 0-1-.2-1.3-.5-.3-.3-.5-.7-.5-1.2v-5.6h-1.3v5.5l.1 1.2.5 1 .9.6 1.3.2c.6 0 1.2-.1 1.6-.4.5-.2.8-.6 1.1-1.1v1.3h1.3zm2-8.3v8.3h1.4v-4.7c0-.3 0-.7.2-1 0-.3.2-.6.4-.8.2-.3.5-.4.8-.6l1-.2c.6 0 1 .2 1.3.5.3.3.5.7.5 1.2v5.6h1.3v-5.4l-.1-1.3-.5-1a2 2 0 0 0-.9-.5c-.3-.2-.8-.3-1.3-.3-1.3 0-2.1.5-2.7 1.5v-1.3H852zm10 4.2l.1 1.2.5 1a2.3 2.3 0 0 0 2 .9c.4 0 .8-.1 1-.3.4-.2.7-.4.9-.7l.4-1a4.8 4.8 0 0 0 0-2.3 3 3 0 0 0-.4-1 2.3 2.3 0 0 0-2-1c-.5 0-.9.1-1.2.3l-.8.7-.4 1-.1 1.2zm6.4 4.1h-1.4v-1.1a2 2 0 0 1-1 1 4 4 0 0 1-1.7.3c-.6 0-1.2-.1-1.6-.4-.5-.2-1-.5-1.2-1-.3-.3-.6-.8-.7-1.3a5.7 5.7 0 0 1 0-3.3c.1-.5.3-1 .7-1.4l1.1-1a3.8 3.8 0 0 1 2.4-.2 3.5 3.5 0 0 1 1.4.6l.6.6v-4.2h1.4V157zm2.9-2.6h-1.4c0 .5.2 1 .4 1.3.1.4.4.6.7.9l1.1.4a5.8 5.8 0 0 0 3.7-.4c.4-.2.6-.4.8-.8.3-.3.4-.7.4-1.2 0-.4-.1-.7-.3-1a2 2 0 0 0-.6-.7l-.8-.4-1-.3a62 62 0 0 0-1.9-.4 2 2 0 0 1-.6-.4.8.8 0 0 1-.3-.6l.2-.5c.1-.2.3-.3.4-.3l.6-.2a4 4 0 0 1 1.3 0l.6.2.4.5.2.6h1.4c0-.5-.2-.9-.3-1.2-.2-.4-.5-.6-.8-.8a3 3 0 0 0-1-.4l-1.3-.2c-.4 0-.7 0-1.1.2-.4 0-.7.2-1 .4l-.7.7a2 2 0 0 0-.3 1c0 .6.1 1 .4 1.3.3.3.6.6 1 .7l1.3.4 1.3.3 1 .5c.3.1.4.4.4.8 0 .2 0 .4-.2.6l-.5.4-.6.1a5 5 0 0 1-1.5 0 1 1 0 0 1-.7-.3 1.4 1.4 0 0 1-.7-1.2zm13-7.2v-1.6H883v1.6h1.3zm-1.3 1.5v8.3h1.3v-8.3H883zm3.5 0v8.3h1.3v-4.7c0-.3 0-.7.2-1 0-.3.2-.6.4-.8.2-.3.5-.4.8-.6l1-.2c.6 0 1 .2 1.3.5.3.3.4.7.4 1.2v5.6h1.4v-5.4l-.1-1.3-.5-1a2 2 0 0 0-.9-.5c-.3-.2-.8-.3-1.3-.3-1.3 0-2.2.5-2.7 1.5v-1.3h-1.3zm14.4 5.6c0 .5.3 1 .7 1.2.4.3.9.5 1.4.5a2 2 0 0 0 1.9-1c.4-.8.6-2 .7-3.4a3 3 0 0 1-2.6 1.6c-.7 0-1.2-.1-1.6-.3a3.2 3.2 0 0 1-1.8-2 4.9 4.9 0 0 1 0-3 3.4 3.4 0 0 1 2-2 4.5 4.5 0 0 1 3 0l1.2.9.8 1.6c.2.7.3 1.6.3 2.7a9 9 0 0 1-.9 4.5c-.6 1-1.6 1.6-3 1.6-1 0-1.7-.3-2.4-.7-.6-.5-1-1.3-1-2.2h1.3zm4.4-4.9l-.1-1-.5-.8a2.1 2.1 0 0 0-1.7-.7c-.4 0-.8 0-1 .2a2 2 0 0 0-.7.6l-.4.8-.1 1a2.5 2.5 0 0 0 .6 1.7l.7.5c.3.2.6.2.9.2a2.3 2.3 0 0 0 1.7-.7l.5-.8.1-1zm7.8-.7v8.3h1.4v-5.2l.1-.6a2.3 2.3 0 0 1 1.1-1.2 2 2 0 0 1 1-.3c.3 0 .6 0 .8.2.2 0 .3.2.4.4.2.1.2.3.3.5v6.2h1.4v-5.2c0-.6.2-1.1.6-1.5.4-.4 1-.6 1.6-.6.3 0 .6 0 .8.2.2 0 .4.2.5.4l.2.6v6.1h1.4v-6c0-.5 0-.9-.2-1.2a2 2 0 0 0-.5-.7l-.9-.4-1.1-.2a3 3 0 0 0-1.5.4c-.5.2-.8.6-1.1 1-.2-.5-.5-.8-.9-1a3 3 0 0 0-1.4-.4 3 3 0 0 0-2.6 1.4v-1.2H913zm14.7 4.2c0 .5 0 1 .2 1.3l.5 1a2.4 2.4 0 0 0 1.9.8 2.5 2.5 0 0 0 2.3-1.8c.2-.4.2-.8.2-1.3s0-1-.2-1.4c0-.4-.3-.7-.5-1a2.4 2.4 0 0 0-1.8-.8 2.5 2.5 0 0 0-1.9.9c-.2.2-.4.5-.5 1l-.2 1.3zm-1.5 0c0-.6.1-1.2.3-1.7.2-.6.4-1 .8-1.4a4 4 0 0 1 1.2-1c.5-.2 1.1-.3 1.8-.3.6 0 1.2.1 1.7.4a3.6 3.6 0 0 1 2 2.3 5.5 5.5 0 0 1 0 3.4c-.1.5-.4 1-.7 1.3l-1.3 1c-.5.2-1 .3-1.7.3s-1.3-.1-1.8-.4c-.5-.2-.9-.5-1.2-.9-.4-.4-.6-.8-.8-1.3a5 5 0 0 1-.3-1.7zm9.7-4.2v8.3h1.3v-4.7c0-.3 0-.7.2-1 0-.3.2-.6.4-.8l.8-.6 1-.2c.6 0 1 .2 1.3.5.3.3.5.7.5 1.2v5.6h1.3v-5.4l-.1-1.3-.5-1a2 2 0 0 0-.9-.5c-.3-.2-.8-.3-1.3-.3a3 3 0 0 0-2.7 1.5v-1.3h-1.3zm10.8 0v-2.5h-1.4v2.5h-1.4v1.2h1.4v5.3l.1 1c0 .2.2.3.4.5l.6.2.9.1h1v-1.2h-1.1l-.3-.1-.2-.3V150h1.6v-1.2h-1.6zm3.1-3.1V157h1.4v-4.7l.1-1 .5-.8.7-.6 1.1-.2c.5 0 1 .2 1.3.5.3.3.4.7.4 1.2v5.6h1.4v-5.4c0-.5 0-.9-.2-1.3 0-.3-.2-.6-.4-1l-1-.5c-.3-.2-.7-.3-1.3-.3a3.8 3.8 0 0 0-1.5.4c-.2 0-.5.2-.6.4l-.5.6v-4.3h-1.4zm9.7 8.8h-1.3c0 .5.1 1 .3 1.3.2.4.5.6.8.9l1 .4a5.8 5.8 0 0 0 3.8-.4c.3-.2.6-.4.8-.8.2-.3.3-.7.3-1.2 0-.4 0-.7-.2-1a2 2 0 0 0-.6-.7l-.9-.4-1-.3a62 62 0 0 0-1.8-.4 2 2 0 0 1-.7-.4.8.8 0 0 1-.2-.6c0-.2 0-.4.2-.5 0-.2.2-.3.4-.3l.5-.2a4 4 0 0 1 1.3 0l.6.2.5.5.2.6h1.3c0-.5-.1-.9-.3-1.2-.2-.4-.4-.6-.7-.8a3 3 0 0 0-1-.4l-1.4-.2c-.3 0-.7 0-1 .2-.4 0-.7.2-1 .4l-.8.7a2 2 0 0 0-.2 1c0 .6 0 1 .4 1.3.2.3.6.6 1 .7l1.3.4 1.3.3 1 .5c.2.1.4.4.4.8l-.2.6-.5.4-.7.1a5 5 0 0 1-1.4 0 1 1 0 0 1-.7-.3 1.4 1.4 0 0 1-.8-1.2zM1.2 145.6h5.4c1.1 0 2 .2 2.6.8.6.5.9 1.2.9 2.2 0 .7-.2 1.3-.5 1.8s-.8.9-1.5 1v.1c.3 0 .6.2.8.3.2.2.4.3.5.6l.3.6a7.4 7.4 0 0 1 .2 1.7 7.4 7.4 0 0 0 .2 1.6l.4.7H8.8a1 1 0 0 1-.2-.5v-.7a147.4 147.4 0 0 1-.4-2.4 1 1 0 0 0-.3-.7l-.5-.4a2 2 0 0 0-1-.2H2.9v4.9H1.2v-11.4zm4.7 5.2h1c.4 0 .6-.2.9-.4l.6-.6.2-1c0-.6-.2-1-.5-1.4-.3-.4-.8-.5-1.6-.5H2.8v4h3.1zm11.8 1.3c0-.3 0-.7-.2-1a2.3 2.3 0 0 0-2.2-1.4l-1 .2-.6.5-.5.8-.2.9h4.7zm1.3 2.3c-.1.9-.5 1.6-1.2 2-.6.5-1.4.8-2.3.8-.7 0-1.2-.1-1.7-.3-.5-.3-1-.6-1.2-1-.4-.3-.6-.8-.8-1.3l-.3-1.8c0-.6.1-1.2.3-1.7l.8-1.3a3.7 3.7 0 0 1 2.8-1.3c.8 0 1.4.2 1.9.5a4.6 4.6 0 0 1 1.8 2.7v1.6H13l.1 1 .5.9.8.6 1.2.2c.5 0 1-.1 1.4-.4.3-.3.6-.7.7-1.2H19zm1.7-8.8V157H22v-11.4h-1.3zm9.2 6.5l-.2-1a2.3 2.3 0 0 0-2.2-1.4l-1 .2-.7.5-.5.8-.2.9H30zm1.3 2.3c-.2.9-.6 1.6-1.2 2-.6.5-1.4.8-2.4.8-.6 0-1.2-.1-1.7-.3a4 4 0 0 1-1.2-1c-.3-.3-.6-.8-.7-1.3-.2-.5-.3-1.1-.3-1.8 0-.6 0-1.2.3-1.7.2-.5.4-1 .8-1.3a3.7 3.7 0 0 1 2.8-1.3 3.5 3.5 0 0 1 3 1.7c.3.4.5 1 .6 1.5l.1 1.6h-6.2l.1 1 .5.9.8.6 1.2.2c.6 0 1-.1 1.4-.4.4-.3.6-.7.7-1.2h1.4zM40 157a2 2 0 0 1-1 .2c-.3 0-.6-.1-.8-.3-.2-.2-.3-.5-.3-1a3 3 0 0 1-1.3 1 4.3 4.3 0 0 1-2.7.1c-.3 0-.6-.2-.8-.4a2 2 0 0 1-.6-.7c-.2-.3-.2-.6-.2-1 0-.5 0-.9.2-1.2l.6-.7 1-.4a10.8 10.8 0 0 1 2-.4l1-.2c.2 0 .4-.2.5-.3.2-.1.3-.3.3-.6l-.2-.7-.4-.4-.6-.2H36c-.6 0-1 0-1.4.3-.4.2-.6.6-.6 1.2h-1.4c0-.5.1-1 .3-1.3l.8-.8c.3-.3.7-.4 1-.5l1.4-.2 1.1.1c.4 0 .7.2 1 .3l.7.7c.2.3.3.7.3 1.2v5l.4.2h.4v1zm-2.2-4.3c-.1.2-.4.2-.6.3l-.9.2a29.3 29.3 0 0 0-1.8.3l-.6.5-.2.8.1.5.4.4.5.2h1.8l.7-.6c.3-.1.4-.3.5-.6l.1-.6v-1.4zm4.3 1.7h-1.3c0 .5.1 1 .3 1.3.2.4.5.6.8.9l1 .4a5.8 5.8 0 0 0 3.8-.4c.3-.2.6-.4.8-.8.2-.3.3-.7.3-1.2 0-.4 0-.7-.2-1a2 2 0 0 0-.6-.7l-.9-.4-1-.3a62 62 0 0 0-1.8-.4 2 2 0 0 1-.7-.4.8.8 0 0 1-.2-.6c0-.2 0-.4.2-.5 0-.2.2-.3.4-.3l.5-.2a4 4 0 0 1 1.3 0l.6.2.5.5.2.6h1.3c0-.5-.1-.9-.3-1.2-.2-.4-.4-.6-.7-.8a3 3 0 0 0-1-.4l-1.4-.2c-.3 0-.7 0-1 .2-.4 0-.7.2-1 .4l-.8.7a2 2 0 0 0-.2 1c0 .6 0 1 .4 1.3.2.3.6.6 1 .7l1.3.4 1.3.3 1 .5c.2.1.4.4.4.8l-.2.6-.5.4-.7.1a5 5 0 0 1-1.4 0 1 1 0 0 1-.7-.3 1.4 1.4 0 0 1-.8-1.2zm13-2.3a2 2 0 0 0-.3-1 2.3 2.3 0 0 0-2.1-1.4l-1 .2-.7.5-.5.8-.2.9h4.8zm1.3 2.3c-.2.9-.6 1.6-1.2 2-.7.5-1.4.8-2.4.8-.6 0-1.2-.1-1.7-.3a4 4 0 0 1-1.2-1l-.8-1.3-.2-1.8c0-.6 0-1.2.3-1.7.1-.5.4-1 .8-1.3a3.7 3.7 0 0 1 2.8-1.3 3.5 3.5 0 0 1 3 1.7l.6 1.5.1 1.6h-6.2l.1 1 .5.9.8.6 1.2.2c.6 0 1-.1 1.4-.4.4-.3.6-.7.7-1.2h1.4zm7-1.5l.1 1.3.6 1a2.4 2.4 0 0 0 1.8.8 2.5 2.5 0 0 0 2.4-1.8l.2-1.3c0-.5 0-1-.2-1.4a2 2 0 0 0-.6-1 2.4 2.4 0 0 0-1.8-.8 2.5 2.5 0 0 0-1.8.9l-.6 1-.2 1.3zm-1.5 0c0-.6 0-1.2.3-1.7.1-.6.4-1 .7-1.4l1.3-1c.5-.2 1-.3 1.7-.3s1.3.1 1.8.4a3.6 3.6 0 0 1 2 2.3 5.5 5.5 0 0 1 0 3.4c-.2.5-.4 1-.8 1.3a4 4 0 0 1-1.2 1c-.5.2-1.1.3-1.8.3-.6 0-1.2-.1-1.7-.4a3.3 3.3 0 0 1-2-2.2 5 5 0 0 1-.3-1.7zm10.2-3v7.1h1.4v-7H75v-1.3h-1.6v-1.1c0-.4 0-.6.2-.8l.8-.2h.4l.4.2v-1.2l-.5-.1h-.4c-.8 0-1.3.1-1.7.5-.4.3-.6.8-.6 1.5v1.2h-1.4v1.2H72zm10.5-1.2v-2.5h-1.4v2.5h-1.4v1.2h1.4v5.3c0 .4 0 .7.2 1 0 .2.1.3.3.5l.6.2 1 .1h1v-1.2H83l-.3-.1-.2-.3V150h1.7v-1.2h-1.7zm3.2-3.1V157H87v-4.7c0-.3 0-.7.2-1 0-.3.2-.6.4-.8.2-.3.5-.4.8-.6l1-.2c.6 0 1 .2 1.3.5.3.3.4.7.4 1.2v5.6h1.4v-5.4l-.1-1.3-.5-1a2 2 0 0 0-.9-.5c-.3-.2-.8-.3-1.3-.3a3.8 3.8 0 0 0-1.6.4c-.2 0-.4.2-.6.4l-.4.6v-4.3h-1.4zm14.6 6.5c0-.3 0-.7-.2-1a2.3 2.3 0 0 0-2.2-1.4l-1 .2-.7.5-.4.8-.3.9h4.8zm1.3 2.3c-.2.9-.6 1.6-1.2 2-.6.5-1.4.8-2.3.8a4 4 0 0 1-1.7-.3c-.5-.3-1-.6-1.3-1-.3-.3-.5-.8-.7-1.3-.2-.5-.3-1.1-.3-1.8 0-.6.1-1.2.3-1.7l.8-1.3a3.7 3.7 0 0 1 2.8-1.3 3.5 3.5 0 0 1 3 1.7c.3.4.5 1 .6 1.5.1.5.2 1 .1 1.6h-6.2c0 .3 0 .7.2 1 0 .3.2.6.4.9l.9.6 1.1.2a2.1 2.1 0 0 0 2.2-1.6h1.3zm6-8.8h1.4v4.2a2 2 0 0 1 1-1 4 4 0 0 1 1.7-.3c.6 0 1.2.2 1.6.4.5.2 1 .5 1.2 1 .3.3.6.8.7 1.3a5.7 5.7 0 0 1 0 3.4 4 4 0 0 1-.7 1.3l-1.1 1a3.8 3.8 0 0 1-2.4.2l-.7-.2a3 3 0 0 1-.7-.4l-.6-.6v1.1h-1.4v-11.4zm6.4 7.2l-.1-1.1a3 3 0 0 0-.5-1 2.3 2.3 0 0 0-2-1c-.4 0-.8.1-1 .3-.4.2-.7.4-.9.7a3 3 0 0 0-.4 1 4.8 4.8 0 0 0 0 2.3c.1.4.2.7.5 1a2.3 2.3 0 0 0 2 1 2 2 0 0 0 1.1-.3c.4-.2.6-.4.8-.7l.4-1 .1-1.2zm3.2-7.2V157h1.3v-11.4h-1.3zm4.4 7.3c0 .5 0 1 .2 1.3.2.4.3.7.6 1a2.4 2.4 0 0 0 1.8.8 2.5 2.5 0 0 0 2.4-1.8l.2-1.3c0-.5 0-1-.2-1.4-.2-.4-.3-.7-.6-1a2.4 2.4 0 0 0-1.8-.8 2.5 2.5 0 0 0-1.8.9c-.3.2-.4.5-.6 1l-.2 1.3zm-1.4 0c0-.6 0-1.2.2-1.7.2-.6.5-1 .8-1.4l1.3-1c.5-.2 1-.3 1.7-.3s1.2.1 1.7.4a3.6 3.6 0 0 1 2 2.3 5.5 5.5 0 0 1 0 3.4c-.1.5-.4 1-.7 1.3-.3.4-.8.7-1.3 1-.5.2-1 .3-1.7.3-.6 0-1.2-.1-1.7-.4a3 3 0 0 1-1.3-.9l-.8-1.3-.2-1.7zm15.2-1.5h1.4c0-.5-.1-1-.3-1.3l-.8-.9-1.1-.5a5 5 0 0 0-1.3-.2 4 4 0 0 0-1.7.4c-.5.2-1 .5-1.3 1a4 4 0 0 0-.7 1.3 6 6 0 0 0 0 3.5c.2.5.4 1 .8 1.3.3.4.7.7 1.2.9.5.2 1 .3 1.6.3 1.1 0 2-.3 2.5-.9.7-.5 1-1.3 1.2-2.3h-1.4c0 .6-.3 1.1-.7 1.5-.4.3-.9.5-1.6.5-.4 0-.8 0-1-.3-.4-.1-.6-.4-.8-.6a3 3 0 0 1-.5-1v-2.3l.5-1c.2-.4.4-.6.8-.8.3-.2.7-.3 1.2-.3.6 0 1 .2 1.4.5.3.3.5.7.6 1.2zm3-5.8V157h1.5v-3.1l1.2-1.2 2.9 4.3h1.7l-3.5-5.3 3.3-3h-1.9l-3.7 3.6v-6.7h-1.4zm14 6.5c0-.3 0-.7-.2-1a2.3 2.3 0 0 0-2.1-1.4l-1 .2-.7.5-.5.8-.2.9h4.8zm1.4 2.3c-.2.9-.6 1.6-1.2 2-.6.5-1.4.8-2.4.8-.6 0-1.2-.1-1.7-.3a4 4 0 0 1-1.2-1l-.8-1.3-.2-1.8c0-.6 0-1.2.3-1.7.1-.5.4-1 .8-1.3a3.7 3.7 0 0 1 2.8-1.3 3.5 3.5 0 0 1 3 1.7l.6 1.5.1 1.6h-6.2l.1 1 .5.9.8.6 1.2.2c.6 0 1-.1 1.4-.4.4-.3.6-.7.7-1.2h1.4zm2.5-1.5c0 .4 0 .8.2 1.2a2.3 2.3 0 0 0 2.4 2l1.1-.4.8-.7.5-1a4.8 4.8 0 0 0 0-2.3 3 3 0 0 0-.5-1 2.3 2.3 0 0 0-2-1c-.5 0-.9.1-1.2.3l-.8.7-.4 1-.1 1.2zm6.4 4.1h-1.4v-1.1a2 2 0 0 1-1 1 4 4 0 0 1-1.6.3 3 3 0 0 1-1.7-.4c-.5-.2-.9-.5-1.2-1-.3-.3-.5-.8-.7-1.3a5.7 5.7 0 0 1 0-3.3c.1-.5.4-1 .7-1.4a4 4 0 0 1 1.2-1 3.8 3.8 0 0 1 2.3-.2 3.5 3.5 0 0 1 1.5.6l.5.6v-4.2h1.4V157zm7.1-7v7h1.4v-7h1.6v-1.3h-1.6v-1.1c0-.4 0-.6.2-.8l.8-.2h.4l.4.2v-1.2l-.5-.1h-.4c-.8 0-1.3.1-1.7.5-.4.3-.6.8-.6 1.5v1.2h-1.4v1.2h1.4zm11 7v-8.3h-1.3v4.7c0 .4 0 .7-.2 1 0 .3-.2.6-.4.9a2 2 0 0 1-.8.5l-1 .2c-.6 0-1-.2-1.3-.5-.3-.3-.5-.7-.5-1.2v-5.6h-1.3v5.5l.1 1.2.5 1 .9.6 1.3.2c.6 0 1.2-.1 1.6-.4.5-.2.8-.6 1.1-1.1v1.3h1.3zm2-8.3v8.3h1.4v-4.7c0-.3 0-.7.2-1 0-.3.2-.6.4-.8.2-.3.5-.4.8-.6l1-.2c.6 0 1 .2 1.3.5.3.3.5.7.5 1.2v5.6h1.3v-5.4l-.1-1.3-.5-1a2 2 0 0 0-.9-.5c-.3-.2-.8-.3-1.3-.3-1.3 0-2.1.5-2.7 1.5v-1.3H183zm10 4.2l.1 1.2.5 1a2.3 2.3 0 0 0 2 .9c.4 0 .8-.1 1-.3.4-.2.7-.4.9-.7l.4-1a4.8 4.8 0 0 0 0-2.3 3 3 0 0 0-.4-1 2.3 2.3 0 0 0-2-1c-.5 0-.9.1-1.2.3l-.8.7-.4 1-.1 1.2zm6.4 4.1h-1.4v-1.1a2 2 0 0 1-1 1 4 4 0 0 1-1.7.3c-.6 0-1.2-.1-1.6-.4-.5-.2-1-.5-1.2-1-.3-.3-.6-.8-.7-1.3a5.7 5.7 0 0 1 0-3.3c.1-.5.3-1 .7-1.4l1.1-1a3.8 3.8 0 0 1 2.4-.2 3.5 3.5 0 0 1 1.4.6l.6.6v-4.2h1.4V157zm2.9-2.6h-1.4c0 .5.2 1 .4 1.3.1.4.4.6.7.9l1.1.4a5.8 5.8 0 0 0 3.7-.4c.4-.2.6-.4.8-.8.3-.3.4-.7.4-1.2 0-.4-.1-.7-.3-1a2 2 0 0 0-.6-.7l-.8-.4-1-.3a62 62 0 0 0-1.9-.4 2 2 0 0 1-.6-.4.8.8 0 0 1-.3-.6l.2-.5c.1-.2.3-.3.4-.3l.6-.2a4 4 0 0 1 1.3 0l.6.2.4.5.2.6h1.4c0-.5-.2-.9-.3-1.2-.2-.4-.5-.6-.8-.8a3 3 0 0 0-1-.4l-1.3-.2c-.4 0-.7 0-1.1.2-.4 0-.7.2-1 .4l-.7.7a2 2 0 0 0-.3 1c0 .6.1 1 .4 1.3.3.3.6.6 1 .7l1.3.4 1.3.3 1 .5c.3.1.4.4.4.8 0 .2 0 .4-.2.6l-.5.4-.6.1a5 5 0 0 1-1.5 0 1 1 0 0 1-.7-.3 1.4 1.4 0 0 1-.7-1.2zm13-7.2v-1.6H214v1.6h1.3zm-1.3 1.5v8.3h1.3v-8.3H214zm3.5 0v8.3h1.3v-4.7c0-.3 0-.7.2-1 0-.3.2-.6.4-.8.2-.3.5-.4.8-.6l1-.2c.6 0 1 .2 1.3.5.3.3.4.7.4 1.2v5.6h1.4v-5.4l-.1-1.3-.5-1a2 2 0 0 0-.9-.5c-.3-.2-.8-.3-1.3-.3-1.3 0-2.2.5-2.7 1.5v-1.3h-1.3zm18 8.3v-11.3h-1l-.5 1-.7.7a3 3 0 0 1-1 .3 7 7 0 0 1-1.1 0v1.2h3v8.1h1.3zm5.7-8.4l.1.8.4.6.7.3.8.1c.5 0 1-.1 1.3-.5.4-.3.5-.7.5-1.3 0-.6-.1-1-.5-1.3a2 2 0 0 0-1.4-.4h-.7l-.7.4-.4.5-.1.8zm-1.5 0c0-.5.1-1 .3-1.3l.7-.9 1-.6 1.3-.1c.7 0 1.2 0 1.6.2.5.2.8.4 1 .7.4.2.6.5.7.9l.2 1c0 .6-.2 1-.4 1.5-.3.4-.7.7-1.2.9.7.2 1.2.6 1.5 1 .4.5.5 1.1.5 1.8 0 .6 0 1-.3 1.5a3.2 3.2 0 0 1-2 1.8l-1.4.2c-.6 0-1 0-1.5-.2s-1-.4-1.3-.7a3 3 0 0 1-.8-1 3.6 3.6 0 0 1 .2-3.3c.4-.5.9-.9 1.5-1.1-.5-.2-.9-.5-1.2-1-.2-.4-.4-.8-.4-1.3zm1 5.2c0 .7.3 1.2.7 1.6.5.4 1 .6 1.8.6.3 0 .6 0 1-.2.2 0 .4-.2.6-.4.3-.2.4-.5.5-.7a2.3 2.3 0 0 0 0-1.8l-.5-.7a2.4 2.4 0 0 0-1.6-.6c-.4 0-.7 0-1 .2-.3 0-.5.2-.7.4a2 2 0 0 0-.7 1.6zm12.3-5v8.2h1.4v-5.2l.1-.6a2.3 2.3 0 0 1 1.1-1.2 2 2 0 0 1 1-.3c.3 0 .6 0 .8.2.2 0 .3.2.4.4.2.1.2.3.3.5v6.2h1.4v-5.2c0-.6.2-1.1.6-1.5.4-.4 1-.6 1.6-.6.3 0 .6 0 .8.2.2 0 .4.2.5.4l.2.6v6.1h1.4v-6c0-.5 0-.9-.2-1.2a2 2 0 0 0-.5-.7l-.9-.4-1.1-.2a3 3 0 0 0-1.5.4c-.5.2-.8.6-1.1 1-.2-.5-.5-.8-.9-1a3 3 0 0 0-1.4-.4 3 3 0 0 0-2.6 1.4v-1.2h-1.4zm14.7 4c0 .6 0 1 .2 1.4l.5 1a2.4 2.4 0 0 0 1.9.8 2.5 2.5 0 0 0 2.3-1.8c.2-.4.2-.8.2-1.3s0-1-.2-1.4l-.5-1a2.4 2.4 0 0 0-1.8-.8 2.5 2.5 0 0 0-1.9.9c-.2.2-.4.5-.5 1l-.2 1.3zm-1.5 0c0-.5.1-1.1.3-1.6.2-.6.4-1 .8-1.4a4 4 0 0 1 1.2-1c.5-.2 1.1-.3 1.8-.3.6 0 1.2.1 1.7.4a3.6 3.6 0 0 1 2 2.3 5.5 5.5 0 0 1 0 3.4 4 4 0 0 1-.7 1.3l-1.3 1c-.5.2-1 .3-1.7.3s-1.3-.1-1.8-.4c-.5-.2-.9-.5-1.2-.9-.4-.4-.6-.8-.8-1.3a5 5 0 0 1-.3-1.7zm9.7-4v8.2h1.3v-4.7c0-.3 0-.7.2-1 0-.3.2-.6.4-.8.2-.3.5-.4.8-.6l1-.2c.6 0 1 .2 1.3.5.3.3.5.7.5 1.2v5.6h1.3v-5.4l-.1-1.3-.5-1a2 2 0 0 0-.9-.5c-.3-.2-.8-.3-1.3-.3-1.3 0-2.1.5-2.7 1.5v-1.3h-1.3zm10.8 0v-2.6h-1.4v2.5h-1.4v1.2h1.4v5.3l.1 1c0 .2.2.3.4.5l.6.2.9.1h1v-1.2h-1.1l-.3-.1-.2-.3V150h1.6v-1.2h-1.6zm3.1-3.2V157h1.4v-4.7l.1-1 .5-.8.7-.6 1.1-.2c.5 0 1 .2 1.3.5.3.3.4.7.4 1.2v5.6h1.4v-5.4c0-.5 0-.9-.2-1.3 0-.3-.2-.6-.4-1l-1-.5c-.3-.2-.7-.3-1.3-.3a3.8 3.8 0 0 0-1.5.4c-.2 0-.5.2-.6.4l-.5.6v-4.3h-1.4zm9.7 8.8h-1.3c0 .5.1 1 .3 1.3.2.4.4.6.8.9l1 .4a5.8 5.8 0 0 0 3.8-.4c.3-.2.6-.4.8-.8.2-.3.3-.7.3-1.2 0-.4 0-.7-.2-1a2 2 0 0 0-.6-.7l-.9-.4-1-.3a62 62 0 0 0-1.8-.4 2 2 0 0 1-.7-.4.8.8 0 0 1-.2-.6c0-.2 0-.4.2-.5 0-.2.2-.3.4-.3l.5-.2a4 4 0 0 1 1.3 0l.6.2.5.5.2.6h1.3c0-.5-.1-.9-.3-1.2-.2-.4-.4-.6-.7-.8a3 3 0 0 0-1-.4l-1.4-.2c-.3 0-.7 0-1 .2-.4 0-.8.2-1 .4l-.8.7a2 2 0 0 0-.2 1c0 .6 0 1 .4 1.3.2.3.6.6 1 .7l1.3.4 1.3.3 1 .5c.2.1.4.4.4.8l-.2.6-.5.4-.7.1a5 5 0 0 1-1.4 0 1 1 0 0 1-.7-.3 1.4 1.4 0 0 1-.8-1.2z" fill="#000"/></g></svg>