<svg width="332" height="330" viewBox="0 0 332 330" xmlns="http://www.w3.org/2000/svg"><title>Group 27</title><g fill="none" fill-rule="evenodd"><g fill-rule="nonzero"><path fill="#379B19" d="M323.3 175.5v8L173 218v-8z"/><path fill="#C4C600" d="M124.1 103.8v8L173 218v-8zm48.9-5.5V218v-8z"/><path fill="#D43D02" d="M323.3 175.5v8L173 218v-8z"/><path d="M124.1 103.8c16.6-3.9 31.4-5.5 48.8-5.5v8c-17.4 0-32.2 1.6-48.8 5.4v-8zM173 210v8-8z" fill="#C4C600"/><path fill="#379B19" d="M173 98.3V218v-8z"/><path fill="#D43D02" d="M124.1 103.8v8L173 218v-8z"/><path d="M173 98.3c69.8 0 128.7 30.2 150.3 77.2v8c-21.6-47-80.5-77.3-150.3-77.3v-8zm0 111.7v8-8z" fill="#379B19"/><path d="M331 210c0 61.7-70.7 111.7-158 111.7S15 271.7 15 210v8c0-49.4 42.8-91 109.1-106.3v-8C57.8 119 15 160.8 15 210v8c0 61.7 70.7 111.7 158 111.7s158-50 158-111.7v-8z" fill="#C43903"/><path d="M173 210v8-8z" fill="#D43D02"/><path d="M173 98.3c69.8 0 128.7 30.2 150.3 77.2L173 210V98.3z" stroke-linejoin="round" stroke="#50B432" fill="#50B432"/><path d="M323.3 175.5c27 58.7-18.5 121.7-101.5 140.8-83 19-172.1-13.1-199-71.8-27-58.7 18.4-121.7 101.3-140.7L173 210l150.3-34.5z" stroke-linejoin="round" stroke="#ED561B" fill="#ED561B"/><path d="M124.1 103.8c16.6-3.9 31.4-5.5 48.8-5.5L173 210l-48.9-106.2z" stroke-linejoin="round" stroke="#DDDF00" fill="#DDDF00"/></g><path d="M274 45l-1 70 1-70z" stroke="#50B432"/><path d="M48 62v70" stroke="#ED561B"/><path d="M156 23v70-70z" stroke="#DDDF00"/><text transform="translate(228 19)" font-size="14" font-family="PingFangSC-Regular, PingFang SC" fill="#333"><tspan x="0" y="15">的投资者</tspan> <tspan x="56" y="15" font-family="Helvetica"> : 20%</tspan></text><text transform="translate(-1 36)" font-size="14" font-family="PingFangSC-Regular, PingFang SC" fill="#333"><tspan x="0" y="15">的创始人</tspan> <tspan x="56" y="15" font-family="Helvetica"> : 75%</tspan></text><text transform="translate(117 -3)" font-size="14" font-family="PingFangSC-Regular, PingFang SC" fill="#333"><tspan x="0" y="15">的投资者</tspan> <tspan x="56" y="15" font-family="Helvetica"> : 5%</tspan></text></g></svg>