<svg width="344" height="329" viewBox="0 0 344 329" xmlns="http://www.w3.org/2000/svg"><title>Group 27</title><g fill="none" fill-rule="evenodd"><g fill-rule="nonzero"><path fill="#379B19" d="M335.3 174.5v8L185 217v-8z"/><path fill="#C4C600" d="M136.1 102.8v8L185 217v-8zm48.9-5.5V217v-8z"/><path fill="#D43D02" d="M335.3 174.5v8L185 217v-8z"/><path d="M136.1 102.8c16.6-3.9 31.4-5.5 48.8-5.5v8c-17.4 0-32.2 1.6-48.8 5.4v-8zM185 209v8-8z" fill="#C4C600"/><path fill="#379B19" d="M185 97.3V217v-8z"/><path fill="#D43D02" d="M136.1 102.8v8L185 217v-8z"/><path d="M185 97.3c69.8 0 128.7 30.2 150.3 77.2v8c-21.6-47-80.5-77.3-150.3-77.3v-8zm0 111.7v8-8z" fill="#379B19"/><path d="M343 209c0 61.7-70.7 111.7-158 111.7S27 270.7 27 209v8c0-49.4 42.8-91 109.1-106.3v-8C69.8 118 27 159.8 27 209v8c0 61.7 70.7 111.7 158 111.7s158-50 158-111.7v-8z" fill="#C43903"/><path d="M185 209v8-8z" fill="#D43D02"/><path d="M185 97.3c69.8 0 128.7 30.2 150.3 77.2L185 209V97.3z" stroke-linejoin="round" stroke="#50B432" fill="#50B432"/><path d="M335.3 174.5c27 58.7-18.5 121.7-101.5 140.8-83 19-172.1-13.1-199-71.8-27-58.7 18.4-121.7 101.3-140.7L185 209l150.3-34.5z" stroke-linejoin="round" stroke="#ED561B" fill="#ED561B"/><path d="M136.1 102.8c16.6-3.9 31.4-5.5 48.8-5.5L185 209l-48.9-106.2z" stroke-linejoin="round" stroke="#DDDF00" fill="#DDDF00"/></g><path d="M286 44l-1 70 1-70z" stroke="#50B432"/><path d="M60 61v70" stroke="#ED561B"/><path d="M168 22v70-70z" stroke="#DDDF00"/><text transform="translate(230 19)" font-size="14" font-family="Helvetica" fill="#333"><tspan x="0" y="14">Inversores : 20%</tspan></text><text transform="translate(0 36)" font-size="14" font-family="Helvetica" fill="#333"><tspan x="0" y="14">Creadores : 75%</tspan></text><text transform="translate(129 -3)" font-size="14" font-family="Helvetica" fill="#333"><tspan x="0" y="14">Premium : 5%</tspan></text></g></svg>