<svg width="621" height="348" viewBox="0 0 621 348" xmlns="http://www.w3.org/2000/svg"><title>pie-all-in-one-ru</title><g fill="none" fill-rule="evenodd"><g transform="translate(152)" fill-rule="nonzero"><path fill="#FFF" d="M0 0h348v348H0z"/><path d="M174 174L82.3 47.8A156 156 0 0 1 174 18v156" stroke="#FFF" fill="#56E61E"/><path d="M174 174H18c0-50 24-96.9 64.3-126.2L174 174" stroke="#FFF" fill="#1CE6B7"/><path d="M174 174L47.8 265.7A156 156 0 0 1 18 174h156" stroke="#FFF" fill="#6634D1"/><path d="M174 174L60.3 280.8a156 156 0 0 1-12.5-15.1L174 174" stroke="#FFF" fill="#E0867E"/><path d="M174 174L82.3 300.2a156 156 0 0 1-22-19.4L174 174" stroke="#FFF" fill="#EB4CBE"/><path d="M174 174V18a156 156 0 1 1-91.7 282.2L174 174" stroke="#FFF" fill="#39AADE"/><circle fill="#FFF" cx="421.9" cy="173.9" r="1"/></g><path d="M59.2 90.5h1.5v5.6l5.6-5.6h2.2l-4.8 4.6 5 6.9h-2l-4.1-5.8-1.9 1.8v4h-1.5V90.5zm16.4 7.3c0-.5 0-.9-.2-1.3a3 3 0 0 0-.4-1c-.2-.3-.5-.5-.8-.6a2 2 0 0 0-1-.3c-.5 0-.8.1-1.1.3-.3.1-.6.3-.8.6a3 3 0 0 0-.4 1 5 5 0 0 0 0 2.6c0 .4.2.7.4 1l.8.7 1 .2c.4 0 .8 0 1.1-.2l.8-.7.4-1 .2-1.3zm1.4 0a6 6 0 0 1-.2 1.9 4 4 0 0 1-.8 1.4c-.3.3-.7.6-1.2.8a3 3 0 0 1-1.7.4 3 3 0 0 1-1.6-.4c-.5-.2-.9-.5-1.2-.8a4 4 0 0 1-.8-1.4 6 6 0 0 1-.2-1.9c0-.7 0-1.3.2-1.8.2-.6.5-1 .8-1.4a4 4 0 0 1 1.2-1l1.6-.2c.7 0 1.2 0 1.7.3.5.2.9.5 1.2.9.3.4.6.8.8 1.4l.2 1.8zm1.6-4.2h2.1l2.3 6.9 2.2-6.9h2v8.4h-1.3v-6.7l-2.3 6.7h-1.4L80 95.3v6.7h-1.4v-8.4zm10.7 2.5c0-.5.1-.9.3-1.3l.7-.8a3 3 0 0 1 1-.5 6 6 0 0 1 2.6 0c.4 0 .7.2 1 .4.3.2.6.4.7.7.2.3.3.7.3 1.1v4.9l.1.3.4.2h.2l.2-.1v1a10 10 0 0 1-.7.1h-.7c-.2 0-.3-.2-.4-.3a1 1 0 0 1-.3-.3l-.1-.6-.6.5a3.5 3.5 0 0 1-1.5.8h-1l-1-.1-.8-.5a2.3 2.3 0 0 1-.8-1.8c0-.4 0-.8.2-1a2.4 2.4 0 0 1 1.4-1.4l1-.2 2.3-.3c.2 0 .4 0 .5-.2l.2-.7c0-.6-.2-1-.5-1.1-.3-.3-.8-.4-1.4-.4-.6 0-1.1.2-1.4.4-.3.3-.5.7-.6 1.2h-1.3zm5.2 1.6l-.4.2-.6.2a12.3 12.3 0 0 1-1.3.2l-.8.1-.5.3-.4.4-.1.5v.7l.4.4c.1.2.3.2.5.3l.6.1h.5a3.8 3.8 0 0 0 1.1-.5c.2 0 .3-.2.5-.3l.3-.6.2-.6v-1.4zm3.7-4h1.4V97h4v-3.4h1.4v8.4h-1.5v-3.7h-3.9v3.7h-1.4v-8.4zm15.9 8.3h-6.5v2h-1.3v-3.3h1a11.3 11.3 0 0 0 1-3.4 20.7 20.7 0 0 0 .1-3.7h5.8v7.1h1.2v3.3h-1.3v-2zm-1.3-1.3V95h-3a1227.3 1227.3 0 0 1-.6 4.4c0 .5-.2 1-.4 1.5h4zm4-4.6c0-.5 0-.9.3-1.3.1-.3.4-.6.7-.8a3 3 0 0 1 1-.5 6 6 0 0 1 2.6 0c.4 0 .7.2 1 .4.3.2.6.4.7.7.2.3.3.7.3 1.1v4.9l.1.3.4.2h.2l.2-.1v1a10 10 0 0 1-.7.1h-.7c-.2 0-.3-.2-.4-.3a1 1 0 0 1-.3-.3l-.2-.6-.5.5a3.5 3.5 0 0 1-1.5.8h-1l-1-.1-.8-.5a2.3 2.3 0 0 1-.8-1.8c0-.4 0-.8.2-1a2.4 2.4 0 0 1 1.4-1.4l1-.2 2.3-.3c.2 0 .4 0 .5-.2l.2-.7c0-.6-.2-1-.5-1.1-.3-.3-.8-.4-1.4-.4-.7 0-1.1.2-1.4.4-.4.3-.5.7-.6 1.2h-1.3zm5.2 1.6l-.5.2-.5.2a12.3 12.3 0 0 1-1.4.2l-.7.1-.5.3-.4.4-.1.5v.7l.4.4c.1.2.3.2.5.3l.6.1h.5a3.8 3.8 0 0 0 1-.5c.3 0 .4-.2.6-.3l.3-.6.2-.6v-1.4zm4.4-4h1.6v1.7h-1.6v-1.7zm0 6.6h1.6v1.7h-1.6v-1.7zm8.7-6.2V93a5 5 0 0 0 2-.5c.5-.2.8-.8 1-1.6h1.1V102h-1.5v-8h-2.6zm9.3 5c.1.9.5 1.4 1.1 1.7.4.2.7.2 1.2.2.8 0 1.4-.2 1.8-.8.4-.5.6-1 .6-1.7a2.3 2.3 0 0 0-2.4-2.5c-.5 0-.9.1-1.2.3l-1 .8h-1.1l.8-6.1h5.8v1.4h-4.7l-.5 3 .7-.4 1.5-.2c1 0 1.9.3 2.6 1 .7.6 1 1.5 1 2.5s-.3 2-1 2.8c-.6.8-1.6 1.2-3 1.2a4 4 0 0 1-2.5-.8c-.7-.5-1-1.3-1.2-2.4h1.5zm19.8-1.7c.5.5.8 1.1.8 1.9 0 .7-.3 1.4-.8 1.9a3 3 0 0 1-2 .8 2.7 2.7 0 0 1-2.7-2.8c0-.7.3-1.3.8-1.8.5-.6 1.2-.8 2-.8.7 0 1.3.2 1.9.8zm-3.1-6.5h.9l-6.3 11.4h-.9l6.3-11.4zm-5.4 4.1c.3-.3.5-.7.5-1.1 0-.5-.2-.8-.5-1.2-.3-.3-.7-.4-1.1-.4-.5 0-.9.1-1.2.4-.3.3-.4.7-.4 1.2 0 .4.1.8.4 1.1.3.3.7.5 1.2.5.4 0 .8-.2 1.1-.5zm.8-3c.5.5.8 1.1.8 1.9a2.7 2.7 0 0 1-2.8 2.7 3 3 0 0 1-1.9-.8c-.5-.5-.8-1.2-.8-2 0-.7.3-1.3.8-1.9a3 3 0 0 1 2-.8c.7 0 1.4.3 1.9.8zm6.9 8.4c.3-.3.4-.7.4-1.1 0-.5-.1-.8-.4-1.2-.3-.3-.7-.4-1.2-.4-.4 0-.8.1-1.1.4-.3.4-.5.7-.5 1.2 0 .4.2.8.5 1.1.3.3.7.5 1.1.5.5 0 .9-.2 1.2-.5zM11.5 225.3c0-.6 0-1-.2-1.5-.2-.4-.4-.7-.8-1-.3-.3-.7-.5-1.2-.7-.5-.2-1.1-.2-1.8-.2v6.7c.7 0 1.3 0 1.8-.2.5-.1.9-.4 1.2-.7.4-.2.6-.6.8-1l.2-1.4zM6 230c-.8 0-1.6-.1-2.3-.3a4 4 0 0 1-1.8-1 3 3 0 0 1-1-1.4 5 5 0 0 1-.4-2c0-.8 0-1.5.3-2 .3-.7.7-1.1 1.1-1.5.5-.4 1.1-.7 1.8-1l2.3-.2v-1.3h1.6v1.3c.8 0 1.6 0 2.3.3a4 4 0 0 1 1.7.9c.5.4.9.8 1.1 1.4.3.6.4 1.3.4 2a5 5 0 0 1-.4 2 4 4 0 0 1-1 1.6 5 5 0 0 1-1.8.9c-.7.2-1.5.3-2.3.3v1.2H5.9V230zm-4-4.7c0 .5 0 1 .2 1.4.2.4.4.8.8 1 .3.3.7.6 1.2.7a5 5 0 0 0 1.8.2V222c-.7 0-1.3 0-1.8.2s-1 .4-1.2.7c-.4.3-.6.6-.8 1a4 4 0 0 0-.2 1.5zm18.5 1.5l-.1-1.3a3 3 0 0 0-.5-1c-.2-.3-.5-.5-.8-.6-.3-.2-.6-.3-1-.3s-.8.1-1 .3c-.4.1-.6.3-.8.6a3 3 0 0 0-.5 1 5 5 0 0 0 0 2.6l.5 1 .7.7 1 .2c.5 0 .8 0 1.1-.2l.8-.7.5-1 .1-1.3zm1.5 0a6 6 0 0 1-.3 1.9 4 4 0 0 1-.8 1.4c-.3.3-.7.6-1.2.8a3 3 0 0 1-1.6.4c-.6 0-1.2-.1-1.6-.4l-1.3-.8a4 4 0 0 1-.7-1.4 6 6 0 0 1-.3-1.9c0-.7 0-1.3.3-1.8.1-.6.4-1 .7-1.4l1.3-1 1.6-.2c.6 0 1.1 0 1.6.3.5.2 1 .5 1.2.9.4.4.6.8.8 1.4.2.5.3 1.1.3 1.8zm1.6-4.2H25v3.4h4v-3.4h1.4v8.4h-1.5v-3.7H25v3.7h-1.4v-8.4zm15.9 8.4H33v2h-1.3v-3.3h1a11.3 11.3 0 0 0 1-3.4 20.7 20.7 0 0 0 0-3.7h6v7.2h1.1v3.2h-1.3v-2zm-1.3-1.3V224h-3a1227.3 1227.3 0 0 1-.6 4.4c0 .5-.2 1-.4 1.4h4zm8.4-7H48v1l.4-.5.5-.4.7-.3a3.4 3.4 0 0 1 3.3 1c.3.3.5.7.7 1.2.2.5.3 1.1.3 1.8a8 8 0 0 1-.2 2.2 4 4 0 0 1-.8 1.5c-.3.4-.7.6-1.2.8-.4.2-1 .3-1.5.3a2.6 2.6 0 0 1-1.9-.8l-.3-.4v4.2h-1.4v-11.7zm1.4 4.2v1.2l.5 1 .7.7 1 .2c.4 0 .7 0 1-.2l.7-.7c.2-.3.4-.6.4-1l.2-1.2c0-.5 0-1-.2-1.3a3 3 0 0 0-.4-1 2 2 0 0 0-.7-.7c-.3-.2-.6-.3-1-.3a2 2 0 0 0-1 .3 2 2 0 0 0-.7.6l-.4 1-.1 1.4zm7.5-1.8c0-.5.1-.9.3-1.3l.7-.8a3 3 0 0 1 1.1-.5 6 6 0 0 1 2.5 0c.4 0 .8.2 1 .4.4.2.6.4.8.7l.2 1.1v4.9l.1.3.4.2h.2l.3-.1v1a10 10 0 0 1-.8.1h-.6c-.2 0-.4-.2-.5-.3a1 1 0 0 1-.3-.3l-.1-.6-.6.5a3.5 3.5 0 0 1-1.5.8h-1l-1-.1-.8-.5a2.3 2.3 0 0 1-.8-1.8c0-.4.1-.8.3-1a2.4 2.4 0 0 1 1.3-1.4l1-.2 2.3-.3c.2 0 .4 0 .5-.2.2-.2.2-.4.2-.7 0-.6-.1-1-.5-1.1-.3-.3-.8-.4-1.4-.4-.6 0-1.1.2-1.4.4-.3.3-.5.7-.5 1.2h-1.4zm5.2 1.6l-.4.2-.6.2a12.3 12.3 0 0 1-1.3.2l-.7.1-.6.3-.4.4-.1.5.1.7.3.4c.1.2.3.2.5.3l.6.1h.5a3.8 3.8 0 0 0 1.1-.5c.2 0 .4-.2.5-.3l.4-.6.1-.6v-1.4zm5.9-.5h.7l.6-.1.6-.2.4-.4.2-.6a1.1 1.1 0 0 0-.4-.9l-.6-.3a2.4 2.4 0 0 0-1.8.2l-.5.5-.3.8h-1.3l.2-1a2.8 2.8 0 0 1 1-1.3 3.2 3.2 0 0 1 1.4-.5 4.4 4.4 0 0 1 1.8.1l1 .5.7.7.2 1a2 2 0 0 1-.4 1.2c0 .2-.2.3-.4.4l-.4.2.5.2a1.7 1.7 0 0 1 .9 1l.1.8c0 .5 0 .9-.3 1.2-.2.4-.5.7-.8.9l-1 .5-1.3.2-1.4-.2-1.2-.6a2.8 2.8 0 0 1-1-2H65c0 .2.1.5.3.7l.5.5.7.2.7.1c.7 0 1.1-.1 1.5-.4.3-.3.5-.6.5-1l-.1-.6-.3-.4-.6-.2a3.8 3.8 0 0 0-1 0 8.5 8.5 0 0 0-.8 0v-1.2zm5.8-3.6H76c1 0 1.8.2 2.3.6.5.4.7 1 .7 1.7 0 .3 0 .7-.2 1l-.8.6c.5.2.8.4 1 .8.3.3.5.7.5 1.2l-.2 1a2 2 0 0 1-.6.8l-1 .5-1.5.2h-3.8v-8.4zm1.5 7.3H76l.9-.1.6-.3c.2-.1.3-.3.3-.4l.1-.6v-.5a1 1 0 0 0-.4-.4l-.6-.3h-3.1v2.6zm0-3.7H76a2 2 0 0 0 1.2-.3c.3-.2.4-.5.4-1l-.1-.5a1 1 0 0 0-.3-.4l-.5-.2h-2.8v2.4zm7.3-3.6h1.4v6.4l4.2-6.4h1.6v8.4H87v-6.4l-4.2 6.4h-1.6v-8.4zm11.6 1.3h-3v-1.3H97v1.3h-3v7.1h-1.3v-7.1zm5.7-1.3h1.5v6.4l4.1-6.4h1.7v8.4h-1.5v-6.4L100 231h-1.7v-8.4zm16.2 8.4H113v-3.3h-2.7c-.2 0-.5 0-.6.2-.2 0-.3.2-.4.3a2 2 0 0 0-.2.8v1.1a3.6 3.6 0 0 1-.3.9h-1.6l.1-.1.1-.3.1-.3.1-.5.1-1.1.1-.7.2-.4c0-.2.2-.2.3-.3l.5-.3c-.9-.3-1.3-1-1.3-2a2.4 2.4 0 0 1 .7-1.6c0-.2.2-.3.3-.4l.6-.2a4.1 4.1 0 0 1 1.1-.2h4.3v8.4zm-1.5-7.1H111a25.7 25.7 0 0 0-1 0l-.3.2a1 1 0 0 0-.5.4l-.1.7.1.6.3.3.3.3h.5a3.4 3.4 0 0 0 .7.1h2.2V224zm4.3-1.2h1.6v1.7h-1.6v-1.7zm0 6.6h1.6v1.7h-1.6v-1.7zm8.7-6.2V222a5 5 0 0 0 2-.5c.5-.2.8-.8 1-1.6h1.1V231h-1.5v-8h-2.6zm14.8-1.5a8 8 0 0 1 .7 3.8c0 1.5-.2 2.8-.6 3.8a3.5 3.5 0 0 1-3.3 2.1c-1.3 0-2.3-.6-3-1.7a8 8 0 0 1-.8-4c0-1.2.2-2.3.5-3.2.6-1.7 1.7-2.6 3.4-2.6 1.4 0 2.5.6 3.1 1.8zm-1.4 7.5a8 8 0 0 0 .6-3.7 9 9 0 0 0-.4-3c-.3-1-1-1.3-1.9-1.3a2 2 0 0 0-1.8 1.1 8 8 0 0 0-.5 3.5c0 1.1 0 2 .3 2.7.4 1 1 1.6 2 1.6a2 2 0 0 0 1.7-1zm15.7-2.7c.5.5.8 1.1.8 1.9 0 .7-.3 1.4-.8 1.9a3 3 0 0 1-2 .8 2.7 2.7 0 0 1-2.7-2.8c0-.7.3-1.3.8-1.8.5-.6 1.2-.8 2-.8.7 0 1.3.2 1.9.8zm-3.1-6.5h.9l-6.3 11.4h-.9l6.3-11.4zm-5.4 4.1c.3-.3.5-.7.5-1.1 0-.5-.2-.8-.5-1.2-.3-.3-.7-.4-1.1-.4-.5 0-.9.1-1.2.4-.3.3-.4.7-.4 1.2 0 .4.1.8.4 1.1.3.3.7.5 1.2.5.4 0 .8-.2 1.1-.5zm.8-3c.5.5.8 1.1.8 1.9a2.7 2.7 0 0 1-2.8 2.7 3 3 0 0 1-1.9-.8c-.5-.5-.8-1.2-.8-2 0-.7.3-1.3.8-1.9a3 3 0 0 1 2-.8c.7 0 1.4.3 1.9.8zm6.9 8.4c.3-.3.4-.7.4-1.1 0-.5-.1-.8-.4-1.2-.3-.3-.7-.4-1.2-.4-.4 0-.8.1-1.1.4-.3.4-.5.7-.5 1.2 0 .4.2.8.5 1.1.3.3.7.5 1.1.5.5 0 .9-.2 1.2-.5zm-27.3 73.1h7.8v1.4h-6.3v3.4h3.2a5 5 0 0 1 1.8.2c.5.1.9.4 1.2.7.3.2.6.6.7 1a3.8 3.8 0 0 1 0 2.8 2.9 2.9 0 0 1-1.8 1.8l-1.6.2h-5v-11.5zm1.5 10.2h3.3l1-.1.6-.4.5-.6.1-1-.1-1-.5-.6a2 2 0 0 0-.8-.3 5 5 0 0 0-1.1-.1h-3v4zm9-4.6c0-.5 0-.9.2-1.3l.7-.8a3 3 0 0 1 1.1-.5 6 6 0 0 1 2.6 0c.3 0 .7.2 1 .4l.7.7c.2.3.3.7.3 1.1v5.2l.4.2h.2l.3-.1v1a10 10 0 0 1-.8.1h-.6c-.2 0-.4-.2-.5-.3a1 1 0 0 1-.3-.3l-.1-.6-.6.5a3.5 3.5 0 0 1-1.4.8h-1l-1-.1-.8-.5a2.3 2.3 0 0 1-.8-1.8c0-.4 0-.8.2-1a2.4 2.4 0 0 1 1.4-1.4l.9-.2 2.3-.3c.3 0 .4 0 .6-.2l.2-.7c0-.6-.2-1-.5-1.1-.4-.3-.9-.4-1.5-.4s-1 .2-1.4.4c-.3.3-.5.7-.5 1.2h-1.4zm5.1 1.6l-.4.2-.6.2a12.3 12.3 0 0 1-1.3.2l-.7.1-.6.3-.4.4-.1.5.1.7.3.4.5.3.6.1h.5a3.8 3.8 0 0 0 1.1-.5c.2 0 .4-.2.5-.4l.4-.5.1-.6v-1.4zm2.9-4h1.6l2.2 6.7 2.2-6.8h1.6l-3.2 8.7a28.6 28.6 0 0 1-.8 2 3 3 0 0 1-.4.6 1.6 1.6 0 0 1-1 .4 4.7 4.7 0 0 1-1.5 0V316a3.3 3.3 0 0 0 .9.1c.2 0 .5 0 .6-.2.2 0 .3-.3.4-.5l.5-1.2-3.1-8.6zm8.8 0h1.5v3.3h3.9v-3.4h1.4v8.4H160v-3.7h-4v3.7h-1.4v-8.4zm11.2 1.2h-3v-1.3h7.3v1.3h-3v7.1h-1.4v-7.1zm5.7-1.3h1.5v6.4l4.1-6.4h1.7v8.4h-1.5v-6.4l-4.1 6.4h-1.7v-8.4zm10.1.1h1.6v1.7h-1.6v-1.7zm0 6.6h1.6v1.7h-1.6v-1.7zm8.4 1a4 4 0 0 1-.9-2.7h1.5c0 .7.2 1.2.4 1.5.3.6 1 1 2 1 .7 0 1.3-.3 1.7-.7.5-.4.7-.9.7-1.5 0-.8-.2-1.3-.7-1.6-.5-.3-1.1-.5-2-.5a10.6 10.6 0 0 0-.5 0v-1.2a7 7 0 0 0 .6 0c.6 0 1 0 1.3-.2a1.7 1.7 0 0 0 .3-2.9 2 2 0 0 0-1.3-.4c-1 0-1.6.3-2 1-.2.3-.3.7-.3 1.4h-1.4c0-.8.1-1.6.5-2.1.6-1 1.6-1.6 3-1.6 1.1 0 2 .3 2.7.8.6.5.9 1.2.9 2.2 0 .7-.2 1.2-.6 1.6-.2.3-.5.5-.9.7.6.1 1 .4 1.4.9.4.5.5 1 .5 1.7 0 1-.3 2-1 2.6-.7.7-1.7 1-3 1s-2.3-.4-3-1zm20.4-4c.6.6.8 1.2.8 2 0 .7-.2 1.4-.8 1.9-.5.5-1.1.8-1.9.8-.7 0-1.4-.3-2-.8-.4-.5-.7-1.2-.7-2 0-.7.3-1.3.8-1.8.5-.6 1.2-.8 2-.8.7 0 1.3.2 1.8.8zm-3-6.4h.9l-6.3 11.4h-.9l6.3-11.4zm-5.4 4.1c.3-.3.5-.7.5-1.1 0-.5-.2-.8-.5-1.2-.3-.3-.7-.4-1.1-.4-.5 0-.9.1-1.2.4-.3.3-.5.7-.5 1.2 0 .4.2.8.5 1.1.3.3.7.5 1.2.5.4 0 .8-.2 1-.5zm.8-3c.5.5.8 1.1.8 1.9 0 .7-.3 1.4-.8 1.9a3 3 0 0 1-2 .8 3 3 0 0 1-1.9-.8c-.5-.5-.8-1.2-.8-2 0-.7.3-1.3.8-1.9a3 3 0 0 1 2-.8 3 3 0 0 1 1.9.8zm6.9 8.4c.3-.3.4-.7.4-1.1 0-.5-.1-.8-.4-1.2-.4-.3-.7-.4-1.2-.4-.4 0-.8.1-1.1.4-.3.4-.5.7-.5 1.2 0 .4.2.8.5 1.1.3.3.7.5 1.1.5.5 0 .8-.2 1.2-.5zM42.2 283.5h1.5v5.6l5.6-5.6h2.1l-4.7 4.6 4.9 6.9h-2l-4-5.8-1.9 1.8v4h-1.5v-11.5zm16.4 7.3l-.2-1.3a3 3 0 0 0-.5-1c-.2-.3-.4-.5-.7-.6a2 2 0 0 0-1.1-.3c-.4 0-.8.1-1 .3-.4.1-.6.3-.8.6a3 3 0 0 0-.5 1 5 5 0 0 0 0 2.6l.5 1 .7.7 1.1.2c.4 0 .8 0 1-.2.4-.2.6-.4.8-.7l.5-1 .2-1.3zm1.4 0a6 6 0 0 1-.3 1.9 4 4 0 0 1-.7 1.4l-1.3.8c-.4.3-1 .4-1.6.4-.6 0-1.2-.1-1.6-.4l-1.3-.8a4 4 0 0 1-.7-1.4 6 6 0 0 1-.3-1.9c0-.7.1-1.3.3-1.8.2-.6.4-1 .8-1.4a4 4 0 0 1 1.2-1l1.6-.2c.6 0 1.2 0 1.6.3.5.2 1 .5 1.3.9l.7 1.4c.2.5.3 1.1.3 1.8zm1.6-4.2H63v3.4h4v-3.4h1.4v8.4H67v-3.7h-4v3.7h-1.4v-8.4zm15.5 5.5a4.8 4.8 0 0 1-.4 1.3l-.4.7-.7.6-.9.4a4.3 4.3 0 0 1-2 0 3.5 3.5 0 0 1-1.5-.8l-.6-.8-.4-1.1a6.5 6.5 0 0 1 .1-3.4c.2-.6.5-1 .8-1.4a4 4 0 0 1 1.2-1l1.3-.2 1.2.1.9.4a2.6 2.6 0 0 1 1 1.2 3.5 3.5 0 0 1 .4 1.3h-1.4c0-.5-.2-1-.5-1.3-.4-.3-.8-.5-1.4-.5-.4 0-.7.1-1 .3a2 2 0 0 0-.8.6l-.4 1-.1 1.4.1 1.5.5 1c.1.2.4.4.7.5l1 .2a1.9 1.9 0 0 0 1.2-.5l.5-.7.2-.8h1.4zm.5-5.5h1.6l2.2 6.8 2.3-6.8h1.6l-3.2 8.7a28.6 28.6 0 0 1-.9 2 3 3 0 0 1-.4.6 1.6 1.6 0 0 1-1 .4 4.7 4.7 0 0 1-1.4 0V297a3.3 3.3 0 0 0 .8.1c.3 0 .5 0 .7-.2.2 0 .3-.3.4-.5l.4-1.2-3-8.6zm14.5 1.3H89v2c0 1-.1 1.9-.3 2.5 0 .7-.3 1.3-.5 1.7a2 2 0 0 1-.8.8c-.3.2-.6.3-1 .3a1 1 0 0 1-.6-.2v-1.3l.5.2.3-.1.3-.2.3-.5.2-.7.1-1.1.1-1.6v-3h6v8.3h-1.4v-7.1zm3.6-1.3h1.4v3.2h2.4c.4 0 .8 0 1.2.2.3 0 .6.3.9.5l.6.8.2 1-.2 1.2-.6.8-1 .5-1.1.2h-3.8v-8.4zm1.4 7.3h2l.8-.1c.2 0 .4-.2.5-.3l.4-.4.1-.7-.1-.7-.4-.4-.6-.3h-2.7v2.9zm8.8-6H103v-1.3h7.2v1.3h-2.8v7.1h-1.5v-7.1zm5.8 1.2c0-.5 0-.9.3-1.3.1-.3.4-.6.7-.8a3 3 0 0 1 1-.5 6 6 0 0 1 2.6 0c.4 0 .7.2 1 .4l.7.7c.2.3.3.7.3 1.1v4.9l.1.3.4.2h.2l.2-.1v1a10 10 0 0 1-.7.1h-.7c-.2 0-.3-.2-.4-.3a1 1 0 0 1-.3-.3l-.2-.6-.5.5a3.5 3.5 0 0 1-1.5.8h-1l-1-.1-.8-.5a2.3 2.3 0 0 1-.8-1.8c0-.4 0-.8.2-1a2.4 2.4 0 0 1 1.4-1.4l1-.2 2.3-.3c.2 0 .4 0 .5-.2l.2-.7c0-.6-.2-1-.5-1.1-.3-.3-.8-.4-1.4-.4a3 3 0 0 0-1.5.4c-.3.3-.4.7-.5 1.2h-1.3zm5.2 1.6l-.5.2-.5.2a12.3 12.3 0 0 1-1.4.2l-.7.1-.5.3-.4.4-.2.5c0 .3 0 .5.2.7l.3.4c.1.2.3.2.4.3l.7.1h.5a3.8 3.8 0 0 0 1-.5c.3 0 .4-.2.6-.4l.3-.5.2-.6v-1.4zm3.7-4h1.4v3.3h4v-3.4h1.4v8.4h-1.5v-3.7H122v3.7h-1.4v-8.4zm11.1 1.2h-2.9v-1.3h7.2v1.3h-2.9v7.1h-1.4v-7.1zm13.8-1.3h1.4v8.4h-1.4v-8.4zm-8 0h1.4v3.2h2.5c.5 0 .9 0 1.3.2.3 0 .6.3.9.5l.6.8.2 1-.2 1.2-.6.8-1 .5-1.2.2h-4v-8.4zm1.4 7.3h2.2l.7-.1c.3 0 .4-.2.6-.3l.4-.4.1-.7-.1-.7-.4-.4-.6-.3H139v2.9zm10.9-7.2h1.6v1.7h-1.6v-1.7zm0 6.6h1.6v1.7h-1.6v-1.7zm8.2-.8c.3-.7 1-1.4 2-2l1.5-.8a7 7 0 0 0 1.4-1c.4-.5.7-1 .7-1.5a2 2 0 0 0-.6-1.6c-.4-.3-1-.5-1.6-.5-1 0-1.6.3-2 1a4 4 0 0 0-.3 1.7h-1.5c0-1 .2-1.8.6-2.4.6-1 1.7-1.6 3.2-1.6 1.3 0 2.2.3 2.8 1 .6.7 1 1.5 1 2.3a3 3 0 0 1-1 2.3l-2 1.4-1 .6a7 7 0 0 0-1.3.8 3 3 0 0 0-1 1.5h6.2v1.3h-7.7c0-1 .2-1.8.6-2.5zm20.6-2.1c.5.5.8 1.1.8 1.9a2.7 2.7 0 0 1-2.8 2.7c-.7 0-1.3-.3-1.8-.8-.6-.5-.8-1.2-.8-2 0-.7.2-1.3.8-1.8.5-.6 1.1-.8 1.9-.8.7 0 1.4.2 1.9.8zm-3-6.5h.8l-6.2 11.4h-1l6.3-11.4zm-5.4 4.1c.3-.3.4-.7.4-1.1 0-.5-.1-.8-.4-1.2-.4-.3-.7-.4-1.2-.4-.4 0-.8.1-1.1.4-.3.3-.5.7-.5 1.2 0 .4.2.8.5 1.1.3.3.7.5 1.1.5.5 0 .8-.2 1.2-.5zm.7-3c.6.5.8 1.1.8 1.9 0 .7-.2 1.4-.8 1.9-.5.5-1.1.8-1.9.8-.7 0-1.4-.3-2-.8-.4-.5-.7-1.2-.7-2 0-.7.3-1.3.8-1.9.5-.5 1.2-.8 2-.8.7 0 1.3.3 1.8.8zm7 8.4c.2-.3.4-.7.4-1.1 0-.5-.2-.8-.5-1.2-.3-.3-.7-.4-1.1-.4-.5 0-.8.1-1.2.4-.3.4-.4.7-.4 1.2 0 .4.1.8.4 1.1.4.3.7.5 1.2.5.4 0 .8-.2 1.1-.5zm320.3-115.9h1.5v9.3l5.9-9.3h1.8V189h-1.6v-9.3L500 189h-1.8v-11.5zm11.4 3.1h1.4v3.4h4v-3.4h1.4v8.4H515v-3.7h-4v3.7h-1.4v-8.4zm9 0h3.5c1 0 1.8.2 2.3.6.5.4.7 1 .7 1.7 0 .3 0 .7-.3 1l-.7.6c.4.2.8.4 1 .8.3.3.4.7.4 1.2l-.1 1a2 2 0 0 1-.6.8l-1 .5-1.5.2h-3.8v-8.4zm1.3 7.3h2.2l1-.1.6-.3.3-.4.1-.6v-.5a1 1 0 0 0-.4-.4l-.6-.3h-3.2v2.6zm0-3.7h2.2a2 2 0 0 0 1.2-.3c.2-.2.4-.5.4-1l-.1-.5a1 1 0 0 0-.3-.4l-.5-.2H520v2.4zm14.5 2.1c0 .4-.2.7-.4 1.1a3.5 3.5 0 0 1-1.8 1.6l-1.5.3-1.5-.3c-.5-.2-.9-.5-1.2-.9a4 4 0 0 1-.9-1.4 6 6 0 0 1 .4-4.4 3.8 3.8 0 0 1 3.1-2c.6 0 1.1.2 1.6.3a3.5 3.5 0 0 1 2 2.1c.2.6.3 1.2.3 1.9v.7h-6.1l.1 1.1.5.9.8.5 1 .2.9-.1a2 2 0 0 0 1-1l.3-.6h1.4zm-1.4-2.1l-.1-1.1-.5-.8a2 2 0 0 0-.7-.5 2.5 2.5 0 0 0-1.9 0l-.7.5c-.2.3-.4.5-.5.9l-.2 1h4.6zm9.8 1.9a4.8 4.8 0 0 1-.4 1.3l-.5.7-.6.6-1 .4a4.3 4.3 0 0 1-2 0 3.5 3.5 0 0 1-1.5-.8l-.5-.8-.5-1.1a6.5 6.5 0 0 1 .2-3.4c.2-.6.4-1 .8-1.4l1.1-1 1.4-.2 1.2.1.9.4a2.6 2.6 0 0 1 1 1.2 3.5 3.5 0 0 1 .4 1.3h-1.4c0-.5-.3-1-.6-1.3-.3-.3-.8-.5-1.3-.5-.4 0-.8.1-1 .3a2 2 0 0 0-.8.6l-.4 1-.2 1.4c0 .6 0 1 .2 1.5 0 .4.2.7.4 1l.7.5 1 .2a1.9 1.9 0 0 0 1.3-.5l.4-.7c.2-.2.3-.5.3-.8h1.4zm3.6-4.2h-2.9v-1.3h7.2v1.3h-2.9v7.1h-1.4v-7.1zm11.6 2.9l-.1-1.3a3 3 0 0 0-.5-1c-.2-.3-.5-.5-.8-.6-.3-.2-.6-.3-1-.3s-.8.1-1 .3c-.4.1-.6.3-.9.6a3 3 0 0 0-.4 1 5 5 0 0 0 0 2.6c0 .4.2.7.4 1l.8.7 1 .2c.5 0 .8 0 1.1-.2l.8-.7.5-1 .1-1.3zm1.5 0a6 6 0 0 1-.3 1.9 4 4 0 0 1-.8 1.4c-.3.3-.7.6-1.2.8a3 3 0 0 1-1.6.4c-.6 0-1.2-.1-1.7-.4l-1.2-.8a4 4 0 0 1-.8-1.4 6 6 0 0 1-.2-1.9c0-.7 0-1.3.2-1.8.2-.6.5-1 .8-1.4.3-.4.8-.7 1.2-1l1.7-.2c.6 0 1.1 0 1.6.3.5.2.9.5 1.2.9.4.4.6.8.8 1.4.2.5.3 1.1.3 1.8zm1.5-4.2h1.4v1.2l.4-.6.5-.4.7-.3a3.4 3.4 0 0 1 3.3 1c.3.3.6.7.8 1.2.2.5.3 1.1.3 1.8a8 8 0 0 1-.3 2.2 4 4 0 0 1-.8 1.5c-.3.4-.7.6-1.1.8l-1.5.3a2.6 2.6 0 0 1-2-.8l-.2-.4v4.2H561v-11.7zm1.4 4.3l.1 1.2.4 1 .7.7 1 .2c.4 0 .8 0 1-.2l.8-.7.4-1 .1-1.2-.1-1.3a3 3 0 0 0-.4-1 2 2 0 0 0-.7-.7 2 2 0 0 0-2 0 2 2 0 0 0-.8.6l-.4 1-.1 1.4zm15.6-4.3h1.4v8.4H578v-8.4zm-8 0h1.4v3.2h2.5c.5 0 .9 0 1.2.2.4 0 .7.3 1 .5l.5.8c.2.3.2.7.2 1 0 .5 0 .9-.2 1.2l-.5.8-1 .5-1.2.2h-4v-8.4zm1.4 7.3h2.2l.7-.1.6-.3.4-.4v-1.4l-.4-.4-.6-.3h-2.8v2.9zm10.8-7.2h1.7v1.7h-1.7v-1.7zm0 6.6h1.7v1.7h-1.7v-1.7zm14.5-8.6c.4.7.7 1.4.7 2H596c0-.4-.2-.7-.4-1-.3-.5-.8-.7-1.5-.7-.8 0-1.4.4-2 1a9 9 0 0 0-.7 3.2 3 3 0 0 1 2.7-1.4c1 0 1.8.3 2.5 1 .7.5 1 1.4 1 2.6 0 1-.3 2-1 2.7-.6.8-1.6 1.2-2.8 1.2-1 0-2-.4-2.7-1.2-.8-.8-1.1-2.1-1.1-4 0-1.4.1-2.6.5-3.6.6-1.8 1.8-2.7 3.5-2.7 1.3 0 2.2.3 2.7 1zm-1.1 8.6c.4-.5.5-1 .5-1.8a3 3 0 0 0-.4-1.6c-.4-.5-1-.8-1.8-.8-.6 0-1.2.2-1.6.6-.5.4-.7 1-.7 1.8 0 .7.2 1.3.6 1.8.4.5 1 .7 1.7.7.8 0 1.3-.2 1.7-.7zm10.1-7.7a8 8 0 0 1 .8 3.8c0 1.5-.2 2.8-.7 3.8-.7 1.4-1.7 2.1-3.2 2.1-1.4 0-2.4-.6-3-1.7a8 8 0 0 1-.8-4 8 8 0 0 1 .5-3.2c.6-1.7 1.7-2.6 3.3-2.6 1.4 0 2.5.6 3.1 1.8zm-1.4 7.5c.4-.7.7-1.9.7-3.7a9 9 0 0 0-.5-3c-.3-1-1-1.3-1.8-1.3-.9 0-1.5.4-1.8 1.1a8 8 0 0 0-.6 3.5c0 1.1.1 2 .3 2.7.4 1 1 1.6 2 1.6a2 2 0 0 0 1.7-1zm15.7-2.7c.5.5.8 1.1.8 1.9a2.7 2.7 0 0 1-2.8 2.7 3 3 0 0 1-1.9-.8c-.5-.5-.8-1.2-.8-2 0-.7.3-1.3.8-1.8.6-.6 1.2-.8 2-.8.7 0 1.4.2 1.9.8zm-3-6.5h.8l-6.3 11.4h-.8l6.2-11.4zm-5.5 4.1c.4-.3.5-.7.5-1.1 0-.5-.1-.8-.5-1.2-.3-.3-.7-.4-1.1-.4-.5 0-.8.1-1.1.4-.4.3-.5.7-.5 1.2 0 .4.1.8.5 1.1.3.3.6.5 1 .5.5 0 1-.2 1.2-.5zm.8-3c.6.5.8 1.1.8 1.9 0 .7-.2 1.4-.8 1.9-.5.5-1.2.8-2 .8-.7 0-1.3-.3-1.8-.8-.6-.5-.8-1.2-.8-2 0-.7.2-1.3.8-1.9.5-.5 1.1-.8 1.9-.8.7 0 1.4.3 2 .8zm6.9 8.4c.3-.3.5-.7.5-1.1 0-.5-.2-.8-.5-1.2-.3-.3-.7-.4-1.1-.4-.5 0-.9.1-1.2.4-.3.4-.5.7-.5 1.2 0 .4.2.8.5 1.1.3.3.7.5 1.2.5.4 0 .8-.2 1.1-.5z" fill="#000"/><path d="M97.6 15.9c.9 0 1.4-.2 1.8-.5.4-.4.5-.9.5-1.5 0-.7-.1-1.2-.5-1.5-.4-.4-1-.5-1.8-.5h-3v4h3zM93 10.5h4.8a5 5 0 0 1 1.6.3c.5.1.9.3 1.2.6l.7 1.1.2 1.4c0 .5 0 1-.2 1.3a2.8 2.8 0 0 1-1.9 1.8 5 5 0 0 1-1.6.2h-3.3V22H93V10.5zm10.5 5.6c0-.5.1-.9.3-1.3l.7-.8a3 3 0 0 1 1-.5 6 6 0 0 1 2.6 0c.4 0 .7.2 1 .4l.8.7.2 1.1v4.9l.1.3.4.2h.2l.3-.1v1a10 10 0 0 1-.8.1h-.7l-.4-.3a1 1 0 0 1-.3-.3l-.1-.6-.6.5a3.5 3.5 0 0 1-1.5.8h-1l-1-.1-.8-.5a2.3 2.3 0 0 1-.8-1.8c0-.4.1-.8.3-1a2.4 2.4 0 0 1 1.3-1.4l1-.2 2.3-.3c.2 0 .4 0 .5-.2.2-.2.2-.4.2-.7 0-.6-.1-1-.5-1.1-.3-.3-.8-.4-1.4-.4-.6 0-1.1.2-1.4.4-.3.3-.5.7-.6 1.2h-1.3zm5.2 1.6l-.4.2-.6.2a12.3 12.3 0 0 1-1.3.2l-.8.1-.5.3-.4.4-.1.5v.7l.4.4c.1.2.3.2.5.3l.6.1h.5a3.8 3.8 0 0 0 1.1-.5c.2 0 .4-.2.5-.4l.4-.5v-2zm3.7-4h1.5V17h3.9v-3.4h1.4V22h-1.4v-3.7h-4V22h-1.4v-8.4zm9 0h1.3V17h4v-3.4h1.4V22h-1.4v-3.7h-4V22h-1.4v-8.4zm8.8 0h1.4V20l4.2-6.4h1.6V22H136v-6.4l-4.1 6.4h-1.7v-8.4zm16.5 5.6c0 .4-.2.7-.4 1.1a3.5 3.5 0 0 1-1.9 1.6c-.4.2-.9.3-1.4.3l-1.5-.3a3 3 0 0 1-1.3-.9 4 4 0 0 1-.8-1.4 6 6 0 0 1 .3-4.4 3.8 3.8 0 0 1 3.2-2c.6 0 1 .2 1.6.3l1.2.8.8 1.3c.2.6.3 1.2.3 1.9v.7h-6.2l.2 1.1c.1.4.3.6.5.9l.7.5 1 .2 1-.1a2 2 0 0 0 1-1l.3-.6h1.4zm-1.4-2.1c0-.4 0-.8-.2-1.1 0-.3-.2-.6-.4-.8a2 2 0 0 0-.8-.5 2.5 2.5 0 0 0-1.8 0l-.7.5c-.2.3-.4.5-.5.9-.2.3-.2.6-.3 1h4.7zm7.6-3.6h1.4V20l4.2-6.4h1.6V22h-1.4v-6.4l-4.2 6.4H153v-8.4zm9.3 0h1.5V17h3.9v-3.4h1.4V22h-1.4v-3.7h-4V22h-1.4v-8.4zm9 0h3.5c1 0 1.8.2 2.3.6.5.4.7 1 .7 1.7 0 .3 0 .7-.2 1l-.8.6c.5.2.8.4 1 .8.3.3.5.7.5 1.2l-.2 1a2 2 0 0 1-.6.8l-1 .5-1.5.2h-3.8v-8.4zm1.4 7.3h2.1l1-.1.6-.3c.2-.1.3-.3.3-.4l.1-.6V19a1 1 0 0 0-.4-.4l-.6-.3h-3.1v2.6zm0-3.7h2.1a2 2 0 0 0 1.2-.3c.3-.2.4-.5.4-1l-.1-.5a1 1 0 0 0-.3-.4l-.5-.2h-2.8v2.4zm14.4 2.1c0 .4-.2.7-.4 1.1a3.5 3.5 0 0 1-1.8 1.6c-.4.2-1 .3-1.4.3-.6 0-1.1-.1-1.6-.3-.5-.2-.9-.5-1.2-.9a4 4 0 0 1-.8-1.4 6 6 0 0 1 .3-4.4 3.8 3.8 0 0 1 3.1-2c.6 0 1.1.2 1.6.3a3.5 3.5 0 0 1 2 2.1c.2.6.3 1.2.3 1.9v.7H181c0 .4 0 .8.2 1.1 0 .4.2.6.4.9l.8.5 1 .2.9-.1a2 2 0 0 0 1-1l.3-.6h1.4zm-1.3-2.1l-.2-1.1-.5-.8a2 2 0 0 0-.7-.5 2.5 2.5 0 0 0-1.9 0l-.7.5c-.2.3-.4.5-.5.9l-.2 1h4.7zm9.7 1.9a4.8 4.8 0 0 1-.4 1.3l-.5.7-.6.6-1 .4a4.3 4.3 0 0 1-1.9 0 3.5 3.5 0 0 1-1.5-.8c-.3-.2-.5-.5-.6-.8l-.4-1.1a6.5 6.5 0 0 1 0-3.4l.9-1.4 1.1-1 1.4-.2 1.2.1.9.4a2.6 2.6 0 0 1 1 1.2 3.5 3.5 0 0 1 .4 1.3H194c0-.5-.2-1-.6-1.3-.3-.3-.7-.5-1.3-.5-.4 0-.8.1-1 .3a2 2 0 0 0-.8.6l-.4 1-.2 1.4c0 .6 0 1 .2 1.5 0 .4.2.7.4 1l.7.5 1 .2a1.9 1.9 0 0 0 1.3-.5l.5-.7.2-.8h1.4zm3.6-4.2h-2.9v-1.3h7.2V15h-2.8v7H199v-7.1zm11.6 2.9l-.1-1.3a3 3 0 0 0-.5-1c-.2-.3-.5-.5-.8-.6-.3-.2-.6-.3-1-.3s-.8.1-1 .3c-.4.1-.6.3-.8.6a3 3 0 0 0-.5 1 5 5 0 0 0 0 2.6c0 .4.3.7.5 1l.7.7 1 .2c.5 0 .8 0 1.1-.2l.8-.7.5-1 .1-1.3zm1.5 0a6 6 0 0 1-.3 1.9 4 4 0 0 1-.8 1.4c-.3.3-.7.6-1.2.8a3 3 0 0 1-1.6.4c-.6 0-1.2-.1-1.7-.4l-1.2-.8a4 4 0 0 1-.7-1.4 6 6 0 0 1-.3-1.9c0-.7 0-1.3.3-1.8.1-.6.4-1 .7-1.4l1.2-1 1.7-.2c.6 0 1.1 0 1.6.3.5.2 1 .5 1.2.9.4.4.6.8.8 1.4.2.5.3 1.1.3 1.8zm1.5-4.2h1.4v1.2l.4-.6.5-.4.7-.3a3.4 3.4 0 0 1 3.3 1c.3.3.6.7.8 1.2.2.5.3 1.1.3 1.8a8 8 0 0 1-.3 2.2 4 4 0 0 1-.7 1.5c-.4.4-.7.6-1.2.8-.4.2-1 .3-1.5.3a2.6 2.6 0 0 1-2-.8l-.2-.4v4.2h-1.5V13.6zM215 18l.1 1.2.5 1c.1.3.4.5.7.7l1 .2c.3 0 .7 0 1-.2l.7-.7.4-1 .1-1.2-.1-1.3a3 3 0 0 0-.4-1 2 2 0 0 0-.7-.7 2 2 0 0 0-2 0 2 2 0 0 0-.7.6l-.5 1V18zm15.6-4.3h1.4V22h-1.4v-8.4zm-8 0h1.4v3.2h2.5c.5 0 .9 0 1.3.2.3 0 .6.3.9.5l.6.8.2 1-.2 1.2-.6.8-1 .5-1.2.2h-4v-8.4zM224 21h2.3l.6-.1c.3 0 .5-.2.6-.3l.4-.4.1-.7-.1-.7-.4-.4-.6-.3H224V21zm10.9-7.2h1.6v1.7h-1.6v-1.7zm0 6.6h1.6V22h-1.6v-1.7zm8.6-6.2V13c1-.1 1.7-.3 2.1-.5.4-.2.7-.8 1-1.6h1V22h-1.5v-8h-2.6zm14.8-1.5a8 8 0 0 1 .8 3.8c0 1.5-.2 2.8-.7 3.8a3.2 3.2 0 0 1-3.2 2.1c-1.3 0-2.3-.6-3-1.7a8 8 0 0 1-.8-4 8 8 0 0 1 .5-3.2c.6-1.7 1.7-2.6 3.3-2.6 1.5 0 2.5.6 3.1 1.8zm-1.4 7.5c.5-.7.7-1.9.7-3.7a9 9 0 0 0-.5-3c-.3-1-1-1.3-1.8-1.3s-1.4.4-1.8 1.1a8 8 0 0 0-.6 3.5c0 1.1.1 2 .4 2.7.3 1 1 1.6 1.9 1.6a2 2 0 0 0 1.7-1zm15.7-2.7c.5.5.8 1.1.8 1.9a2.7 2.7 0 0 1-2.8 2.7 3 3 0 0 1-1.9-.8c-.5-.5-.7-1.2-.7-2 0-.7.2-1.3.8-1.8.5-.6 1.1-.8 1.9-.8.7 0 1.4.2 1.9.8zm-3-6.5h.8l-6.2 11.4h-1l6.3-11.4zm-5.4 4.1c.3-.3.4-.7.4-1.1 0-.5-.1-.8-.4-1.2-.4-.3-.7-.4-1.2-.4-.4 0-.8.1-1.1.4-.3.3-.5.7-.5 1.2 0 .4.2.8.5 1.1.3.3.7.5 1.1.5.5 0 .8-.2 1.2-.5zm.7-3c.6.5.8 1.1.8 1.9 0 .7-.2 1.4-.8 1.9-.5.5-1.1.8-1.9.8-.7 0-1.4-.3-2-.8-.4-.5-.7-1.2-.7-2 0-.7.3-1.3.8-1.9.5-.5 1.2-.8 2-.8.7 0 1.3.3 1.8.8zm7 8.4c.2-.3.4-.7.4-1.1 0-.5-.2-.8-.5-1.2-.3-.3-.7-.4-1.1-.4-.5 0-.8.1-1.2.4-.3.4-.4.7-.4 1.2 0 .4.1.8.4 1.1.4.3.7.5 1.2.5.4 0 .8-.2 1.1-.5z" fill-rule="nonzero" fill="#000"/></g></svg>