<svg width="602" height="348" viewBox="0 0 602 348" xmlns="http://www.w3.org/2000/svg"><title>pie-all-in-one-en</title><g fill="none" fill-rule="evenodd"><g transform="translate(151)" fill-rule="nonzero"><path fill="#FFF" d="M0 0h348v348H0z"/><path d="M174 174L82.3 47.8A156 156 0 0 1 174 18v156" stroke="#FFF" fill="#56E61E"/><path d="M174 174H18c0-50 24-96.9 64.3-126.2L174 174" stroke="#FFF" fill="#1CE6B7"/><path d="M174 174L47.8 265.7A156 156 0 0 1 18 174h156" stroke="#FFF" fill="#6634D1"/><path d="M174 174L60.3 280.8a156 156 0 0 1-12.5-15.1L174 174" stroke="#FFF" fill="#E0867E"/><path d="M174 174L82.3 300.2a156 156 0 0 1-22-19.4L174 174" stroke="#FFF" fill="#EB4CBE"/><path d="M174 174V18a156 156 0 1 1-91.7 282.2L174 174" stroke="#FFF" fill="#39AADE"/><circle fill="#FFF" cx="421.9" cy="173.9" r="1"/></g><path d="M66.6 90.5V92h-3.9v10h-1.6V91.9h-3.8v-1.4h9.3zm4.7 3.4c.5.2 1 .6 1.2 1l.6 1.5.1 1.9h-6.1c0 .8.2 1.5.6 2 .4.5 1 .8 1.7.8a2.3 2.3 0 0 0 2.3-1.7h1.4c0 .3-.1.6-.4 1l-.6 1-1.6.8-1.2.1c-1 0-1.9-.4-2.6-1.1-.8-.8-1.1-1.9-1.1-3.2 0-1.4.4-2.5 1-3.3.8-.8 1.8-1.3 3-1.3a4 4 0 0 1 1.7.5zm.5 3.2c0-.6-.2-1-.4-1.4-.4-.7-1-1-2-1-.6 0-1.1.2-1.6.7a3 3 0 0 0-.7 1.7h4.7zm4.7 3.6c.3.3.6.4 1 .4.5 0 1-.1 1.5-.4a2 2 0 0 0 1-1.7v-1.2c-.1.2-.4.2-.6.3l-.8.2h-.9l-1.1.4c-.5.2-.7.6-.7 1.2 0 .4.2.7.5 1zm3-3.8c.3 0 .5-.1.6-.4V96c0-.5 0-.8-.4-1-.4-.3-.9-.4-1.5-.4-.7 0-1.3.2-1.6.6a2 2 0 0 0-.3 1H75c0-1 .4-1.8 1-2.2a4 4 0 0 1 2.2-.6c1 0 1.8.2 2.4.6.6.4 1 1 1 1.7v5.2l.4.1a2.1 2.1 0 0 0 .5 0v1a4 4 0 0 1-.5.2h-.5c-.5 0-.8-.2-1-.5a2 2 0 0 1-.3-.8 4 4 0 0 1-1.2 1c-.6.2-1.2.4-1.8.4a3 3 0 0 1-1.9-.7c-.5-.5-.7-1-.7-1.8s.2-1.4.7-1.8c.5-.4 1.1-.7 1.9-.8l2.2-.3zm4.4-3.3h1.3v1.2l1-.9c.4-.3 1-.5 1.5-.5.7 0 1.2.2 1.6.5.3.2.5.5.7.9a3 3 0 0 1 1-1 3 3 0 0 1 1.5-.4c1.1 0 1.9.5 2.3 1.3.2.4.3 1 .3 1.7v5.6h-1.5v-5.8c0-.6 0-1-.4-1.2-.2-.2-.6-.3-1-.3a2 2 0 0 0-1.4.6c-.4.4-.6 1-.6 1.8v4.9h-1.4v-5.5l-.2-1.2c-.3-.4-.7-.6-1.2-.6a2 2 0 0 0-1.5.6c-.4.4-.6 1.2-.6 2.3v4.4h-1.4v-8.4zm14 .1h1.7v1.7h-1.7v-1.7zm0 6.6h1.7v1.7h-1.7v-1.7zm8.7-6.2V93c1-.1 1.7-.3 2.1-.5.4-.2.7-.8.9-1.6h1.1V102h-1.5v-8h-2.6zm9.3 5c.1.9.5 1.4 1.1 1.7.4.2.7.2 1.2.2.8 0 1.4-.2 1.8-.8.4-.5.6-1 .6-1.7a2.3 2.3 0 0 0-2.4-2.5c-.5 0-.9.1-1.2.3l-1 .8h-1l.8-6.1h5.8v1.4h-4.7l-.5 3 .7-.4 1.5-.2c1 0 1.9.3 2.6 1 .7.6 1 1.5 1 2.5s-.3 2-1 2.8c-.6.8-1.6 1.2-3 1.2a4 4 0 0 1-2.5-.8c-.7-.5-1-1.3-1.1-2.4h1.4zm19.8-1.7c.5.5.8 1.1.8 1.9 0 .7-.3 1.4-.8 1.9a3 3 0 0 1-2 .8 2.7 2.7 0 0 1-2.7-2.8c0-.7.3-1.3.8-1.8.5-.6 1.2-.8 2-.8.7 0 1.3.2 1.9.8zm-3-6.5h.8l-6.3 11.4h-.8l6.2-11.4zm-5.5 4.1c.3-.3.5-.7.5-1.1 0-.5-.2-.8-.5-1.2-.3-.3-.7-.4-1.1-.4-.5 0-.9.1-1.2.4-.3.3-.4.7-.4 1.2 0 .4.1.8.4 1.1.3.3.7.5 1.2.5.4 0 .8-.2 1.1-.5zm.8-3c.5.5.8 1.1.8 1.9a2.7 2.7 0 0 1-2.8 2.7 3 3 0 0 1-1.9-.8c-.5-.5-.7-1.2-.7-2 0-.7.2-1.3.7-1.9a3 3 0 0 1 2-.8c.7 0 1.4.3 1.9.8zm6.9 8.4c.3-.3.5-.7.5-1.1 0-.5-.2-.8-.5-1.2-.3-.3-.7-.4-1.2-.4-.4 0-.8.1-1.1.4-.3.4-.5.7-.5 1.2 0 .4.2.8.5 1.1.3.3.7.5 1.1.5.5 0 .9-.2 1.2-.5zM4.5 229.7c.5 0 1 0 1.3-.2.6-.2 1-.6 1.5-1.2.3-.4.5-1 .6-1.7l.1-1.2c0-1.5-.2-2.6-.8-3.4a3.4 3.4 0 0 0-2.7-1.1H1.7v8.8h2.8zM0 219.5h4.7c1.6 0 2.8.6 3.7 1.7.7 1 1.1 2.3 1.1 3.9 0 1.2-.2 2.3-.7 3.3a4.2 4.2 0 0 1-4.1 2.6H0v-11.5zm16.5 3.4c.6.2 1 .6 1.3 1l.6 1.5.1 1.9h-6.1c0 .8.2 1.5.6 2 .4.5 1 .8 1.7.8a2.3 2.3 0 0 0 2.3-1.7h1.4c0 .3-.2.6-.4 1l-.7 1-1.5.8-1.2.1c-1 0-2-.4-2.6-1.1-.8-.8-1.1-1.9-1.1-3.2 0-1.4.3-2.5 1-3.3a4 4 0 0 1 3-1.3c.5 0 1 .2 1.6.5zm.6 3.2c0-.6-.2-1-.4-1.4-.4-.7-1-1-2-1a2 2 0 0 0-1.6.7c-.4.4-.7 1-.7 1.7h4.7zm3.8-3.5l2.3 6.8 2.3-6.8H27l-3 8.4h-1.5l-3.1-8.4H21zm12.5.3c.6.2 1 .6 1.3 1l.6 1.5.1 1.9h-6.1c0 .8.2 1.5.6 2 .4.5 1 .8 1.7.8a2.3 2.3 0 0 0 2.3-1.7h1.4c0 .3-.2.6-.4 1l-.7 1-1.5.8-1.2.1c-1 0-2-.4-2.6-1.1-.8-.8-1.1-1.9-1.1-3.2 0-1.4.3-2.5 1-3.3a4 4 0 0 1 3-1.3c.5 0 1 .2 1.6.5zm.6 3.2c0-.6-.2-1-.4-1.4-.4-.7-1-1-2-1a2 2 0 0 0-1.6.7c-.4.4-.7 1-.7 1.7H34zm3.2-6.6h1.4V231h-1.4v-11.5zM46 229c.4-.7.5-1.5.5-2.3 0-.8 0-1.4-.3-2-.4-.7-1.1-1-2-1-1 0-1.6.2-2 .9a5.7 5.7 0 0 0 0 4.6c.4.6 1 .9 2 .9.8 0 1.5-.4 1.8-1zm.9-5.5c.7.7 1.1 1.7 1.1 3.1 0 1.4-.3 2.5-1 3.4-.6.9-1.6 1.3-3 1.3-1.2 0-2-.4-2.8-1.2-.6-.7-1-1.8-1-3.1a5 5 0 0 1 1-3.4 4 4 0 0 1 3-1.2c1 0 2 .3 2.7 1zm8 5.7c.4-.5.6-1.3.6-2.4 0-.7 0-1.3-.3-1.8-.3-.9-1-1.3-2-1.3s-1.6.5-2 1.4a5.8 5.8 0 0 0 0 3.7c.4.8 1 1.3 2 1.3a2 2 0 0 0 1.7-.9zm-5.3-6.5h1.3v1l1-.8a3 3 0 0 1 1.6-.5c1 0 1.8.4 2.5 1.1.6.7 1 1.8 1 3.1 0 1.9-.5 3.2-1.5 4-.6.4-1.3.7-2 .7s-1.3-.2-1.7-.4l-.8-.8v4.2h-1.4v-11.6zm9 0H60v1.1l.9-.9c.4-.3 1-.5 1.6-.5.6 0 1.2.2 1.6.5l.6.9a3 3 0 0 1 1.1-1 3 3 0 0 1 1.4-.4c1.1 0 2 .5 2.3 1.3.2.4.3 1 .3 1.7v5.6h-1.4v-5.8c0-.6-.2-1-.4-1.2a2 2 0 0 0-1-.3 2 2 0 0 0-1.5.6c-.4.4-.6 1-.6 1.8v4.9h-1.4v-5.5c0-.5 0-1-.2-1.2-.2-.4-.6-.6-1.2-.6a2 2 0 0 0-1.5.6c-.4.4-.6 1.2-.6 2.3v4.4h-1.4v-8.4zm18.5.2c.6.2 1 .6 1.3 1l.6 1.5v1.9h-6c0 .8.2 1.5.6 2 .3.5 1 .8 1.7.8a2.3 2.3 0 0 0 2.3-1.7H79c0 .3-.2.6-.4 1l-.7 1-1.6.8-1.1.1c-1 0-2-.4-2.7-1.1-.7-.8-1-1.9-1-3.2 0-1.4.3-2.5 1-3.3a3.8 3.8 0 0 1 4.6-.8zm.5 3.2c0-.6-.1-1-.4-1.4-.3-.7-1-1-1.9-1a2 2 0 0 0-1.6.7c-.5.4-.7 1-.7 1.7h4.6zm3.2-3.5h1.3v1.2c.4-.5.9-.8 1.3-1 .4-.2 1-.4 1.5-.4 1.2 0 2 .5 2.4 1.3.2.4.3 1 .3 2v5.3h-1.4v-5.3c0-.5 0-.9-.2-1.2-.3-.5-.7-.8-1.4-.8l-.8.1c-.4.1-.7.4-1 .7a2 2 0 0 0-.5.9v5.6h-1.5v-8.4zm9.2-2.3h1.4v2.3h1.3v1.2h-1.3v5.4c0 .3.1.5.3.6l.6.1a6.6 6.6 0 0 0 .5 0v1.1l-.6.1h-.5c-.7 0-1.1-.1-1.4-.5-.2-.3-.3-.7-.3-1.3v-5.5h-1.1v-1.2h1v-2.3zm9.3-.2c.3-.5 1-.7 1.9-.7a5 5 0 0 1 .5 0v1.3a11.4 11.4 0 0 0-.5 0c-.4 0-.6 0-.7.3l-.1 1.7h1.3v1h-1.4v7.3H99v-7.2h-1.2v-1.1H99v-1.3c0-.6 0-1 .3-1.3zm5.2 2.5v5.6c0 .4 0 .8.2 1 .2.5.7.8 1.4.8 1 0 1.6-.5 2-1.3l.2-2v-4h1.5v8.3h-1.4v-1.2l-.6.8a3 3 0 0 1-2 .6c-1.2 0-2-.4-2.4-1.2-.3-.4-.4-1-.4-1.7v-5.7h1.5zm7.4 0h1.4v1.2a3.5 3.5 0 0 1 2.7-1.4c1.2 0 2 .5 2.4 1.3.3.4.4 1 .4 2v5.3h-1.5v-5.3c0-.5 0-.9-.2-1.2-.2-.5-.7-.8-1.3-.8l-.9.1c-.4.1-.7.4-1 .7a2 2 0 0 0-.4.9l-.1 1.2v4.4h-1.5v-8.4zm10.4 6.6c.4.6 1 .9 1.8.9a2 2 0 0 0 1.6-.9 4 4 0 0 0 .7-2.4c0-1-.2-1.8-.7-2.3a2 2 0 0 0-1.6-.8c-.7 0-1.3.3-1.7.8-.4.6-.7 1.4-.7 2.4s.2 1.7.6 2.3zm3.2-6.3l.8.8v-4.2h1.4V231h-1.3v-1.2a3 3 0 0 1-1.2 1.2c-.4.2-1 .3-1.5.3-1 0-1.7-.4-2.4-1.2-.7-.8-1-1.8-1-3.1 0-1.2.3-2.3.9-3.2a3 3 0 0 1 2.7-1.3 3 3 0 0 1 1.6.4zm5-.2h1.6v1.7h-1.6v-1.7zm0 6.6h1.6v1.7h-1.6v-1.7zm8.6-6.2V222c1-.1 1.8-.3 2.2-.5.4-.2.7-.8.9-1.6h1V231h-1.4v-8H139zm14.9-1.5a8 8 0 0 1 .7 3.8c0 1.5-.2 2.8-.7 3.8a3.2 3.2 0 0 1-3.2 2.1c-1.3 0-2.3-.6-3-1.7a8 8 0 0 1-.8-4c0-1.2.2-2.3.5-3.2.6-1.7 1.7-2.6 3.3-2.6 1.5 0 2.5.6 3.2 1.8zm-1.4 7.5a8 8 0 0 0 .6-3.7 9 9 0 0 0-.5-3c-.3-1-.9-1.3-1.8-1.3a2 2 0 0 0-1.8 1.1 8 8 0 0 0-.6 3.5c0 1.1.1 2 .4 2.7.4 1 1 1.6 2 1.6a2 2 0 0 0 1.7-1zm15.6-2.7c.6.5.8 1.1.8 1.9 0 .7-.2 1.4-.8 1.9-.5.5-1.1.8-1.9.8a3 3 0 0 1-2-.8c-.5-.5-.7-1.2-.7-2 0-.7.2-1.3.8-1.8.5-.6 1.1-.8 1.9-.8.8 0 1.4.2 2 .8zm-3-6.5h.8l-6.2 11.4h-.9l6.3-11.4zm-5.4 4.1c.3-.3.4-.7.4-1.1 0-.5-.1-.8-.4-1.2-.3-.3-.7-.4-1.2-.4-.4 0-.8.1-1.1.4-.3.3-.5.7-.5 1.2 0 .4.2.8.5 1.1.3.3.7.5 1.1.5.5 0 .9-.2 1.2-.5zm.8-3c.5.5.8 1.1.8 1.9 0 .7-.3 1.4-.8 1.9a3 3 0 0 1-2 .8 2.7 2.7 0 0 1-2.7-2.8c0-.7.3-1.3.8-1.9.5-.5 1.2-.8 2-.8a3 3 0 0 1 1.9.8zm6.8 8.4c.4-.3.5-.7.5-1.1 0-.5-.1-.8-.5-1.2-.3-.3-.7-.4-1.1-.4-.4 0-.8.1-1.1.4-.4.4-.5.7-.5 1.2 0 .4.1.8.5 1.1.3.3.7.5 1.1.5.4 0 .8-.2 1.1-.5zm-36.9 78c.7 0 1.2-.1 1.6-.3.5-.3.8-.8.8-1.5 0-.8-.3-1.3-.9-1.6l-1.5-.2h-2.8v3.6h2.8zm.6 5.3c1 0 1.6-.3 2-.9.2-.3.4-.7.4-1.2 0-.9-.4-1.4-1.1-1.7-.4-.2-1-.3-1.6-.3h-3.1v4h3.4zm-5-10.2h5c1.4 0 2.3.4 2.9 1.2.3.5.5 1 .5 1.7s-.2 1.3-.6 1.7a3 3 0 0 1-1 .7c.6.2 1 .5 1.4.8.5.5.7 1.2.7 2s-.2 1.5-.7 2c-.7 1-1.8 1.4-3.3 1.4h-4.8v-11.5zM142 312c.4-.7.6-1.5.6-2.3 0-.8-.2-1.4-.4-2-.4-.7-1-1-2-1s-1.5.2-2 .9c-.3.7-.5 1.4-.5 2.4 0 .9.2 1.6.6 2.2.4.6 1 .9 1.8.9 1 0 1.6-.4 2-1zm1-5.5c.7.7 1 1.7 1 3.1 0 1.4-.3 2.5-1 3.4-.6.9-1.6 1.3-3 1.3-1.2 0-2-.4-2.8-1.2-.6-.7-1-1.8-1-3.1a5 5 0 0 1 1.1-3.4c.7-.8 1.7-1.2 2.9-1.2 1 0 2 .3 2.7 1zm4.1-.9v5.6c0 .4 0 .8.2 1 .3.5.7.8 1.4.8 1 0 1.7-.5 2-1.3.2-.5.3-1.1.3-2v-4h1.4v8.3H151v-1.2l-.7.8a3 3 0 0 1-2 .6c-1.1 0-2-.4-2.4-1.2a4 4 0 0 1-.3-1.7v-5.7h1.4zm7.5 0h1.3v1.2c.4-.5.9-.8 1.3-1 .4-.2 1-.4 1.5-.4 1.2 0 2 .5 2.4 1.3.2.4.3 1 .3 2v5.3H160v-5.3c0-.5 0-.9-.2-1.2-.3-.5-.7-.8-1.4-.8l-.8.1c-.4.1-.7.4-1 .7a2 2 0 0 0-.5.9v5.6h-1.5v-8.4zm9.2-2.3h1.4v2.3h1.3v1.2h-1.3v5.4c0 .3.1.5.3.6l.5.1a6.6 6.6 0 0 0 .5 0v1.1l-.5.1h-.5c-.7 0-1.1-.1-1.4-.5-.2-.3-.3-.7-.3-1.3v-5.5h-1.2v-1.2h1.2v-2.3zm9.4 2.3h1.5a495 495 0 0 0-2.6 7.2 28 28 0 0 1-1.7 4c-.3.4-.9.6-1.7.6a3.4 3.4 0 0 1-.9 0V316a4.9 4.9 0 0 0 .9.2l.5-.1c.2-.1.3-.2.3-.4l.3-.6.4-.9-3.1-8.6h1.6l2.2 6.8 2.3-6.8zm3.5.1h1.6v1.7h-1.6v-1.7zm0 6.6h1.6v1.7h-1.6v-1.7zm8.4 1a4 4 0 0 1-1-2.7h1.6c0 .7.2 1.2.4 1.5.3.6 1 1 2 1 .7 0 1.3-.3 1.7-.7.5-.4.7-.9.7-1.5 0-.8-.2-1.3-.7-1.6-.5-.3-1.1-.5-2-.5a10.6 10.6 0 0 0-.6 0v-1.2a7 7 0 0 0 .7 0c.6 0 1 0 1.3-.2a1.7 1.7 0 0 0 .3-2.9c-.4-.3-.8-.4-1.4-.4-.9 0-1.5.3-2 1l-.2 1.4h-1.4c0-.8.1-1.6.5-2.1.5-1 1.5-1.6 3-1.6a4 4 0 0 1 2.6.8c.7.5 1 1.2 1 2.2 0 .7-.2 1.2-.6 1.6-.2.3-.5.5-.9.7.6.1 1 .4 1.4.9.3.5.5 1 .5 1.7 0 1-.3 2-1 2.6-.8.7-1.7 1-3 1-1.4 0-2.3-.4-3-1zm20.4-4c.6.6.8 1.2.8 2 0 .7-.2 1.4-.8 1.9-.5.5-1.1.8-1.9.8-.7 0-1.4-.3-2-.8-.5-.5-.7-1.2-.7-2 0-.7.2-1.3.8-1.8.5-.6 1.2-.8 2-.8.7 0 1.3.2 1.8.8zm-3-6.4h.8l-6.2 11.4h-.9l6.3-11.4zM197 307c.3-.3.5-.7.5-1.1 0-.5-.2-.8-.5-1.2-.3-.3-.7-.4-1.2-.4-.4 0-.8.1-1.1.4-.3.3-.5.7-.5 1.2 0 .4.2.8.5 1.1.3.3.7.5 1.1.5.5 0 .9-.2 1.2-.5zm.8-3c.5.5.8 1.1.8 1.9 0 .7-.3 1.4-.8 1.9a3 3 0 0 1-2 .8 2.7 2.7 0 0 1-2.7-2.8c0-.7.3-1.3.8-1.9.5-.5 1.2-.8 2-.8a3 3 0 0 1 1.9.8zm6.8 8.4c.4-.3.5-.7.5-1.1 0-.5-.1-.8-.5-1.2-.3-.3-.6-.4-1-.4-.5 0-1 .1-1.2.4-.4.4-.5.7-.5 1.2 0 .4.1.8.5 1.1.3.3.7.5 1.1.5.5 0 .8-.2 1.1-.5zM47 290.3l-1.6-5-1.9 5h3.6zm-2.5-6.8h1.8l4.2 11.5h-1.7l-1.2-3.4H43l-1.3 3.4h-1.6l4.3-11.5zm8.6 9.7c.4.6 1 .9 1.9.9a2 2 0 0 0 1.6-.9 4 4 0 0 0 .6-2.4c0-1-.2-1.8-.6-2.3a2 2 0 0 0-1.6-.8c-.7 0-1.3.3-1.8.8-.4.6-.6 1.4-.6 2.4s.2 1.7.5 2.3zm3.2-6.3c.3.1.5.4.9.8v-4.2h1.3V295h-1.3v-1.2a3 3 0 0 1-1.1 1.2c-.5.2-1 .3-1.6.3-.9 0-1.7-.4-2.4-1.2-.7-.8-1-1.8-1-3.1a5 5 0 0 1 1-3.2 3 3 0 0 1 2.6-1.3 3 3 0 0 1 1.6.4zm5-.3l2.2 6.8 2.3-6.8h1.6l-3.2 8.4h-1.5l-3-8.4h1.6zm7.3 0H70v8.4h-1.4v-8.3zm0-3H70v1.5h-1.4v-1.6zm4.4 8.8c0 .4.1.8.3 1 .4.5 1 .7 1.9.7.5 0 1 0 1.3-.3.4-.2.6-.6.6-1s-.1-.7-.4-.9l-1.2-.4-1.2-.3c-.7-.1-1.2-.3-1.5-.6-.6-.3-1-.9-1-1.5 0-.8.3-1.5 1-2 .5-.4 1.3-.7 2.2-.7 1.3 0 2.2.4 2.7 1.1.4.5.6 1 .5 1.5H77c0-.3-.1-.6-.3-.8-.3-.4-.9-.6-1.7-.6a2 2 0 0 0-1.2.3 1 1 0 0 0-.4.8c0 .4.2.7.5.9l1 .3.9.3c1 .2 1.7.5 2 .7.6.3.8 1 .8 1.7s-.3 1.4-.8 2c-.6.4-1.4.7-2.6.7-1.2 0-2.1-.3-2.6-.8-.6-.6-.8-1.3-.9-2.1H73zm12.4.6a6 6 0 0 0 .5-2.3c0-.8-.1-1.4-.4-2-.4-.7-1-1-2-1-.9 0-1.5.2-1.9.9-.4.7-.6 1.4-.6 2.4 0 .9.2 1.6.6 2.2.4.6 1 .9 1.9.9.9 0 1.5-.4 1.9-1zm.8-5.5c.8.7 1.2 1.7 1.2 3.1a6 6 0 0 1-1 3.4c-.7.9-1.7 1.3-3 1.3-1.2 0-2.1-.4-2.8-1.2-.7-.7-1-1.8-1-3.1a5 5 0 0 1 1-3.4 4 4 0 0 1 3-1.2c1 0 2 .3 2.7 1zm2.9-.9h1.3v1.5c.1-.3.4-.6.8-1a2 2 0 0 1 1.6-.6h.3v1.5a2.1 2.1 0 0 0-.4 0 2 2 0 0 0-1.6.6c-.4.5-.6 1-.6 1.6v4.8H89v-8.4zm6.1 5.8c0 .4.2.8.4 1 .3.5 1 .7 1.8.7.5 0 1 0 1.4-.3.4-.2.6-.6.6-1s-.2-.7-.5-.9l-1.2-.4-1.1-.3c-.7-.1-1.3-.3-1.6-.6-.6-.3-1-.9-1-1.5 0-.8.4-1.5 1-2 .5-.4 1.3-.7 2.2-.7 1.3 0 2.2.4 2.8 1.1.3.5.5 1 .5 1.5H99c0-.3 0-.6-.3-.8-.3-.4-.9-.6-1.7-.6a2 2 0 0 0-1.2.3 1 1 0 0 0-.4.8c0 .4.2.7.6.9l.9.3 1 .3c1 .2 1.6.5 2 .7.5.3.8 1 .8 1.7s-.3 1.4-.9 2c-.6.4-1.4.7-2.6.7-1.2 0-2.1-.3-2.6-.8-.5-.6-.8-1.3-.8-2.1h1.3zm8-5.7h1.5v1.7h-1.6v-1.7zm0 6.6h1.5v1.7h-1.6v-1.7zm8.1-.8c.4-.7 1-1.4 2-2l1.6-.8a7 7 0 0 0 1.4-1c.4-.5.6-1 .6-1.5a2 2 0 0 0-.6-1.6c-.4-.3-.9-.5-1.5-.5-1 0-1.7.3-2 1a4 4 0 0 0-.4 1.7H111c0-1 .2-1.8.5-2.4.6-1 1.7-1.6 3.3-1.6 1.2 0 2.2.3 2.8 1 .6.7.9 1.5.9 2.3a3 3 0 0 1-1 2.3c-.3.4-1 .8-2 1.4l-1 .6a7 7 0 0 0-1.2.8 3 3 0 0 0-1 1.5h6.1v1.3h-7.7c0-1 .3-1.8.6-2.5zm20.7-2.1c.5.5.8 1.1.8 1.9 0 .7-.3 1.4-.8 1.9a3 3 0 0 1-2 .8 2.7 2.7 0 0 1-2.7-2.8c0-.7.3-1.3.8-1.8.5-.6 1.2-.8 2-.8.7 0 1.3.2 1.9.8zm-3.1-6.5h.9l-6.3 11.4h-.9l6.3-11.4zm-5.4 4.1c.3-.3.5-.7.5-1.1 0-.5-.2-.8-.5-1.2-.3-.3-.7-.4-1.1-.4-.5 0-.9.1-1.2.4-.3.3-.5.7-.5 1.2 0 .4.2.8.5 1.1.3.3.7.5 1.2.5.4 0 .8-.2 1.1-.5zm.8-3c.5.5.8 1.1.8 1.9a2.7 2.7 0 0 1-2.8 2.7 3 3 0 0 1-1.9-.8c-.5-.5-.8-1.2-.8-2 0-.7.3-1.3.8-1.9a3 3 0 0 1 2-.8c.7 0 1.4.3 1.9.8zm6.9 8.4c.3-.3.4-.7.4-1.1 0-.5-.1-.8-.4-1.2-.3-.3-.7-.4-1.2-.4-.4 0-.8.1-1.1.4-.3.4-.5.7-.5 1.2 0 .4.2.8.5 1.1.3.3.7.5 1.1.5.5 0 .9-.2 1.2-.5zm366.4-115.9h1.5V189h-1.5v-11.5zm3.9 3.1h1.3v1.2a3 3 0 0 1 1.3-1c.4-.2 1-.4 1.4-.4 1.2 0 2 .5 2.5 1.3.2.4.3 1 .3 2v5.3h-1.4v-5.3c0-.5-.1-.9-.3-1.2-.2-.5-.7-.8-1.3-.8l-.8.1c-.4.1-.8.4-1 .7a2 2 0 0 0-.5.9l-.1 1.2v4.4h-1.4v-8.4zm9.6 0l2.2 6.8 2.3-6.8h1.6L514 189h-1.5l-3-8.4h1.6zm12.5.3c.5.2 1 .6 1.3 1l.5 1.5.1 1.9h-6c0 .8.1 1.5.5 2s1 .8 1.8.8a2.3 2.3 0 0 0 2.2-1.7h1.4l-.3 1-.7 1-1.6.8-1.2.1c-1 0-1.9-.4-2.6-1.1-.7-.8-1-1.9-1-3.2 0-1.4.3-2.5 1-3.3a3.8 3.8 0 0 1 4.6-.8zm.5 3.2c0-.6-.2-1-.4-1.4-.4-.7-1-1-2-1-.6 0-1.1.2-1.6.7-.4.4-.6 1-.6 1.7h4.6zm4 2.3c0 .4.2.8.4 1 .3.5 1 .7 1.8.7.5 0 1 0 1.4-.3.4-.2.6-.6.6-1s-.2-.7-.5-.9l-1.2-.4-1.1-.3c-.7-.1-1.3-.3-1.6-.6-.6-.3-1-.9-1-1.5 0-.8.4-1.5 1-2 .5-.4 1.3-.7 2.2-.7 1.3 0 2.2.4 2.8 1.1.3.5.5 1 .5 1.5H532c0-.3-.2-.6-.4-.8-.3-.4-.9-.6-1.7-.6a2 2 0 0 0-1.2.3 1 1 0 0 0-.4.8c0 .4.2.7.6.9l.9.3 1 .3c1 .2 1.6.5 2 .7.5.3.8 1 .8 1.7s-.3 1.4-.9 2c-.5.4-1.4.7-2.6.7-1.2 0-2-.3-2.6-.8-.5-.6-.8-1.3-.8-2.1h1.3zm7.5-8.1h1.4v2.3h1.3v1.2H537v5.4c0 .3 0 .5.3.6l.5.1a6.6 6.6 0 0 0 .5 0v1.1l-.5.1h-.6c-.6 0-1-.1-1.3-.5-.2-.3-.3-.7-.3-1.3v-5.5h-1.2v-1.2h1.2v-2.3zm9.4 8.7a6 6 0 0 0 .5-2.3c0-.8-.1-1.4-.4-2-.4-.7-1-1-2-1-.9 0-1.5.2-2 .9-.3.7-.5 1.4-.5 2.4 0 .9.2 1.6.6 2.2.4.6 1 .9 1.8.9 1 0 1.6-.4 2-1zm.8-5.5c.8.7 1.1 1.7 1.1 3.1 0 1.4-.3 2.5-1 3.4-.6.9-1.6 1.3-3 1.3-1.1 0-2-.4-2.7-1.2-.7-.7-1-1.8-1-3.1a5 5 0 0 1 1-3.4c.7-.8 1.7-1.2 2.9-1.2 1 0 2 .3 2.7 1zm2.9-.9h1.3v1.5c.1-.3.4-.6.8-1a2 2 0 0 1 1.6-.6h.3v1.5a2.1 2.1 0 0 0-.4 0 2 2 0 0 0-1.7.6 3 3 0 0 0-.5 1.6v4.8h-1.4v-8.4zm6 5.8c.1.4.2.8.4 1 .4.5 1 .7 1.9.7.5 0 1 0 1.4-.3.3-.2.5-.6.5-1s-.1-.7-.4-.9l-1.2-.4-1.2-.3c-.7-.1-1.2-.3-1.5-.6-.6-.3-1-.9-1-1.5 0-.8.3-1.5 1-2 .5-.4 1.3-.7 2.2-.7 1.3 0 2.2.4 2.7 1.1.4.5.6 1 .6 1.5h-1.4c0-.3-.1-.6-.3-.8-.3-.4-.9-.6-1.7-.6a2 2 0 0 0-1.2.3 1 1 0 0 0-.4.8c0 .4.2.7.5.9l1 .3.9.3c1 .2 1.7.5 2 .7.6.3.8 1 .8 1.7s-.2 1.4-.8 2c-.6.4-1.4.7-2.6.7-1.2 0-2.1-.3-2.6-.8-.6-.6-.8-1.3-.9-2.1h1.4zm8-5.7h1.6v1.7h-1.6v-1.7zm0 6.6h1.6v1.7h-1.6v-1.7zm14.4-8.6c.5.7.7 1.4.7 2h-1.4c0-.4-.2-.7-.4-1-.3-.5-.8-.7-1.5-.7-.8 0-1.4.4-1.9 1-.4.8-.7 1.9-.7 3.2a3 3 0 0 1 2.7-1.4c1 0 1.7.3 2.4 1 .7.5 1 1.4 1 2.6 0 1-.3 2-1 2.7-.6.8-1.5 1.2-2.7 1.2-1 0-2-.4-2.8-1.2-.7-.8-1-2.1-1-4 0-1.4 0-2.6.4-3.6.7-1.8 1.9-2.7 3.6-2.7 1.2 0 2.1.3 2.6 1zm-1 8.6c.3-.5.5-1 .5-1.8a3 3 0 0 0-.5-1.6c-.3-.5-1-.8-1.8-.8-.6 0-1.1.2-1.6.6-.4.4-.7 1-.7 1.8 0 .7.2 1.3.7 1.8.4.5 1 .7 1.7.7s1.3-.2 1.6-.7zm10-7.7a8 8 0 0 1 .8 3.8c0 1.5-.2 2.8-.7 3.8a3.2 3.2 0 0 1-3.2 2.1c-1.3 0-2.3-.6-3-1.7a8 8 0 0 1-.8-4c0-1.2.2-2.3.5-3.2.6-1.7 1.7-2.6 3.3-2.6 1.5 0 2.5.6 3.2 1.8zm-1.3 7.5a8 8 0 0 0 .6-3.7 9 9 0 0 0-.5-3c-.3-1-.9-1.3-1.8-1.3a2 2 0 0 0-1.8 1.1 8 8 0 0 0-.6 3.5c0 1.1.1 2 .4 2.7.4 1 1 1.6 2 1.6a2 2 0 0 0 1.7-1zm15.6-2.7c.6.5.8 1.1.8 1.9 0 .7-.2 1.4-.8 1.9-.5.5-1.1.8-1.9.8-.7 0-1.4-.3-2-.8-.5-.5-.7-1.2-.7-2 0-.7.2-1.3.8-1.8.5-.6 1.2-.8 2-.8.7 0 1.3.2 1.8.8zm-3-6.5h.8l-6.2 11.4h-.9l6.3-11.4zM592 182c.3-.3.5-.7.5-1.1 0-.5-.2-.8-.5-1.2-.3-.3-.7-.4-1.2-.4-.4 0-.8.1-1.1.4-.3.3-.5.7-.5 1.2 0 .4.2.8.5 1.1.3.3.7.5 1.1.5.5 0 .9-.2 1.2-.5zm.8-3c.5.5.8 1.1.8 1.9 0 .7-.3 1.4-.8 1.9a3 3 0 0 1-2 .8 2.7 2.7 0 0 1-2.7-2.8c0-.7.3-1.3.8-1.9.5-.5 1.2-.8 2-.8a3 3 0 0 1 1.9.8zm6.8 8.4c.4-.3.5-.7.5-1.1 0-.5-.1-.8-.5-1.2-.3-.3-.6-.4-1-.4-.5 0-1 .1-1.2.4-.4.4-.5.7-.5 1.2 0 .4.1.8.5 1.1.3.3.7.5 1.1.5.5 0 .8-.2 1.1-.5z" fill="#000"/><path d="M92.2 10.5h8.3V12h-6.8v3.5h6.3v1.3h-6.3v4h7V22h-8.5V10.5zM104 20.7c.3.3.7.4 1 .4.6 0 1-.1 1.5-.4a2 2 0 0 0 1.2-1.8v-1.2c-.2.2-.4.2-.7.3l-.8.2h-.8l-1.2.4c-.4.2-.6.6-.6 1.2 0 .4.1.7.4 1zm3-3.8c.3 0 .5-.1.6-.4l.1-.5c0-.5-.2-.8-.5-1-.3-.3-.8-.4-1.5-.4s-1.2.2-1.5.6a2 2 0 0 0-.4 1h-1.3c0-1 .4-1.8 1-2.2.7-.4 1.4-.6 2.3-.6 1 0 1.8.2 2.4.6.6.4.9 1 .9 1.7V21l.5.1a2.1 2.1 0 0 0 .4 0v1a4 4 0 0 1-.5.2h-.5c-.4 0-.8-.2-1-.5a2 2 0 0 1-.3-.8c-.2.4-.6.7-1.2 1-.5.2-1.1.4-1.8.4s-1.4-.3-1.9-.7c-.5-.5-.7-1-.7-1.8s.2-1.4.7-1.8c.5-.4 1.1-.7 2-.8l2.2-.3zm4.4-3.3h1.4v1.5c0-.3.3-.6.8-1a2 2 0 0 1 1.6-.6h.3V15a2.1 2.1 0 0 0-.5 0 2 2 0 0 0-1.6.6c-.4.5-.6 1-.6 1.6V22h-1.4v-8.4zm5.4-3h1.4V22h-1.4V10.5zm8.7 3h1.6a495 495 0 0 0-2.6 7.2c-.9 2.2-1.4 3.5-1.8 4-.3.4-.9.6-1.7.6a3.4 3.4 0 0 1-.8 0V24a4.9 4.9 0 0 0 .8.2l.6-.1.3-.4.2-.6.4-.9-3-8.6h1.5l2.2 6.8 2.3-6.8zm7.2 0h1.4V22h-1.4v-8.3zm0-3h1.4V12h-1.4v-1.6zm3.6 3h1.3v1.2a3 3 0 0 1 1.3-1c.4-.2.9-.4 1.4-.4 1.2 0 2 .5 2.4 1.3.3.4.4 1 .4 2V22h-1.4v-5.3c0-.5-.1-.9-.3-1.2-.2-.5-.7-.8-1.3-.8l-.8.1c-.4.1-.8.4-1 .7a2 2 0 0 0-.5.9l-.1 1.2V22h-1.4v-8.4zm9.6 0l2.2 6.8 2.3-6.8h1.6l-3.2 8.4h-1.5l-3-8.4h1.6zm12.5.3c.5.2 1 .6 1.3 1l.5 1.5.1 1.9h-6c0 .8.1 1.5.5 2s1 .8 1.8.8a2.3 2.3 0 0 0 2.2-1.7h1.4l-.3 1-.7 1-1.6.8-1.2.1c-1 0-1.9-.4-2.6-1.1a4.8 4.8 0 0 1-1.1-3.2c0-1.4.4-2.5 1.1-3.3a3.8 3.8 0 0 1 4.6-.8zm.5 3.2c0-.6-.2-1-.4-1.4-.4-.7-1-1-2-1-.6 0-1.1.2-1.6.7a3 3 0 0 0-.7 1.7h4.7zm4 2.3c0 .4.2.8.4 1 .3.5 1 .7 1.8.7.5 0 1 0 1.4-.3.4-.2.6-.6.6-1s-.2-.7-.5-.9l-1.2-.4-1.1-.3c-.7-.1-1.3-.3-1.6-.6-.6-.3-1-.9-1-1.5 0-.8.4-1.5 1-2 .5-.4 1.3-.7 2.2-.7 1.3 0 2.2.4 2.8 1.1.3.5.5 1 .5 1.5h-1.3c0-.3-.2-.6-.4-.8-.3-.4-.9-.6-1.7-.6a2 2 0 0 0-1.2.3 1 1 0 0 0-.4.8c0 .4.2.7.6.9l.9.3 1 .3c1 .2 1.6.5 2 .7.5.3.8 1 .8 1.7s-.3 1.4-.9 2c-.6.4-1.4.7-2.6.7-1.2 0-2.1-.3-2.6-.8-.5-.6-.8-1.3-.8-2.1h1.3zm7.5-8.1h1.4v2.3h1.3v1.2h-1.3v5.4c0 .3 0 .5.3.6l.5.1a6.6 6.6 0 0 0 .5 0V22l-.5.1h-.6c-.6 0-1-.1-1.3-.5-.2-.3-.3-.7-.3-1.3v-5.5h-1.2v-1.2h1.2v-2.3zm9.4 8.7a6 6 0 0 0 .5-2.3c0-.8-.2-1.4-.4-2-.4-.7-1-1-2-1s-1.5.2-2 .9c-.3.7-.5 1.4-.5 2.4 0 .9.2 1.6.6 2.2.4.6 1 .9 1.8.9 1 0 1.6-.4 2-1zm.8-5.5c.8.7 1.1 1.7 1.1 3.1 0 1.4-.3 2.5-1 3.4-.6.9-1.6 1.3-3 1.3-1.1 0-2-.4-2.7-1.2-.7-.7-1-1.8-1-3.1a5 5 0 0 1 1-3.4c.7-.8 1.7-1.2 2.9-1.2 1 0 2 .3 2.7 1zm2.9-.9h1.3v1.5c.1-.3.4-.6.8-1a2 2 0 0 1 1.6-.6h.3V15a2.1 2.1 0 0 0-.4 0 2 2 0 0 0-1.7.6c-.4.5-.5 1-.5 1.6V22h-1.4v-8.4zm6 5.8c.1.4.2.8.4 1 .4.5 1 .7 1.9.7.5 0 1 0 1.3-.3.4-.2.6-.6.6-1s-.1-.7-.4-.9l-1.2-.4-1.2-.3c-.7-.1-1.2-.3-1.5-.6-.6-.3-1-.9-1-1.5 0-.8.3-1.5 1-2 .5-.4 1.3-.7 2.2-.7 1.3 0 2.2.4 2.7 1.1.4.5.6 1 .6 1.5h-1.4c0-.3-.1-.6-.3-.8-.3-.4-.9-.6-1.7-.6a2 2 0 0 0-1.2.3 1 1 0 0 0-.4.8c0 .4.2.7.5.9l1 .3.9.3c1 .2 1.7.5 2 .7.6.3.8 1 .8 1.7s-.2 1.4-.8 2c-.6.4-1.4.7-2.6.7-1.2 0-2.1-.3-2.6-.8-.6-.6-.8-1.3-.9-2.1h1.4zm8-5.7h1.6v1.7h-1.6v-1.7zm0 6.6h1.6V22h-1.6v-1.7zm8.6-6.2V13c1-.1 1.8-.3 2.2-.5.4-.2.7-.8.9-1.6h1V22h-1.4v-8H206zm14.9-1.5a8 8 0 0 1 .7 3.8c0 1.5-.2 2.8-.7 3.8a3.2 3.2 0 0 1-3.2 2.1c-1.3 0-2.3-.6-3-1.7a8 8 0 0 1-.8-4c0-1.2.2-2.3.5-3.2.6-1.7 1.7-2.6 3.3-2.6 1.5 0 2.5.6 3.2 1.8zm-1.4 7.5a8 8 0 0 0 .6-3.7 9 9 0 0 0-.5-3c-.3-1-.9-1.3-1.8-1.3a2 2 0 0 0-1.8 1.1 8 8 0 0 0-.6 3.5c0 1.1.1 2 .4 2.7.4 1 1 1.6 2 1.6a2 2 0 0 0 1.7-1zm15.6-2.7c.6.5.8 1.1.8 1.9 0 .7-.2 1.4-.8 1.9-.5.5-1.1.8-1.9.8a3 3 0 0 1-2-.8c-.5-.5-.7-1.2-.7-2 0-.7.2-1.3.8-1.8.5-.6 1.1-.8 1.9-.8.8 0 1.4.2 2 .8zm-3-6.5h.8l-6.2 11.4h-.9l6.3-11.4zm-5.4 4.1c.3-.3.4-.7.4-1.1 0-.5-.1-.8-.4-1.2-.3-.3-.7-.4-1.2-.4-.4 0-.8.1-1.1.4-.3.3-.5.7-.5 1.2 0 .4.2.8.5 1.1.3.3.7.5 1.1.5.5 0 .9-.2 1.2-.5zm.8-3c.5.5.8 1.1.8 1.9 0 .7-.3 1.4-.8 1.9a3 3 0 0 1-2 .8 2.7 2.7 0 0 1-2.7-2.8c0-.7.3-1.3.8-1.9.5-.5 1.2-.8 2-.8a3 3 0 0 1 1.9.8zm6.8 8.4c.4-.3.5-.7.5-1.1 0-.5-.1-.8-.5-1.2-.3-.3-.7-.4-1.1-.4-.4 0-.8.1-1.1.4-.4.4-.5.7-.5 1.2 0 .4.1.8.5 1.1.3.3.7.5 1.1.5.4 0 .8-.2 1.1-.5z" fill-rule="nonzero" fill="#000"/></g></svg>