<?xml version="1.0" encoding="utf-8"?>
<!-- Generator: Adobe Illustrator 17.0.0, SVG Export Plug-In . SVG Version: 6.00 Build 0)  -->
<!DOCTYPE svg PUBLIC "-//W3C//DTD SVG 1.1//EN" "http://www.w3.org/Graphics/SVG/1.1/DTD/svg11.dtd">
<svg version="1.1" id="Layer_1" xmlns="http://www.w3.org/2000/svg" xmlns:xlink="http://www.w3.org/1999/xlink" x="0px" y="0px"
	 width="1061px" height="76px" viewBox="0 0 1061 76" enable-background="new 0 0 1061 76" xml:space="preserve">
<path fill="#2FBAFD" opacity="0.5" d="M1042.91,71.04c-15.37-2.29-29.63-9.59-41.5-19.46c-15.01-12.27-27.53-27.55-44.04-37.95
	C944.2,5.02,928.6,0.68,912.96,0h-10.29c-8.49,0.6-16.98,1.91-25.06,4.65c-14.13,4.71-26.43,13.59-37.28,23.6
	c-13.45,12.33-25.97,26.24-42.4,34.72c-14.11,7.49-30.38,10.02-46.21,9.25c-15.76-0.59-31.34-5.54-44.33-14.53
	c-17.14-11.61-30.04-28.27-46.78-40.38C648.89,8.67,635.09,2.77,620.6,0.94c-3.57-0.45-7.16-0.76-10.75-0.94h-7.91
	c-15.95,0.51-31.87,4.96-45.28,13.73c-16.23,10.29-28.63,25.24-43.33,37.41c-12.56,10.61-27.88,18.22-44.29,20.27
	c-19.34,2.51-39.87,0.21-57.02-9.56c-22.21-12.26-36.93-34.03-58.13-47.68C340.37,5.21,324.31,0.52,308.15,0h-8.46
	c-9.43,0.45-18.88,1.91-27.77,5.15c-11.7,4.12-22.18,11.11-31.52,19.18c-11.42,9.93-21.63,21.24-33.75,30.36
	c-7.06,5.35-14.86,9.75-23.21,12.73c-8.18,2.89-16.82,4.41-25.48,4.81c-16.24,0.8-32.93-1.99-47.26-9.91
	c-16.24-8.76-28.62-22.73-42.13-34.97C58.36,18.06,46.89,9.82,33.79,5.19C25.11,1.99,15.9,0.54,6.7,0H0.33
	C0.24,0.12,0.08,0.37,0,0.49v2.72c2.95,0.63,5.98,0.51,8.98,0.73C23.2,4.7,37.21,9.13,49.19,16.86
	c18.68,11.9,32.2,30.05,50.27,42.74c14.33,10.42,31.88,15.99,49.56,16.4h8.7c9.37-0.56,18.73-2.1,27.57-5.34
	c8.89-3.23,17.12-8.1,24.61-13.85c14.04-10.8,25.57-24.49,39.68-35.21c11.53-8.87,25.23-15.03,39.7-16.94
	c21.5-3.02,44.5,0.39,62.76,12.65c16.06,10.47,28.36,25.47,43.18,37.47c8.95,7.26,19,13.32,30.02,16.85
	c8.04,2.67,16.49,3.87,24.93,4.37h9.89c8.78-0.55,17.57-1.88,25.89-4.83c11.69-3.94,22.15-10.82,31.53-18.73
	c15.27-13.02,28.36-28.95,46.22-38.65c17.16-9.52,37.55-11.76,56.78-9.14c13.33,1.81,26.08,7.05,36.99,14.89
	c17.22,12.24,30.36,29.33,47.9,41.17c13.23,9.18,29.04,14.31,45.09,15.16c0.57,0.04,1.7,0.1,2.27,0.13h8.6
	c15.86-0.52,31.66-4.97,44.99-13.67c18.15-11.41,31.43-28.74,48.55-41.46c6.96-5.17,14.6-9.45,22.79-12.35
	C893.13,3.17,910,2.48,926.08,5.2c14.44,2.45,27.84,9.34,39.13,18.55c15.13,12.14,27.58,27.48,43.99,38.05
	c13.16,8.82,28.83,13.4,44.59,14.2h6.91c0.07-0.12,0.22-0.36,0.3-0.47v-2.75C1055,71.91,1048.88,72.23,1042.91,71.04z"/>
</svg>
