<svg width="195" height="34" viewBox="0 0 195 34" xmlns="http://www.w3.org/2000/svg"><title>Page 1 Copy 2</title><g fill="none" fill-rule="evenodd"><path d="M191 33.7H19.3a1.4 1.4 0 0 1-1-.4L0 16.7 18.3.4c.3-.2.6-.4 1-.4H191a4 4 0 0 1 2.8 1 3.7 3.7 0 0 1 1.2 2.7v26a4 4 0 0 1-4 4z" fill="#3C3C3B"/><path d="M27 6.4V9h2.6l4.9 9.9c.3.4 1 2 2 1.8h9.8a2.4 2.4 0 0 0 2.2-1.3l4.8-8.4c.2-.2.3-.5.3-.7a1.1 1.1 0 0 0-1-1.3h-20l-1.1-2.6h-4.6zm13.4 18.2c0 1.7-.9 2.6-2.7 2.6-1.8 0-2.7-.9-2.7-2.6 0-1.7 1-2.6 2.7-2.6 1.8 0 2.7.9 2.7 2.6zm8.1 0c0 1.7-.9 2.6-2.7 2.6-1.8 0-2.7-.9-2.7-2.6 0-1.7 1-2.6 2.7-2.6 1.8 0 2.7.9 2.7 2.6zm13.6-5.4c.9 0 1.8.4 2.4 1a5.1 5.1 0 0 0 2.2 1.2.8.8 0 0 0 .7-.2.7.7 0 0 0 .2-.7 1 1 0 0 0-.5-.8 31.5 31.5 0 0 0-3-1.1c-3.1-1-4.6-3-4.6-5.7-.1-2 .8-3.8 2.4-5A8.4 8.4 0 0 1 67 6.4a8.7 8.7 0 0 1 4.7 1.2c1.2.6 2 1.8 2 3.1a2.7 2.7 0 0 1-.8 2c-.5.5-1.2.8-2 .8a4.8 4.8 0 0 1-2.7-1.2 2.9 2.9 0 0 0-1.5-.7.7.7 0 0 0-.6.2.7.7 0 0 0-.2.6c0 .5.7 1 2 1.3a13.3 13.3 0 0 1 4.4 2.1 5.6 5.6 0 0 1 2.1 4.6 6 6 0 0 1-2.3 5.1 8.9 8.9 0 0 1-5.6 1.7 9 9 0 0 1-5.8-1.7c-1.1-.8-1.8-2-1.8-3.3a2.8 2.8 0 0 1 .9-2.1 3.2 3.2 0 0 1 2.2-.9zM80.3 13h-1.8a3.9 3.9 0 0 1-2.5-.8 2.8 2.8 0 0 1-1-2.3 3 3 0 0 1 .5-1.6c.3-.5.7-.8 1.2-1 1.2-.4 2.5-.5 3.7-.4h7c1 0 2.1 0 3.2.3a2.8 2.8 0 0 1 1.3 1c.4.6.5 1.1.5 1.7a3 3 0 0 1-1 2.4 4 4 0 0 1-2.7.7H87v10a5 5 0 0 1-.5 2.4 3 3 0 0 1-2.9 1.5 3.3 3.3 0 0 1-2.8-1.3 4.3 4.3 0 0 1-.6-2.6V13zm23-6.6a10.7 10.7 0 0 1 5.7 1.5 10.6 10.6 0 0 1 4 4.3 10 10 0 0 1-.2 9.7 11 11 0 0 1-9.6 5.4 11 11 0 0 1-9.7-5.8 10.5 10.5 0 0 1-1-4.9c0-1.4.2-2.9.9-4.2a10.3 10.3 0 0 1 4-4.4 11.2 11.2 0 0 1 5.8-1.6zM129.7 19l1.6 2.5c.4.6.7 1.3.7 2.1a3 3 0 0 1-1 2.3c-.7.6-1.6 1-2.5.9-1.1 0-2.2-.5-2.8-1.5l-2.8-4.5v2.7a3.2 3.2 0 0 1-1 2.3 3.2 3.2 0 0 1-2.3 1 3.1 3.1 0 0 1-2.7-1.2 4.5 4.5 0 0 1-.8-2.8V10.7c0-2.5 1.4-3.8 4.2-3.8h4.3c1.4 0 2.8.4 4 1.2a7 7 0 0 1 2.7 3 7 7 0 0 1 .7 3 7.4 7.4 0 0 1-2.3 5zm11.4-8.3V23a4 4 0 0 1-.8 2.6 3.1 3.1 0 0 1-2.6 1.2 3.4 3.4 0 0 1-2.5-1.1 3.8 3.8 0 0 1-.9-2.7V10.8a4.3 4.3 0 0 1 .9-3 3.5 3.5 0 0 1 2.5-1c1 0 1.9.4 2.5 1 .7.9 1 2 1 3zM14 13.8a3 3 0 0 1 3.1 3 3 3 0 0 1-3 3.1 3 3 0 0 1-3.2-3 3 3 0 0 1 3.1-3.1zM164.1 21a3.8 3.8 0 0 1 1.6 2.9 3.2 3.2 0 0 1-1.2 2.6 3.2 3.2 0 0 1-2.1.7 4.6 4.6 0 0 1-3-1.3 11.7 11.7 0 0 1-5.2 1.3c-6 0-10.9-4.7-10.9-10.5a10 10 0 0 1 1.8-5.6 10.4 10.4 0 0 1 4.7-4 11.5 11.5 0 0 1 4.4-.8c2.7 0 5.3.9 7.3 2.6a9.9 9.9 0 0 1 3.7 7.7 10.5 10.5 0 0 1-1.1 4.4zm10.2 3a5.7 5.7 0 0 1-1 1.7 3.3 3.3 0 0 1-2.4 1 3 3 0 0 1-2.8-1.3c-.4-.6-.6-1.2-.6-1.9 0-.6.1-1.2.4-1.7l6.4-13.2c.5-1.2 1.8-2 3.2-2 1.4 0 2.6.8 3.2 2l6.5 13.4c.2.5.4 1 .4 1.5a3 3 0 0 1-.8 2.1A3.3 3.3 0 0 1 184 27c-.8 0-1.6-.3-2.2-.8a6.3 6.3 0 0 1-1.3-2h-6.3z" fill="#FFF"/></g></svg>