<svg xmlns="http://www.w3.org/2000/svg" xmlns:xlink="http://www.w3.org/1999/xlink" viewBox="7278 545.109 65.059 26.034">
  <defs>
    <style>
      .cls-1 {
        fill: url(#linear-gradient);
      }

      .cls-2 {
        fill: url(#linear-gradient-2);
      }

      .cls-3 {
        fill: url(#linear-gradient-3);
      }
    </style>
    <linearGradient id="linear-gradient" x1="0.208" y1="-0.034" x2="1.592" y2="2.629" gradientUnits="objectBoundingBox">
      <stop offset="0" stop-color="#2fbafd"/>
      <stop offset="1" stop-color="#44cfcc"/>
    </linearGradient>
    <linearGradient id="linear-gradient-2" x1="0.259" y1="-0.364" x2="1.487" y2="2.422" xlink:href="#linear-gradient"/>
    <linearGradient id="linear-gradient-3" x1="0.092" y1="-0.574" x2="1.078" y2="2.09" xlink:href="#linear-gradient"/>
  </defs>
  <g id="Group_8" data-name="Group 8" transform="translate(7278 545.115)">
    <path id="Path_7" data-name="Path 7" class="cls-1" d="M9.923,26.019H9.467A10.925,10.925,0,0,1,2.43,23.792,5.752,5.752,0,0,1,0,19.235,4.324,4.324,0,0,1,1.316,16.1a4.412,4.412,0,0,1,2.531-1.215A7.256,7.256,0,0,1,.506,8.553,8.08,8.08,0,0,1,3.645,2.022,10.554,10.554,0,0,1,10.075,0,10.377,10.377,0,0,1,15.8,1.566,5.268,5.268,0,0,1,18.53,6.072a4.039,4.039,0,0,1-1.114,2.936,3.856,3.856,0,0,1-2.126,1.164l1.367.911.051.051a7.688,7.688,0,0,1,2.683,6.126A8.2,8.2,0,0,1,16.4,23.893,11.031,11.031,0,0,1,9.923,26.019Zm-.456-2.025h0a8.809,8.809,0,0,0,5.721-1.721,6.146,6.146,0,0,0,2.228-5.012v-.1a5.63,5.63,0,0,0-1.924-4.506,14.137,14.137,0,0,0-4.556-2.228c-.81-.253-2.987-.81-3.038-2.379a1.744,1.744,0,0,1,.557-1.468,1.814,1.814,0,0,1,1.569-.506A4.406,4.406,0,0,1,12.2,7.135a4.029,4.029,0,0,0,2.481,1.013,1.956,1.956,0,0,0,1.367-.557,1.907,1.907,0,0,0,.557-1.519,3.2,3.2,0,0,0-1.671-2.784l-.051-.051a9.52,9.52,0,0,0-4.759-1.215h-.1A8.394,8.394,0,0,0,4.81,3.642,5.7,5.7,0,0,0,2.531,8.5c0,2.784,1.468,4.607,4.4,5.62a29.067,29.067,0,0,1,3.493,1.316l.1.051a2.126,2.126,0,0,1,1.114,1.721,2.057,2.057,0,0,1-.506,1.519,1.952,1.952,0,0,1-1.569.557l-.152-.051a7.1,7.1,0,0,1-2.886-1.62,3.47,3.47,0,0,0-2.076-.861h0a2.411,2.411,0,0,0-1.721.709,2.268,2.268,0,0,0-.709,1.62,3.683,3.683,0,0,0,1.62,2.987,8.7,8.7,0,0,0,5.822,1.924Z"/>
    <path id="Path_8" data-name="Path 8" class="cls-2" d="M46.23,25.977a4.8,4.8,0,0,1-3.8-1.873l-.051-.1a5.721,5.721,0,0,1-.861-3.493V10.131H40.509a5.394,5.394,0,0,1-3.443-1.114A4.244,4.244,0,0,1,35.5,5.625a4.946,4.946,0,0,1,.658-2.379,4.662,4.662,0,0,1,1.924-1.62l.2-.051a14.785,14.785,0,0,1,4.455-.405h7.746a13.4,13.4,0,0,1,4,.354l.1.051a3.885,3.885,0,0,1,2.025,1.671,4.894,4.894,0,0,1,.759,2.379A4.643,4.643,0,0,1,55.7,9.169l-.051.051a5.35,5.35,0,0,1-3.595,1.013h-.709V20.458a5.961,5.961,0,0,1-.81,3.341,4.562,4.562,0,0,1-4.05,2.228A.456.456,0,0,0,46.23,25.977ZM44.1,22.939a2.63,2.63,0,0,0,2.278,1.013h.1a2.465,2.465,0,0,0,2.278-1.215,4.318,4.318,0,0,0,.506-2.278V8.156h2.886a3.607,3.607,0,0,0,2.278-.608,2.67,2.67,0,0,0,.911-1.924,2.509,2.509,0,0,0-.405-1.316,2.377,2.377,0,0,0-1.013-.861,12.46,12.46,0,0,0-3.341-.3h-7.9a13.6,13.6,0,0,0-3.8.3,2.351,2.351,0,0,0-.911.81,2.078,2.078,0,0,0-.354,1.316v.051a1.958,1.958,0,0,0,.81,1.721A3.224,3.224,0,0,0,40.56,8h3.088v12.5A3.592,3.592,0,0,0,44.1,22.939Z" transform="translate(-17.525 -0.565)"/>
    <path id="Path_9" data-name="Path 9" class="cls-3" d="M97.178,26.021h-.1a6.293,6.293,0,0,1-3.392-1.367,13.969,13.969,0,0,1-5.721,1.367A13.16,13.16,0,0,1,74.7,13.01a12.322,12.322,0,0,1,2.177-7.088A12.661,12.661,0,0,1,82.6,1.112,15.225,15.225,0,0,1,88.015,0a13.287,13.287,0,0,1,8.809,3.19,12.182,12.182,0,0,1,3.493,14.327,5.388,5.388,0,0,1,1.62,3.544,4.663,4.663,0,0,1-1.721,3.8A4.561,4.561,0,0,1,97.178,26.021ZM94.04,22.173l.557.557A4.06,4.06,0,0,0,97.178,24a2.331,2.331,0,0,0,1.671-.658,2.7,2.7,0,0,0,1.013-2.177,3.513,3.513,0,0,0-1.418-2.531l-.709-.506.354-.759A10.985,10.985,0,0,0,99.2,12.807a10.167,10.167,0,0,0-3.8-8.1,11.053,11.053,0,0,0-7.493-2.734,11.871,11.871,0,0,0-4.607.911,11.041,11.041,0,0,0-4.81,4.05,10.512,10.512,0,0,0-1.823,5.974A11.205,11.205,0,0,0,87.914,23.945a12.048,12.048,0,0,0,5.417-1.468Z" transform="translate(-36.882 -0.002)"/>
  </g>
</svg>
