<?xml version="1.0" encoding="utf-8"?>
<!-- Generator: Adobe Illustrator 22.0.1, SVG Export Plug-In . SVG Version: 6.00 Build 0)  -->
<svg version="1.1" id="Layer_1" xmlns="http://www.w3.org/2000/svg" xmlns:xlink="http://www.w3.org/1999/xlink" x="0px" y="0px"
	 viewBox="0 0 1117 571" enable-background="new 0 0 1117 571" xml:space="preserve">
<pattern  y="571" width="3732.7" height="1910.1" patternUnits="userSpaceOnUse" id="Unnamed_Pattern" viewBox="0 -1910.1 3732.7 1910.1" overflow="visible">
	<g>
		<rect y="-1910.1" fill="none" width="3732.7" height="1910.1"/>
		<g>
			<defs>
				<rect id="SVGID_1_" x="3202.7" y="-1066.3" width="530" height="1040"/>
			</defs>
			<clipPath id="SVGID_2_">
				<use xlink:href="#SVGID_1_"  overflow="visible"/>
			</clipPath>
			<g clip-path="url(#SVGID_2_)">
				
					<image overflow="visible" width="530" height="1040" xlink:href="2EE1375F346D73F6.png"  transform="matrix(1 0 0 1 3202.6853 -1066.2977)">
				</image>
			</g>
		</g>
		<rect y="-1910.1" opacity="0" width="3202.7" height="843.8"/>
		<rect y="-26.3" opacity="0" width="3202.7" height="26.3"/>
		<g>
			<defs>
				<rect id="SVGID_3_" y="-1066.3" width="3202.7" height="1040"/>
			</defs>
			<clipPath id="SVGID_4_">
				<use xlink:href="#SVGID_3_"  overflow="visible"/>
			</clipPath>
			<g transform="matrix(1 0 0 1 0 0)" clip-path="url(#SVGID_4_)">
				
					<image overflow="visible" width="1" height="1040" xlink:href="2EE1375F346D73FA.png"  transform="matrix(3202.6853 0 0 1 0 -1066.2977)">
				</image>
			</g>
		</g>
		<g>
			<defs>
				<rect id="SVGID_5_" x="3202.7" y="-1910.1" width="530" height="843.8"/>
			</defs>
			<clipPath id="SVGID_6_">
				<use xlink:href="#SVGID_5_"  overflow="visible"/>
			</clipPath>
			<g clip-path="url(#SVGID_6_)">
				
					<image overflow="visible" width="530" height="1" xlink:href="2EE1375F346D73FD.png"  transform="matrix(1 0 0 843.7847 3202.6853 -1910.0824)">
				</image>
			</g>
		</g>
		<g>
			<defs>
				<rect id="SVGID_7_" x="3202.7" y="-26.3" width="530" height="26.3"/>
			</defs>
			<clipPath id="SVGID_8_">
				<use xlink:href="#SVGID_7_"  overflow="visible"/>
			</clipPath>
			<g clip-path="url(#SVGID_8_)">
				
					<image overflow="visible" width="530" height="1" xlink:href="2EE1375F346D73FE.png"  transform="matrix(1 0 0 26.2977 3202.6853 -26.2977)">
				</image>
			</g>
		</g>
	</g>
</pattern>
<pattern  y="571" width="1353.1" height="691.2" patternUnits="userSpaceOnUse" id="Unnamed_Pattern_2" viewBox="0 -691.2 1353.1 691.2" overflow="visible">
	<g>
		<rect y="-691.2" fill="none" width="1353.1" height="691.2"/>
		<g>
			<defs>
				<rect id="SVGID_9_" x="29.1" y="-691.2" width="1200" height="690"/>
			</defs>
			<clipPath id="SVGID_10_">
				<use xlink:href="#SVGID_9_"  overflow="visible"/>
			</clipPath>
			<g clip-path="url(#SVGID_10_)">
				
					<image overflow="visible" width="1200" height="690" xlink:href="2EE1375F346D73FC.png"  transform="matrix(1 0 0 1 29.0718 -691.1813)">
				</image>
			</g>
		</g>
		<rect x="1229.1" y="-1.2" opacity="0" width="124" height="1.2"/>
		<rect y="-1.2" opacity="0" width="29.1" height="1.2"/>
		<g>
			<defs>
				<rect id="SVGID_11_" y="-691.2" width="29.1" height="690"/>
			</defs>
			<clipPath id="SVGID_12_">
				<use xlink:href="#SVGID_11_"  overflow="visible"/>
			</clipPath>
			<g clip-path="url(#SVGID_12_)">
				
					<image overflow="visible" width="1" height="690" xlink:href="2EE1375F346D73FB.png"  transform="matrix(29.0718 0 0 1 0 -691.1813)">
				</image>
			</g>
		</g>
		<g>
			<defs>
				<rect id="SVGID_13_" x="1229.1" y="-691.2" width="124" height="690"/>
			</defs>
			<clipPath id="SVGID_14_">
				<use xlink:href="#SVGID_13_"  overflow="visible"/>
			</clipPath>
			<g clip-path="url(#SVGID_14_)">
				
					<image overflow="visible" width="1" height="690" xlink:href="2EE1375F346D73F5.png"  transform="matrix(123.9783 0 0 1 1229.0718 -691.1813)">
				</image>
			</g>
		</g>
		<g>
			<defs>
				<rect id="SVGID_15_" x="29.1" y="-1.2" width="1200" height="1.2"/>
			</defs>
			<clipPath id="SVGID_16_">
				<use xlink:href="#SVGID_15_"  overflow="visible"/>
			</clipPath>
			<g clip-path="url(#SVGID_16_)">
				
					<image overflow="visible" width="1200" height="1" xlink:href="2EE1375F346D73F7.png"  transform="matrix(1 0 0 1.1813 29.0718 -1.1813)">
				</image>
			</g>
		</g>
	</g>
</pattern>
<g>
	<path fill="#FFFFFF" d="M997.7,177.6c0,0.9-0.3,1.6-1,2.1c-0.6,0.5-1.5,0.7-2.6,0.7c-1.2,0-2.1-0.2-2.7-0.5v-1.1
		c0.4,0.2,0.9,0.3,1.3,0.4c0.5,0.1,1,0.2,1.4,0.2c0.8,0,1.4-0.1,1.8-0.4c0.4-0.3,0.6-0.7,0.6-1.2c0-0.3-0.1-0.6-0.2-0.9
		c-0.1-0.2-0.4-0.4-0.7-0.6s-0.8-0.4-1.5-0.6c-0.9-0.3-1.6-0.7-2-1.2s-0.6-1.1-0.6-1.8c0-0.8,0.3-1.4,0.9-1.8
		c0.6-0.5,1.3-0.7,2.3-0.7c1,0,1.9,0.2,2.7,0.5l-0.4,1c-0.8-0.3-1.6-0.5-2.4-0.5c-0.6,0-1.1,0.1-1.4,0.4c-0.3,0.3-0.5,0.6-0.5,1.1
		c0,0.3,0.1,0.6,0.2,0.9c0.1,0.2,0.3,0.4,0.6,0.6c0.3,0.2,0.8,0.4,1.4,0.6c1,0.4,1.8,0.8,2.2,1.2S997.7,176.9,997.7,177.6z"/>
	<path fill="#FFFFFF" d="M1002.8,180.4c-1.1,0-2-0.3-2.6-1s-1-1.6-1-2.8c0-1.2,0.3-2.2,0.9-2.9s1.4-1.1,2.4-1.1
		c0.9,0,1.7,0.3,2.2,0.9c0.5,0.6,0.8,1.4,0.8,2.4v0.7h-5.2c0,0.9,0.2,1.5,0.7,2s1,0.7,1.8,0.7c0.8,0,1.6-0.2,2.4-0.5v1
		c-0.4,0.2-0.8,0.3-1.1,0.4C1003.7,180.3,1003.3,180.4,1002.8,180.4z M1002.5,173.5c-0.6,0-1.1,0.2-1.4,0.6s-0.6,0.9-0.6,1.6h3.9
		c0-0.7-0.2-1.3-0.5-1.6C1003.5,173.7,1003.1,173.5,1002.5,173.5z"/>
	<path fill="#FFFFFF" d="M1008.6,180.2h-1.1v-10.6h1.1V180.2z"/>
	<path fill="#FFFFFF" d="M1012.1,180.2h-1.1v-10.6h1.1V180.2z"/>
	<path fill="#FFFFFF" d="M1017.7,180.4c-1.1,0-2-0.3-2.6-1s-1-1.6-1-2.8c0-1.2,0.3-2.2,0.9-2.9s1.4-1.1,2.4-1.1
		c0.9,0,1.7,0.3,2.2,0.9c0.5,0.6,0.8,1.4,0.8,2.4v0.7h-5.2c0,0.9,0.2,1.5,0.7,2s1,0.7,1.8,0.7c0.8,0,1.6-0.2,2.4-0.5v1
		c-0.4,0.2-0.8,0.3-1.1,0.4C1018.7,180.3,1018.2,180.4,1017.7,180.4z M1017.4,173.5c-0.6,0-1.1,0.2-1.4,0.6s-0.6,0.9-0.6,1.6h3.9
		c0-0.7-0.2-1.3-0.5-1.6C1018.5,173.7,1018,173.5,1017.4,173.5z"/>
	<path fill="#FFFFFF" d="M1025.8,172.6c0.3,0,0.6,0,0.9,0.1l-0.2,1.1c-0.3-0.1-0.6-0.1-0.8-0.1c-0.6,0-1.1,0.2-1.6,0.7
		s-0.6,1.1-0.6,1.8v4h-1.1v-7.5h0.9l0.1,1.4h0.1c0.3-0.5,0.6-0.9,1-1.1C1024.9,172.7,1025.4,172.6,1025.8,172.6z"/>
	<path fill="#FFFFFF" d="M1033,178.2c0,0.7-0.3,1.2-0.8,1.6s-1.2,0.6-2.2,0.6c-1,0-1.8-0.2-2.3-0.5v-1.1c0.4,0.2,0.7,0.3,1.2,0.4
		s0.8,0.2,1.2,0.2c0.6,0,1-0.1,1.4-0.3c0.3-0.2,0.5-0.5,0.5-0.9c0-0.3-0.1-0.5-0.4-0.7c-0.3-0.2-0.7-0.5-1.5-0.7
		c-0.7-0.3-1.2-0.5-1.5-0.7c-0.3-0.2-0.5-0.4-0.7-0.7s-0.2-0.5-0.2-0.9c0-0.6,0.2-1.1,0.7-1.4c0.5-0.4,1.2-0.5,2-0.5
		c0.8,0,1.6,0.2,2.4,0.5l-0.4,0.9c-0.8-0.3-1.4-0.5-2-0.5c-0.5,0-0.9,0.1-1.2,0.3s-0.4,0.4-0.4,0.7c0,0.2,0.1,0.4,0.2,0.5
		s0.3,0.3,0.5,0.4c0.2,0.1,0.7,0.3,1.3,0.6c0.9,0.3,1.5,0.6,1.8,1S1033,177.7,1033,178.2z"/>
</g>
<g>
	<g>
		<defs>
			<path id="SVGID_17_" d="M1035.6,155.5h-19c-0.4,0-0.8-0.3-0.9-0.7l-4.9-16.8h-2.6c-0.5,0-1-0.4-1-1c0-0.5,0.4-1,1-1h3.3
				c0.4,0,0.8,0.3,0.9,0.7l5,16.8h17.5c0,0,2-10.7,2.1-11.1c0.2-1,0.2-1.9,1.1-1.9c0.3,0,0.6,0.1,0.7,0.3c0.2,0.2,0.3,0.5,0.2,0.8
				l-2.4,13C1036.4,155.2,1036.1,155.5,1035.6,155.5z"/>
		</defs>
		<clipPath id="SVGID_18_">
			<use xlink:href="#SVGID_17_"  overflow="visible"/>
		</clipPath>
		<g clip-path="url(#SVGID_18_)">
			
				<image overflow="visible" width="134" height="82" xlink:href="2EE1375F346D73F6.jpg"  transform="matrix(0.24 0 0 0.24 1007.04 135.88)">
			</image>
		</g>
	</g>
</g>
<g>
	<g>
		<defs>
			<path id="SVGID_19_" d="M1020.1,159.7c-0.7,0-1.3,0.6-1.3,1.3c0,0.7,0.6,1.3,1.3,1.3s1.3-0.6,1.3-1.3
				C1021.4,160.3,1020.8,159.7,1020.1,159.7z M1020.1,164.2c-1.8,0-3.2-1.4-3.2-3.2c0-1.8,1.4-3.2,3.2-3.2s3.2,1.4,3.2,3.2
				C1023.3,162.8,1021.9,164.2,1020.1,164.2z"/>
		</defs>
		<clipPath id="SVGID_20_">
			<use xlink:href="#SVGID_19_"  overflow="visible"/>
		</clipPath>
		<g transform="matrix(1 0 0 1 6.103516e-05 0)" clip-path="url(#SVGID_20_)">
			
				<image overflow="visible" width="28" height="28" xlink:href="C68D00C293D1C2E9.jpg"  transform="matrix(0.24 0 0 0.24 1016.64 157.72)">
			</image>
		</g>
	</g>
</g>
<g>
	<g>
		<defs>
			<path id="SVGID_21_" d="M1031.4,159.7c-0.7,0-1.3,0.6-1.3,1.3c0,0.7,0.6,1.3,1.3,1.3s1.3-0.6,1.3-1.3
				C1032.7,160.3,1032.1,159.7,1031.4,159.7z M1031.4,164.2c-1.8,0-3.2-1.4-3.2-3.2c0-1.8,1.4-3.2,3.2-3.2s3.2,1.4,3.2,3.2
				C1034.6,162.8,1033.2,164.2,1031.4,164.2z"/>
		</defs>
		<clipPath id="SVGID_22_">
			<use xlink:href="#SVGID_21_"  overflow="visible"/>
		</clipPath>
		<g clip-path="url(#SVGID_22_)">
			
				<image overflow="visible" width="27" height="28" xlink:href="C68D00C293D1C2EF.jpg"  transform="matrix(0.24 0 0 0.24 1028.16 157.72)">
			</image>
		</g>
	</g>
</g>
<g>
	<g>
		<defs>
			<path id="SVGID_23_" d="M1031.4,159.7h-11.3c-0.5,0-1-0.4-1-1c0-0.5,0.4-1,1-1h11.3c0.5,0,1,0.4,1,1S1032,159.7,1031.4,159.7z"/>
		</defs>
		<clipPath id="SVGID_24_">
			<use xlink:href="#SVGID_23_"  overflow="visible"/>
		</clipPath>
		<g clip-path="url(#SVGID_24_)">
			
				<image overflow="visible" width="56" height="9" xlink:href="C68D00C293D1C2E8.jpg"  transform="matrix(0.24 0 0 0.24 1019.04 157.72)">
			</image>
		</g>
	</g>
</g>
<g>
	<g>
		<defs>
			<path id="SVGID_25_" d="M1032.8,149h-13.9c-0.5,0-1-0.4-1-1c0-0.5,0.4-1,1-1h13.9c0.5,0,1,0.4,1,1
				C1033.7,148.5,1033.3,149,1032.8,149z"/>
		</defs>
		<clipPath id="SVGID_26_">
			<use xlink:href="#SVGID_25_"  overflow="visible"/>
		</clipPath>
		<g transform="matrix(1 0 0 1 6.103516e-05 0)" clip-path="url(#SVGID_26_)">
			
				<image overflow="visible" width="67" height="9" xlink:href="C68D00C293D1C2EB.jpg"  transform="matrix(0.24 0 0 0.24 1017.84 146.92)">
			</image>
		</g>
	</g>
</g>
<line fill="none" stroke="#2FBAFD" stroke-width="2" stroke-linecap="round" stroke-miterlimit="10" x1="1026" y1="128.8" x2="1026" y2="141.3"/>
<polyline fill="none" stroke="#2FBAFD" stroke-width="2" stroke-linecap="round" stroke-linejoin="round" stroke-miterlimit="10" points="
	1034.7,136.8 1026,128 1017.2,136.8 "/>
<path fill="#2FBAFD" d="M1004.7,158.1l-0.3,2.5h-4.5v-5.9h-2.4v5.9h-11.7v-5.9h-2.4v5.9H979l-0.3-2.5c-0.4-3,0.3-5.5,1.7-7.6
	c1.8-2.5,5-4.1,8.4-4.1h5.4c3.4,0,6.6,1.5,8.4,4.1C1004.5,152.6,1005.1,155.1,1004.7,158.1z M985.9,136.9c0-3.2,2.6-5.8,5.9-5.8
	s5.9,2.6,5.9,5.8c0,3.3-2.8,7.1-5.9,7.1S985.9,140.2,985.9,136.9z M1004.9,149.1c-1.8-2.5-4.9-4.2-8.2-4.7c2-1.8,3.3-4.7,3.3-7.4
	c0-4.5-3.7-8.2-8.3-8.2s-8.3,3.7-8.3,8.2c0,2.6,1.3,5.5,3.3,7.4c-3.2,0.5-6.1,2.1-8,4.7c-2,2.6-2.6,5.7-2.2,9.4l0.5,4.6h29.5
	l0.5-4.6C1007.5,154.8,1006.9,151.6,1004.9,149.1z"/>
<g>
	<path fill="#FFFFFF" d="M12.5,170.2h2.8c1.3,0,2.3,0.2,2.9,0.6s0.9,1,0.9,1.9c0,0.6-0.2,1.1-0.5,1.5c-0.3,0.4-0.8,0.6-1.4,0.7v0.1
		c1.5,0.3,2.3,1.1,2.3,2.4c0,0.9-0.3,1.6-0.9,2.1s-1.4,0.8-2.5,0.8h-3.5V170.2z M13.7,174.5h1.9c0.8,0,1.4-0.1,1.8-0.4
		c0.4-0.3,0.5-0.7,0.5-1.3c0-0.6-0.2-1-0.6-1.2c-0.4-0.2-1-0.4-1.9-0.4h-1.7V174.5z M13.7,175.5v3.7h2.1c0.8,0,1.4-0.2,1.8-0.5
		c0.4-0.3,0.6-0.8,0.6-1.5c0-0.6-0.2-1.1-0.6-1.4s-1.1-0.4-1.9-0.4H13.7z"/>
	<path fill="#FFFFFF" d="M22.5,172.7v4.9c0,0.6,0.1,1.1,0.4,1.4s0.7,0.5,1.3,0.5c0.8,0,1.4-0.2,1.7-0.6s0.5-1.1,0.5-2.1v-3.9h1.1
		v7.5h-0.9l-0.2-1h-0.1c-0.2,0.4-0.6,0.7-1,0.8s-0.9,0.3-1.4,0.3c-0.9,0-1.6-0.2-2-0.6s-0.7-1.1-0.7-2.1v-4.9H22.5z"/>
	<path fill="#FFFFFF" d="M28.8,172.7H30l1.6,4.3c0.4,1,0.6,1.7,0.7,2.1h0.1c0.1-0.2,0.2-0.6,0.4-1.2c0.2-0.6,0.8-2.3,1.9-5.2h1.2
		l-3.2,8.5c-0.3,0.8-0.7,1.4-1.1,1.8c-0.4,0.4-0.9,0.5-1.6,0.5c-0.3,0-0.7,0-1-0.1v-0.9c0.3,0.1,0.5,0.1,0.8,0.1
		c0.8,0,1.3-0.4,1.7-1.3l0.4-1.1L28.8,172.7z"/>
	<path fill="#FFFFFF" d="M40.2,180.4c-1.1,0-2-0.3-2.6-1s-1-1.6-1-2.8c0-1.2,0.3-2.2,0.9-2.9s1.4-1.1,2.4-1.1c0.9,0,1.7,0.3,2.2,0.9
		c0.5,0.6,0.8,1.4,0.8,2.4v0.7h-5.2c0,0.9,0.2,1.5,0.7,2s1,0.7,1.8,0.7c0.8,0,1.6-0.2,2.4-0.5v1c-0.4,0.2-0.8,0.3-1.1,0.4
		C41.2,180.3,40.7,180.4,40.2,180.4z M39.9,173.5c-0.6,0-1.1,0.2-1.4,0.6s-0.6,0.9-0.6,1.6h3.9c0-0.7-0.2-1.3-0.5-1.6
		C41,173.7,40.5,173.5,39.9,173.5z"/>
	<path fill="#FFFFFF" d="M48.3,172.6c0.3,0,0.6,0,0.9,0.1l-0.2,1.1c-0.3-0.1-0.6-0.1-0.8-0.1c-0.6,0-1.1,0.2-1.6,0.7
		s-0.6,1.1-0.6,1.8v4h-1.1v-7.5h0.9l0.1,1.4H46c0.3-0.5,0.6-0.9,1-1.1S47.9,172.6,48.3,172.6z"/>
	<path fill="#FFFFFF" d="M55.5,178.2c0,0.7-0.3,1.2-0.8,1.6s-1.2,0.6-2.2,0.6c-1,0-1.8-0.2-2.3-0.5v-1.1c0.4,0.2,0.7,0.3,1.2,0.4
		s0.8,0.2,1.2,0.2c0.6,0,1-0.1,1.4-0.3c0.3-0.2,0.5-0.5,0.5-0.9c0-0.3-0.1-0.5-0.4-0.7c-0.3-0.2-0.7-0.5-1.5-0.7
		c-0.7-0.3-1.2-0.5-1.5-0.7c-0.3-0.2-0.5-0.4-0.7-0.7s-0.2-0.5-0.2-0.9c0-0.6,0.2-1.1,0.7-1.4c0.5-0.4,1.2-0.5,2-0.5
		c0.8,0,1.6,0.2,2.4,0.5l-0.4,0.9c-0.8-0.3-1.4-0.5-2-0.5c-0.5,0-0.9,0.1-1.2,0.3s-0.4,0.4-0.4,0.7c0,0.2,0.1,0.4,0.2,0.5
		s0.3,0.3,0.5,0.4s0.7,0.3,1.3,0.6c0.9,0.3,1.5,0.6,1.8,1S55.5,177.7,55.5,178.2z"/>
</g>
<line fill="none" stroke="#2FBAFD" stroke-width="2" stroke-linecap="round" stroke-miterlimit="10" x1="52.5" y1="145.5" x2="52.5" y2="133"/>
<polyline fill="none" stroke="#2FBAFD" stroke-width="2" stroke-linecap="round" stroke-linejoin="round" stroke-miterlimit="10" points="
	43.7,137.5 52.5,146.3 61.3,137.5 "/>
<g>
	<g>
		<defs>
			<path id="SVGID_27_" d="M59.3,128h-14c-0.5,0-1-0.4-1-1c0-0.5,0.4-1,1-1h14c0.5,0,1,0.4,1,1C60.2,127.5,59.8,128,59.3,128z"/>
		</defs>
		<clipPath id="SVGID_28_">
			<use xlink:href="#SVGID_27_"  overflow="visible"/>
		</clipPath>
		<g clip-path="url(#SVGID_28_)">
			
				<image overflow="visible" width="68" height="10" xlink:href="C68D00C293D1C2F7.jpg"  transform="matrix(0.24 0 0 0.24 44.16 125.8)">
			</image>
		</g>
	</g>
</g>
<g>
	<g>
		<defs>
			<path id="SVGID_29_" d="M62.2,155.5H43.1c-0.4,0-0.8-0.3-0.9-0.7L37.2,138h-2.6c-0.5,0-1-0.4-1-1c0-0.5,0.4-1,1-1h3.3
				c0.4,0,0.8,0.3,0.9,0.7l5,16.8h17.6c0,0,2-10.7,2.1-11.1c0.2-1,0.2-1.9,1.1-1.9c0.3,0,0.6,0.1,0.7,0.3c0.2,0.2,0.3,0.5,0.2,0.8
				l-2.4,13C63,155.2,62.7,155.5,62.2,155.5z"/>
		</defs>
		<clipPath id="SVGID_30_">
			<use xlink:href="#SVGID_29_"  overflow="visible"/>
		</clipPath>
		<g clip-path="url(#SVGID_30_)">
			
				<image overflow="visible" width="134" height="82" xlink:href="C68D00C293D1C2E7.jpg"  transform="matrix(0.24 0 0 0.24 33.6 135.88)">
			</image>
		</g>
	</g>
</g>
<g>
	<g>
		<defs>
			<path id="SVGID_31_" d="M46.6,159.7c-0.7,0-1.3,0.6-1.3,1.3c0,0.7,0.6,1.3,1.3,1.3c0.7,0,1.3-0.6,1.3-1.3
				C47.9,160.3,47.3,159.7,46.6,159.7z M46.6,164.2c-1.8,0-3.2-1.4-3.2-3.2c0-1.8,1.4-3.2,3.2-3.2s3.2,1.4,3.2,3.2
				C49.8,162.8,48.4,164.2,46.6,164.2z"/>
		</defs>
		<clipPath id="SVGID_32_">
			<use xlink:href="#SVGID_31_"  overflow="visible"/>
		</clipPath>
		<g clip-path="url(#SVGID_32_)">
			
				<image overflow="visible" width="28" height="28" xlink:href="C68D00C293D1C2F9.jpg"  transform="matrix(0.24 0 0 0.24 43.2 157.72)">
			</image>
		</g>
	</g>
</g>
<g>
	<g>
		<defs>
			<path id="SVGID_33_" d="M57.9,159.7c-0.7,0-1.3,0.6-1.3,1.3c0,0.7,0.6,1.3,1.3,1.3s1.3-0.6,1.3-1.3
				C59.2,160.3,58.6,159.7,57.9,159.7z M57.9,164.2c-1.8,0-3.2-1.4-3.2-3.2c0-1.8,1.4-3.2,3.2-3.2c1.8,0,3.2,1.4,3.2,3.2
				C61.2,162.8,59.7,164.2,57.9,164.2z"/>
		</defs>
		<clipPath id="SVGID_34_">
			<use xlink:href="#SVGID_33_"  overflow="visible"/>
		</clipPath>
		<g clip-path="url(#SVGID_34_)">
			
				<image overflow="visible" width="27" height="28" xlink:href="C68D00C293D1C2FB.jpg"  transform="matrix(0.24 0 0 0.24 54.72 157.72)">
			</image>
		</g>
	</g>
</g>
<g>
	<g>
		<defs>
			<path id="SVGID_35_" d="M57.9,159.7H46.6c-0.5,0-1-0.4-1-1c0-0.5,0.4-1,1-1h11.4c0.5,0,1,0.4,1,1S58.5,159.7,57.9,159.7z"/>
		</defs>
		<clipPath id="SVGID_36_">
			<use xlink:href="#SVGID_35_"  overflow="visible"/>
		</clipPath>
		<g clip-path="url(#SVGID_36_)">
			
				<image overflow="visible" width="57" height="9" xlink:href="C68D00C293D1C2F8.jpg"  transform="matrix(0.24 0 0 0.24 45.36 157.72)">
			</image>
		</g>
	</g>
</g>
<path fill="#2FBAFD" d="M30.2,158.1l-0.3,2.5h-4.5v-5.9h-2.4v5.9H11.3v-5.9H9v5.9H4.5l-0.3-2.5c-0.4-3,0.3-5.5,1.7-7.6
	c1.8-2.5,5-4.1,8.4-4.1h5.4c3.4,0,6.6,1.5,8.4,4.1C29.9,152.6,30.6,155.1,30.2,158.1z M11.3,136.9c0-3.2,2.6-5.8,5.9-5.8
	s5.9,2.6,5.9,5.8c0,3.3-2.8,7.1-5.9,7.1S11.3,140.2,11.3,136.9z M30.3,149.1c-1.8-2.5-4.9-4.2-8.2-4.7c2-1.8,3.3-4.7,3.3-7.4
	c0-4.5-3.7-8.2-8.3-8.2s-8.3,3.7-8.3,8.2c0,2.6,1.3,5.5,3.3,7.4c-3.2,0.5-6.1,2.1-8,4.7c-2,2.6-2.6,5.7-2.2,9.4l0.5,4.6h29.5
	l0.5-4.6C33,154.8,32.3,151.6,30.3,149.1z"/>
<pattern  id="SVGID_37_" xlink:href="#Unnamed_Pattern" patternTransform="matrix(0.2992 0 0 0.2989 3.513098e-04 -1910.0823)">
</pattern>
<rect x="958.4" y="252.2" fill="url(#SVGID_37_)" width="158.6" height="310.9"/>
<pattern  id="SVGID_38_" xlink:href="#Unnamed_Pattern_2" patternTransform="matrix(0.8255 0 0 0.8261 -2.102852e-04 -691.1814)">
</pattern>
<rect x="24" fill="url(#SVGID_38_)" width="990.7" height="570"/>
<g>
	<defs>
		<rect id="SVGID_39_" x="139" y="153" width="330" height="218"/>
	</defs>
	<clipPath id="SVGID_40_">
		<use xlink:href="#SVGID_39_"  overflow="visible"/>
	</clipPath>
	<g clip-path="url(#SVGID_40_)">
		<image overflow="visible" width="330" height="218" xlink:href="C68D00C293D1C2FF.png"  transform="matrix(1 0 0 1 139 153)">
		</image>
	</g>
</g>
<g>
	<defs>
		<rect id="SVGID_41_" x="571" y="153" width="330" height="218"/>
	</defs>
	<clipPath id="SVGID_42_">
		<use xlink:href="#SVGID_41_"  overflow="visible"/>
	</clipPath>
	<g clip-path="url(#SVGID_42_)">
		<image overflow="visible" width="330" height="218" xlink:href="C68D00C293D1C31C.png"  transform="matrix(1 0 0 1 571 153)">
		</image>
	</g>
</g>
<g>
	<path fill="#FFFFFF" d="M234.3,232.9h5.1c2.4,0,4.1,0.3,5.1,1s1.6,1.8,1.6,3.3c0,1-0.3,1.8-0.8,2.5s-1.3,1.1-2.2,1.3v0.1
		c1.2,0.2,2.1,0.7,2.7,1.3s0.8,1.6,0.8,2.7c0,1.5-0.5,2.7-1.6,3.6s-2.6,1.3-4.5,1.3h-6.2V232.9z M237.1,240h2.7c1.2,0,2-0.2,2.6-0.6
		s0.8-1,0.8-1.9c0-0.8-0.3-1.4-0.9-1.7s-1.5-0.5-2.8-0.5h-2.4V240z M237.1,242.2v5.4h3c1.2,0,2.1-0.2,2.7-0.7s0.9-1.2,0.9-2.1
		c0-0.9-0.3-1.6-0.9-2s-1.5-0.6-2.8-0.6H237.1z"/>
	<path fill="#FFFFFF" d="M260.5,250h-11.6v-2.1l4.4-4.4c1.3-1.3,2.2-2.3,2.6-2.8s0.7-1.1,0.9-1.6s0.3-1,0.3-1.6
		c0-0.8-0.2-1.4-0.7-1.8s-1.1-0.7-1.9-0.7c-0.7,0-1.3,0.1-1.9,0.4s-1.3,0.7-2.1,1.3l-1.5-1.8c1-0.8,1.9-1.4,2.8-1.7s1.9-0.5,2.9-0.5
		c1.6,0,2.9,0.4,3.8,1.2s1.4,2,1.4,3.4c0,0.8-0.1,1.5-0.4,2.2s-0.7,1.4-1.3,2.2s-1.5,1.7-2.9,3l-3,2.9v0.1h8.1V250z"/>
	<path fill="#FFFFFF" d="M271.1,235c-1.6,0-2.9,0.6-3.8,1.7s-1.4,2.7-1.4,4.7c0,2.1,0.4,3.7,1.3,4.8s2.2,1.6,3.8,1.6
		c0.7,0,1.4-0.1,2.1-0.2s1.4-0.3,2.1-0.6v2.4c-1.3,0.5-2.9,0.8-4.6,0.8c-2.5,0-4.4-0.8-5.8-2.3s-2-3.7-2-6.5c0-1.8,0.3-3.3,1-4.7
		s1.6-2.4,2.8-3.1s2.7-1.1,4.3-1.1c1.8,0,3.4,0.4,4.9,1.1l-1,2.3c-0.6-0.3-1.2-0.5-1.8-0.7S271.8,235,271.1,235z"/>
	<path fill="#FFFFFF" d="M295.1,245.4c0,1.5-0.6,2.7-1.7,3.6s-2.6,1.3-4.6,1.3s-3.5-0.3-4.8-0.9v-2.6c0.8,0.4,1.6,0.7,2.5,0.9
		s1.7,0.3,2.5,0.3c1.1,0,1.9-0.2,2.5-0.6s0.8-1,0.8-1.7c0-0.6-0.2-1.2-0.7-1.6s-1.5-1-3-1.6c-1.6-0.6-2.7-1.4-3.3-2.2s-1-1.8-1-2.9
		c0-1.4,0.5-2.6,1.5-3.4s2.4-1.2,4.1-1.2c1.6,0,3.3,0.4,4.9,1.1L294,236c-1.5-0.6-2.9-1-4.1-1c-0.9,0-1.6,0.2-2.1,0.6
		s-0.7,0.9-0.7,1.6c0,0.4,0.1,0.8,0.3,1.1s0.5,0.6,0.9,0.9s1.2,0.7,2.3,1.1c1.3,0.5,2.2,1,2.8,1.5s1,1,1.3,1.5
		S295.1,244.6,295.1,245.4z"/>
	<path fill="#FFFFFF" d="M303.8,250.3c-2,0-3.6-0.6-4.7-1.8s-1.7-2.8-1.7-4.9c0-2.1,0.5-3.8,1.6-5s2.5-1.8,4.3-1.8
		c1.7,0,3.1,0.5,4.1,1.6s1.5,2.5,1.5,4.3v1.5h-8.6c0,1.3,0.4,2.2,1,2.9s1.5,1,2.7,1c0.8,0,1.5-0.1,2.1-0.2s1.4-0.4,2.1-0.7v2.2
		c-0.7,0.3-1.4,0.5-2,0.7S304.7,250.3,303.8,250.3z M303.3,238.9c-0.9,0-1.6,0.3-2.1,0.8s-0.8,1.4-0.9,2.4h5.9
		c0-1.1-0.3-1.9-0.8-2.4S304.2,238.9,303.3,238.9z"/>
	<path fill="#FFFFFF" d="M317.2,250.3c-2,0-3.5-0.6-4.5-1.7s-1.5-2.8-1.5-4.9c0-2.2,0.5-3.9,1.6-5s2.6-1.8,4.6-1.8
		c1.4,0,2.6,0.3,3.7,0.8l-0.8,2.2c-1.2-0.5-2.1-0.7-2.9-0.7c-2.2,0-3.4,1.5-3.4,4.5c0,1.5,0.3,2.5,0.8,3.3s1.4,1.1,2.5,1.1
		c1.2,0,2.4-0.3,3.5-0.9v2.4c-0.5,0.3-1,0.5-1.6,0.6S318,250.3,317.2,250.3z"/>
	<path fill="#FFFFFF" d="M328.7,248c0.7,0,1.3-0.1,2-0.3v2.1c-0.3,0.1-0.7,0.2-1.2,0.3s-1,0.1-1.5,0.1c-2.6,0-3.9-1.4-3.9-4.1v-7
		h-1.8v-1.2l1.9-1l0.9-2.7h1.7v2.9h3.7v2.1h-3.7v6.9c0,0.7,0.2,1.2,0.5,1.5S328.2,248,328.7,248z"/>
	<path fill="#FFFFFF" d="M333.1,233.6c0-0.5,0.1-0.9,0.4-1.1s0.7-0.4,1.2-0.4c0.5,0,0.9,0.1,1.1,0.4s0.4,0.6,0.4,1.1
		c0,0.5-0.1,0.8-0.4,1.1s-0.6,0.4-1.1,0.4c-0.5,0-0.9-0.1-1.2-0.4S333.1,234.1,333.1,233.6z M336.1,250h-2.8v-13h2.8V250z"/>
	<path fill="#FFFFFF" d="M351.5,243.5c0,2.1-0.5,3.8-1.6,5s-2.6,1.8-4.5,1.8c-1.2,0-2.3-0.3-3.2-0.8s-1.6-1.3-2.1-2.4
		s-0.8-2.2-0.8-3.6c0-2.1,0.5-3.7,1.6-4.9s2.6-1.8,4.6-1.8c1.9,0,3.4,0.6,4.5,1.8S351.5,241.5,351.5,243.5z M342.1,243.5
		c0,3,1.1,4.5,3.3,4.5c2.2,0,3.3-1.5,3.3-4.5c0-3-1.1-4.4-3.3-4.4c-1.2,0-2,0.4-2.5,1.1S342.1,242.1,342.1,243.5z"/>
	<path fill="#FFFFFF" d="M366.1,250h-2.8v-8c0-1-0.2-1.7-0.6-2.2s-1-0.7-1.9-0.7c-1.2,0-2,0.3-2.6,1s-0.8,1.8-0.8,3.5v6.5h-2.8v-13
		h2.2l0.4,1.7h0.1c0.4-0.6,0.9-1.1,1.7-1.4s1.5-0.5,2.4-0.5c3.1,0,4.7,1.6,4.7,4.7V250z"/>
</g>
<g>
	<path fill="#FFFFFF" d="M666.3,232.9h5.1c2.4,0,4.1,0.3,5.1,1s1.6,1.8,1.6,3.3c0,1-0.3,1.8-0.8,2.5s-1.3,1.1-2.2,1.3v0.1
		c1.2,0.2,2.1,0.7,2.7,1.3s0.8,1.6,0.8,2.7c0,1.5-0.5,2.7-1.6,3.6s-2.6,1.3-4.5,1.3h-6.2V232.9z M669.1,240h2.7c1.2,0,2-0.2,2.6-0.6
		s0.8-1,0.8-1.9c0-0.8-0.3-1.4-0.9-1.7s-1.5-0.5-2.8-0.5h-2.4V240z M669.1,242.2v5.4h3c1.2,0,2.1-0.2,2.7-0.7s0.9-1.2,0.9-2.1
		c0-0.9-0.3-1.6-0.9-2s-1.5-0.6-2.8-0.6H669.1z"/>
	<path fill="#FFFFFF" d="M692.5,250h-11.6v-2.1l4.4-4.4c1.3-1.3,2.2-2.3,2.6-2.8s0.7-1.1,0.9-1.6s0.3-1,0.3-1.6
		c0-0.8-0.2-1.4-0.7-1.8s-1.1-0.7-1.9-0.7c-0.7,0-1.3,0.1-1.9,0.4s-1.3,0.7-2.1,1.3l-1.5-1.8c1-0.8,1.9-1.4,2.8-1.7s1.9-0.5,2.9-0.5
		c1.6,0,2.9,0.4,3.8,1.2s1.4,2,1.4,3.4c0,0.8-0.1,1.5-0.4,2.2s-0.7,1.4-1.3,2.2s-1.5,1.7-2.9,3l-3,2.9v0.1h8.1V250z"/>
	<path fill="#FFFFFF" d="M695.8,232.9h5.1c2.4,0,4.1,0.3,5.1,1s1.6,1.8,1.6,3.3c0,1-0.3,1.8-0.8,2.5s-1.3,1.1-2.2,1.3v0.1
		c1.2,0.2,2.1,0.7,2.7,1.3s0.8,1.6,0.8,2.7c0,1.5-0.5,2.7-1.6,3.6s-2.6,1.3-4.5,1.3h-6.2V232.9z M698.6,240h2.7c1.2,0,2-0.2,2.6-0.6
		s0.8-1,0.8-1.9c0-0.8-0.3-1.4-0.9-1.7s-1.5-0.5-2.8-0.5h-2.4V240z M698.6,242.2v5.4h3c1.2,0,2.1-0.2,2.7-0.7s0.9-1.2,0.9-2.1
		c0-0.9-0.3-1.6-0.9-2s-1.5-0.6-2.8-0.6H698.6z"/>
	<path fill="#FFFFFF" d="M727.8,245.4c0,1.5-0.6,2.7-1.7,3.6s-2.6,1.3-4.6,1.3s-3.5-0.3-4.8-0.9v-2.6c0.8,0.4,1.6,0.7,2.5,0.9
		s1.7,0.3,2.5,0.3c1.1,0,1.9-0.2,2.5-0.6s0.8-1,0.8-1.7c0-0.6-0.2-1.2-0.7-1.6s-1.5-1-3-1.6c-1.6-0.6-2.7-1.4-3.3-2.2s-1-1.8-1-2.9
		c0-1.4,0.5-2.6,1.5-3.4s2.4-1.2,4.1-1.2c1.6,0,3.3,0.4,4.9,1.1l-0.9,2.3c-1.5-0.6-2.9-1-4.1-1c-0.9,0-1.6,0.2-2.1,0.6
		s-0.7,0.9-0.7,1.6c0,0.4,0.1,0.8,0.3,1.1s0.5,0.6,0.9,0.9s1.2,0.7,2.3,1.1c1.3,0.5,2.2,1,2.8,1.5s1,1,1.3,1.5
		S727.8,244.6,727.8,245.4z"/>
	<path fill="#FFFFFF" d="M736.4,250.3c-2,0-3.6-0.6-4.7-1.8s-1.7-2.8-1.7-4.9c0-2.1,0.5-3.8,1.6-5s2.5-1.8,4.3-1.8
		c1.7,0,3.1,0.5,4.1,1.6s1.5,2.5,1.5,4.3v1.5h-8.6c0,1.3,0.4,2.2,1,2.9s1.5,1,2.7,1c0.8,0,1.5-0.1,2.1-0.2s1.4-0.4,2.1-0.7v2.2
		c-0.7,0.3-1.4,0.5-2,0.7S737.3,250.3,736.4,250.3z M735.9,238.9c-0.9,0-1.6,0.3-2.1,0.8s-0.8,1.4-0.9,2.4h5.9
		c0-1.1-0.3-1.9-0.8-2.4S736.8,238.9,735.9,238.9z"/>
	<path fill="#FFFFFF" d="M749.8,250.3c-2,0-3.5-0.6-4.5-1.7s-1.5-2.8-1.5-4.9c0-2.2,0.5-3.9,1.6-5s2.6-1.8,4.6-1.8
		c1.4,0,2.6,0.3,3.7,0.8l-0.8,2.2c-1.2-0.5-2.1-0.7-2.9-0.7c-2.2,0-3.4,1.5-3.4,4.5c0,1.5,0.3,2.5,0.8,3.3s1.4,1.1,2.5,1.1
		c1.2,0,2.4-0.3,3.5-0.9v2.4c-0.5,0.3-1,0.5-1.6,0.6S750.6,250.3,749.8,250.3z"/>
	<path fill="#FFFFFF" d="M761.3,248c0.7,0,1.3-0.1,2-0.3v2.1c-0.3,0.1-0.7,0.2-1.2,0.3s-1,0.1-1.5,0.1c-2.6,0-3.9-1.4-3.9-4.1v-7
		H755v-1.2l1.9-1l0.9-2.7h1.7v2.9h3.7v2.1h-3.7v6.9c0,0.7,0.2,1.2,0.5,1.5S760.8,248,761.3,248z"/>
	<path fill="#FFFFFF" d="M765.8,233.6c0-0.5,0.1-0.9,0.4-1.1s0.7-0.4,1.2-0.4c0.5,0,0.9,0.1,1.1,0.4s0.4,0.6,0.4,1.1
		c0,0.5-0.1,0.8-0.4,1.1s-0.6,0.4-1.1,0.4c-0.5,0-0.9-0.1-1.2-0.4S765.8,234.1,765.8,233.6z M768.7,250h-2.8v-13h2.8V250z"/>
	<path fill="#FFFFFF" d="M784.1,243.5c0,2.1-0.5,3.8-1.6,5s-2.6,1.8-4.5,1.8c-1.2,0-2.3-0.3-3.2-0.8s-1.6-1.3-2.1-2.4
		s-0.8-2.2-0.8-3.6c0-2.1,0.5-3.7,1.6-4.9s2.6-1.8,4.6-1.8c1.9,0,3.4,0.6,4.5,1.8S784.1,241.5,784.1,243.5z M774.7,243.5
		c0,3,1.1,4.5,3.3,4.5c2.2,0,3.3-1.5,3.3-4.5c0-3-1.1-4.4-3.3-4.4c-1.2,0-2,0.4-2.5,1.1S774.7,242.1,774.7,243.5z"/>
	<path fill="#FFFFFF" d="M798.7,250h-2.8v-8c0-1-0.2-1.7-0.6-2.2s-1-0.7-1.9-0.7c-1.2,0-2,0.3-2.6,1s-0.8,1.8-0.8,3.5v6.5h-2.8v-13
		h2.2l0.4,1.7h0.1c0.4-0.6,0.9-1.1,1.7-1.4s1.5-0.5,2.4-0.5c3.1,0,4.7,1.6,4.7,4.7V250z"/>
</g>
<line fill="none" stroke="#2FBAFD" stroke-width="2" x1="208.5" y1="262" x2="400.5" y2="262"/>
<line fill="none" stroke="#2FBAFD" stroke-width="2" x1="640.5" y1="262" x2="832.5" y2="262"/>
<polyline fill="none" stroke="#2FBAFD" points="506,177.5 506,162 72,162 "/>
<polyline fill="none" stroke="#2FBAFD" points="530,177.5 530,162 968,162 "/>
<circle fill="#2FBAFD" cx="346" cy="309" r="3"/>
<circle fill="#2FBAFD" cx="778" cy="310" r="3"/>
<g>
	<path fill="#FFFFFF" d="M996.7,243l-3.4-8.9h-0.1c0.1,0.7,0.1,1.5,0.1,2.5v6.4h-1.1v-10h1.8l3.2,8.2h0.1l3.2-8.2h1.7v10h-1.2v-6.4
		c0-0.7,0-1.5,0.1-2.4h-0.1l-3.4,8.8H996.7z"/>
	<path fill="#FFFFFF" d="M1011.2,239.3c0,1.2-0.3,2.2-0.9,2.9c-0.6,0.7-1.5,1-2.5,1c-0.7,0-1.3-0.2-1.8-0.5s-0.9-0.8-1.2-1.4
		s-0.4-1.3-0.4-2.1c0-1.2,0.3-2.2,0.9-2.9c0.6-0.7,1.5-1,2.5-1c1,0,1.9,0.3,2.5,1C1010.9,237.1,1011.2,238.1,1011.2,239.3z
		 M1005.5,239.3c0,1,0.2,1.7,0.6,2.2s0.9,0.8,1.7,0.8s1.3-0.2,1.7-0.7c0.4-0.5,0.6-1.2,0.6-2.2c0-1-0.2-1.7-0.6-2.2
		c-0.4-0.5-1-0.7-1.7-0.7c-0.7,0-1.3,0.2-1.7,0.7S1005.5,238.3,1005.5,239.3z"/>
	<path fill="#FFFFFF" d="M1016.7,235.4c1,0,1.7,0.3,2.3,1c0.5,0.7,0.8,1.6,0.8,2.9s-0.3,2.2-0.8,2.9c-0.5,0.7-1.3,1-2.3,1
		c-0.5,0-0.9-0.1-1.3-0.3c-0.4-0.2-0.7-0.5-1-0.8h-0.1l-0.2,1h-0.8v-10.6h1.1v2.6c0,0.6,0,1.1-0.1,1.6h0.1
		C1014.8,235.8,1015.6,235.4,1016.7,235.4z M1016.5,236.4c-0.8,0-1.3,0.2-1.7,0.7c-0.3,0.4-0.5,1.2-0.5,2.2s0.2,1.8,0.5,2.3
		c0.4,0.5,0.9,0.7,1.7,0.7c0.7,0,1.2-0.3,1.6-0.8c0.3-0.5,0.5-1.2,0.5-2.2c0-1-0.2-1.7-0.5-2.2S1017.2,236.4,1016.5,236.4z"/>
	<path fill="#FFFFFF" d="M1021.6,233.5c0-0.3,0.1-0.5,0.2-0.6c0.1-0.1,0.3-0.2,0.5-0.2c0.2,0,0.3,0.1,0.5,0.2s0.2,0.3,0.2,0.6
		s-0.1,0.4-0.2,0.6c-0.1,0.1-0.3,0.2-0.5,0.2c-0.2,0-0.4-0.1-0.5-0.2C1021.7,233.9,1021.6,233.8,1021.6,233.5z M1022.9,243h-1.1
		v-7.5h1.1V243z"/>
	<path fill="#FFFFFF" d="M1026.4,243h-1.1v-10.6h1.1V243z"/>
	<path fill="#FFFFFF" d="M1032,243.2c-1.1,0-2-0.3-2.6-1c-0.6-0.7-1-1.6-1-2.8c0-1.2,0.3-2.2,0.9-2.9c0.6-0.7,1.4-1.1,2.4-1.1
		c0.9,0,1.7,0.3,2.2,0.9c0.5,0.6,0.8,1.4,0.8,2.4v0.7h-5.2c0,0.9,0.2,1.5,0.7,2c0.4,0.5,1,0.7,1.8,0.7c0.8,0,1.6-0.2,2.4-0.5v1
		c-0.4,0.2-0.8,0.3-1.1,0.4C1032.9,243.1,1032.5,243.2,1032,243.2z M1031.7,236.3c-0.6,0-1.1,0.2-1.4,0.6c-0.4,0.4-0.6,0.9-0.6,1.6
		h3.9c0-0.7-0.2-1.3-0.5-1.6C1032.7,236.5,1032.3,236.3,1031.7,236.3z"/>
	<path fill="#FFFFFF" d="M1046.8,243l-1.2-3.2h-4l-1.2,3.2h-1.2l4-10h1l3.9,10H1046.8z M1045.2,238.8l-1.2-3.1
		c-0.2-0.4-0.3-0.9-0.5-1.4c-0.1,0.4-0.2,0.9-0.4,1.4l-1.2,3.1H1045.2z"/>
	<path fill="#FFFFFF" d="M1052.7,243.2c-0.5,0-0.9-0.1-1.3-0.3c-0.4-0.2-0.7-0.5-1-0.8h-0.1c0.1,0.4,0.1,0.9,0.1,1.2v3.1h-1.1v-10.9
		h0.9l0.2,1h0.1c0.3-0.4,0.6-0.7,1-0.9s0.8-0.3,1.3-0.3c1,0,1.8,0.3,2.3,1c0.5,0.7,0.8,1.6,0.8,2.9c0,1.2-0.3,2.2-0.8,2.9
		C1054.4,242.8,1053.6,243.2,1052.7,243.2z M1052.5,236.4c-0.8,0-1.3,0.2-1.7,0.6s-0.5,1.1-0.5,2v0.3c0,1.1,0.2,1.8,0.5,2.3
		c0.4,0.5,0.9,0.7,1.7,0.7c0.6,0,1.2-0.3,1.5-0.8c0.4-0.5,0.5-1.2,0.5-2.2c0-0.9-0.2-1.7-0.5-2.1
		C1053.7,236.6,1053.2,236.4,1052.5,236.4z"/>
	<path fill="#FFFFFF" d="M1061.2,243.2c-0.5,0-0.9-0.1-1.3-0.3c-0.4-0.2-0.7-0.5-1-0.8h-0.1c0.1,0.4,0.1,0.9,0.1,1.2v3.1h-1.1v-10.9
		h0.9l0.2,1h0.1c0.3-0.4,0.6-0.7,1-0.9s0.8-0.3,1.3-0.3c1,0,1.8,0.3,2.3,1c0.5,0.7,0.8,1.6,0.8,2.9c0,1.2-0.3,2.2-0.8,2.9
		C1063,242.8,1062.2,243.2,1061.2,243.2z M1061.1,236.4c-0.8,0-1.3,0.2-1.7,0.6s-0.5,1.1-0.5,2v0.3c0,1.1,0.2,1.8,0.5,2.3
		c0.4,0.5,0.9,0.7,1.7,0.7c0.6,0,1.2-0.3,1.5-0.8c0.4-0.5,0.6-1.2,0.6-2.2c0-0.9-0.2-1.7-0.6-2.1
		C1062.3,236.6,1061.7,236.4,1061.1,236.4z"/>
</g>
<g>
	<path fill="#FFFFFF" d="M508.9,274h-1.1l-2-6.7c-0.1-0.3-0.2-0.7-0.3-1.1s-0.2-0.7-0.2-0.8c-0.1,0.6-0.3,1.3-0.5,2l-2,6.7h-1.1
		l-2.7-10h1.2l1.6,6.2c0.2,0.9,0.4,1.6,0.5,2.4c0.1-0.8,0.3-1.6,0.5-2.4l1.8-6.1h1.2l1.9,6.1c0.2,0.7,0.4,1.5,0.6,2.4
		c0.1-0.6,0.3-1.4,0.5-2.4l1.6-6.2h1.2L508.9,274z"/>
</g>
<g>
	<path fill="#FFFFFF" d="M517.3,274l-0.2-1.1H517c-0.4,0.5-0.7,0.8-1.1,1c-0.4,0.2-0.8,0.2-1.4,0.2c-0.7,0-1.3-0.2-1.7-0.6
		s-0.6-0.9-0.6-1.6c0-1.5,1.2-2.3,3.6-2.4l1.3,0v-0.5c0-0.6-0.1-1-0.4-1.3c-0.3-0.3-0.7-0.4-1.2-0.4c-0.6,0-1.3,0.2-2.1,0.6
		l-0.3-0.9c0.4-0.2,0.8-0.4,1.2-0.5s0.9-0.2,1.3-0.2c0.9,0,1.6,0.2,2,0.6s0.6,1,0.6,1.9v5.1H517.3z M514.8,273.2
		c0.7,0,1.3-0.2,1.7-0.6s0.6-0.9,0.6-1.6v-0.7l-1.1,0c-0.9,0-1.6,0.2-2,0.4c-0.4,0.2-0.6,0.6-0.6,1.2c0,0.4,0.1,0.7,0.4,0.9
		S514.3,273.2,514.8,273.2z"/>
	<path fill="#FFFFFF" d="M521.6,274h-1.1v-10.6h1.1V274z"/>
	<path fill="#FFFFFF" d="M525.2,274H524v-10.6h1.1V274z"/>
	<path fill="#FFFFFF" d="M530.7,274.2c-1.1,0-2-0.3-2.6-1s-1-1.6-1-2.8c0-1.2,0.3-2.2,0.9-2.9s1.4-1.1,2.4-1.1
		c0.9,0,1.7,0.3,2.2,0.9c0.5,0.6,0.8,1.4,0.8,2.4v0.7h-5.2c0,0.9,0.2,1.5,0.7,2s1,0.7,1.8,0.7c0.8,0,1.6-0.2,2.4-0.5v1
		c-0.4,0.2-0.8,0.3-1.1,0.4C531.7,274.1,531.2,274.2,530.7,274.2z M530.4,267.3c-0.6,0-1.1,0.2-1.4,0.6s-0.6,0.9-0.6,1.6h3.9
		c0-0.7-0.2-1.3-0.5-1.6C531.5,267.5,531,267.3,530.4,267.3z"/>
	<path fill="#FFFFFF" d="M537.9,273.2c0.2,0,0.4,0,0.6,0c0.2,0,0.3-0.1,0.4-0.1v0.9c-0.1,0.1-0.3,0.1-0.5,0.1
		c-0.2,0-0.5,0.1-0.6,0.1c-1.4,0-2.2-0.8-2.2-2.3v-4.5h-1.1v-0.5l1.1-0.5l0.5-1.6h0.7v1.7h2.2v0.9h-2.2v4.4c0,0.5,0.1,0.8,0.3,1
		S537.5,273.2,537.9,273.2z"/>
</g>
<path fill="#151F31" d="M555.8,253.4h-71.6c-6.7,0-11.8-5.1-11.8-11.8v-52.7h24.8h58.6c6.7,0,11.8,5.1,11.8,11.8v40.9
	C567.6,248.2,562.5,253.4,555.8,253.4z"/>
<path fill="none" stroke="#2FBAFD" stroke-width="2" stroke-miterlimit="10" d="M555.8,253.4h-71.6c-6.7,0-11.8-5.1-11.8-11.8v-52.7
	h24.8h58.6c6.7,0,11.8,5.1,11.8,11.8v40.9C567.6,248.2,562.5,253.4,555.8,253.4z"/>
<path fill="#151F31" d="M472.4,188.8c0-6.7,5.1-11.8,11.8-11.8h59.4c6.7,0,11.8,5.1,11.8,11.8"/>
<path fill="none" stroke="#2FBAFD" stroke-width="2" stroke-miterlimit="10" d="M472.4,188.8c0-6.7,5.1-11.8,11.8-11.8h59.4
	c6.7,0,11.8,5.1,11.8,11.8"/>
<path fill="none" stroke="#2FBAFD" stroke-width="2" stroke-miterlimit="10" d="M568,232.9h-4.7c-6.7,0-11.8-5.1-11.8-11.8
	c0-6.7,5.1-11.8,11.8-11.8h4.7"/>
<path fill="none" stroke="#2FBAFD" stroke-width="2" stroke-miterlimit="10" d="M533.4,204.6c0,1.6-0.6,3-1.7,4.2
	c-1.2,1.2-2.5,1.7-4.2,1.7s-3-0.6-4.2-1.7s-1.7-2.5-1.7-4.2c0-1.6,0.6-3,1.7-4.2c1.2-1.2,2.5-1.7,4.2-1.7s3,0.6,4.2,1.7
	C532.8,201.5,533.4,202.9,533.4,204.6z"/>
<path fill="none" stroke="#2FBAFD" stroke-width="2" stroke-miterlimit="10" d="M515.7,220.3c0,1.6-0.6,3-1.7,4.2
	c-1.2,1.2-2.5,1.7-4.2,1.7c-1.6,0-3-0.6-4.2-1.7c-1.2-1.2-1.7-2.5-1.7-4.2c0-1.6,0.6-3,1.7-4.2c1.2-1.2,2.5-1.7,4.2-1.7
	c1.6,0,3,0.6,4.2,1.7C515.1,217.3,515.7,218.7,515.7,220.3z"/>
<path fill="none" stroke="#2FBAFD" stroke-width="2" stroke-miterlimit="10" d="M544.4,236c0,1.6-0.6,3-1.7,4.2
	c-1.2,1.2-2.5,1.7-4.2,1.7s-3-0.6-4.2-1.7s-1.7-2.5-1.7-4.2c0-1.6,0.6-3,1.7-4.2c1.2-1.2,2.5-1.7,4.2-1.7s3,0.6,4.2,1.7
	C543.8,233,544.4,234.4,544.4,236z"/>
<line fill="none" stroke="#2FBAFD" stroke-width="2" stroke-miterlimit="10" x1="472" y1="220.3" x2="504.3" y2="220.3"/>
<polyline fill="none" stroke="#2FBAFD" stroke-width="2" stroke-linejoin="round" stroke-miterlimit="10" points="488.5,220.3 
	498,204.6 521.2,204.6 "/>
<polyline fill="none" stroke="#2FBAFD" stroke-width="2" stroke-linejoin="round" stroke-miterlimit="10" points="495.2,220.3 
	505,236 532.2,236 "/>
<g>
	<path fill="#FFFFFF" d="M323.8,101.3c0,1.5-0.6,2.8-1.7,3.7s-2.7,1.3-4.6,1.3c-1.8,0-3.4-0.3-4.9-1v-3.4c1.2,0.5,2.1,0.9,2.9,1.1
		s1.5,0.3,2.2,0.3c0.8,0,1.4-0.2,1.8-0.5s0.6-0.8,0.6-1.4c0-0.3-0.1-0.6-0.3-0.9s-0.5-0.5-0.8-0.8s-1.1-0.6-2.2-1.2
		c-1-0.5-1.8-1-2.4-1.4s-0.9-1-1.3-1.6s-0.5-1.3-0.5-2.1c0-1.5,0.5-2.7,1.5-3.6s2.4-1.3,4.3-1.3c0.9,0,1.7,0.1,2.5,0.3
		s1.7,0.5,2.5,0.9l-1.2,2.8c-0.9-0.4-1.7-0.6-2.3-0.8s-1.2-0.2-1.8-0.2c-0.7,0-1.2,0.2-1.6,0.5s-0.6,0.7-0.6,1.3
		c0,0.3,0.1,0.6,0.2,0.8s0.4,0.5,0.7,0.7s1.1,0.6,2.3,1.2c1.6,0.8,2.7,1.5,3.3,2.3S323.8,100.1,323.8,101.3z"/>
	<path fill="#FFFFFF" d="M333.5,106h-3.6V91.9h-4.7v-3h12.9v3h-4.7V106z"/>
</g>
<g>
	<path fill="#FFFFFF" d="M355.9,97.4c0,2.8-0.7,5-2.1,6.5s-3.4,2.3-6,2.3s-4.6-0.8-6-2.3s-2.1-3.7-2.1-6.6s0.7-5,2.1-6.5
		s3.4-2.3,6.1-2.3s4.6,0.8,6,2.3S355.9,94.6,355.9,97.4z M343.4,97.4c0,1.9,0.4,3.4,1.1,4.3s1.8,1.5,3.3,1.5c2.9,0,4.3-1.9,4.3-5.8
		c0-3.9-1.4-5.8-4.3-5.8c-1.4,0-2.5,0.5-3.3,1.5S343.4,95.5,343.4,97.4z"/>
	<path fill="#FFFFFF" d="M363.1,99.4v6.6h-3.6V88.9h5c2.3,0,4.1,0.4,5.2,1.3s1.7,2.1,1.7,3.9c0,1-0.3,1.9-0.8,2.7s-1.3,1.4-2.4,1.8
		c2.6,3.9,4.3,6.3,5,7.5h-4l-4.1-6.6H363.1z M363.1,96.5h1.2c1.1,0,2-0.2,2.5-0.6s0.8-1,0.8-1.8c0-0.8-0.3-1.4-0.8-1.7
		s-1.4-0.5-2.6-0.5h-1.1V96.5z"/>
	<path fill="#FFFFFF" d="M375.3,106V88.9h3.6V106H375.3z"/>
	<path fill="#FFFFFF" d="M398.8,97.4c0,2-0.4,3.7-1.1,5.1s-1.8,2.4-3.1,3l4.1,4.6h-4.7l-3.1-3.8h-0.3c-2.6,0-4.6-0.8-6-2.3
		s-2.1-3.7-2.1-6.6s0.7-5,2.1-6.5s3.4-2.3,6.1-2.3s4.6,0.8,6,2.3S398.8,94.6,398.8,97.4z M386.3,97.4c0,1.9,0.4,3.4,1.1,4.3
		s1.8,1.5,3.3,1.5c2.9,0,4.3-1.9,4.3-5.8c0-3.9-1.4-5.8-4.3-5.8c-1.4,0-2.5,0.5-3.3,1.5S386.3,95.5,386.3,97.4z"/>
</g>
<g>
	<path fill="#FFFFFF" d="M412.4,106l-1.2-4.1h-6.2l-1.2,4.1h-3.9l6-17.2h4.4l6.1,17.2H412.4z M410.2,98.9c-1.1-3.7-1.8-5.8-1.9-6.3
		s-0.2-0.9-0.3-1.1c-0.3,1-1,3.5-2.2,7.4H410.2z"/>
	<path fill="#FFFFFF" d="M431.9,91.7c-1.4,0-2.4,0.5-3.2,1.5s-1.1,2.5-1.1,4.3c0,3.8,1.4,5.7,4.3,5.7c1.2,0,2.7-0.3,4.4-0.9v3
		c-1.4,0.6-3,0.9-4.7,0.9c-2.5,0-4.4-0.8-5.7-2.3s-2-3.7-2-6.5c0-1.8,0.3-3.3,1-4.7s1.6-2.4,2.8-3.1s2.6-1.1,4.3-1.1
		c1.7,0,3.3,0.4,5,1.2l-1.2,3c-0.6-0.3-1.3-0.6-1.9-0.8S432.6,91.7,431.9,91.7z"/>
	<path fill="#FFFFFF" d="M443.6,99.4v6.6H440V88.9h5c2.3,0,4.1,0.4,5.2,1.3s1.7,2.1,1.7,3.9c0,1-0.3,1.9-0.8,2.7s-1.3,1.4-2.4,1.8
		c2.6,3.9,4.3,6.3,5,7.5h-4l-4.1-6.6H443.6z M443.6,96.5h1.2c1.1,0,2-0.2,2.5-0.6s0.8-1,0.8-1.8c0-0.8-0.3-1.4-0.8-1.7
		s-1.4-0.5-2.6-0.5h-1.1V96.5z"/>
	<path fill="#FFFFFF" d="M461.1,95.9l3.6-7.1h3.9l-5.7,10.5v6.7h-3.6v-6.6l-5.7-10.6h3.9L461.1,95.9z"/>
	<path fill="#FFFFFF" d="M482.6,94.2c0,1.8-0.6,3.3-1.7,4.2s-2.8,1.5-4.9,1.5h-1.6v6.1h-3.6V88.9h5.5c2.1,0,3.7,0.4,4.7,1.3
		S482.6,92.5,482.6,94.2z M474.4,97h1.2c1.1,0,2-0.2,2.5-0.7s0.8-1.1,0.8-1.9c0-0.9-0.2-1.5-0.7-1.9s-1.2-0.6-2.2-0.6h-1.7V97z"/>
	<path fill="#FFFFFF" d="M492.5,106h-3.6V91.9h-4.7v-3h12.9v3h-4.7V106z"/>
</g>
<g>
	<path fill="#FFFFFF" d="M514.8,97.4c0,2.8-0.7,5-2.1,6.5s-3.4,2.3-6,2.3s-4.6-0.8-6-2.3s-2.1-3.7-2.1-6.6s0.7-5,2.1-6.5
		s3.4-2.3,6.1-2.3s4.6,0.8,6,2.3S514.8,94.6,514.8,97.4z M502.3,97.4c0,1.9,0.4,3.4,1.1,4.3s1.8,1.5,3.3,1.5c2.9,0,4.3-1.9,4.3-5.8
		c0-3.9-1.4-5.8-4.3-5.8c-1.4,0-2.5,0.5-3.3,1.5S502.3,95.5,502.3,97.4z"/>
	<path fill="#FFFFFF" d="M525.6,106l-4.1-13.4h-0.1c0.1,2.7,0.2,4.6,0.2,5.5v8h-3.2V88.9h4.9l4.1,13.1h0.1l4.3-13.1h4.9V106h-3.4
		v-8.1c0-0.4,0-0.8,0-1.3s0.1-1.8,0.2-4h-0.1l-4.4,13.4H525.6z"/>
	<path fill="#FFFFFF" d="M551.5,106l-1.2-4.1H544l-1.2,4.1h-3.9l6-17.2h4.4l6.1,17.2H551.5z M549.4,98.9c-1.1-3.7-1.8-5.8-1.9-6.3
		s-0.2-0.9-0.3-1.1c-0.3,1-1,3.5-2.2,7.4H549.4z"/>
	<path fill="#FFFFFF" d="M561.2,99.4v6.6h-3.6V88.9h5c2.3,0,4.1,0.4,5.2,1.3s1.7,2.1,1.7,3.9c0,1-0.3,1.9-0.8,2.7s-1.3,1.4-2.4,1.8
		c2.6,3.9,4.3,6.3,5,7.5h-4l-4.1-6.6H561.2z M561.2,96.5h1.2c1.1,0,2-0.2,2.5-0.6s0.8-1,0.8-1.8c0-0.8-0.3-1.4-0.8-1.7
		s-1.4-0.5-2.6-0.5h-1.1V96.5z"/>
	<path fill="#FFFFFF" d="M587.2,106h-4.1l-4.5-7.2l-1.5,1.1v6.1h-3.6V88.9h3.6v7.8l1.4-2l4.6-5.8h4l-6,7.6L587.2,106z"/>
	<path fill="#FFFFFF" d="M599.2,106h-9.9V88.9h9.9v3H593v3.8h5.8v3H593v4.4h6.2V106z"/>
	<path fill="#FFFFFF" d="M609.4,106h-3.6V91.9h-4.7v-3H614v3h-4.7V106z"/>
	<path fill="#FFFFFF" d="M628.5,94.2c0,1.8-0.6,3.3-1.7,4.2s-2.8,1.5-4.9,1.5h-1.6v6.1h-3.6V88.9h5.5c2.1,0,3.7,0.4,4.7,1.3
		S628.5,92.5,628.5,94.2z M620.3,97h1.2c1.1,0,2-0.2,2.5-0.7s0.8-1.1,0.8-1.9c0-0.9-0.2-1.5-0.7-1.9s-1.2-0.6-2.2-0.6h-1.7V97z"/>
	<path fill="#FFFFFF" d="M631.7,106V88.9h3.6V103h6.9v3H631.7z"/>
	<path fill="#FFFFFF" d="M655.8,106l-1.2-4.1h-6.2l-1.2,4.1h-3.9l6-17.2h4.4l6.1,17.2H655.8z M653.7,98.9c-1.1-3.7-1.8-5.8-1.9-6.3
		s-0.2-0.9-0.3-1.1c-0.3,1-1,3.5-2.2,7.4H653.7z"/>
</g>
<g>
	<path fill="#FFFFFF" d="M668.7,91.7c-1.4,0-2.4,0.5-3.2,1.5s-1.1,2.5-1.1,4.3c0,3.8,1.4,5.7,4.3,5.7c1.2,0,2.7-0.3,4.4-0.9v3
		c-1.4,0.6-3,0.9-4.7,0.9c-2.5,0-4.4-0.8-5.7-2.3s-2-3.7-2-6.5c0-1.8,0.3-3.3,1-4.7s1.6-2.4,2.8-3.1s2.6-1.1,4.3-1.1
		c1.7,0,3.3,0.4,5,1.2l-1.2,3c-0.6-0.3-1.3-0.6-1.9-0.8S669.3,91.7,668.7,91.7z"/>
	<path fill="#FFFFFF" d="M686.5,106h-9.9V88.9h9.9v3h-6.2v3.8h5.8v3h-5.8v4.4h6.2V106z"/>
	<path fill="#FFFFFF" d="M707.1,106h-12v-2.5l4.3-4.3c1.3-1.3,2.1-2.2,2.5-2.7s0.7-1,0.8-1.4s0.3-0.9,0.3-1.3c0-0.7-0.2-1.2-0.6-1.5
		s-0.9-0.5-1.5-0.5c-0.7,0-1.3,0.2-1.9,0.5s-1.3,0.7-2,1.3l-2-2.3c0.8-0.7,1.5-1.2,2.1-1.5s1.2-0.5,1.8-0.7s1.4-0.2,2.2-0.2
		c1.1,0,2,0.2,2.8,0.6s1.5,0.9,1.9,1.6s0.7,1.5,0.7,2.4c0,0.8-0.1,1.5-0.4,2.2s-0.7,1.4-1.3,2.1s-1.6,1.8-3.1,3.1l-2.2,2.1v0.2h7.5
		V106z"/>
	<path fill="#FFFFFF" d="M709.3,104.3c0-0.7,0.2-1.2,0.5-1.5s0.9-0.5,1.5-0.5c0.6,0,1.2,0.2,1.5,0.5s0.5,0.8,0.5,1.5
		c0,0.6-0.2,1.1-0.5,1.5s-0.9,0.5-1.5,0.5c-0.7,0-1.2-0.2-1.5-0.5S709.3,105,709.3,104.3z"/>
	<path fill="#FFFFFF" d="M727.6,97.5c0,3-0.5,5.2-1.5,6.6s-2.5,2.2-4.5,2.2c-2,0-3.5-0.7-4.5-2.2s-1.5-3.7-1.5-6.6
		c0-3,0.5-5.3,1.5-6.7s2.5-2.2,4.5-2.2c2,0,3.5,0.8,4.5,2.2S727.6,94.6,727.6,97.5z M719.2,97.5c0,2.1,0.2,3.6,0.5,4.5
		s1,1.4,1.8,1.4c0.8,0,1.5-0.5,1.8-1.4s0.6-2.4,0.6-4.5c0-2.1-0.2-3.6-0.6-4.5s-1-1.4-1.8-1.4c-0.9,0-1.5,0.5-1.8,1.4
		S719.2,95.4,719.2,97.5z"/>
</g>
<ellipse transform="matrix(1.922364e-02 -0.9998 0.9998 1.922364e-02 86.8592 935.0997)" cx="520.1" cy="423.3" rx="76.7" ry="134.6"/>
<g>
	<g>
		<defs>
			<path id="SVGID_43_" d="M654.9,417.5c0,5.2-0.9,10.4-2.6,15.5c-1.7,5.1-4.3,10.1-7.7,14.9s-7.6,9.4-12.5,13.7
				c-4.9,4.3-10.6,8.4-16.8,12c-6.3,3.7-13.1,7-20.5,9.9s-15.2,5.3-23.4,7.3s-16.7,3.5-25.4,4.5c-8.7,1-17.5,1.5-26.4,1.5
				c-8.9,0-17.7-0.5-26.4-1.5c-8.7-1-17.2-2.5-25.4-4.5c-8.2-2-16-4.4-23.4-7.3s-14.2-6.2-20.5-9.9s-11.9-7.7-16.8-12
				c-4.9-4.3-9.1-8.9-12.5-13.7s-6-9.8-7.7-14.9c-1.7-5.1-2.6-10.3-2.6-15.5c0-5.2,0.9-10.4,2.6-15.5s4.3-10.1,7.7-14.9
				c3.4-4.8,7.6-9.4,12.5-13.7c4.9-4.3,10.6-8.4,16.8-12c6.3-3.7,13.1-7,20.5-9.9c7.4-2.9,15.2-5.3,23.4-7.3
				c8.2-2,16.7-3.5,25.4-4.5c8.7-1,17.5-1.5,26.4-1.5c8.9,0,17.7,0.5,26.4,1.5c8.7,1,17.2,2.5,25.4,4.5c8.2,2,16,4.4,23.4,7.3
				c7.4,2.9,14.2,6.2,20.5,9.9c6.3,3.7,11.9,7.7,16.8,12s9.1,8.9,12.5,13.7c3.4,4.8,6,9.8,7.7,14.9S654.9,412.3,654.9,417.5z"/>
		</defs>
		<clipPath id="SVGID_44_">
			<use xlink:href="#SVGID_43_"  overflow="visible"/>
		</clipPath>
		<g clip-path="url(#SVGID_44_)">
			
				<image overflow="visible" width="1129" height="663" xlink:href="C68D00C293D1C31C.jpg"  transform="matrix(0.24 0 0 0.24 384 337.96)">
			</image>
		</g>
	</g>
</g>
<g>
	<path fill="#FFFFFF" d="M498.4,409.6c-1.6,0-2.9,0.6-3.8,1.7s-1.4,2.7-1.4,4.7c0,2.1,0.4,3.7,1.3,4.8s2.2,1.6,3.8,1.6
		c0.7,0,1.4-0.1,2.1-0.2s1.4-0.3,2.1-0.6v2.4c-1.3,0.5-2.9,0.8-4.6,0.8c-2.5,0-4.4-0.8-5.8-2.3s-2-3.7-2-6.5c0-1.8,0.3-3.3,1-4.7
		s1.6-2.4,2.8-3.1s2.7-1.1,4.3-1.1c1.8,0,3.4,0.4,4.9,1.1l-1,2.3c-0.6-0.3-1.2-0.5-1.8-0.7S499.1,409.6,498.4,409.6z"/>
</g>
<g>
	<path fill="#FFFFFF" d="M521,416c0,2.8-0.7,5-2.1,6.5s-3.4,2.3-5.9,2.3c-2.6,0-4.6-0.8-6-2.3s-2.1-3.7-2.1-6.5s0.7-5,2.1-6.5
		s3.4-2.3,6-2.3c2.5,0,4.5,0.8,5.9,2.3S521,413.2,521,416z M508,416c0,2.1,0.4,3.7,1.3,4.8s2.1,1.6,3.8,1.6c1.7,0,2.9-0.5,3.8-1.6
		s1.3-2.7,1.3-4.8c0-2.1-0.4-3.7-1.3-4.8s-2.1-1.6-3.8-1.6c-1.7,0-2.9,0.5-3.8,1.6S508,413.9,508,416z"/>
	<path fill="#FFFFFF" d="M527.5,417.7v6.8h-2.8v-17.1h4.8c2.2,0,3.8,0.4,4.9,1.2s1.6,2.1,1.6,3.8c0,2.1-1.1,3.7-3.3,4.6l4.8,7.6
		h-3.2l-4.1-6.8H527.5z M527.5,415.4h1.9c1.3,0,2.2-0.2,2.8-0.7s0.9-1.2,0.9-2.2c0-1-0.3-1.7-0.9-2.1s-1.6-0.6-2.9-0.6h-1.9V415.4z"
		/>
	<path fill="#FFFFFF" d="M549.7,424.6h-9.7v-17.1h9.7v2.4h-6.9v4.7h6.5v2.3h-6.5v5.4h6.9V424.6z"/>
</g>
<polyline fill="none" stroke="#2FBAFD" points="32,194 32,262 187,262 "/>
<circle fill="#2FBAFD" cx="189" cy="262" r="3"/>
<polyline fill="none" stroke="#2FBAFD" points="1008,194 933.8,194.2 933.8,262 853,262 "/>
<circle fill="#2FBAFD" cx="851" cy="262" r="3"/>
</svg>
