<?xml version="1.0" encoding="utf-8"?>
<!-- Generator: Adobe Illustrator 22.1.0, SVG Export Plug-In . SVG Version: 6.00 Build 0)  -->
<svg version="1.1" id="Group_365" xmlns="http://www.w3.org/2000/svg" xmlns:xlink="http://www.w3.org/1999/xlink" x="0px" y="0px"
	 viewBox="0 0 100.8 40" style="enable-background:new 0 0 100.8 40;" xml:space="preserve">
<style type="text/css">
	.st0{fill:#FFFFFF;}
</style>
<g>
	<g id="Group_364" transform="translate(2.353 2.196)">
		<g id="Group_363">
			<path id="Path_46" class="st0" d="M63.3,20.1H44.2c-0.5,0-0.9-0.3-1-0.7L38.3,2.4h-6c-0.6,0-1-0.4-1.1-1c0-0.5,0.4-0.9,1-1H39
				c0.5,0,0.9,0.3,1,0.7l5,16.9h17.7l2-11.3H46.9c-0.5,0-0.9-0.4-1-1c0-0.5,0.4-0.9,1-1h18.9c0.3,0,0.6,0.1,0.7,0.4
				c0.2,0.2,0.2,0.6,0.1,0.8l-2.4,13.2C64.1,19.8,63.7,20.1,63.3,20.1z"/>
			<path id="Path_47" class="st0" d="M47.7,28.8c-1.8,0-3.2-1.5-3.2-3.2s1.5-3.2,3.2-3.2c1.8,0,3.2,1.5,3.2,3.2l0,0
				C50.9,27.4,49.5,28.8,47.7,28.8C47.7,28.8,47.7,28.8,47.7,28.8z M47.7,24.3c-0.7,0-1.3,0.6-1.3,1.3s0.6,1.3,1.3,1.3
				c0.7,0,1.3-0.6,1.3-1.3l0,0C49,24.9,48.4,24.3,47.7,24.3z"/>
			<path id="Path_48" class="st0" d="M59.1,28.8c-1.8,0-3.2-1.5-3.2-3.2s1.5-3.2,3.2-3.2c1.8,0,3.2,1.5,3.2,3.2l0,0
				C62.3,27.4,60.9,28.8,59.1,28.8C59.1,28.8,59.1,28.8,59.1,28.8z M59.1,24.3c-0.7,0-1.3,0.6-1.3,1.3s0.6,1.3,1.3,1.3
				c0.7,0,1.3-0.6,1.3-1.3l0,0C60.4,24.9,59.8,24.3,59.1,24.3z"/>
			<path id="Path_49" class="st0" d="M59.1,24.3H47.7c-0.5,0-1-0.4-1-1c0-0.5,0.4-1,1-1h11.4c0.5,0,0.9,0.4,1,1
				C60,23.8,59.6,24.3,59.1,24.3C59.1,24.3,59.1,24.3,59.1,24.3z"/>
		</g>
		<path id="Path_50" class="st0" d="M56.5,13.5H42.5c-0.5,0-0.9-0.4-1-1c0-0.5,0.4-0.9,1-1h14.1c0.5,0,0.9,0.4,1,1
			C57.5,13,57.1,13.5,56.5,13.5C56.6,13.5,56.6,13.5,56.5,13.5z"/>
	</g>
	<ellipse id="Ellipse_7" class="st0" cx="34.3" cy="3.5" rx="2.5" ry="2.5"/>
	<ellipse id="Ellipse_8" class="st0" cx="60.3" cy="14.7" rx="2.5" ry="2.5"/>
	<ellipse id="Ellipse_9" class="st0" cx="48.8" cy="8" rx="2.5" ry="2.5"/>
</g>
</svg>
