<?xml version="1.0" encoding="utf-8"?>
<!-- Generator: Adobe Illustrator 22.1.0, SVG Export Plug-In . SVG Version: 6.00 Build 0)  -->
<svg version="1.1" id="Layer_1" xmlns="http://www.w3.org/2000/svg" xmlns:xlink="http://www.w3.org/1999/xlink" x="0px" y="0px"
	 viewBox="0 0 100.8 40" style="enable-background:new 0 0 100.8 40;" xml:space="preserve">
<style type="text/css">
	.st0{fill:none;stroke:#FFFFFF;stroke-width:2;stroke-linecap:round;stroke-linejoin:round;stroke-miterlimit:10;}
	.st1{fill:#FFFFFF;}
	.st2{fill:none;stroke:#FFFFFF;stroke-width:2;stroke-miterlimit:10;}
</style>
<g id="Group_386" transform="translate(-456.363 -540.923)">
	<g id="Group_373" transform="translate(457.46 541.923)">
		<line id="Line_25" class="st0" x1="0" y1="7.8" x2="0" y2="21.7"/>
		<line id="Line_26" class="st0" x1="32.9" y1="0.2" x2="32.9" y2="29.4"/>
		<line id="Line_27" class="st0" x1="0.1" y1="11" x2="32.8" y2="3.8"/>
		<line id="Line_28" class="st0" x1="32.8" y1="25.8" x2="0.1" y2="18.6"/>
		<path id="Path_59" class="st0" d="M5.6,19.9v7.3l6.9,2.3l5.9-6.9"/>
		<path id="Path_60" class="st0" d="M45.6,26.8c5.9-6.9,5.9-17,0-23.9"/>
		<path id="Path_61" class="st0" d="M39.5,21.9c2.1-1.7,3.3-4.3,3.4-7.1c-0.1-2.7-1.3-5.3-3.4-7.1"/>
	</g>
	<g id="Group_379" transform="translate(516.982 541.923)">
		<g id="Group_376" transform="translate(0 0.388)">
			<path id="Path_62" class="st1" d="M5.6,30.4v-3.7c-2,0-3.9-0.5-5.6-1.6l0.9-2.5c1.6,1,3.4,1.6,5.3,1.6c2.6,0,4.4-1.5,4.4-3.6
				c0-2-1.5-3.3-4.2-4.4c-3.8-1.5-6.1-3.2-6.1-6.4c0-3.1,2.2-5.4,5.6-5.9V0.2h2.3v3.6c1.7,0,3.3,0.5,4.8,1.3L12,7.5
				c-1.4-0.8-3-1.3-4.7-1.3C4.5,6.3,3.4,8,3.4,9.4c0,1.9,1.4,2.9,4.6,4.2c3.8,1.6,5.7,3.4,5.7,6.7c0,2.9-2,5.6-5.8,6.3v3.8L5.6,30.4
				L5.6,30.4z"/>
		</g>
		<g id="Group_378" transform="translate(25.673)">
			<g id="Group_377" transform="translate(0 3.446)">
				<path id="Path_63" class="st1" d="M0,0.7c1.8-0.3,3.6-0.5,5.4-0.5c3,0,4.9,0.5,6.3,1.7c1.3,1,2,2.5,1.9,4.1
					c-0.1,2.3-1.6,4.4-3.9,5v0c2.7,0.6,4.7,3,4.8,5.8c0,1.7-0.7,3.4-1.9,4.6c-1.6,1.5-4.2,2.1-8,2.1c-1.5,0-3.1-0.1-4.6-0.3V0.7z
					 M3,10.1h2.7c3.2,0,5-1.6,5-3.9c0-2.7-2-3.8-5-3.8c-0.9,0-1.8,0-2.6,0.2L3,10.1L3,10.1z M3,21.2c0.8,0.1,1.6,0.2,2.5,0.1
					c3.1,0,5.9-1.1,5.9-4.5c0-3.2-2.7-4.5-6-4.5H3V21.2z"/>
			</g>
			<line id="Line_31" class="st2" x1="5.8" y1="0.2" x2="5.8" y2="5"/>
			<line id="Line_32" class="st2" x1="5.8" y1="25.9" x2="5.8" y2="30.8"/>
		</g>
	</g>
</g>
</svg>
