<?xml version="1.0" encoding="utf-8"?>
<!-- Generator: Adobe Illustrator 22.1.0, SVG Export Plug-In . SVG Version: 6.00 Build 0)  -->
<svg version="1.1" id="Layer_1" xmlns="http://www.w3.org/2000/svg" xmlns:xlink="http://www.w3.org/1999/xlink" x="0px" y="0px"
	 viewBox="0 0 3175.7 3175.7" style="enable-background:new 0 0 3175.7 3175.7;" xml:space="preserve">
<style type="text/css">
	.st0{fill:#2E66C4;}
	.st1{fill:#FFFFFF;}
	.st2{fill:#FF4500;}
</style>
<circle class="st0" cx="1587.9" cy="1587.9" r="1587.9"/>
<g>
	<path class="st1" d="M1941.9,2241.6c-93.4,93.3-243.7,111.2-369.9,111.2c-126.1,0-276.6-18-369.8-111.2 M2227.4,765.2l-472.7-111.2
		l-183.5,560.2l183.6-560.2 M2606.6,803.4c0,102.9-83.4,186.4-186.3,186.4c-102.9,0-186.4-83.4-186.4-186.3c0,0,0-0.1,0-0.1
		c2.3-102.9,87.6-184.5,190.5-182.2C2524.1,623.5,2604.3,703.7,2606.6,803.4z M2637.4,1919.9c0,385.9-479.3,698.7-1070.5,698.7
		c-591.3,0-1070.5-312.8-1070.5-698.7c0-385.9,479.3-698.7,1070.5-698.7C2158.1,1221.2,2637.4,1534,2637.4,1919.9L2637.4,1919.9z
		 M510.3,1811.3c-85.9-37.7-141.4-122.7-141.4-216.5c-0.1-130.5,105.7-236.4,236.2-236.5c69.9,0,136.2,30.8,181.1,84.3 M2354,1447.5
		c81.4-102.1,230.1-118.8,332.2-37.4c56.2,44.8,89,112.8,89,184.7c0,97.6-59.9,185.1-150.9,220.4"/>
	<path d="M1566.9,2665.4c-616.1,0-1117.2-334.4-1117.2-745.4c0-28.4,2.4-56.5,7.1-84.1c-83.6-51.6-134.5-142.8-134.5-241
		c0.2-156.2,126.8-282.9,283-283.1c69.7,0,136.2,25.5,187.6,71.1c193.8-124.4,454.4-202.6,742-208.1l188.8-576.1l41.2,9.7l1,0.2
		l440,103.6c36.7-85.9,121-141.7,214.5-141.8c128.7,0.2,232.9,104.4,233,233.1c-0.2,128.6-104.4,232.9-233,233
		c-128.5-0.1-232.8-104.2-233-232.8l-401.5-94.5l-152.9,466.6c277.1,10.8,527.3,89.3,714.1,211c52.2-48.3,120.7-75.1,191.9-75
		c156.3,0.2,282.9,126.8,283.1,283.1c0.5,102.2-54.6,196.7-143.8,246.6c4.1,25.8,6.2,52,6.2,78.5
		C2684.2,2331,2182.9,2665.4,1566.9,2665.4L1566.9,2665.4z M552.4,1831.6c-6.2,29-9.3,58.7-9.3,88.4c0,359.6,459.3,652,1023.8,652
		s1023.8-292.5,1023.8-652c0-28.6-2.9-56.7-8.5-84.4c-3-6.3-4.6-13.3-4.6-20.3c-31.2-122.7-116.5-234.1-239.6-323.8
		c-7.8-2.8-14.8-7.7-20-14.2c-187.1-128.7-454.5-209.3-751-209.3c-293.5,0-558.6,79.1-745.5,205.5c-5.1,5.8-11.5,10.3-18.7,13
		c-125.8,89.8-213.2,201.9-245.7,325.7c-0.1,6.2-1.4,12.3-3.9,17.9C552.9,1830.6,552.7,1831.1,552.4,1831.6z M2425,1443.1
		c108.3,86.6,187.8,189.8,228.4,303c47.4-35.8,75.2-91.8,75-151.3c-0.1-104.7-85-189.6-189.7-189.7
		C2497.7,1405.1,2457.8,1418.4,2425,1443.1L2425,1443.1z M605.3,1405.1c-104.7,0.1-189.5,85-189.6,189.7
		c0,56.7,25.2,109.3,67.1,144.8c42-112.3,122.3-214.6,231-300.4C681.9,1417,644,1405.1,605.3,1405.1z M2420.2,663.7
		c-77,0-139.6,62.7-139.6,139.7S2343.2,943,2420.2,943s139.6-62.6,139.6-139.6S2497.2,663.7,2420.2,663.7L2420.2,663.7z
		 M1572,2399.5c-187,0-318.8-40.9-402.9-124.9c-18.2-18.2-18.2-47.8,0-66.1c18.2-18.2,47.8-18.2,66.1,0
		c65.6,65.6,175.7,97.6,336.8,97.6c161,0,271.2-31.9,336.9-97.6c18.2-18.2,47.8-18.2,66,0c18.2,18.2,18.2,47.8,0,66l0,0
		C1890.8,2358.7,1759,2399.5,1572,2399.5L1572,2399.5z"/>
	<path class="st2" d="M1950.7,1609.3c-95.2,0-175.1,79.7-175.1,174.9c0,95.1,79.9,172.2,175.1,172.2c95.2,0,172.2-77.1,172.2-172.2
		C2122.9,1689,2045.8,1609.3,1950.7,1609.3L1950.7,1609.3z M1196.1,1609.3c-95.1,0-174.9,79.8-174.9,174.9
		c0,95.1,79.8,172.2,174.9,172.2c95.1,0,172.2-77.2,172.2-172.2S1291.1,1609.3,1196.1,1609.3L1196.1,1609.3z"/>
</g>
</svg>
