<?xml version="1.0" encoding="utf-8"?>
<!-- Generator: Adobe Illustrator 21.0.0, SVG Export Plug-In . SVG Version: 6.00 Build 0)  -->
<svg version="1.1" id="Слой_1" xmlns="http://www.w3.org/2000/svg" xmlns:xlink="http://www.w3.org/1999/xlink" x="0px" y="0px"
	 viewBox="0 0 114 86" style="enable-background:new 0 0 114 86;" xml:space="preserve">
<style type="text/css">
	.st0{fill:none;stroke:#fff;stroke-width:3;stroke-miterlimit:10;}
	.st1{fill:none;stroke:#fff;stroke-width:3;stroke-linejoin:round;stroke-miterlimit:10;}
</style>
<g>
	<path class="st0" d="M80,73H38c-2.2,0-4-1.8-4-4V39c0-2.2,1.8-4,4-4h42c2.2,0,4,1.8,4,4v30C84,71.2,82.2,73,80,73z"/>
	<path class="st0" d="M77,35v-8.5c0-9.9-8.1-18-18-18s-18,8.1-18,18V35"/>
	<g>
		<line class="st0" x1="33.5" y1="54" x2="53" y2="54"/>
		<polyline class="st1" points="69,44 53,44 43.5,53.5 		"/>
		<polyline class="st1" points="63,64 47,64 37.5,54.5 		"/>
		<circle class="st0" cx="57.5" cy="54.5" r="3.5"/>
		<circle class="st0" cx="71.5" cy="44.5" r="3.5"/>
		<circle class="st0" cx="66.5" cy="63.5" r="3.5"/>
	</g>
</g>
</svg>
