<?xml version="1.0" encoding="utf-8"?>
<!-- Generator: Adobe Illustrator 21.0.0, SVG Export Plug-In . SVG Version: 6.00 Build 0)  -->
<svg version="1.1" id="Слой_1" xmlns="http://www.w3.org/2000/svg" xmlns:xlink="http://www.w3.org/1999/xlink" x="0px" y="0px"
	 viewBox="0 0 114 86" style="enable-background:new 0 0 114 86;" xml:space="preserve">
<style type="text/css">
	.st0{fill:none;stroke:#fff;stroke-width:3;stroke-linecap:round;stroke-linejoin:round;stroke-miterlimit:10;}
</style>
<g>
	<g>
		<path class="st0" d="M61.1,11.2c-1-0.1-1.8-0.1-2.3,1c-0.5,1.2-1.4,4.7-6.2,5.2c-4.8,0.5-7.2-3.4-7.7-3.9
			c-0.5-0.5-0.9-0.6-1.4-0.3c-0.5,0.3-4.2,2.1-7.8,4.3c-0.3,0.2-0.5,0.9-0.2,1.7c0.2,0.8,2.5,4.5-0.4,8.1s-5.4,3.2-8.1,3.1
			c-0.6,0-1.3-0.1-1.6,0.7s-1.8,6-2.3,8.2c-0.1,0.6-0.2,1.3,0.8,1.7s6.2,1.9,6.4,6.3c0.2,4.5-2.4,6-4.6,7.8c-0.5,0.4-0.5,1-0.2,1.7
			c0.3,0.7,3,5.5,4.5,7.6c0.3,0.5,1.2,0.4,1.9,0.1s4.6-2.5,7.4-0.2s4.1,3.9,3.4,8.3c-0.1,0.8-0.1,1.5,0.8,1.9c0.8,0.3,5,1.9,8.6,2.4
			c0.9,0.2,1.4-0.3,1.6-1s1-4.8,5.8-5.4c4.8-0.6,6,1.2,7.6,3.6c0.3,0.5,0.8,0.7,1.7,0.4c0.9-0.3,5.6-2.5,8.1-4.6
			c0.2-0.2,0.5-0.9,0.1-1.7s-2.4-5.4,0.3-8.3S83,57,85,57.3c0.9,0.2,1.4-0.1,1.7-0.9c0.3-0.9,1.7-4.8,2.3-8c0.2-1-0.5-1.4-1.3-1.8
			s-4.2-1.6-4.9-5.4c-0.6-3.8,0.4-6.2,3.4-8.3c0.5-0.3,0.8-1.2,0.3-2.1c-0.5-0.9-2.5-5-4.3-7.2c-0.5-0.6-1.2-0.7-2.2-0.3
			c-1,0.4-3.6,2.4-7.2-0.3c-3.6-2.7-3.4-5.4-3.1-8.4c0.1-0.6-0.5-1-1-1.3C68.2,12.9,64.7,11.6,61.1,11.2z"/>
		<path class="st0" d="M73.5,42c0.1,0.7,0.1,1.3,0.1,2c0,9.7-7.9,17.6-17.6,17.6s-17.6-7.9-17.6-17.6S46.3,26.5,56,26.5
			c3.5,0,6.8,1,9.6,2.8"/>
	</g>
	<polyline class="st0" points="45.4,41.2 54.9,50.7 73.7,31.9 	"/>
</g>
</svg>
