<?xml version="1.0" encoding="utf-8"?>
<!-- Generator: Adobe Illustrator 21.0.0, SVG Export Plug-In . SVG Version: 6.00 Build 0)  -->
<svg version="1.1" id="Слой_1" xmlns="http://www.w3.org/2000/svg" xmlns:xlink="http://www.w3.org/1999/xlink" x="0px" y="0px"
	 viewBox="0 0 114 86" style="enable-background:new 0 0 114 86;" xml:space="preserve">
<style type="text/css">
	.st0{fill:none;stroke:#fff;stroke-width:3;stroke-linecap:round;stroke-linejoin:round;stroke-miterlimit:10;}
</style>
<g>
	<path class="st0" d="M81.6,62.5H51.7c0,0-4.2,6.8-9.2,10c-3.5,2.2-8.3,1.7-8,0c1-5,2.1-10,2.1-10h-5.2c-3.8,0-6.9-3.1-6.9-6.9V20.4
		c0-3.8,3.1-6.9,6.9-6.9h50.1c3.8,0,6.9,3.1,6.9,6.9v35.1C88.5,59.4,85.4,62.5,81.6,62.5z"/>
	<polygon class="st0" points="56.5,44.7 49.7,48.2 51,40.7 45.5,35.3 53.1,34.2 56.5,27.3 59.9,34.2 67.5,35.3 62,40.7 63.3,48.2 	
		"/>
</g>
</svg>
