<?xml version="1.0" encoding="utf-8"?>
<!-- Generator: Adobe Illustrator 17.0.0, SVG Export Plug-In . SVG Version: 6.00 Build 0)  -->
<!DOCTYPE svg PUBLIC "-//W3C//DTD SVG 1.1//EN" "http://www.w3.org/Graphics/SVG/1.1/DTD/svg11.dtd">
<svg version="1.1" id="Layer_1" xmlns="http://www.w3.org/2000/svg" xmlns:xlink="http://www.w3.org/1999/xlink" x="0px" y="0px"
	 width="114.4px" height="98.2px" viewBox="0 0 114.4 98.2" style="enable-background:new 0 0 114.4 98.2;" xml:space="preserve">
<style type="text/css">
	.st0{fill:#ABACAD;}
	.st1{fill:#FFFFFF;}
	.st2{fill:#7F7F7F;}
	.st3{fill:#D8D8D8;}
</style>
<g>
	<path class="st0" d="M75.4,0.5c0.6-1.4,2.3-0.7,3.2-0.1c11.7,5.9,23.7,11.8,35.3,17.8c-0.6,2-1.5,3.5-2.6,5.2
		C99.4,42.3,88.1,61.6,76,80.3c-7.8-13.9-16.6-27.2-24.9-40.8c1-0.8,1.5-2,2.2-3C60.7,24.5,68.1,12.5,75.4,0.5z"/>
</g>
<g>
	<path class="st1" d="M0.1,0.8l0.2-0.3l0.2-0.2l0.2-0.1L1.2,0l0.3,0.1C14,6,26.4,12.2,38.7,18.6l0.1,0.8c-1,14-0.1,28.1-0.5,42.1
		c-0.1,11.7,0.1,23.4-0.1,35.1c0,0.6-0.1,0.9-0.6,1.2c-0.8,0.4-1.3,0.5-2.1,0.2c-10.9-5.5-21.9-11-32.9-16.5c-1.5-0.6-2.7-2.3-2.6-4
		C0,52.3,0,26.9,0,1.5"/>
</g>
<g>
	<path class="st2" d="M114,18.3c0.2,0.1,0.3,0.3,0.4,0.4c-0.1,25.7,0,51.4-0.1,77c0.2,1.6-1.2,3.1-2.8,2.2
		C99.6,92.2,88,85.9,76,80.4l0.1-0.1c12.1-18.7,23.4-38,35.3-56.9C112.4,21.8,113.3,20.3,114,18.3z"/>
</g>
<g>
	<path class="st3" d="M38.7,19.5c4.3,6.5,8.3,13.3,12.4,20C59.4,53.1,68.2,66.4,76,80.3c-12.6-6.3-25.1-12.7-37.8-18.8
		C38.6,47.5,37.7,33.5,38.7,19.5z"/>
</g>
</svg>
