<svg width="78" height="98" viewBox="0 0 78 98" xmlns="http://www.w3.org/2000/svg"><title>Shape</title><path d="M56.2 91.7H74a4 4 0 0 0 4-4.4l-4-30.1a4 4 0 0 0-3.9-3.5h-3.4v-3.2a11.1 11.1 0 1 0-22.2 0v3.2h-3.3a4 4 0 0 0-4 3.5l-3.8 30.1a4 4 0 0 0 4 4.5h18.7zm-6.5-41.2a6 6 0 1 1 12 0v3.2h-12v-3.2zM8 10a10 10 0 1 1 20 0 10 10 0 0 1-20 0zm13.3 88h-6.6a3.3 3.3 0 0 1-3.3-3L7.2 56.9a7.2 7.2 0 0 1-4.7-6L.1 32.2a8.5 8.5 0 0 1 8.4-9.4h3.1l.4.1 5.2 6.5a1 1 0 0 0 1.6 0L24 23l.3-.2 4.4.1 26.8 1.7a3.5 3.5 0 0 1 3.2 3.9c-.3 1.7-1.7 3-3.4 3l-23.7 1.7c-.2 0-.4.1-.4.4l-4.7 43.7-2 17.9a3.2 3.2 0 0 1-3.2 2.9z" fill="#FFF"/></svg>