<svg width="95" height="93" viewBox="0 0 95 93" xmlns="http://www.w3.org/2000/svg"><title>Shape</title><path d="M85.6 45.5c-2.4 0-4.6-1-6.3-2.5a9.3 9.3 0 0 1-12.7 0 9.3 9.3 0 0 1-12.7 0A9.3 9.3 0 0 1 41 43a9.3 9.3 0 0 1-12.7 0 9.3 9.3 0 0 1-12.7 0 9.3 9.3 0 0 1-13-13.4L11.4 13a3 3 0 0 1 2.7-1.6l68 .3a3 3 0 0 1 2.7 1.7L92.6 30a9.3 9.3 0 0 1-7 15.5zM89 36v-.1c-.1-.8-.5-1.6-1-2.1a3 3 0 0 1-.6-.9L80 17.5l-64.3-.2-8 15.5a3 3 0 0 1-.6.9c-.7.5-1 1.3-1.2 2.2v.4c0 1.7 1.5 3.2 3.4 3.2 1.8 0 3.3-1.5 3.3-3.3v-.3c0-.8.2-1.6.8-2.2a3.2 3.2 0 0 1 4.4 0 3 3 0 0 1 .8 2.6c0 1.8 1.5 3.2 3.4 3.2 1.8 0 3.3-1.5 3.3-3.3v-.3c0-.8.2-1.6.8-2.2a3.2 3.2 0 0 1 4.4 0 3 3 0 0 1 .8 2.6c0 1.8 1.5 3.2 3.4 3.2 1.8 0 3.3-1.5 3.3-3.3v-.3c0-.8.2-1.6.8-2.2a3.2 3.2 0 0 1 4.4 0 3 3 0 0 1 .8 2.6c0 1.8 1.6 3.2 3.4 3.2 1.9 0 3.4-1.5 3.4-3.3v-.3c-.1-.8.1-1.6.7-2.2a3.2 3.2 0 0 1 4.5 0 3 3 0 0 1 .8 2.6c0 1.8 1.5 3.2 3.3 3.2 1.9 0 3.4-1.5 3.4-3.3v-.3a3 3 0 0 1 .7-2.2 3.2 3.2 0 0 1 4.5 0 3 3 0 0 1 .8 2.6c0 1.8 1.5 3.2 3.3 3.2 1.9 0 3.4-1.5 3.4-3.3v-.3a3 3 0 0 1 .7-2.2 3.2 3.2 0 0 1 4.5 0 3 3 0 0 1 .8 2.6c0 1.8 1.5 3.2 3.3 3.2 1.9 0 3.4-1.5 3.4-3.3V36zM81.5 8.3h-68c-1.3 0-2.3-1-2.3-2.3V2.3c0-1.3 1-2.3 2.3-2.3h68c1.3 0 2.3 1 2.3 2.3V6c0 1.3-1 2.3-2.3 2.3zm-68 39a3 3 0 0 1 3 3V87h.3l5.3-8.8c.4-.6 1.1-1 2-1H71c.8 0 1.5.4 1.9 1l5.3 8.8h.3V50.3a3 3 0 0 1 6 0V90a3 3 0 0 1-3 3h-68a3 3 0 0 1-3-3V50.3a3 3 0 0 1 3-3z" fill="#FFF" fill-rule="evenodd"/></svg>